%TF.GenerationSoftware,KiCad,Pcbnew,8.0.6*%
%TF.CreationDate,2024-11-27T12:56:47-08:00*%
%TF.ProjectId,Project 3 MCUdatalogger,50726f6a-6563-4742-9033-204d43556461,1*%
%TF.SameCoordinates,Original*%
%TF.FileFunction,Legend,Top*%
%TF.FilePolarity,Positive*%
%FSLAX46Y46*%
G04 Gerber Fmt 4.6, Leading zero omitted, Abs format (unit mm)*
G04 Created by KiCad (PCBNEW 8.0.6) date 2024-11-27 12:56:47*
%MOMM*%
%LPD*%
G01*
G04 APERTURE LIST*
%ADD10C,0.100000*%
%ADD11C,0.150000*%
%ADD12C,0.120000*%
%ADD13C,0.127000*%
%ADD14C,0.200000*%
G04 APERTURE END LIST*
D10*
X82677000Y-62484000D02*
X82677000Y-62357000D01*
X82677000Y-62357000D02*
X82677000Y-58674000D01*
X77597000Y-62484000D02*
X77724000Y-62484000D01*
X82677000Y-58674000D02*
X77724000Y-58674000D01*
X77724000Y-62484000D02*
X82677000Y-62484000D01*
X77597000Y-58674000D02*
X77724000Y-58674000D01*
X77597000Y-58674000D02*
X77597000Y-62357000D01*
X77597000Y-62357000D02*
X77597000Y-62484000D01*
D11*
X81616779Y-74037819D02*
X81616779Y-73037819D01*
X82045350Y-73133057D02*
X82092969Y-73085438D01*
X82092969Y-73085438D02*
X82188207Y-73037819D01*
X82188207Y-73037819D02*
X82426302Y-73037819D01*
X82426302Y-73037819D02*
X82521540Y-73085438D01*
X82521540Y-73085438D02*
X82569159Y-73133057D01*
X82569159Y-73133057D02*
X82616778Y-73228295D01*
X82616778Y-73228295D02*
X82616778Y-73323533D01*
X82616778Y-73323533D02*
X82569159Y-73466390D01*
X82569159Y-73466390D02*
X81997731Y-74037819D01*
X81997731Y-74037819D02*
X82616778Y-74037819D01*
X83616778Y-73942580D02*
X83569159Y-73990200D01*
X83569159Y-73990200D02*
X83426302Y-74037819D01*
X83426302Y-74037819D02*
X83331064Y-74037819D01*
X83331064Y-74037819D02*
X83188207Y-73990200D01*
X83188207Y-73990200D02*
X83092969Y-73894961D01*
X83092969Y-73894961D02*
X83045350Y-73799723D01*
X83045350Y-73799723D02*
X82997731Y-73609247D01*
X82997731Y-73609247D02*
X82997731Y-73466390D01*
X82997731Y-73466390D02*
X83045350Y-73275914D01*
X83045350Y-73275914D02*
X83092969Y-73180676D01*
X83092969Y-73180676D02*
X83188207Y-73085438D01*
X83188207Y-73085438D02*
X83331064Y-73037819D01*
X83331064Y-73037819D02*
X83426302Y-73037819D01*
X83426302Y-73037819D02*
X83569159Y-73085438D01*
X83569159Y-73085438D02*
X83616778Y-73133057D01*
X54597541Y-83197819D02*
X55264207Y-83197819D01*
X55264207Y-83197819D02*
X54835636Y-84197819D01*
X64576438Y-86769411D02*
X64528819Y-86864649D01*
X64528819Y-86864649D02*
X64528819Y-87007506D01*
X64528819Y-87007506D02*
X64576438Y-87150363D01*
X64576438Y-87150363D02*
X64671676Y-87245601D01*
X64671676Y-87245601D02*
X64766914Y-87293220D01*
X64766914Y-87293220D02*
X64957390Y-87340839D01*
X64957390Y-87340839D02*
X65100247Y-87340839D01*
X65100247Y-87340839D02*
X65290723Y-87293220D01*
X65290723Y-87293220D02*
X65385961Y-87245601D01*
X65385961Y-87245601D02*
X65481200Y-87150363D01*
X65481200Y-87150363D02*
X65528819Y-87007506D01*
X65528819Y-87007506D02*
X65528819Y-86912268D01*
X65528819Y-86912268D02*
X65481200Y-86769411D01*
X65481200Y-86769411D02*
X65433580Y-86721792D01*
X65433580Y-86721792D02*
X65100247Y-86721792D01*
X65100247Y-86721792D02*
X65100247Y-86912268D01*
X65528819Y-86293220D02*
X64528819Y-86293220D01*
X64528819Y-86293220D02*
X64528819Y-85912268D01*
X64528819Y-85912268D02*
X64576438Y-85817030D01*
X64576438Y-85817030D02*
X64624057Y-85769411D01*
X64624057Y-85769411D02*
X64719295Y-85721792D01*
X64719295Y-85721792D02*
X64862152Y-85721792D01*
X64862152Y-85721792D02*
X64957390Y-85769411D01*
X64957390Y-85769411D02*
X65005009Y-85817030D01*
X65005009Y-85817030D02*
X65052628Y-85912268D01*
X65052628Y-85912268D02*
X65052628Y-86293220D01*
X65528819Y-85293220D02*
X64528819Y-85293220D01*
X64528819Y-84626554D02*
X64528819Y-84436078D01*
X64528819Y-84436078D02*
X64576438Y-84340840D01*
X64576438Y-84340840D02*
X64671676Y-84245602D01*
X64671676Y-84245602D02*
X64862152Y-84197983D01*
X64862152Y-84197983D02*
X65195485Y-84197983D01*
X65195485Y-84197983D02*
X65385961Y-84245602D01*
X65385961Y-84245602D02*
X65481200Y-84340840D01*
X65481200Y-84340840D02*
X65528819Y-84436078D01*
X65528819Y-84436078D02*
X65528819Y-84626554D01*
X65528819Y-84626554D02*
X65481200Y-84721792D01*
X65481200Y-84721792D02*
X65385961Y-84817030D01*
X65385961Y-84817030D02*
X65195485Y-84864649D01*
X65195485Y-84864649D02*
X64862152Y-84864649D01*
X64862152Y-84864649D02*
X64671676Y-84817030D01*
X64671676Y-84817030D02*
X64576438Y-84721792D01*
X64576438Y-84721792D02*
X64528819Y-84626554D01*
X42199160Y-83293057D02*
X42246779Y-83245438D01*
X42246779Y-83245438D02*
X42342017Y-83197819D01*
X42342017Y-83197819D02*
X42580112Y-83197819D01*
X42580112Y-83197819D02*
X42675350Y-83245438D01*
X42675350Y-83245438D02*
X42722969Y-83293057D01*
X42722969Y-83293057D02*
X42770588Y-83388295D01*
X42770588Y-83388295D02*
X42770588Y-83483533D01*
X42770588Y-83483533D02*
X42722969Y-83626390D01*
X42722969Y-83626390D02*
X42151541Y-84197819D01*
X42151541Y-84197819D02*
X42770588Y-84197819D01*
X44691541Y-83197819D02*
X45310588Y-83197819D01*
X45310588Y-83197819D02*
X44977255Y-83578771D01*
X44977255Y-83578771D02*
X45120112Y-83578771D01*
X45120112Y-83578771D02*
X45215350Y-83626390D01*
X45215350Y-83626390D02*
X45262969Y-83674009D01*
X45262969Y-83674009D02*
X45310588Y-83769247D01*
X45310588Y-83769247D02*
X45310588Y-84007342D01*
X45310588Y-84007342D02*
X45262969Y-84102580D01*
X45262969Y-84102580D02*
X45215350Y-84150200D01*
X45215350Y-84150200D02*
X45120112Y-84197819D01*
X45120112Y-84197819D02*
X44834398Y-84197819D01*
X44834398Y-84197819D02*
X44739160Y-84150200D01*
X44739160Y-84150200D02*
X44691541Y-84102580D01*
X69154922Y-83070819D02*
X69488255Y-84070819D01*
X69488255Y-84070819D02*
X69821588Y-83070819D01*
X70583493Y-84023200D02*
X70488255Y-84070819D01*
X70488255Y-84070819D02*
X70297779Y-84070819D01*
X70297779Y-84070819D02*
X70202541Y-84023200D01*
X70202541Y-84023200D02*
X70154922Y-83975580D01*
X70154922Y-83975580D02*
X70107303Y-83880342D01*
X70107303Y-83880342D02*
X70107303Y-83594628D01*
X70107303Y-83594628D02*
X70154922Y-83499390D01*
X70154922Y-83499390D02*
X70202541Y-83451771D01*
X70202541Y-83451771D02*
X70297779Y-83404152D01*
X70297779Y-83404152D02*
X70488255Y-83404152D01*
X70488255Y-83404152D02*
X70583493Y-83451771D01*
X71440636Y-84023200D02*
X71345398Y-84070819D01*
X71345398Y-84070819D02*
X71154922Y-84070819D01*
X71154922Y-84070819D02*
X71059684Y-84023200D01*
X71059684Y-84023200D02*
X71012065Y-83975580D01*
X71012065Y-83975580D02*
X70964446Y-83880342D01*
X70964446Y-83880342D02*
X70964446Y-83594628D01*
X70964446Y-83594628D02*
X71012065Y-83499390D01*
X71012065Y-83499390D02*
X71059684Y-83451771D01*
X71059684Y-83451771D02*
X71154922Y-83404152D01*
X71154922Y-83404152D02*
X71345398Y-83404152D01*
X71345398Y-83404152D02*
X71440636Y-83451771D01*
X78267160Y-84404200D02*
X78410017Y-84451819D01*
X78410017Y-84451819D02*
X78648112Y-84451819D01*
X78648112Y-84451819D02*
X78743350Y-84404200D01*
X78743350Y-84404200D02*
X78790969Y-84356580D01*
X78790969Y-84356580D02*
X78838588Y-84261342D01*
X78838588Y-84261342D02*
X78838588Y-84166104D01*
X78838588Y-84166104D02*
X78790969Y-84070866D01*
X78790969Y-84070866D02*
X78743350Y-84023247D01*
X78743350Y-84023247D02*
X78648112Y-83975628D01*
X78648112Y-83975628D02*
X78457636Y-83928009D01*
X78457636Y-83928009D02*
X78362398Y-83880390D01*
X78362398Y-83880390D02*
X78314779Y-83832771D01*
X78314779Y-83832771D02*
X78267160Y-83737533D01*
X78267160Y-83737533D02*
X78267160Y-83642295D01*
X78267160Y-83642295D02*
X78314779Y-83547057D01*
X78314779Y-83547057D02*
X78362398Y-83499438D01*
X78362398Y-83499438D02*
X78457636Y-83451819D01*
X78457636Y-83451819D02*
X78695731Y-83451819D01*
X78695731Y-83451819D02*
X78838588Y-83499438D01*
X79838588Y-84356580D02*
X79790969Y-84404200D01*
X79790969Y-84404200D02*
X79648112Y-84451819D01*
X79648112Y-84451819D02*
X79552874Y-84451819D01*
X79552874Y-84451819D02*
X79410017Y-84404200D01*
X79410017Y-84404200D02*
X79314779Y-84308961D01*
X79314779Y-84308961D02*
X79267160Y-84213723D01*
X79267160Y-84213723D02*
X79219541Y-84023247D01*
X79219541Y-84023247D02*
X79219541Y-83880390D01*
X79219541Y-83880390D02*
X79267160Y-83689914D01*
X79267160Y-83689914D02*
X79314779Y-83594676D01*
X79314779Y-83594676D02*
X79410017Y-83499438D01*
X79410017Y-83499438D02*
X79552874Y-83451819D01*
X79552874Y-83451819D02*
X79648112Y-83451819D01*
X79648112Y-83451819D02*
X79790969Y-83499438D01*
X79790969Y-83499438D02*
X79838588Y-83547057D01*
X80267160Y-84451819D02*
X80267160Y-83451819D01*
X80838588Y-84451819D02*
X80410017Y-83880390D01*
X80838588Y-83451819D02*
X80267160Y-84023247D01*
X72663207Y-84197819D02*
X72329874Y-83721628D01*
X72091779Y-84197819D02*
X72091779Y-83197819D01*
X72091779Y-83197819D02*
X72472731Y-83197819D01*
X72472731Y-83197819D02*
X72567969Y-83245438D01*
X72567969Y-83245438D02*
X72615588Y-83293057D01*
X72615588Y-83293057D02*
X72663207Y-83388295D01*
X72663207Y-83388295D02*
X72663207Y-83531152D01*
X72663207Y-83531152D02*
X72615588Y-83626390D01*
X72615588Y-83626390D02*
X72567969Y-83674009D01*
X72567969Y-83674009D02*
X72472731Y-83721628D01*
X72472731Y-83721628D02*
X72091779Y-83721628D01*
X72996541Y-83197819D02*
X73663207Y-84197819D01*
X73663207Y-83197819D02*
X72996541Y-84197819D01*
D10*
X79178692Y-59621693D02*
X79178692Y-59121693D01*
X79702501Y-59574074D02*
X79678692Y-59597884D01*
X79678692Y-59597884D02*
X79607263Y-59621693D01*
X79607263Y-59621693D02*
X79559644Y-59621693D01*
X79559644Y-59621693D02*
X79488216Y-59597884D01*
X79488216Y-59597884D02*
X79440597Y-59550264D01*
X79440597Y-59550264D02*
X79416787Y-59502645D01*
X79416787Y-59502645D02*
X79392978Y-59407407D01*
X79392978Y-59407407D02*
X79392978Y-59335979D01*
X79392978Y-59335979D02*
X79416787Y-59240741D01*
X79416787Y-59240741D02*
X79440597Y-59193122D01*
X79440597Y-59193122D02*
X79488216Y-59145503D01*
X79488216Y-59145503D02*
X79559644Y-59121693D01*
X79559644Y-59121693D02*
X79607263Y-59121693D01*
X79607263Y-59121693D02*
X79678692Y-59145503D01*
X79678692Y-59145503D02*
X79702501Y-59169312D01*
X79892978Y-59597884D02*
X79964406Y-59621693D01*
X79964406Y-59621693D02*
X80083454Y-59621693D01*
X80083454Y-59621693D02*
X80131073Y-59597884D01*
X80131073Y-59597884D02*
X80154882Y-59574074D01*
X80154882Y-59574074D02*
X80178692Y-59526455D01*
X80178692Y-59526455D02*
X80178692Y-59478836D01*
X80178692Y-59478836D02*
X80154882Y-59431217D01*
X80154882Y-59431217D02*
X80131073Y-59407407D01*
X80131073Y-59407407D02*
X80083454Y-59383598D01*
X80083454Y-59383598D02*
X79988216Y-59359788D01*
X79988216Y-59359788D02*
X79940597Y-59335979D01*
X79940597Y-59335979D02*
X79916787Y-59312169D01*
X79916787Y-59312169D02*
X79892978Y-59264550D01*
X79892978Y-59264550D02*
X79892978Y-59216931D01*
X79892978Y-59216931D02*
X79916787Y-59169312D01*
X79916787Y-59169312D02*
X79940597Y-59145503D01*
X79940597Y-59145503D02*
X79988216Y-59121693D01*
X79988216Y-59121693D02*
X80107263Y-59121693D01*
X80107263Y-59121693D02*
X80178692Y-59145503D01*
X80392977Y-59621693D02*
X80392977Y-59121693D01*
X80392977Y-59121693D02*
X80583453Y-59121693D01*
X80583453Y-59121693D02*
X80631072Y-59145503D01*
X80631072Y-59145503D02*
X80654882Y-59169312D01*
X80654882Y-59169312D02*
X80678691Y-59216931D01*
X80678691Y-59216931D02*
X80678691Y-59288360D01*
X80678691Y-59288360D02*
X80654882Y-59335979D01*
X80654882Y-59335979D02*
X80631072Y-59359788D01*
X80631072Y-59359788D02*
X80583453Y-59383598D01*
X80583453Y-59383598D02*
X80392977Y-59383598D01*
X78035836Y-60426665D02*
X78035836Y-59926665D01*
X78035836Y-59926665D02*
X78202503Y-60283808D01*
X78202503Y-60283808D02*
X78369169Y-59926665D01*
X78369169Y-59926665D02*
X78369169Y-60426665D01*
X78607265Y-60426665D02*
X78607265Y-59926665D01*
X78821551Y-60402856D02*
X78892979Y-60426665D01*
X78892979Y-60426665D02*
X79012027Y-60426665D01*
X79012027Y-60426665D02*
X79059646Y-60402856D01*
X79059646Y-60402856D02*
X79083455Y-60379046D01*
X79083455Y-60379046D02*
X79107265Y-60331427D01*
X79107265Y-60331427D02*
X79107265Y-60283808D01*
X79107265Y-60283808D02*
X79083455Y-60236189D01*
X79083455Y-60236189D02*
X79059646Y-60212379D01*
X79059646Y-60212379D02*
X79012027Y-60188570D01*
X79012027Y-60188570D02*
X78916789Y-60164760D01*
X78916789Y-60164760D02*
X78869170Y-60140951D01*
X78869170Y-60140951D02*
X78845360Y-60117141D01*
X78845360Y-60117141D02*
X78821551Y-60069522D01*
X78821551Y-60069522D02*
X78821551Y-60021903D01*
X78821551Y-60021903D02*
X78845360Y-59974284D01*
X78845360Y-59974284D02*
X78869170Y-59950475D01*
X78869170Y-59950475D02*
X78916789Y-59926665D01*
X78916789Y-59926665D02*
X79035836Y-59926665D01*
X79035836Y-59926665D02*
X79107265Y-59950475D01*
X79416788Y-59926665D02*
X79512026Y-59926665D01*
X79512026Y-59926665D02*
X79559645Y-59950475D01*
X79559645Y-59950475D02*
X79607264Y-59998094D01*
X79607264Y-59998094D02*
X79631074Y-60093332D01*
X79631074Y-60093332D02*
X79631074Y-60259998D01*
X79631074Y-60259998D02*
X79607264Y-60355236D01*
X79607264Y-60355236D02*
X79559645Y-60402856D01*
X79559645Y-60402856D02*
X79512026Y-60426665D01*
X79512026Y-60426665D02*
X79416788Y-60426665D01*
X79416788Y-60426665D02*
X79369169Y-60402856D01*
X79369169Y-60402856D02*
X79321550Y-60355236D01*
X79321550Y-60355236D02*
X79297741Y-60259998D01*
X79297741Y-60259998D02*
X79297741Y-60093332D01*
X79297741Y-60093332D02*
X79321550Y-59998094D01*
X79321550Y-59998094D02*
X79369169Y-59950475D01*
X79369169Y-59950475D02*
X79416788Y-59926665D01*
X80345360Y-60593332D02*
X80345360Y-59879046D01*
X80631074Y-59926665D02*
X80797740Y-60426665D01*
X80797740Y-60426665D02*
X80964407Y-59926665D01*
X81416787Y-60379046D02*
X81392978Y-60402856D01*
X81392978Y-60402856D02*
X81321549Y-60426665D01*
X81321549Y-60426665D02*
X81273930Y-60426665D01*
X81273930Y-60426665D02*
X81202502Y-60402856D01*
X81202502Y-60402856D02*
X81154883Y-60355236D01*
X81154883Y-60355236D02*
X81131073Y-60307617D01*
X81131073Y-60307617D02*
X81107264Y-60212379D01*
X81107264Y-60212379D02*
X81107264Y-60140951D01*
X81107264Y-60140951D02*
X81131073Y-60045713D01*
X81131073Y-60045713D02*
X81154883Y-59998094D01*
X81154883Y-59998094D02*
X81202502Y-59950475D01*
X81202502Y-59950475D02*
X81273930Y-59926665D01*
X81273930Y-59926665D02*
X81321549Y-59926665D01*
X81321549Y-59926665D02*
X81392978Y-59950475D01*
X81392978Y-59950475D02*
X81416787Y-59974284D01*
X81916787Y-60379046D02*
X81892978Y-60402856D01*
X81892978Y-60402856D02*
X81821549Y-60426665D01*
X81821549Y-60426665D02*
X81773930Y-60426665D01*
X81773930Y-60426665D02*
X81702502Y-60402856D01*
X81702502Y-60402856D02*
X81654883Y-60355236D01*
X81654883Y-60355236D02*
X81631073Y-60307617D01*
X81631073Y-60307617D02*
X81607264Y-60212379D01*
X81607264Y-60212379D02*
X81607264Y-60140951D01*
X81607264Y-60140951D02*
X81631073Y-60045713D01*
X81631073Y-60045713D02*
X81654883Y-59998094D01*
X81654883Y-59998094D02*
X81702502Y-59950475D01*
X81702502Y-59950475D02*
X81773930Y-59926665D01*
X81773930Y-59926665D02*
X81821549Y-59926665D01*
X81821549Y-59926665D02*
X81892978Y-59950475D01*
X81892978Y-59950475D02*
X81916787Y-59974284D01*
X78012027Y-61207828D02*
X78083455Y-61231637D01*
X78083455Y-61231637D02*
X78202503Y-61231637D01*
X78202503Y-61231637D02*
X78250122Y-61207828D01*
X78250122Y-61207828D02*
X78273931Y-61184018D01*
X78273931Y-61184018D02*
X78297741Y-61136399D01*
X78297741Y-61136399D02*
X78297741Y-61088780D01*
X78297741Y-61088780D02*
X78273931Y-61041161D01*
X78273931Y-61041161D02*
X78250122Y-61017351D01*
X78250122Y-61017351D02*
X78202503Y-60993542D01*
X78202503Y-60993542D02*
X78107265Y-60969732D01*
X78107265Y-60969732D02*
X78059646Y-60945923D01*
X78059646Y-60945923D02*
X78035836Y-60922113D01*
X78035836Y-60922113D02*
X78012027Y-60874494D01*
X78012027Y-60874494D02*
X78012027Y-60826875D01*
X78012027Y-60826875D02*
X78035836Y-60779256D01*
X78035836Y-60779256D02*
X78059646Y-60755447D01*
X78059646Y-60755447D02*
X78107265Y-60731637D01*
X78107265Y-60731637D02*
X78226312Y-60731637D01*
X78226312Y-60731637D02*
X78297741Y-60755447D01*
X78797740Y-61184018D02*
X78773931Y-61207828D01*
X78773931Y-61207828D02*
X78702502Y-61231637D01*
X78702502Y-61231637D02*
X78654883Y-61231637D01*
X78654883Y-61231637D02*
X78583455Y-61207828D01*
X78583455Y-61207828D02*
X78535836Y-61160208D01*
X78535836Y-61160208D02*
X78512026Y-61112589D01*
X78512026Y-61112589D02*
X78488217Y-61017351D01*
X78488217Y-61017351D02*
X78488217Y-60945923D01*
X78488217Y-60945923D02*
X78512026Y-60850685D01*
X78512026Y-60850685D02*
X78535836Y-60803066D01*
X78535836Y-60803066D02*
X78583455Y-60755447D01*
X78583455Y-60755447D02*
X78654883Y-60731637D01*
X78654883Y-60731637D02*
X78702502Y-60731637D01*
X78702502Y-60731637D02*
X78773931Y-60755447D01*
X78773931Y-60755447D02*
X78797740Y-60779256D01*
X79012026Y-61231637D02*
X79012026Y-60731637D01*
X79297740Y-61231637D02*
X79083455Y-60945923D01*
X79297740Y-60731637D02*
X79012026Y-61017351D01*
X80392978Y-61398304D02*
X80392978Y-60684018D01*
X80750120Y-61231637D02*
X80750120Y-60731637D01*
X80750120Y-60731637D02*
X80916787Y-61088780D01*
X80916787Y-61088780D02*
X81083453Y-60731637D01*
X81083453Y-60731637D02*
X81083453Y-61231637D01*
X81416787Y-60731637D02*
X81512025Y-60731637D01*
X81512025Y-60731637D02*
X81559644Y-60755447D01*
X81559644Y-60755447D02*
X81607263Y-60803066D01*
X81607263Y-60803066D02*
X81631073Y-60898304D01*
X81631073Y-60898304D02*
X81631073Y-61064970D01*
X81631073Y-61064970D02*
X81607263Y-61160208D01*
X81607263Y-61160208D02*
X81559644Y-61207828D01*
X81559644Y-61207828D02*
X81512025Y-61231637D01*
X81512025Y-61231637D02*
X81416787Y-61231637D01*
X81416787Y-61231637D02*
X81369168Y-61207828D01*
X81369168Y-61207828D02*
X81321549Y-61160208D01*
X81321549Y-61160208D02*
X81297740Y-61064970D01*
X81297740Y-61064970D02*
X81297740Y-60898304D01*
X81297740Y-60898304D02*
X81321549Y-60803066D01*
X81321549Y-60803066D02*
X81369168Y-60755447D01*
X81369168Y-60755447D02*
X81416787Y-60731637D01*
X81821550Y-61207828D02*
X81892978Y-61231637D01*
X81892978Y-61231637D02*
X82012026Y-61231637D01*
X82012026Y-61231637D02*
X82059645Y-61207828D01*
X82059645Y-61207828D02*
X82083454Y-61184018D01*
X82083454Y-61184018D02*
X82107264Y-61136399D01*
X82107264Y-61136399D02*
X82107264Y-61088780D01*
X82107264Y-61088780D02*
X82083454Y-61041161D01*
X82083454Y-61041161D02*
X82059645Y-61017351D01*
X82059645Y-61017351D02*
X82012026Y-60993542D01*
X82012026Y-60993542D02*
X81916788Y-60969732D01*
X81916788Y-60969732D02*
X81869169Y-60945923D01*
X81869169Y-60945923D02*
X81845359Y-60922113D01*
X81845359Y-60922113D02*
X81821550Y-60874494D01*
X81821550Y-60874494D02*
X81821550Y-60826875D01*
X81821550Y-60826875D02*
X81845359Y-60779256D01*
X81845359Y-60779256D02*
X81869169Y-60755447D01*
X81869169Y-60755447D02*
X81916788Y-60731637D01*
X81916788Y-60731637D02*
X82035835Y-60731637D01*
X82035835Y-60731637D02*
X82107264Y-60755447D01*
X82321549Y-61231637D02*
X82321549Y-60731637D01*
X78321550Y-62036609D02*
X78154884Y-61798514D01*
X78035836Y-62036609D02*
X78035836Y-61536609D01*
X78035836Y-61536609D02*
X78226312Y-61536609D01*
X78226312Y-61536609D02*
X78273931Y-61560419D01*
X78273931Y-61560419D02*
X78297741Y-61584228D01*
X78297741Y-61584228D02*
X78321550Y-61631847D01*
X78321550Y-61631847D02*
X78321550Y-61703276D01*
X78321550Y-61703276D02*
X78297741Y-61750895D01*
X78297741Y-61750895D02*
X78273931Y-61774704D01*
X78273931Y-61774704D02*
X78226312Y-61798514D01*
X78226312Y-61798514D02*
X78035836Y-61798514D01*
X78535836Y-61774704D02*
X78702503Y-61774704D01*
X78773931Y-62036609D02*
X78535836Y-62036609D01*
X78535836Y-62036609D02*
X78535836Y-61536609D01*
X78535836Y-61536609D02*
X78773931Y-61536609D01*
X78964408Y-62012800D02*
X79035836Y-62036609D01*
X79035836Y-62036609D02*
X79154884Y-62036609D01*
X79154884Y-62036609D02*
X79202503Y-62012800D01*
X79202503Y-62012800D02*
X79226312Y-61988990D01*
X79226312Y-61988990D02*
X79250122Y-61941371D01*
X79250122Y-61941371D02*
X79250122Y-61893752D01*
X79250122Y-61893752D02*
X79226312Y-61846133D01*
X79226312Y-61846133D02*
X79202503Y-61822323D01*
X79202503Y-61822323D02*
X79154884Y-61798514D01*
X79154884Y-61798514D02*
X79059646Y-61774704D01*
X79059646Y-61774704D02*
X79012027Y-61750895D01*
X79012027Y-61750895D02*
X78988217Y-61727085D01*
X78988217Y-61727085D02*
X78964408Y-61679466D01*
X78964408Y-61679466D02*
X78964408Y-61631847D01*
X78964408Y-61631847D02*
X78988217Y-61584228D01*
X78988217Y-61584228D02*
X79012027Y-61560419D01*
X79012027Y-61560419D02*
X79059646Y-61536609D01*
X79059646Y-61536609D02*
X79178693Y-61536609D01*
X79178693Y-61536609D02*
X79250122Y-61560419D01*
X79464407Y-61774704D02*
X79631074Y-61774704D01*
X79702502Y-62036609D02*
X79464407Y-62036609D01*
X79464407Y-62036609D02*
X79464407Y-61536609D01*
X79464407Y-61536609D02*
X79702502Y-61536609D01*
X79845360Y-61536609D02*
X80131074Y-61536609D01*
X79988217Y-62036609D02*
X79988217Y-61536609D01*
X80416788Y-62203276D02*
X80416788Y-61488990D01*
X81035835Y-61560419D02*
X80988216Y-61536609D01*
X80988216Y-61536609D02*
X80916787Y-61536609D01*
X80916787Y-61536609D02*
X80845359Y-61560419D01*
X80845359Y-61560419D02*
X80797740Y-61608038D01*
X80797740Y-61608038D02*
X80773930Y-61655657D01*
X80773930Y-61655657D02*
X80750121Y-61750895D01*
X80750121Y-61750895D02*
X80750121Y-61822323D01*
X80750121Y-61822323D02*
X80773930Y-61917561D01*
X80773930Y-61917561D02*
X80797740Y-61965180D01*
X80797740Y-61965180D02*
X80845359Y-62012800D01*
X80845359Y-62012800D02*
X80916787Y-62036609D01*
X80916787Y-62036609D02*
X80964406Y-62036609D01*
X80964406Y-62036609D02*
X81035835Y-62012800D01*
X81035835Y-62012800D02*
X81059644Y-61988990D01*
X81059644Y-61988990D02*
X81059644Y-61822323D01*
X81059644Y-61822323D02*
X80964406Y-61822323D01*
X81273930Y-62036609D02*
X81273930Y-61536609D01*
X81273930Y-61536609D02*
X81559644Y-62036609D01*
X81559644Y-62036609D02*
X81559644Y-61536609D01*
X81797740Y-62036609D02*
X81797740Y-61536609D01*
X81797740Y-61536609D02*
X81916788Y-61536609D01*
X81916788Y-61536609D02*
X81988216Y-61560419D01*
X81988216Y-61560419D02*
X82035835Y-61608038D01*
X82035835Y-61608038D02*
X82059645Y-61655657D01*
X82059645Y-61655657D02*
X82083454Y-61750895D01*
X82083454Y-61750895D02*
X82083454Y-61822323D01*
X82083454Y-61822323D02*
X82059645Y-61917561D01*
X82059645Y-61917561D02*
X82035835Y-61965180D01*
X82035835Y-61965180D02*
X81988216Y-62012800D01*
X81988216Y-62012800D02*
X81916788Y-62036609D01*
X81916788Y-62036609D02*
X81797740Y-62036609D01*
D11*
X76930160Y-87004200D02*
X77073017Y-87051819D01*
X77073017Y-87051819D02*
X77311112Y-87051819D01*
X77311112Y-87051819D02*
X77406350Y-87004200D01*
X77406350Y-87004200D02*
X77453969Y-86956580D01*
X77453969Y-86956580D02*
X77501588Y-86861342D01*
X77501588Y-86861342D02*
X77501588Y-86766104D01*
X77501588Y-86766104D02*
X77453969Y-86670866D01*
X77453969Y-86670866D02*
X77406350Y-86623247D01*
X77406350Y-86623247D02*
X77311112Y-86575628D01*
X77311112Y-86575628D02*
X77120636Y-86528009D01*
X77120636Y-86528009D02*
X77025398Y-86480390D01*
X77025398Y-86480390D02*
X76977779Y-86432771D01*
X76977779Y-86432771D02*
X76930160Y-86337533D01*
X76930160Y-86337533D02*
X76930160Y-86242295D01*
X76930160Y-86242295D02*
X76977779Y-86147057D01*
X76977779Y-86147057D02*
X77025398Y-86099438D01*
X77025398Y-86099438D02*
X77120636Y-86051819D01*
X77120636Y-86051819D02*
X77358731Y-86051819D01*
X77358731Y-86051819D02*
X77501588Y-86099438D01*
X77930160Y-86528009D02*
X78263493Y-86528009D01*
X78406350Y-87051819D02*
X77930160Y-87051819D01*
X77930160Y-87051819D02*
X77930160Y-86051819D01*
X77930160Y-86051819D02*
X78406350Y-86051819D01*
X79406350Y-87051819D02*
X79073017Y-86575628D01*
X78834922Y-87051819D02*
X78834922Y-86051819D01*
X78834922Y-86051819D02*
X79215874Y-86051819D01*
X79215874Y-86051819D02*
X79311112Y-86099438D01*
X79311112Y-86099438D02*
X79358731Y-86147057D01*
X79358731Y-86147057D02*
X79406350Y-86242295D01*
X79406350Y-86242295D02*
X79406350Y-86385152D01*
X79406350Y-86385152D02*
X79358731Y-86480390D01*
X79358731Y-86480390D02*
X79311112Y-86528009D01*
X79311112Y-86528009D02*
X79215874Y-86575628D01*
X79215874Y-86575628D02*
X78834922Y-86575628D01*
X79834922Y-87051819D02*
X79834922Y-86051819D01*
X80263493Y-86766104D02*
X80739683Y-86766104D01*
X80168255Y-87051819D02*
X80501588Y-86051819D01*
X80501588Y-86051819D02*
X80834921Y-87051819D01*
X81644445Y-87051819D02*
X81168255Y-87051819D01*
X81168255Y-87051819D02*
X81168255Y-86051819D01*
X78394160Y-81737200D02*
X78537017Y-81784819D01*
X78537017Y-81784819D02*
X78775112Y-81784819D01*
X78775112Y-81784819D02*
X78870350Y-81737200D01*
X78870350Y-81737200D02*
X78917969Y-81689580D01*
X78917969Y-81689580D02*
X78965588Y-81594342D01*
X78965588Y-81594342D02*
X78965588Y-81499104D01*
X78965588Y-81499104D02*
X78917969Y-81403866D01*
X78917969Y-81403866D02*
X78870350Y-81356247D01*
X78870350Y-81356247D02*
X78775112Y-81308628D01*
X78775112Y-81308628D02*
X78584636Y-81261009D01*
X78584636Y-81261009D02*
X78489398Y-81213390D01*
X78489398Y-81213390D02*
X78441779Y-81165771D01*
X78441779Y-81165771D02*
X78394160Y-81070533D01*
X78394160Y-81070533D02*
X78394160Y-80975295D01*
X78394160Y-80975295D02*
X78441779Y-80880057D01*
X78441779Y-80880057D02*
X78489398Y-80832438D01*
X78489398Y-80832438D02*
X78584636Y-80784819D01*
X78584636Y-80784819D02*
X78822731Y-80784819D01*
X78822731Y-80784819D02*
X78965588Y-80832438D01*
X79394160Y-81784819D02*
X79394160Y-80784819D01*
X79394160Y-80784819D02*
X79632255Y-80784819D01*
X79632255Y-80784819D02*
X79775112Y-80832438D01*
X79775112Y-80832438D02*
X79870350Y-80927676D01*
X79870350Y-80927676D02*
X79917969Y-81022914D01*
X79917969Y-81022914D02*
X79965588Y-81213390D01*
X79965588Y-81213390D02*
X79965588Y-81356247D01*
X79965588Y-81356247D02*
X79917969Y-81546723D01*
X79917969Y-81546723D02*
X79870350Y-81641961D01*
X79870350Y-81641961D02*
X79775112Y-81737200D01*
X79775112Y-81737200D02*
X79632255Y-81784819D01*
X79632255Y-81784819D02*
X79394160Y-81784819D01*
X80346541Y-81499104D02*
X80822731Y-81499104D01*
X80251303Y-81784819D02*
X80584636Y-80784819D01*
X80584636Y-80784819D02*
X80917969Y-81784819D01*
X74488922Y-83197819D02*
X75060350Y-83197819D01*
X74774636Y-84197819D02*
X74774636Y-83197819D01*
X75298446Y-83197819D02*
X75965112Y-84197819D01*
X75965112Y-83197819D02*
X75298446Y-84197819D01*
X50215969Y-83197819D02*
X49739779Y-83197819D01*
X49739779Y-83197819D02*
X49692160Y-83674009D01*
X49692160Y-83674009D02*
X49739779Y-83626390D01*
X49739779Y-83626390D02*
X49835017Y-83578771D01*
X49835017Y-83578771D02*
X50073112Y-83578771D01*
X50073112Y-83578771D02*
X50168350Y-83626390D01*
X50168350Y-83626390D02*
X50215969Y-83674009D01*
X50215969Y-83674009D02*
X50263588Y-83769247D01*
X50263588Y-83769247D02*
X50263588Y-84007342D01*
X50263588Y-84007342D02*
X50215969Y-84102580D01*
X50215969Y-84102580D02*
X50168350Y-84150200D01*
X50168350Y-84150200D02*
X50073112Y-84197819D01*
X50073112Y-84197819D02*
X49835017Y-84197819D01*
X49835017Y-84197819D02*
X49739779Y-84150200D01*
X49739779Y-84150200D02*
X49692160Y-84102580D01*
X52581350Y-83197819D02*
X52390874Y-83197819D01*
X52390874Y-83197819D02*
X52295636Y-83245438D01*
X52295636Y-83245438D02*
X52248017Y-83293057D01*
X52248017Y-83293057D02*
X52152779Y-83435914D01*
X52152779Y-83435914D02*
X52105160Y-83626390D01*
X52105160Y-83626390D02*
X52105160Y-84007342D01*
X52105160Y-84007342D02*
X52152779Y-84102580D01*
X52152779Y-84102580D02*
X52200398Y-84150200D01*
X52200398Y-84150200D02*
X52295636Y-84197819D01*
X52295636Y-84197819D02*
X52486112Y-84197819D01*
X52486112Y-84197819D02*
X52581350Y-84150200D01*
X52581350Y-84150200D02*
X52628969Y-84102580D01*
X52628969Y-84102580D02*
X52676588Y-84007342D01*
X52676588Y-84007342D02*
X52676588Y-83769247D01*
X52676588Y-83769247D02*
X52628969Y-83674009D01*
X52628969Y-83674009D02*
X52581350Y-83626390D01*
X52581350Y-83626390D02*
X52486112Y-83578771D01*
X52486112Y-83578771D02*
X52295636Y-83578771D01*
X52295636Y-83578771D02*
X52200398Y-83626390D01*
X52200398Y-83626390D02*
X52152779Y-83674009D01*
X52152779Y-83674009D02*
X52105160Y-83769247D01*
X61661922Y-83197819D02*
X61995255Y-84197819D01*
X61995255Y-84197819D02*
X62328588Y-83197819D01*
X63090493Y-84150200D02*
X62995255Y-84197819D01*
X62995255Y-84197819D02*
X62804779Y-84197819D01*
X62804779Y-84197819D02*
X62709541Y-84150200D01*
X62709541Y-84150200D02*
X62661922Y-84102580D01*
X62661922Y-84102580D02*
X62614303Y-84007342D01*
X62614303Y-84007342D02*
X62614303Y-83721628D01*
X62614303Y-83721628D02*
X62661922Y-83626390D01*
X62661922Y-83626390D02*
X62709541Y-83578771D01*
X62709541Y-83578771D02*
X62804779Y-83531152D01*
X62804779Y-83531152D02*
X62995255Y-83531152D01*
X62995255Y-83531152D02*
X63090493Y-83578771D01*
X63947636Y-84150200D02*
X63852398Y-84197819D01*
X63852398Y-84197819D02*
X63661922Y-84197819D01*
X63661922Y-84197819D02*
X63566684Y-84150200D01*
X63566684Y-84150200D02*
X63519065Y-84102580D01*
X63519065Y-84102580D02*
X63471446Y-84007342D01*
X63471446Y-84007342D02*
X63471446Y-83721628D01*
X63471446Y-83721628D02*
X63519065Y-83626390D01*
X63519065Y-83626390D02*
X63566684Y-83578771D01*
X63566684Y-83578771D02*
X63661922Y-83531152D01*
X63661922Y-83531152D02*
X63852398Y-83531152D01*
X63852398Y-83531152D02*
X63947636Y-83578771D01*
X80346779Y-63877819D02*
X80346779Y-62877819D01*
X81394397Y-63782580D02*
X81346778Y-63830200D01*
X81346778Y-63830200D02*
X81203921Y-63877819D01*
X81203921Y-63877819D02*
X81108683Y-63877819D01*
X81108683Y-63877819D02*
X80965826Y-63830200D01*
X80965826Y-63830200D02*
X80870588Y-63734961D01*
X80870588Y-63734961D02*
X80822969Y-63639723D01*
X80822969Y-63639723D02*
X80775350Y-63449247D01*
X80775350Y-63449247D02*
X80775350Y-63306390D01*
X80775350Y-63306390D02*
X80822969Y-63115914D01*
X80822969Y-63115914D02*
X80870588Y-63020676D01*
X80870588Y-63020676D02*
X80965826Y-62925438D01*
X80965826Y-62925438D02*
X81108683Y-62877819D01*
X81108683Y-62877819D02*
X81203921Y-62877819D01*
X81203921Y-62877819D02*
X81346778Y-62925438D01*
X81346778Y-62925438D02*
X81394397Y-62973057D01*
X81775350Y-63830200D02*
X81918207Y-63877819D01*
X81918207Y-63877819D02*
X82156302Y-63877819D01*
X82156302Y-63877819D02*
X82251540Y-63830200D01*
X82251540Y-63830200D02*
X82299159Y-63782580D01*
X82299159Y-63782580D02*
X82346778Y-63687342D01*
X82346778Y-63687342D02*
X82346778Y-63592104D01*
X82346778Y-63592104D02*
X82299159Y-63496866D01*
X82299159Y-63496866D02*
X82251540Y-63449247D01*
X82251540Y-63449247D02*
X82156302Y-63401628D01*
X82156302Y-63401628D02*
X81965826Y-63354009D01*
X81965826Y-63354009D02*
X81870588Y-63306390D01*
X81870588Y-63306390D02*
X81822969Y-63258771D01*
X81822969Y-63258771D02*
X81775350Y-63163533D01*
X81775350Y-63163533D02*
X81775350Y-63068295D01*
X81775350Y-63068295D02*
X81822969Y-62973057D01*
X81822969Y-62973057D02*
X81870588Y-62925438D01*
X81870588Y-62925438D02*
X81965826Y-62877819D01*
X81965826Y-62877819D02*
X82203921Y-62877819D01*
X82203921Y-62877819D02*
X82346778Y-62925438D01*
X82775350Y-63877819D02*
X82775350Y-62877819D01*
X82775350Y-62877819D02*
X83156302Y-62877819D01*
X83156302Y-62877819D02*
X83251540Y-62925438D01*
X83251540Y-62925438D02*
X83299159Y-62973057D01*
X83299159Y-62973057D02*
X83346778Y-63068295D01*
X83346778Y-63068295D02*
X83346778Y-63211152D01*
X83346778Y-63211152D02*
X83299159Y-63306390D01*
X83299159Y-63306390D02*
X83251540Y-63354009D01*
X83251540Y-63354009D02*
X83156302Y-63401628D01*
X83156302Y-63401628D02*
X82775350Y-63401628D01*
X57375636Y-83626390D02*
X57280398Y-83578771D01*
X57280398Y-83578771D02*
X57232779Y-83531152D01*
X57232779Y-83531152D02*
X57185160Y-83435914D01*
X57185160Y-83435914D02*
X57185160Y-83388295D01*
X57185160Y-83388295D02*
X57232779Y-83293057D01*
X57232779Y-83293057D02*
X57280398Y-83245438D01*
X57280398Y-83245438D02*
X57375636Y-83197819D01*
X57375636Y-83197819D02*
X57566112Y-83197819D01*
X57566112Y-83197819D02*
X57661350Y-83245438D01*
X57661350Y-83245438D02*
X57708969Y-83293057D01*
X57708969Y-83293057D02*
X57756588Y-83388295D01*
X57756588Y-83388295D02*
X57756588Y-83435914D01*
X57756588Y-83435914D02*
X57708969Y-83531152D01*
X57708969Y-83531152D02*
X57661350Y-83578771D01*
X57661350Y-83578771D02*
X57566112Y-83626390D01*
X57566112Y-83626390D02*
X57375636Y-83626390D01*
X57375636Y-83626390D02*
X57280398Y-83674009D01*
X57280398Y-83674009D02*
X57232779Y-83721628D01*
X57232779Y-83721628D02*
X57185160Y-83816866D01*
X57185160Y-83816866D02*
X57185160Y-84007342D01*
X57185160Y-84007342D02*
X57232779Y-84102580D01*
X57232779Y-84102580D02*
X57280398Y-84150200D01*
X57280398Y-84150200D02*
X57375636Y-84197819D01*
X57375636Y-84197819D02*
X57566112Y-84197819D01*
X57566112Y-84197819D02*
X57661350Y-84150200D01*
X57661350Y-84150200D02*
X57708969Y-84102580D01*
X57708969Y-84102580D02*
X57756588Y-84007342D01*
X57756588Y-84007342D02*
X57756588Y-83816866D01*
X57756588Y-83816866D02*
X57708969Y-83721628D01*
X57708969Y-83721628D02*
X57661350Y-83674009D01*
X57661350Y-83674009D02*
X57566112Y-83626390D01*
X78425922Y-78117819D02*
X78759255Y-79117819D01*
X78759255Y-79117819D02*
X79092588Y-78117819D01*
X79854493Y-79070200D02*
X79759255Y-79117819D01*
X79759255Y-79117819D02*
X79568779Y-79117819D01*
X79568779Y-79117819D02*
X79473541Y-79070200D01*
X79473541Y-79070200D02*
X79425922Y-79022580D01*
X79425922Y-79022580D02*
X79378303Y-78927342D01*
X79378303Y-78927342D02*
X79378303Y-78641628D01*
X79378303Y-78641628D02*
X79425922Y-78546390D01*
X79425922Y-78546390D02*
X79473541Y-78498771D01*
X79473541Y-78498771D02*
X79568779Y-78451152D01*
X79568779Y-78451152D02*
X79759255Y-78451152D01*
X79759255Y-78451152D02*
X79854493Y-78498771D01*
X80711636Y-79070200D02*
X80616398Y-79117819D01*
X80616398Y-79117819D02*
X80425922Y-79117819D01*
X80425922Y-79117819D02*
X80330684Y-79070200D01*
X80330684Y-79070200D02*
X80283065Y-79022580D01*
X80283065Y-79022580D02*
X80235446Y-78927342D01*
X80235446Y-78927342D02*
X80235446Y-78641628D01*
X80235446Y-78641628D02*
X80283065Y-78546390D01*
X80283065Y-78546390D02*
X80330684Y-78498771D01*
X80330684Y-78498771D02*
X80425922Y-78451152D01*
X80425922Y-78451152D02*
X80616398Y-78451152D01*
X80616398Y-78451152D02*
X80711636Y-78498771D01*
X59280588Y-83245438D02*
X59185350Y-83197819D01*
X59185350Y-83197819D02*
X59042493Y-83197819D01*
X59042493Y-83197819D02*
X58899636Y-83245438D01*
X58899636Y-83245438D02*
X58804398Y-83340676D01*
X58804398Y-83340676D02*
X58756779Y-83435914D01*
X58756779Y-83435914D02*
X58709160Y-83626390D01*
X58709160Y-83626390D02*
X58709160Y-83769247D01*
X58709160Y-83769247D02*
X58756779Y-83959723D01*
X58756779Y-83959723D02*
X58804398Y-84054961D01*
X58804398Y-84054961D02*
X58899636Y-84150200D01*
X58899636Y-84150200D02*
X59042493Y-84197819D01*
X59042493Y-84197819D02*
X59137731Y-84197819D01*
X59137731Y-84197819D02*
X59280588Y-84150200D01*
X59280588Y-84150200D02*
X59328207Y-84102580D01*
X59328207Y-84102580D02*
X59328207Y-83769247D01*
X59328207Y-83769247D02*
X59137731Y-83769247D01*
X59756779Y-84197819D02*
X59756779Y-83197819D01*
X59756779Y-83197819D02*
X60328207Y-84197819D01*
X60328207Y-84197819D02*
X60328207Y-83197819D01*
X60804398Y-84197819D02*
X60804398Y-83197819D01*
X60804398Y-83197819D02*
X61042493Y-83197819D01*
X61042493Y-83197819D02*
X61185350Y-83245438D01*
X61185350Y-83245438D02*
X61280588Y-83340676D01*
X61280588Y-83340676D02*
X61328207Y-83435914D01*
X61328207Y-83435914D02*
X61375826Y-83626390D01*
X61375826Y-83626390D02*
X61375826Y-83769247D01*
X61375826Y-83769247D02*
X61328207Y-83959723D01*
X61328207Y-83959723D02*
X61280588Y-84054961D01*
X61280588Y-84054961D02*
X61185350Y-84150200D01*
X61185350Y-84150200D02*
X61042493Y-84197819D01*
X61042493Y-84197819D02*
X60804398Y-84197819D01*
X78711588Y-75625438D02*
X78616350Y-75577819D01*
X78616350Y-75577819D02*
X78473493Y-75577819D01*
X78473493Y-75577819D02*
X78330636Y-75625438D01*
X78330636Y-75625438D02*
X78235398Y-75720676D01*
X78235398Y-75720676D02*
X78187779Y-75815914D01*
X78187779Y-75815914D02*
X78140160Y-76006390D01*
X78140160Y-76006390D02*
X78140160Y-76149247D01*
X78140160Y-76149247D02*
X78187779Y-76339723D01*
X78187779Y-76339723D02*
X78235398Y-76434961D01*
X78235398Y-76434961D02*
X78330636Y-76530200D01*
X78330636Y-76530200D02*
X78473493Y-76577819D01*
X78473493Y-76577819D02*
X78568731Y-76577819D01*
X78568731Y-76577819D02*
X78711588Y-76530200D01*
X78711588Y-76530200D02*
X78759207Y-76482580D01*
X78759207Y-76482580D02*
X78759207Y-76149247D01*
X78759207Y-76149247D02*
X78568731Y-76149247D01*
X79187779Y-76577819D02*
X79187779Y-75577819D01*
X79187779Y-75577819D02*
X79759207Y-76577819D01*
X79759207Y-76577819D02*
X79759207Y-75577819D01*
X80235398Y-76577819D02*
X80235398Y-75577819D01*
X80235398Y-75577819D02*
X80473493Y-75577819D01*
X80473493Y-75577819D02*
X80616350Y-75625438D01*
X80616350Y-75625438D02*
X80711588Y-75720676D01*
X80711588Y-75720676D02*
X80759207Y-75815914D01*
X80759207Y-75815914D02*
X80806826Y-76006390D01*
X80806826Y-76006390D02*
X80806826Y-76149247D01*
X80806826Y-76149247D02*
X80759207Y-76339723D01*
X80759207Y-76339723D02*
X80711588Y-76434961D01*
X80711588Y-76434961D02*
X80616350Y-76530200D01*
X80616350Y-76530200D02*
X80473493Y-76577819D01*
X80473493Y-76577819D02*
X80235398Y-76577819D01*
X66900588Y-83245438D02*
X66805350Y-83197819D01*
X66805350Y-83197819D02*
X66662493Y-83197819D01*
X66662493Y-83197819D02*
X66519636Y-83245438D01*
X66519636Y-83245438D02*
X66424398Y-83340676D01*
X66424398Y-83340676D02*
X66376779Y-83435914D01*
X66376779Y-83435914D02*
X66329160Y-83626390D01*
X66329160Y-83626390D02*
X66329160Y-83769247D01*
X66329160Y-83769247D02*
X66376779Y-83959723D01*
X66376779Y-83959723D02*
X66424398Y-84054961D01*
X66424398Y-84054961D02*
X66519636Y-84150200D01*
X66519636Y-84150200D02*
X66662493Y-84197819D01*
X66662493Y-84197819D02*
X66757731Y-84197819D01*
X66757731Y-84197819D02*
X66900588Y-84150200D01*
X66900588Y-84150200D02*
X66948207Y-84102580D01*
X66948207Y-84102580D02*
X66948207Y-83769247D01*
X66948207Y-83769247D02*
X66757731Y-83769247D01*
X67376779Y-84197819D02*
X67376779Y-83197819D01*
X67376779Y-83197819D02*
X67948207Y-84197819D01*
X67948207Y-84197819D02*
X67948207Y-83197819D01*
X68424398Y-84197819D02*
X68424398Y-83197819D01*
X68424398Y-83197819D02*
X68662493Y-83197819D01*
X68662493Y-83197819D02*
X68805350Y-83245438D01*
X68805350Y-83245438D02*
X68900588Y-83340676D01*
X68900588Y-83340676D02*
X68948207Y-83435914D01*
X68948207Y-83435914D02*
X68995826Y-83626390D01*
X68995826Y-83626390D02*
X68995826Y-83769247D01*
X68995826Y-83769247D02*
X68948207Y-83959723D01*
X68948207Y-83959723D02*
X68900588Y-84054961D01*
X68900588Y-84054961D02*
X68805350Y-84150200D01*
X68805350Y-84150200D02*
X68662493Y-84197819D01*
X68662493Y-84197819D02*
X68424398Y-84197819D01*
X47755350Y-83531152D02*
X47755350Y-84197819D01*
X47517255Y-83150200D02*
X47279160Y-83864485D01*
X47279160Y-83864485D02*
X47898207Y-83864485D01*
D10*
X74415667Y-65515895D02*
X74149000Y-65134942D01*
X73958524Y-65515895D02*
X73958524Y-64715895D01*
X73958524Y-64715895D02*
X74263286Y-64715895D01*
X74263286Y-64715895D02*
X74339476Y-64753990D01*
X74339476Y-64753990D02*
X74377571Y-64792085D01*
X74377571Y-64792085D02*
X74415667Y-64868276D01*
X74415667Y-64868276D02*
X74415667Y-64982561D01*
X74415667Y-64982561D02*
X74377571Y-65058752D01*
X74377571Y-65058752D02*
X74339476Y-65096847D01*
X74339476Y-65096847D02*
X74263286Y-65134942D01*
X74263286Y-65134942D02*
X73958524Y-65134942D01*
X75139476Y-64715895D02*
X74758524Y-64715895D01*
X74758524Y-64715895D02*
X74720428Y-65096847D01*
X74720428Y-65096847D02*
X74758524Y-65058752D01*
X74758524Y-65058752D02*
X74834714Y-65020657D01*
X74834714Y-65020657D02*
X75025190Y-65020657D01*
X75025190Y-65020657D02*
X75101381Y-65058752D01*
X75101381Y-65058752D02*
X75139476Y-65096847D01*
X75139476Y-65096847D02*
X75177571Y-65173038D01*
X75177571Y-65173038D02*
X75177571Y-65363514D01*
X75177571Y-65363514D02*
X75139476Y-65439704D01*
X75139476Y-65439704D02*
X75101381Y-65477800D01*
X75101381Y-65477800D02*
X75025190Y-65515895D01*
X75025190Y-65515895D02*
X74834714Y-65515895D01*
X74834714Y-65515895D02*
X74758524Y-65477800D01*
X74758524Y-65477800D02*
X74720428Y-65439704D01*
X75552428Y-64715895D02*
X76047666Y-64715895D01*
X76047666Y-64715895D02*
X75781000Y-65020657D01*
X75781000Y-65020657D02*
X75895285Y-65020657D01*
X75895285Y-65020657D02*
X75971476Y-65058752D01*
X75971476Y-65058752D02*
X76009571Y-65096847D01*
X76009571Y-65096847D02*
X76047666Y-65173038D01*
X76047666Y-65173038D02*
X76047666Y-65363514D01*
X76047666Y-65363514D02*
X76009571Y-65439704D01*
X76009571Y-65439704D02*
X75971476Y-65477800D01*
X75971476Y-65477800D02*
X75895285Y-65515895D01*
X75895285Y-65515895D02*
X75666714Y-65515895D01*
X75666714Y-65515895D02*
X75590523Y-65477800D01*
X75590523Y-65477800D02*
X75552428Y-65439704D01*
X76314333Y-64715895D02*
X76809571Y-64715895D01*
X76809571Y-64715895D02*
X76542905Y-65020657D01*
X76542905Y-65020657D02*
X76657190Y-65020657D01*
X76657190Y-65020657D02*
X76733381Y-65058752D01*
X76733381Y-65058752D02*
X76771476Y-65096847D01*
X76771476Y-65096847D02*
X76809571Y-65173038D01*
X76809571Y-65173038D02*
X76809571Y-65363514D01*
X76809571Y-65363514D02*
X76771476Y-65439704D01*
X76771476Y-65439704D02*
X76733381Y-65477800D01*
X76733381Y-65477800D02*
X76657190Y-65515895D01*
X76657190Y-65515895D02*
X76428619Y-65515895D01*
X76428619Y-65515895D02*
X76352428Y-65477800D01*
X76352428Y-65477800D02*
X76314333Y-65439704D01*
X77304810Y-64715895D02*
X77381000Y-64715895D01*
X77381000Y-64715895D02*
X77457191Y-64753990D01*
X77457191Y-64753990D02*
X77495286Y-64792085D01*
X77495286Y-64792085D02*
X77533381Y-64868276D01*
X77533381Y-64868276D02*
X77571476Y-65020657D01*
X77571476Y-65020657D02*
X77571476Y-65211133D01*
X77571476Y-65211133D02*
X77533381Y-65363514D01*
X77533381Y-65363514D02*
X77495286Y-65439704D01*
X77495286Y-65439704D02*
X77457191Y-65477800D01*
X77457191Y-65477800D02*
X77381000Y-65515895D01*
X77381000Y-65515895D02*
X77304810Y-65515895D01*
X77304810Y-65515895D02*
X77228619Y-65477800D01*
X77228619Y-65477800D02*
X77190524Y-65439704D01*
X77190524Y-65439704D02*
X77152429Y-65363514D01*
X77152429Y-65363514D02*
X77114333Y-65211133D01*
X77114333Y-65211133D02*
X77114333Y-65020657D01*
X77114333Y-65020657D02*
X77152429Y-64868276D01*
X77152429Y-64868276D02*
X77190524Y-64792085D01*
X77190524Y-64792085D02*
X77228619Y-64753990D01*
X77228619Y-64753990D02*
X77304810Y-64715895D01*
X45872476Y-72589895D02*
X45872476Y-73237514D01*
X45872476Y-73237514D02*
X45910571Y-73313704D01*
X45910571Y-73313704D02*
X45948666Y-73351800D01*
X45948666Y-73351800D02*
X46024857Y-73389895D01*
X46024857Y-73389895D02*
X46177238Y-73389895D01*
X46177238Y-73389895D02*
X46253428Y-73351800D01*
X46253428Y-73351800D02*
X46291523Y-73313704D01*
X46291523Y-73313704D02*
X46329619Y-73237514D01*
X46329619Y-73237514D02*
X46329619Y-72589895D01*
X46672475Y-72666085D02*
X46710571Y-72627990D01*
X46710571Y-72627990D02*
X46786761Y-72589895D01*
X46786761Y-72589895D02*
X46977237Y-72589895D01*
X46977237Y-72589895D02*
X47053428Y-72627990D01*
X47053428Y-72627990D02*
X47091523Y-72666085D01*
X47091523Y-72666085D02*
X47129618Y-72742276D01*
X47129618Y-72742276D02*
X47129618Y-72818466D01*
X47129618Y-72818466D02*
X47091523Y-72932752D01*
X47091523Y-72932752D02*
X46634380Y-73389895D01*
X46634380Y-73389895D02*
X47129618Y-73389895D01*
X45449895Y-80397000D02*
X44649895Y-80397000D01*
X44649895Y-80397000D02*
X44649895Y-80206524D01*
X44649895Y-80206524D02*
X44687990Y-80092238D01*
X44687990Y-80092238D02*
X44764180Y-80016048D01*
X44764180Y-80016048D02*
X44840371Y-79977953D01*
X44840371Y-79977953D02*
X44992752Y-79939857D01*
X44992752Y-79939857D02*
X45107038Y-79939857D01*
X45107038Y-79939857D02*
X45259419Y-79977953D01*
X45259419Y-79977953D02*
X45335609Y-80016048D01*
X45335609Y-80016048D02*
X45411800Y-80092238D01*
X45411800Y-80092238D02*
X45449895Y-80206524D01*
X45449895Y-80206524D02*
X45449895Y-80397000D01*
X45411800Y-79635096D02*
X45449895Y-79520810D01*
X45449895Y-79520810D02*
X45449895Y-79330334D01*
X45449895Y-79330334D02*
X45411800Y-79254143D01*
X45411800Y-79254143D02*
X45373704Y-79216048D01*
X45373704Y-79216048D02*
X45297514Y-79177953D01*
X45297514Y-79177953D02*
X45221323Y-79177953D01*
X45221323Y-79177953D02*
X45145133Y-79216048D01*
X45145133Y-79216048D02*
X45107038Y-79254143D01*
X45107038Y-79254143D02*
X45068942Y-79330334D01*
X45068942Y-79330334D02*
X45030847Y-79482715D01*
X45030847Y-79482715D02*
X44992752Y-79558905D01*
X44992752Y-79558905D02*
X44954657Y-79597000D01*
X44954657Y-79597000D02*
X44878466Y-79635096D01*
X44878466Y-79635096D02*
X44802276Y-79635096D01*
X44802276Y-79635096D02*
X44726085Y-79597000D01*
X44726085Y-79597000D02*
X44687990Y-79558905D01*
X44687990Y-79558905D02*
X44649895Y-79482715D01*
X44649895Y-79482715D02*
X44649895Y-79292238D01*
X44649895Y-79292238D02*
X44687990Y-79177953D01*
X45449895Y-78416048D02*
X45449895Y-78873191D01*
X45449895Y-78644619D02*
X44649895Y-78644619D01*
X44649895Y-78644619D02*
X44764180Y-78720810D01*
X44764180Y-78720810D02*
X44840371Y-78797000D01*
X44840371Y-78797000D02*
X44878466Y-78873191D01*
X44649895Y-78149381D02*
X44649895Y-77654143D01*
X44649895Y-77654143D02*
X44954657Y-77920809D01*
X44954657Y-77920809D02*
X44954657Y-77806524D01*
X44954657Y-77806524D02*
X44992752Y-77730333D01*
X44992752Y-77730333D02*
X45030847Y-77692238D01*
X45030847Y-77692238D02*
X45107038Y-77654143D01*
X45107038Y-77654143D02*
X45297514Y-77654143D01*
X45297514Y-77654143D02*
X45373704Y-77692238D01*
X45373704Y-77692238D02*
X45411800Y-77730333D01*
X45411800Y-77730333D02*
X45449895Y-77806524D01*
X45449895Y-77806524D02*
X45449895Y-78035095D01*
X45449895Y-78035095D02*
X45411800Y-78111286D01*
X45411800Y-78111286D02*
X45373704Y-78149381D01*
X44649895Y-77387476D02*
X44649895Y-76892238D01*
X44649895Y-76892238D02*
X44954657Y-77158904D01*
X44954657Y-77158904D02*
X44954657Y-77044619D01*
X44954657Y-77044619D02*
X44992752Y-76968428D01*
X44992752Y-76968428D02*
X45030847Y-76930333D01*
X45030847Y-76930333D02*
X45107038Y-76892238D01*
X45107038Y-76892238D02*
X45297514Y-76892238D01*
X45297514Y-76892238D02*
X45373704Y-76930333D01*
X45373704Y-76930333D02*
X45411800Y-76968428D01*
X45411800Y-76968428D02*
X45449895Y-77044619D01*
X45449895Y-77044619D02*
X45449895Y-77273190D01*
X45449895Y-77273190D02*
X45411800Y-77349381D01*
X45411800Y-77349381D02*
X45373704Y-77387476D01*
X44649895Y-76625571D02*
X44649895Y-76092237D01*
X44649895Y-76092237D02*
X45449895Y-76435095D01*
X45411800Y-75825571D02*
X45449895Y-75711285D01*
X45449895Y-75711285D02*
X45449895Y-75520809D01*
X45449895Y-75520809D02*
X45411800Y-75444618D01*
X45411800Y-75444618D02*
X45373704Y-75406523D01*
X45373704Y-75406523D02*
X45297514Y-75368428D01*
X45297514Y-75368428D02*
X45221323Y-75368428D01*
X45221323Y-75368428D02*
X45145133Y-75406523D01*
X45145133Y-75406523D02*
X45107038Y-75444618D01*
X45107038Y-75444618D02*
X45068942Y-75520809D01*
X45068942Y-75520809D02*
X45030847Y-75673190D01*
X45030847Y-75673190D02*
X44992752Y-75749380D01*
X44992752Y-75749380D02*
X44954657Y-75787475D01*
X44954657Y-75787475D02*
X44878466Y-75825571D01*
X44878466Y-75825571D02*
X44802276Y-75825571D01*
X44802276Y-75825571D02*
X44726085Y-75787475D01*
X44726085Y-75787475D02*
X44687990Y-75749380D01*
X44687990Y-75749380D02*
X44649895Y-75673190D01*
X44649895Y-75673190D02*
X44649895Y-75482713D01*
X44649895Y-75482713D02*
X44687990Y-75368428D01*
X45526085Y-75216047D02*
X45526085Y-74606523D01*
X38735048Y-70214942D02*
X38735048Y-70595895D01*
X38468381Y-69795895D02*
X38735048Y-70214942D01*
X38735048Y-70214942D02*
X39001714Y-69795895D01*
X39687428Y-70595895D02*
X39230285Y-70595895D01*
X39458857Y-70595895D02*
X39458857Y-69795895D01*
X39458857Y-69795895D02*
X39382666Y-69910180D01*
X39382666Y-69910180D02*
X39306476Y-69986371D01*
X39306476Y-69986371D02*
X39230285Y-70024466D01*
X42744895Y-79120571D02*
X42744895Y-78625333D01*
X42744895Y-78625333D02*
X43049657Y-78891999D01*
X43049657Y-78891999D02*
X43049657Y-78777714D01*
X43049657Y-78777714D02*
X43087752Y-78701523D01*
X43087752Y-78701523D02*
X43125847Y-78663428D01*
X43125847Y-78663428D02*
X43202038Y-78625333D01*
X43202038Y-78625333D02*
X43392514Y-78625333D01*
X43392514Y-78625333D02*
X43468704Y-78663428D01*
X43468704Y-78663428D02*
X43506800Y-78701523D01*
X43506800Y-78701523D02*
X43544895Y-78777714D01*
X43544895Y-78777714D02*
X43544895Y-79006285D01*
X43544895Y-79006285D02*
X43506800Y-79082476D01*
X43506800Y-79082476D02*
X43468704Y-79120571D01*
X42821085Y-78320571D02*
X42782990Y-78282475D01*
X42782990Y-78282475D02*
X42744895Y-78206285D01*
X42744895Y-78206285D02*
X42744895Y-78015809D01*
X42744895Y-78015809D02*
X42782990Y-77939618D01*
X42782990Y-77939618D02*
X42821085Y-77901523D01*
X42821085Y-77901523D02*
X42897276Y-77863428D01*
X42897276Y-77863428D02*
X42973466Y-77863428D01*
X42973466Y-77863428D02*
X43087752Y-77901523D01*
X43087752Y-77901523D02*
X43544895Y-78358666D01*
X43544895Y-78358666D02*
X43544895Y-77863428D01*
X43468704Y-77520570D02*
X43506800Y-77482475D01*
X43506800Y-77482475D02*
X43544895Y-77520570D01*
X43544895Y-77520570D02*
X43506800Y-77558666D01*
X43506800Y-77558666D02*
X43468704Y-77520570D01*
X43468704Y-77520570D02*
X43544895Y-77520570D01*
X42744895Y-77215809D02*
X42744895Y-76682475D01*
X42744895Y-76682475D02*
X43544895Y-77025333D01*
X42744895Y-76034856D02*
X42744895Y-76187237D01*
X42744895Y-76187237D02*
X42782990Y-76263428D01*
X42782990Y-76263428D02*
X42821085Y-76301523D01*
X42821085Y-76301523D02*
X42935371Y-76377713D01*
X42935371Y-76377713D02*
X43087752Y-76415809D01*
X43087752Y-76415809D02*
X43392514Y-76415809D01*
X43392514Y-76415809D02*
X43468704Y-76377713D01*
X43468704Y-76377713D02*
X43506800Y-76339618D01*
X43506800Y-76339618D02*
X43544895Y-76263428D01*
X43544895Y-76263428D02*
X43544895Y-76111047D01*
X43544895Y-76111047D02*
X43506800Y-76034856D01*
X43506800Y-76034856D02*
X43468704Y-75996761D01*
X43468704Y-75996761D02*
X43392514Y-75958666D01*
X43392514Y-75958666D02*
X43202038Y-75958666D01*
X43202038Y-75958666D02*
X43125847Y-75996761D01*
X43125847Y-75996761D02*
X43087752Y-76034856D01*
X43087752Y-76034856D02*
X43049657Y-76111047D01*
X43049657Y-76111047D02*
X43049657Y-76263428D01*
X43049657Y-76263428D02*
X43087752Y-76339618D01*
X43087752Y-76339618D02*
X43125847Y-76377713D01*
X43125847Y-76377713D02*
X43202038Y-76415809D01*
X43087752Y-75501523D02*
X43049657Y-75577713D01*
X43049657Y-75577713D02*
X43011561Y-75615808D01*
X43011561Y-75615808D02*
X42935371Y-75653904D01*
X42935371Y-75653904D02*
X42897276Y-75653904D01*
X42897276Y-75653904D02*
X42821085Y-75615808D01*
X42821085Y-75615808D02*
X42782990Y-75577713D01*
X42782990Y-75577713D02*
X42744895Y-75501523D01*
X42744895Y-75501523D02*
X42744895Y-75349142D01*
X42744895Y-75349142D02*
X42782990Y-75272951D01*
X42782990Y-75272951D02*
X42821085Y-75234856D01*
X42821085Y-75234856D02*
X42897276Y-75196761D01*
X42897276Y-75196761D02*
X42935371Y-75196761D01*
X42935371Y-75196761D02*
X43011561Y-75234856D01*
X43011561Y-75234856D02*
X43049657Y-75272951D01*
X43049657Y-75272951D02*
X43087752Y-75349142D01*
X43087752Y-75349142D02*
X43087752Y-75501523D01*
X43087752Y-75501523D02*
X43125847Y-75577713D01*
X43125847Y-75577713D02*
X43163942Y-75615808D01*
X43163942Y-75615808D02*
X43240133Y-75653904D01*
X43240133Y-75653904D02*
X43392514Y-75653904D01*
X43392514Y-75653904D02*
X43468704Y-75615808D01*
X43468704Y-75615808D02*
X43506800Y-75577713D01*
X43506800Y-75577713D02*
X43544895Y-75501523D01*
X43544895Y-75501523D02*
X43544895Y-75349142D01*
X43544895Y-75349142D02*
X43506800Y-75272951D01*
X43506800Y-75272951D02*
X43468704Y-75234856D01*
X43468704Y-75234856D02*
X43392514Y-75196761D01*
X43392514Y-75196761D02*
X43240133Y-75196761D01*
X43240133Y-75196761D02*
X43163942Y-75234856D01*
X43163942Y-75234856D02*
X43125847Y-75272951D01*
X43125847Y-75272951D02*
X43087752Y-75349142D01*
X43544895Y-74244379D02*
X42744895Y-74244379D01*
X43544895Y-73787236D02*
X43087752Y-74130094D01*
X42744895Y-73787236D02*
X43202038Y-74244379D01*
X43544895Y-73444379D02*
X42744895Y-73444379D01*
X43125847Y-73444379D02*
X43125847Y-72987236D01*
X43544895Y-72987236D02*
X42744895Y-72987236D01*
X43011561Y-72682475D02*
X43011561Y-72263427D01*
X43011561Y-72263427D02*
X43544895Y-72682475D01*
X43544895Y-72682475D02*
X43544895Y-72263427D01*
X51047667Y-82914895D02*
X50781000Y-82533942D01*
X50590524Y-82914895D02*
X50590524Y-82114895D01*
X50590524Y-82114895D02*
X50895286Y-82114895D01*
X50895286Y-82114895D02*
X50971476Y-82152990D01*
X50971476Y-82152990D02*
X51009571Y-82191085D01*
X51009571Y-82191085D02*
X51047667Y-82267276D01*
X51047667Y-82267276D02*
X51047667Y-82381561D01*
X51047667Y-82381561D02*
X51009571Y-82457752D01*
X51009571Y-82457752D02*
X50971476Y-82495847D01*
X50971476Y-82495847D02*
X50895286Y-82533942D01*
X50895286Y-82533942D02*
X50590524Y-82533942D01*
X51352428Y-82191085D02*
X51390524Y-82152990D01*
X51390524Y-82152990D02*
X51466714Y-82114895D01*
X51466714Y-82114895D02*
X51657190Y-82114895D01*
X51657190Y-82114895D02*
X51733381Y-82152990D01*
X51733381Y-82152990D02*
X51771476Y-82191085D01*
X51771476Y-82191085D02*
X51809571Y-82267276D01*
X51809571Y-82267276D02*
X51809571Y-82343466D01*
X51809571Y-82343466D02*
X51771476Y-82457752D01*
X51771476Y-82457752D02*
X51314333Y-82914895D01*
X51314333Y-82914895D02*
X51809571Y-82914895D01*
X53041618Y-82914895D02*
X52584475Y-82914895D01*
X52813047Y-82914895D02*
X52813047Y-82114895D01*
X52813047Y-82114895D02*
X52736856Y-82229180D01*
X52736856Y-82229180D02*
X52660666Y-82305371D01*
X52660666Y-82305371D02*
X52584475Y-82343466D01*
X53536857Y-82114895D02*
X53613047Y-82114895D01*
X53613047Y-82114895D02*
X53689238Y-82152990D01*
X53689238Y-82152990D02*
X53727333Y-82191085D01*
X53727333Y-82191085D02*
X53765428Y-82267276D01*
X53765428Y-82267276D02*
X53803523Y-82419657D01*
X53803523Y-82419657D02*
X53803523Y-82610133D01*
X53803523Y-82610133D02*
X53765428Y-82762514D01*
X53765428Y-82762514D02*
X53727333Y-82838704D01*
X53727333Y-82838704D02*
X53689238Y-82876800D01*
X53689238Y-82876800D02*
X53613047Y-82914895D01*
X53613047Y-82914895D02*
X53536857Y-82914895D01*
X53536857Y-82914895D02*
X53460666Y-82876800D01*
X53460666Y-82876800D02*
X53422571Y-82838704D01*
X53422571Y-82838704D02*
X53384476Y-82762514D01*
X53384476Y-82762514D02*
X53346380Y-82610133D01*
X53346380Y-82610133D02*
X53346380Y-82419657D01*
X53346380Y-82419657D02*
X53384476Y-82267276D01*
X53384476Y-82267276D02*
X53422571Y-82191085D01*
X53422571Y-82191085D02*
X53460666Y-82152990D01*
X53460666Y-82152990D02*
X53536857Y-82114895D01*
X54146381Y-82914895D02*
X54146381Y-82114895D01*
X54603524Y-82914895D02*
X54260666Y-82457752D01*
X54603524Y-82114895D02*
X54146381Y-82572038D01*
X45840667Y-82660895D02*
X45574000Y-82279942D01*
X45383524Y-82660895D02*
X45383524Y-81860895D01*
X45383524Y-81860895D02*
X45688286Y-81860895D01*
X45688286Y-81860895D02*
X45764476Y-81898990D01*
X45764476Y-81898990D02*
X45802571Y-81937085D01*
X45802571Y-81937085D02*
X45840667Y-82013276D01*
X45840667Y-82013276D02*
X45840667Y-82127561D01*
X45840667Y-82127561D02*
X45802571Y-82203752D01*
X45802571Y-82203752D02*
X45764476Y-82241847D01*
X45764476Y-82241847D02*
X45688286Y-82279942D01*
X45688286Y-82279942D02*
X45383524Y-82279942D01*
X46602571Y-82660895D02*
X46145428Y-82660895D01*
X46374000Y-82660895D02*
X46374000Y-81860895D01*
X46374000Y-81860895D02*
X46297809Y-81975180D01*
X46297809Y-81975180D02*
X46221619Y-82051371D01*
X46221619Y-82051371D02*
X46145428Y-82089466D01*
X47707618Y-82660895D02*
X47250475Y-82660895D01*
X47479047Y-82660895D02*
X47479047Y-81860895D01*
X47479047Y-81860895D02*
X47402856Y-81975180D01*
X47402856Y-81975180D02*
X47326666Y-82051371D01*
X47326666Y-82051371D02*
X47250475Y-82089466D01*
X48202857Y-81860895D02*
X48279047Y-81860895D01*
X48279047Y-81860895D02*
X48355238Y-81898990D01*
X48355238Y-81898990D02*
X48393333Y-81937085D01*
X48393333Y-81937085D02*
X48431428Y-82013276D01*
X48431428Y-82013276D02*
X48469523Y-82165657D01*
X48469523Y-82165657D02*
X48469523Y-82356133D01*
X48469523Y-82356133D02*
X48431428Y-82508514D01*
X48431428Y-82508514D02*
X48393333Y-82584704D01*
X48393333Y-82584704D02*
X48355238Y-82622800D01*
X48355238Y-82622800D02*
X48279047Y-82660895D01*
X48279047Y-82660895D02*
X48202857Y-82660895D01*
X48202857Y-82660895D02*
X48126666Y-82622800D01*
X48126666Y-82622800D02*
X48088571Y-82584704D01*
X48088571Y-82584704D02*
X48050476Y-82508514D01*
X48050476Y-82508514D02*
X48012380Y-82356133D01*
X48012380Y-82356133D02*
X48012380Y-82165657D01*
X48012380Y-82165657D02*
X48050476Y-82013276D01*
X48050476Y-82013276D02*
X48088571Y-81937085D01*
X48088571Y-81937085D02*
X48126666Y-81898990D01*
X48126666Y-81898990D02*
X48202857Y-81860895D01*
X48812381Y-82660895D02*
X48812381Y-81860895D01*
X49269524Y-82660895D02*
X48926666Y-82203752D01*
X49269524Y-81860895D02*
X48812381Y-82318038D01*
X78473333Y-62810895D02*
X78473333Y-63382323D01*
X78473333Y-63382323D02*
X78435238Y-63496609D01*
X78435238Y-63496609D02*
X78359047Y-63572800D01*
X78359047Y-63572800D02*
X78244762Y-63610895D01*
X78244762Y-63610895D02*
X78168571Y-63610895D01*
X79197143Y-63077561D02*
X79197143Y-63610895D01*
X79006667Y-62772800D02*
X78816190Y-63344228D01*
X78816190Y-63344228D02*
X79311429Y-63344228D01*
X66861667Y-61502704D02*
X66823571Y-61540800D01*
X66823571Y-61540800D02*
X66709286Y-61578895D01*
X66709286Y-61578895D02*
X66633095Y-61578895D01*
X66633095Y-61578895D02*
X66518809Y-61540800D01*
X66518809Y-61540800D02*
X66442619Y-61464609D01*
X66442619Y-61464609D02*
X66404524Y-61388419D01*
X66404524Y-61388419D02*
X66366428Y-61236038D01*
X66366428Y-61236038D02*
X66366428Y-61121752D01*
X66366428Y-61121752D02*
X66404524Y-60969371D01*
X66404524Y-60969371D02*
X66442619Y-60893180D01*
X66442619Y-60893180D02*
X66518809Y-60816990D01*
X66518809Y-60816990D02*
X66633095Y-60778895D01*
X66633095Y-60778895D02*
X66709286Y-60778895D01*
X66709286Y-60778895D02*
X66823571Y-60816990D01*
X66823571Y-60816990D02*
X66861667Y-60855085D01*
X67585476Y-60778895D02*
X67204524Y-60778895D01*
X67204524Y-60778895D02*
X67166428Y-61159847D01*
X67166428Y-61159847D02*
X67204524Y-61121752D01*
X67204524Y-61121752D02*
X67280714Y-61083657D01*
X67280714Y-61083657D02*
X67471190Y-61083657D01*
X67471190Y-61083657D02*
X67547381Y-61121752D01*
X67547381Y-61121752D02*
X67585476Y-61159847D01*
X67585476Y-61159847D02*
X67623571Y-61236038D01*
X67623571Y-61236038D02*
X67623571Y-61426514D01*
X67623571Y-61426514D02*
X67585476Y-61502704D01*
X67585476Y-61502704D02*
X67547381Y-61540800D01*
X67547381Y-61540800D02*
X67471190Y-61578895D01*
X67471190Y-61578895D02*
X67280714Y-61578895D01*
X67280714Y-61578895D02*
X67204524Y-61540800D01*
X67204524Y-61540800D02*
X67166428Y-61502704D01*
X65756904Y-62721895D02*
X65299761Y-62721895D01*
X65528333Y-62721895D02*
X65528333Y-61921895D01*
X65528333Y-61921895D02*
X65452142Y-62036180D01*
X65452142Y-62036180D02*
X65375952Y-62112371D01*
X65375952Y-62112371D02*
X65299761Y-62150466D01*
X66252143Y-61921895D02*
X66328333Y-61921895D01*
X66328333Y-61921895D02*
X66404524Y-61959990D01*
X66404524Y-61959990D02*
X66442619Y-61998085D01*
X66442619Y-61998085D02*
X66480714Y-62074276D01*
X66480714Y-62074276D02*
X66518809Y-62226657D01*
X66518809Y-62226657D02*
X66518809Y-62417133D01*
X66518809Y-62417133D02*
X66480714Y-62569514D01*
X66480714Y-62569514D02*
X66442619Y-62645704D01*
X66442619Y-62645704D02*
X66404524Y-62683800D01*
X66404524Y-62683800D02*
X66328333Y-62721895D01*
X66328333Y-62721895D02*
X66252143Y-62721895D01*
X66252143Y-62721895D02*
X66175952Y-62683800D01*
X66175952Y-62683800D02*
X66137857Y-62645704D01*
X66137857Y-62645704D02*
X66099762Y-62569514D01*
X66099762Y-62569514D02*
X66061666Y-62417133D01*
X66061666Y-62417133D02*
X66061666Y-62226657D01*
X66061666Y-62226657D02*
X66099762Y-62074276D01*
X66099762Y-62074276D02*
X66137857Y-61998085D01*
X66137857Y-61998085D02*
X66175952Y-61959990D01*
X66175952Y-61959990D02*
X66252143Y-61921895D01*
X67014048Y-61921895D02*
X67090238Y-61921895D01*
X67090238Y-61921895D02*
X67166429Y-61959990D01*
X67166429Y-61959990D02*
X67204524Y-61998085D01*
X67204524Y-61998085D02*
X67242619Y-62074276D01*
X67242619Y-62074276D02*
X67280714Y-62226657D01*
X67280714Y-62226657D02*
X67280714Y-62417133D01*
X67280714Y-62417133D02*
X67242619Y-62569514D01*
X67242619Y-62569514D02*
X67204524Y-62645704D01*
X67204524Y-62645704D02*
X67166429Y-62683800D01*
X67166429Y-62683800D02*
X67090238Y-62721895D01*
X67090238Y-62721895D02*
X67014048Y-62721895D01*
X67014048Y-62721895D02*
X66937857Y-62683800D01*
X66937857Y-62683800D02*
X66899762Y-62645704D01*
X66899762Y-62645704D02*
X66861667Y-62569514D01*
X66861667Y-62569514D02*
X66823571Y-62417133D01*
X66823571Y-62417133D02*
X66823571Y-62226657D01*
X66823571Y-62226657D02*
X66861667Y-62074276D01*
X66861667Y-62074276D02*
X66899762Y-61998085D01*
X66899762Y-61998085D02*
X66937857Y-61959990D01*
X66937857Y-61959990D02*
X67014048Y-61921895D01*
X67623572Y-62188561D02*
X67623572Y-62721895D01*
X67623572Y-62264752D02*
X67661667Y-62226657D01*
X67661667Y-62226657D02*
X67737857Y-62188561D01*
X67737857Y-62188561D02*
X67852143Y-62188561D01*
X67852143Y-62188561D02*
X67928334Y-62226657D01*
X67928334Y-62226657D02*
X67966429Y-62302847D01*
X67966429Y-62302847D02*
X67966429Y-62721895D01*
X68614048Y-62302847D02*
X68347382Y-62302847D01*
X68347382Y-62721895D02*
X68347382Y-61921895D01*
X68347382Y-61921895D02*
X68728334Y-61921895D01*
X69970667Y-69959895D02*
X69704000Y-69578942D01*
X69513524Y-69959895D02*
X69513524Y-69159895D01*
X69513524Y-69159895D02*
X69818286Y-69159895D01*
X69818286Y-69159895D02*
X69894476Y-69197990D01*
X69894476Y-69197990D02*
X69932571Y-69236085D01*
X69932571Y-69236085D02*
X69970667Y-69312276D01*
X69970667Y-69312276D02*
X69970667Y-69426561D01*
X69970667Y-69426561D02*
X69932571Y-69502752D01*
X69932571Y-69502752D02*
X69894476Y-69540847D01*
X69894476Y-69540847D02*
X69818286Y-69578942D01*
X69818286Y-69578942D02*
X69513524Y-69578942D01*
X70656381Y-69426561D02*
X70656381Y-69959895D01*
X70465905Y-69121800D02*
X70275428Y-69693228D01*
X70275428Y-69693228D02*
X70770667Y-69693228D01*
X71697952Y-69554561D02*
X71697952Y-70087895D01*
X71507476Y-69249800D02*
X71316999Y-69821228D01*
X71316999Y-69821228D02*
X71812238Y-69821228D01*
X72117000Y-70011704D02*
X72155095Y-70049800D01*
X72155095Y-70049800D02*
X72117000Y-70087895D01*
X72117000Y-70087895D02*
X72078904Y-70049800D01*
X72078904Y-70049800D02*
X72117000Y-70011704D01*
X72117000Y-70011704D02*
X72117000Y-70087895D01*
X72421761Y-69287895D02*
X72955095Y-69287895D01*
X72955095Y-69287895D02*
X72612237Y-70087895D01*
X73259857Y-70087895D02*
X73259857Y-69287895D01*
X73717000Y-70087895D02*
X73374142Y-69630752D01*
X73717000Y-69287895D02*
X73259857Y-69745038D01*
X70097667Y-65515895D02*
X69831000Y-65134942D01*
X69640524Y-65515895D02*
X69640524Y-64715895D01*
X69640524Y-64715895D02*
X69945286Y-64715895D01*
X69945286Y-64715895D02*
X70021476Y-64753990D01*
X70021476Y-64753990D02*
X70059571Y-64792085D01*
X70059571Y-64792085D02*
X70097667Y-64868276D01*
X70097667Y-64868276D02*
X70097667Y-64982561D01*
X70097667Y-64982561D02*
X70059571Y-65058752D01*
X70059571Y-65058752D02*
X70021476Y-65096847D01*
X70021476Y-65096847D02*
X69945286Y-65134942D01*
X69945286Y-65134942D02*
X69640524Y-65134942D01*
X70364333Y-64715895D02*
X70897667Y-64715895D01*
X70897667Y-64715895D02*
X70554809Y-65515895D01*
X71361428Y-64715895D02*
X71856666Y-64715895D01*
X71856666Y-64715895D02*
X71590000Y-65020657D01*
X71590000Y-65020657D02*
X71704285Y-65020657D01*
X71704285Y-65020657D02*
X71780476Y-65058752D01*
X71780476Y-65058752D02*
X71818571Y-65096847D01*
X71818571Y-65096847D02*
X71856666Y-65173038D01*
X71856666Y-65173038D02*
X71856666Y-65363514D01*
X71856666Y-65363514D02*
X71818571Y-65439704D01*
X71818571Y-65439704D02*
X71780476Y-65477800D01*
X71780476Y-65477800D02*
X71704285Y-65515895D01*
X71704285Y-65515895D02*
X71475714Y-65515895D01*
X71475714Y-65515895D02*
X71399523Y-65477800D01*
X71399523Y-65477800D02*
X71361428Y-65439704D01*
X72123333Y-64715895D02*
X72618571Y-64715895D01*
X72618571Y-64715895D02*
X72351905Y-65020657D01*
X72351905Y-65020657D02*
X72466190Y-65020657D01*
X72466190Y-65020657D02*
X72542381Y-65058752D01*
X72542381Y-65058752D02*
X72580476Y-65096847D01*
X72580476Y-65096847D02*
X72618571Y-65173038D01*
X72618571Y-65173038D02*
X72618571Y-65363514D01*
X72618571Y-65363514D02*
X72580476Y-65439704D01*
X72580476Y-65439704D02*
X72542381Y-65477800D01*
X72542381Y-65477800D02*
X72466190Y-65515895D01*
X72466190Y-65515895D02*
X72237619Y-65515895D01*
X72237619Y-65515895D02*
X72161428Y-65477800D01*
X72161428Y-65477800D02*
X72123333Y-65439704D01*
X73113810Y-64715895D02*
X73190000Y-64715895D01*
X73190000Y-64715895D02*
X73266191Y-64753990D01*
X73266191Y-64753990D02*
X73304286Y-64792085D01*
X73304286Y-64792085D02*
X73342381Y-64868276D01*
X73342381Y-64868276D02*
X73380476Y-65020657D01*
X73380476Y-65020657D02*
X73380476Y-65211133D01*
X73380476Y-65211133D02*
X73342381Y-65363514D01*
X73342381Y-65363514D02*
X73304286Y-65439704D01*
X73304286Y-65439704D02*
X73266191Y-65477800D01*
X73266191Y-65477800D02*
X73190000Y-65515895D01*
X73190000Y-65515895D02*
X73113810Y-65515895D01*
X73113810Y-65515895D02*
X73037619Y-65477800D01*
X73037619Y-65477800D02*
X72999524Y-65439704D01*
X72999524Y-65439704D02*
X72961429Y-65363514D01*
X72961429Y-65363514D02*
X72923333Y-65211133D01*
X72923333Y-65211133D02*
X72923333Y-65020657D01*
X72923333Y-65020657D02*
X72961429Y-64868276D01*
X72961429Y-64868276D02*
X72999524Y-64792085D01*
X72999524Y-64792085D02*
X73037619Y-64753990D01*
X73037619Y-64753990D02*
X73113810Y-64715895D01*
X69970667Y-73897895D02*
X69704000Y-73516942D01*
X69513524Y-73897895D02*
X69513524Y-73097895D01*
X69513524Y-73097895D02*
X69818286Y-73097895D01*
X69818286Y-73097895D02*
X69894476Y-73135990D01*
X69894476Y-73135990D02*
X69932571Y-73174085D01*
X69932571Y-73174085D02*
X69970667Y-73250276D01*
X69970667Y-73250276D02*
X69970667Y-73364561D01*
X69970667Y-73364561D02*
X69932571Y-73440752D01*
X69932571Y-73440752D02*
X69894476Y-73478847D01*
X69894476Y-73478847D02*
X69818286Y-73516942D01*
X69818286Y-73516942D02*
X69513524Y-73516942D01*
X70237333Y-73097895D02*
X70732571Y-73097895D01*
X70732571Y-73097895D02*
X70465905Y-73402657D01*
X70465905Y-73402657D02*
X70580190Y-73402657D01*
X70580190Y-73402657D02*
X70656381Y-73440752D01*
X70656381Y-73440752D02*
X70694476Y-73478847D01*
X70694476Y-73478847D02*
X70732571Y-73555038D01*
X70732571Y-73555038D02*
X70732571Y-73745514D01*
X70732571Y-73745514D02*
X70694476Y-73821704D01*
X70694476Y-73821704D02*
X70656381Y-73859800D01*
X70656381Y-73859800D02*
X70580190Y-73897895D01*
X70580190Y-73897895D02*
X70351619Y-73897895D01*
X70351619Y-73897895D02*
X70275428Y-73859800D01*
X70275428Y-73859800D02*
X70237333Y-73821704D01*
X71697952Y-73364561D02*
X71697952Y-73897895D01*
X71507476Y-73059800D02*
X71316999Y-73631228D01*
X71316999Y-73631228D02*
X71812238Y-73631228D01*
X72117000Y-73821704D02*
X72155095Y-73859800D01*
X72155095Y-73859800D02*
X72117000Y-73897895D01*
X72117000Y-73897895D02*
X72078904Y-73859800D01*
X72078904Y-73859800D02*
X72117000Y-73821704D01*
X72117000Y-73821704D02*
X72117000Y-73897895D01*
X72421761Y-73097895D02*
X72955095Y-73097895D01*
X72955095Y-73097895D02*
X72612237Y-73897895D01*
X73259857Y-73897895D02*
X73259857Y-73097895D01*
X73717000Y-73897895D02*
X73374142Y-73440752D01*
X73717000Y-73097895D02*
X73259857Y-73555038D01*
X75558667Y-66912895D02*
X75292000Y-66531942D01*
X75101524Y-66912895D02*
X75101524Y-66112895D01*
X75101524Y-66112895D02*
X75406286Y-66112895D01*
X75406286Y-66112895D02*
X75482476Y-66150990D01*
X75482476Y-66150990D02*
X75520571Y-66189085D01*
X75520571Y-66189085D02*
X75558667Y-66265276D01*
X75558667Y-66265276D02*
X75558667Y-66379561D01*
X75558667Y-66379561D02*
X75520571Y-66455752D01*
X75520571Y-66455752D02*
X75482476Y-66493847D01*
X75482476Y-66493847D02*
X75406286Y-66531942D01*
X75406286Y-66531942D02*
X75101524Y-66531942D01*
X76244381Y-66112895D02*
X76092000Y-66112895D01*
X76092000Y-66112895D02*
X76015809Y-66150990D01*
X76015809Y-66150990D02*
X75977714Y-66189085D01*
X75977714Y-66189085D02*
X75901524Y-66303371D01*
X75901524Y-66303371D02*
X75863428Y-66455752D01*
X75863428Y-66455752D02*
X75863428Y-66760514D01*
X75863428Y-66760514D02*
X75901524Y-66836704D01*
X75901524Y-66836704D02*
X75939619Y-66874800D01*
X75939619Y-66874800D02*
X76015809Y-66912895D01*
X76015809Y-66912895D02*
X76168190Y-66912895D01*
X76168190Y-66912895D02*
X76244381Y-66874800D01*
X76244381Y-66874800D02*
X76282476Y-66836704D01*
X76282476Y-66836704D02*
X76320571Y-66760514D01*
X76320571Y-66760514D02*
X76320571Y-66570038D01*
X76320571Y-66570038D02*
X76282476Y-66493847D01*
X76282476Y-66493847D02*
X76244381Y-66455752D01*
X76244381Y-66455752D02*
X76168190Y-66417657D01*
X76168190Y-66417657D02*
X76015809Y-66417657D01*
X76015809Y-66417657D02*
X75939619Y-66455752D01*
X75939619Y-66455752D02*
X75901524Y-66493847D01*
X75901524Y-66493847D02*
X75863428Y-66570038D01*
X75266618Y-69960895D02*
X74809475Y-69960895D01*
X75038047Y-69960895D02*
X75038047Y-69160895D01*
X75038047Y-69160895D02*
X74961856Y-69275180D01*
X74961856Y-69275180D02*
X74885666Y-69351371D01*
X74885666Y-69351371D02*
X74809475Y-69389466D01*
X75761857Y-69160895D02*
X75838047Y-69160895D01*
X75838047Y-69160895D02*
X75914238Y-69198990D01*
X75914238Y-69198990D02*
X75952333Y-69237085D01*
X75952333Y-69237085D02*
X75990428Y-69313276D01*
X75990428Y-69313276D02*
X76028523Y-69465657D01*
X76028523Y-69465657D02*
X76028523Y-69656133D01*
X76028523Y-69656133D02*
X75990428Y-69808514D01*
X75990428Y-69808514D02*
X75952333Y-69884704D01*
X75952333Y-69884704D02*
X75914238Y-69922800D01*
X75914238Y-69922800D02*
X75838047Y-69960895D01*
X75838047Y-69960895D02*
X75761857Y-69960895D01*
X75761857Y-69960895D02*
X75685666Y-69922800D01*
X75685666Y-69922800D02*
X75647571Y-69884704D01*
X75647571Y-69884704D02*
X75609476Y-69808514D01*
X75609476Y-69808514D02*
X75571380Y-69656133D01*
X75571380Y-69656133D02*
X75571380Y-69465657D01*
X75571380Y-69465657D02*
X75609476Y-69313276D01*
X75609476Y-69313276D02*
X75647571Y-69237085D01*
X75647571Y-69237085D02*
X75685666Y-69198990D01*
X75685666Y-69198990D02*
X75761857Y-69160895D01*
X76371381Y-69960895D02*
X76371381Y-69160895D01*
X76828524Y-69960895D02*
X76485666Y-69503752D01*
X76828524Y-69160895D02*
X76371381Y-69618038D01*
X62350667Y-61502704D02*
X62312571Y-61540800D01*
X62312571Y-61540800D02*
X62198286Y-61578895D01*
X62198286Y-61578895D02*
X62122095Y-61578895D01*
X62122095Y-61578895D02*
X62007809Y-61540800D01*
X62007809Y-61540800D02*
X61931619Y-61464609D01*
X61931619Y-61464609D02*
X61893524Y-61388419D01*
X61893524Y-61388419D02*
X61855428Y-61236038D01*
X61855428Y-61236038D02*
X61855428Y-61121752D01*
X61855428Y-61121752D02*
X61893524Y-60969371D01*
X61893524Y-60969371D02*
X61931619Y-60893180D01*
X61931619Y-60893180D02*
X62007809Y-60816990D01*
X62007809Y-60816990D02*
X62122095Y-60778895D01*
X62122095Y-60778895D02*
X62198286Y-60778895D01*
X62198286Y-60778895D02*
X62312571Y-60816990D01*
X62312571Y-60816990D02*
X62350667Y-60855085D01*
X62617333Y-60778895D02*
X63112571Y-60778895D01*
X63112571Y-60778895D02*
X62845905Y-61083657D01*
X62845905Y-61083657D02*
X62960190Y-61083657D01*
X62960190Y-61083657D02*
X63036381Y-61121752D01*
X63036381Y-61121752D02*
X63074476Y-61159847D01*
X63074476Y-61159847D02*
X63112571Y-61236038D01*
X63112571Y-61236038D02*
X63112571Y-61426514D01*
X63112571Y-61426514D02*
X63074476Y-61502704D01*
X63074476Y-61502704D02*
X63036381Y-61540800D01*
X63036381Y-61540800D02*
X62960190Y-61578895D01*
X62960190Y-61578895D02*
X62731619Y-61578895D01*
X62731619Y-61578895D02*
X62655428Y-61540800D01*
X62655428Y-61540800D02*
X62617333Y-61502704D01*
X61235713Y-61871085D02*
X61273809Y-61832990D01*
X61273809Y-61832990D02*
X61349999Y-61794895D01*
X61349999Y-61794895D02*
X61540475Y-61794895D01*
X61540475Y-61794895D02*
X61616666Y-61832990D01*
X61616666Y-61832990D02*
X61654761Y-61871085D01*
X61654761Y-61871085D02*
X61692856Y-61947276D01*
X61692856Y-61947276D02*
X61692856Y-62023466D01*
X61692856Y-62023466D02*
X61654761Y-62137752D01*
X61654761Y-62137752D02*
X61197618Y-62594895D01*
X61197618Y-62594895D02*
X61692856Y-62594895D01*
X61997618Y-61871085D02*
X62035714Y-61832990D01*
X62035714Y-61832990D02*
X62111904Y-61794895D01*
X62111904Y-61794895D02*
X62302380Y-61794895D01*
X62302380Y-61794895D02*
X62378571Y-61832990D01*
X62378571Y-61832990D02*
X62416666Y-61871085D01*
X62416666Y-61871085D02*
X62454761Y-61947276D01*
X62454761Y-61947276D02*
X62454761Y-62023466D01*
X62454761Y-62023466D02*
X62416666Y-62137752D01*
X62416666Y-62137752D02*
X61959523Y-62594895D01*
X61959523Y-62594895D02*
X62454761Y-62594895D01*
X62797619Y-62061561D02*
X62797619Y-62861561D01*
X62797619Y-62099657D02*
X62873809Y-62061561D01*
X62873809Y-62061561D02*
X63026190Y-62061561D01*
X63026190Y-62061561D02*
X63102381Y-62099657D01*
X63102381Y-62099657D02*
X63140476Y-62137752D01*
X63140476Y-62137752D02*
X63178571Y-62213942D01*
X63178571Y-62213942D02*
X63178571Y-62442514D01*
X63178571Y-62442514D02*
X63140476Y-62518704D01*
X63140476Y-62518704D02*
X63102381Y-62556800D01*
X63102381Y-62556800D02*
X63026190Y-62594895D01*
X63026190Y-62594895D02*
X62873809Y-62594895D01*
X62873809Y-62594895D02*
X62797619Y-62556800D01*
X63788095Y-62175847D02*
X63521429Y-62175847D01*
X63521429Y-62594895D02*
X63521429Y-61794895D01*
X63521429Y-61794895D02*
X63902381Y-61794895D01*
X69970667Y-79282704D02*
X69932571Y-79320800D01*
X69932571Y-79320800D02*
X69818286Y-79358895D01*
X69818286Y-79358895D02*
X69742095Y-79358895D01*
X69742095Y-79358895D02*
X69627809Y-79320800D01*
X69627809Y-79320800D02*
X69551619Y-79244609D01*
X69551619Y-79244609D02*
X69513524Y-79168419D01*
X69513524Y-79168419D02*
X69475428Y-79016038D01*
X69475428Y-79016038D02*
X69475428Y-78901752D01*
X69475428Y-78901752D02*
X69513524Y-78749371D01*
X69513524Y-78749371D02*
X69551619Y-78673180D01*
X69551619Y-78673180D02*
X69627809Y-78596990D01*
X69627809Y-78596990D02*
X69742095Y-78558895D01*
X69742095Y-78558895D02*
X69818286Y-78558895D01*
X69818286Y-78558895D02*
X69932571Y-78596990D01*
X69932571Y-78596990D02*
X69970667Y-78635085D01*
X70275428Y-78635085D02*
X70313524Y-78596990D01*
X70313524Y-78596990D02*
X70389714Y-78558895D01*
X70389714Y-78558895D02*
X70580190Y-78558895D01*
X70580190Y-78558895D02*
X70656381Y-78596990D01*
X70656381Y-78596990D02*
X70694476Y-78635085D01*
X70694476Y-78635085D02*
X70732571Y-78711276D01*
X70732571Y-78711276D02*
X70732571Y-78787466D01*
X70732571Y-78787466D02*
X70694476Y-78901752D01*
X70694476Y-78901752D02*
X70237333Y-79358895D01*
X70237333Y-79358895D02*
X70732571Y-79358895D01*
X71456713Y-78635085D02*
X71494809Y-78596990D01*
X71494809Y-78596990D02*
X71570999Y-78558895D01*
X71570999Y-78558895D02*
X71761475Y-78558895D01*
X71761475Y-78558895D02*
X71837666Y-78596990D01*
X71837666Y-78596990D02*
X71875761Y-78635085D01*
X71875761Y-78635085D02*
X71913856Y-78711276D01*
X71913856Y-78711276D02*
X71913856Y-78787466D01*
X71913856Y-78787466D02*
X71875761Y-78901752D01*
X71875761Y-78901752D02*
X71418618Y-79358895D01*
X71418618Y-79358895D02*
X71913856Y-79358895D01*
X72218618Y-78635085D02*
X72256714Y-78596990D01*
X72256714Y-78596990D02*
X72332904Y-78558895D01*
X72332904Y-78558895D02*
X72523380Y-78558895D01*
X72523380Y-78558895D02*
X72599571Y-78596990D01*
X72599571Y-78596990D02*
X72637666Y-78635085D01*
X72637666Y-78635085D02*
X72675761Y-78711276D01*
X72675761Y-78711276D02*
X72675761Y-78787466D01*
X72675761Y-78787466D02*
X72637666Y-78901752D01*
X72637666Y-78901752D02*
X72180523Y-79358895D01*
X72180523Y-79358895D02*
X72675761Y-79358895D01*
X73018619Y-78825561D02*
X73018619Y-79625561D01*
X73018619Y-78863657D02*
X73094809Y-78825561D01*
X73094809Y-78825561D02*
X73247190Y-78825561D01*
X73247190Y-78825561D02*
X73323381Y-78863657D01*
X73323381Y-78863657D02*
X73361476Y-78901752D01*
X73361476Y-78901752D02*
X73399571Y-78977942D01*
X73399571Y-78977942D02*
X73399571Y-79206514D01*
X73399571Y-79206514D02*
X73361476Y-79282704D01*
X73361476Y-79282704D02*
X73323381Y-79320800D01*
X73323381Y-79320800D02*
X73247190Y-79358895D01*
X73247190Y-79358895D02*
X73094809Y-79358895D01*
X73094809Y-79358895D02*
X73018619Y-79320800D01*
X74009095Y-78939847D02*
X73742429Y-78939847D01*
X73742429Y-79358895D02*
X73742429Y-78558895D01*
X73742429Y-78558895D02*
X74123381Y-78558895D01*
X58159667Y-61502704D02*
X58121571Y-61540800D01*
X58121571Y-61540800D02*
X58007286Y-61578895D01*
X58007286Y-61578895D02*
X57931095Y-61578895D01*
X57931095Y-61578895D02*
X57816809Y-61540800D01*
X57816809Y-61540800D02*
X57740619Y-61464609D01*
X57740619Y-61464609D02*
X57702524Y-61388419D01*
X57702524Y-61388419D02*
X57664428Y-61236038D01*
X57664428Y-61236038D02*
X57664428Y-61121752D01*
X57664428Y-61121752D02*
X57702524Y-60969371D01*
X57702524Y-60969371D02*
X57740619Y-60893180D01*
X57740619Y-60893180D02*
X57816809Y-60816990D01*
X57816809Y-60816990D02*
X57931095Y-60778895D01*
X57931095Y-60778895D02*
X58007286Y-60778895D01*
X58007286Y-60778895D02*
X58121571Y-60816990D01*
X58121571Y-60816990D02*
X58159667Y-60855085D01*
X58921571Y-61578895D02*
X58464428Y-61578895D01*
X58693000Y-61578895D02*
X58693000Y-60778895D01*
X58693000Y-60778895D02*
X58616809Y-60893180D01*
X58616809Y-60893180D02*
X58540619Y-60969371D01*
X58540619Y-60969371D02*
X58464428Y-61007466D01*
X57110714Y-61921895D02*
X57186904Y-61921895D01*
X57186904Y-61921895D02*
X57263095Y-61959990D01*
X57263095Y-61959990D02*
X57301190Y-61998085D01*
X57301190Y-61998085D02*
X57339285Y-62074276D01*
X57339285Y-62074276D02*
X57377380Y-62226657D01*
X57377380Y-62226657D02*
X57377380Y-62417133D01*
X57377380Y-62417133D02*
X57339285Y-62569514D01*
X57339285Y-62569514D02*
X57301190Y-62645704D01*
X57301190Y-62645704D02*
X57263095Y-62683800D01*
X57263095Y-62683800D02*
X57186904Y-62721895D01*
X57186904Y-62721895D02*
X57110714Y-62721895D01*
X57110714Y-62721895D02*
X57034523Y-62683800D01*
X57034523Y-62683800D02*
X56996428Y-62645704D01*
X56996428Y-62645704D02*
X56958333Y-62569514D01*
X56958333Y-62569514D02*
X56920237Y-62417133D01*
X56920237Y-62417133D02*
X56920237Y-62226657D01*
X56920237Y-62226657D02*
X56958333Y-62074276D01*
X56958333Y-62074276D02*
X56996428Y-61998085D01*
X56996428Y-61998085D02*
X57034523Y-61959990D01*
X57034523Y-61959990D02*
X57110714Y-61921895D01*
X57720238Y-62645704D02*
X57758333Y-62683800D01*
X57758333Y-62683800D02*
X57720238Y-62721895D01*
X57720238Y-62721895D02*
X57682142Y-62683800D01*
X57682142Y-62683800D02*
X57720238Y-62645704D01*
X57720238Y-62645704D02*
X57720238Y-62721895D01*
X58520237Y-62721895D02*
X58063094Y-62721895D01*
X58291666Y-62721895D02*
X58291666Y-61921895D01*
X58291666Y-61921895D02*
X58215475Y-62036180D01*
X58215475Y-62036180D02*
X58139285Y-62112371D01*
X58139285Y-62112371D02*
X58063094Y-62150466D01*
X59205952Y-62188561D02*
X59205952Y-62721895D01*
X58863095Y-62188561D02*
X58863095Y-62607609D01*
X58863095Y-62607609D02*
X58901190Y-62683800D01*
X58901190Y-62683800D02*
X58977380Y-62721895D01*
X58977380Y-62721895D02*
X59091666Y-62721895D01*
X59091666Y-62721895D02*
X59167857Y-62683800D01*
X59167857Y-62683800D02*
X59205952Y-62645704D01*
X59853571Y-62302847D02*
X59586905Y-62302847D01*
X59586905Y-62721895D02*
X59586905Y-61921895D01*
X59586905Y-61921895D02*
X59967857Y-61921895D01*
X43586476Y-65858895D02*
X43586476Y-66506514D01*
X43586476Y-66506514D02*
X43624571Y-66582704D01*
X43624571Y-66582704D02*
X43662666Y-66620800D01*
X43662666Y-66620800D02*
X43738857Y-66658895D01*
X43738857Y-66658895D02*
X43891238Y-66658895D01*
X43891238Y-66658895D02*
X43967428Y-66620800D01*
X43967428Y-66620800D02*
X44005523Y-66582704D01*
X44005523Y-66582704D02*
X44043619Y-66506514D01*
X44043619Y-66506514D02*
X44043619Y-65858895D01*
X44843618Y-66658895D02*
X44386475Y-66658895D01*
X44615047Y-66658895D02*
X44615047Y-65858895D01*
X44615047Y-65858895D02*
X44538856Y-65973180D01*
X44538856Y-65973180D02*
X44462666Y-66049371D01*
X44462666Y-66049371D02*
X44386475Y-66087466D01*
X44894856Y-71650085D02*
X44932952Y-71611990D01*
X44932952Y-71611990D02*
X45009142Y-71573895D01*
X45009142Y-71573895D02*
X45199618Y-71573895D01*
X45199618Y-71573895D02*
X45275809Y-71611990D01*
X45275809Y-71611990D02*
X45313904Y-71650085D01*
X45313904Y-71650085D02*
X45351999Y-71726276D01*
X45351999Y-71726276D02*
X45351999Y-71802466D01*
X45351999Y-71802466D02*
X45313904Y-71916752D01*
X45313904Y-71916752D02*
X44856761Y-72373895D01*
X44856761Y-72373895D02*
X45351999Y-72373895D01*
X46037714Y-71840561D02*
X46037714Y-72373895D01*
X45847238Y-71535800D02*
X45656761Y-72107228D01*
X45656761Y-72107228D02*
X46152000Y-72107228D01*
X46837714Y-72373895D02*
X46456762Y-72373895D01*
X46456762Y-72373895D02*
X46456762Y-71573895D01*
X47561524Y-72297704D02*
X47523428Y-72335800D01*
X47523428Y-72335800D02*
X47409143Y-72373895D01*
X47409143Y-72373895D02*
X47332952Y-72373895D01*
X47332952Y-72373895D02*
X47218666Y-72335800D01*
X47218666Y-72335800D02*
X47142476Y-72259609D01*
X47142476Y-72259609D02*
X47104381Y-72183419D01*
X47104381Y-72183419D02*
X47066285Y-72031038D01*
X47066285Y-72031038D02*
X47066285Y-71916752D01*
X47066285Y-71916752D02*
X47104381Y-71764371D01*
X47104381Y-71764371D02*
X47142476Y-71688180D01*
X47142476Y-71688180D02*
X47218666Y-71611990D01*
X47218666Y-71611990D02*
X47332952Y-71573895D01*
X47332952Y-71573895D02*
X47409143Y-71573895D01*
X47409143Y-71573895D02*
X47523428Y-71611990D01*
X47523428Y-71611990D02*
X47561524Y-71650085D01*
X48323428Y-72373895D02*
X47866285Y-72373895D01*
X48094857Y-72373895D02*
X48094857Y-71573895D01*
X48094857Y-71573895D02*
X48018666Y-71688180D01*
X48018666Y-71688180D02*
X47942476Y-71764371D01*
X47942476Y-71764371D02*
X47866285Y-71802466D01*
X48818667Y-71573895D02*
X48894857Y-71573895D01*
X48894857Y-71573895D02*
X48971048Y-71611990D01*
X48971048Y-71611990D02*
X49009143Y-71650085D01*
X49009143Y-71650085D02*
X49047238Y-71726276D01*
X49047238Y-71726276D02*
X49085333Y-71878657D01*
X49085333Y-71878657D02*
X49085333Y-72069133D01*
X49085333Y-72069133D02*
X49047238Y-72221514D01*
X49047238Y-72221514D02*
X49009143Y-72297704D01*
X49009143Y-72297704D02*
X48971048Y-72335800D01*
X48971048Y-72335800D02*
X48894857Y-72373895D01*
X48894857Y-72373895D02*
X48818667Y-72373895D01*
X48818667Y-72373895D02*
X48742476Y-72335800D01*
X48742476Y-72335800D02*
X48704381Y-72297704D01*
X48704381Y-72297704D02*
X48666286Y-72221514D01*
X48666286Y-72221514D02*
X48628190Y-72069133D01*
X48628190Y-72069133D02*
X48628190Y-71878657D01*
X48628190Y-71878657D02*
X48666286Y-71726276D01*
X48666286Y-71726276D02*
X48704381Y-71650085D01*
X48704381Y-71650085D02*
X48742476Y-71611990D01*
X48742476Y-71611990D02*
X48818667Y-71573895D01*
X49390095Y-71650085D02*
X49428191Y-71611990D01*
X49428191Y-71611990D02*
X49504381Y-71573895D01*
X49504381Y-71573895D02*
X49694857Y-71573895D01*
X49694857Y-71573895D02*
X49771048Y-71611990D01*
X49771048Y-71611990D02*
X49809143Y-71650085D01*
X49809143Y-71650085D02*
X49847238Y-71726276D01*
X49847238Y-71726276D02*
X49847238Y-71802466D01*
X49847238Y-71802466D02*
X49809143Y-71916752D01*
X49809143Y-71916752D02*
X49352000Y-72373895D01*
X49352000Y-72373895D02*
X49847238Y-72373895D01*
X50571048Y-71573895D02*
X50190096Y-71573895D01*
X50190096Y-71573895D02*
X50152000Y-71954847D01*
X50152000Y-71954847D02*
X50190096Y-71916752D01*
X50190096Y-71916752D02*
X50266286Y-71878657D01*
X50266286Y-71878657D02*
X50456762Y-71878657D01*
X50456762Y-71878657D02*
X50532953Y-71916752D01*
X50532953Y-71916752D02*
X50571048Y-71954847D01*
X50571048Y-71954847D02*
X50609143Y-72031038D01*
X50609143Y-72031038D02*
X50609143Y-72221514D01*
X50609143Y-72221514D02*
X50571048Y-72297704D01*
X50571048Y-72297704D02*
X50532953Y-72335800D01*
X50532953Y-72335800D02*
X50456762Y-72373895D01*
X50456762Y-72373895D02*
X50266286Y-72373895D01*
X50266286Y-72373895D02*
X50190096Y-72335800D01*
X50190096Y-72335800D02*
X50152000Y-72297704D01*
X39525895Y-86118666D02*
X40097323Y-86118666D01*
X40097323Y-86118666D02*
X40211609Y-86156761D01*
X40211609Y-86156761D02*
X40287800Y-86232952D01*
X40287800Y-86232952D02*
X40325895Y-86347237D01*
X40325895Y-86347237D02*
X40325895Y-86423428D01*
X39602085Y-85775809D02*
X39563990Y-85737713D01*
X39563990Y-85737713D02*
X39525895Y-85661523D01*
X39525895Y-85661523D02*
X39525895Y-85471047D01*
X39525895Y-85471047D02*
X39563990Y-85394856D01*
X39563990Y-85394856D02*
X39602085Y-85356761D01*
X39602085Y-85356761D02*
X39678276Y-85318666D01*
X39678276Y-85318666D02*
X39754466Y-85318666D01*
X39754466Y-85318666D02*
X39868752Y-85356761D01*
X39868752Y-85356761D02*
X40325895Y-85813904D01*
X40325895Y-85813904D02*
X40325895Y-85318666D01*
X43332476Y-58873895D02*
X43332476Y-59521514D01*
X43332476Y-59521514D02*
X43370571Y-59597704D01*
X43370571Y-59597704D02*
X43408666Y-59635800D01*
X43408666Y-59635800D02*
X43484857Y-59673895D01*
X43484857Y-59673895D02*
X43637238Y-59673895D01*
X43637238Y-59673895D02*
X43713428Y-59635800D01*
X43713428Y-59635800D02*
X43751523Y-59597704D01*
X43751523Y-59597704D02*
X43789619Y-59521514D01*
X43789619Y-59521514D02*
X43789619Y-58873895D01*
X44094380Y-58873895D02*
X44589618Y-58873895D01*
X44589618Y-58873895D02*
X44322952Y-59178657D01*
X44322952Y-59178657D02*
X44437237Y-59178657D01*
X44437237Y-59178657D02*
X44513428Y-59216752D01*
X44513428Y-59216752D02*
X44551523Y-59254847D01*
X44551523Y-59254847D02*
X44589618Y-59331038D01*
X44589618Y-59331038D02*
X44589618Y-59521514D01*
X44589618Y-59521514D02*
X44551523Y-59597704D01*
X44551523Y-59597704D02*
X44513428Y-59635800D01*
X44513428Y-59635800D02*
X44437237Y-59673895D01*
X44437237Y-59673895D02*
X44208666Y-59673895D01*
X44208666Y-59673895D02*
X44132475Y-59635800D01*
X44132475Y-59635800D02*
X44094380Y-59597704D01*
X44894856Y-64665085D02*
X44932952Y-64626990D01*
X44932952Y-64626990D02*
X45009142Y-64588895D01*
X45009142Y-64588895D02*
X45199618Y-64588895D01*
X45199618Y-64588895D02*
X45275809Y-64626990D01*
X45275809Y-64626990D02*
X45313904Y-64665085D01*
X45313904Y-64665085D02*
X45351999Y-64741276D01*
X45351999Y-64741276D02*
X45351999Y-64817466D01*
X45351999Y-64817466D02*
X45313904Y-64931752D01*
X45313904Y-64931752D02*
X44856761Y-65388895D01*
X44856761Y-65388895D02*
X45351999Y-65388895D01*
X46037714Y-64855561D02*
X46037714Y-65388895D01*
X45847238Y-64550800D02*
X45656761Y-65122228D01*
X45656761Y-65122228D02*
X46152000Y-65122228D01*
X46837714Y-65388895D02*
X46456762Y-65388895D01*
X46456762Y-65388895D02*
X46456762Y-64588895D01*
X47561524Y-65312704D02*
X47523428Y-65350800D01*
X47523428Y-65350800D02*
X47409143Y-65388895D01*
X47409143Y-65388895D02*
X47332952Y-65388895D01*
X47332952Y-65388895D02*
X47218666Y-65350800D01*
X47218666Y-65350800D02*
X47142476Y-65274609D01*
X47142476Y-65274609D02*
X47104381Y-65198419D01*
X47104381Y-65198419D02*
X47066285Y-65046038D01*
X47066285Y-65046038D02*
X47066285Y-64931752D01*
X47066285Y-64931752D02*
X47104381Y-64779371D01*
X47104381Y-64779371D02*
X47142476Y-64703180D01*
X47142476Y-64703180D02*
X47218666Y-64626990D01*
X47218666Y-64626990D02*
X47332952Y-64588895D01*
X47332952Y-64588895D02*
X47409143Y-64588895D01*
X47409143Y-64588895D02*
X47523428Y-64626990D01*
X47523428Y-64626990D02*
X47561524Y-64665085D01*
X48323428Y-65388895D02*
X47866285Y-65388895D01*
X48094857Y-65388895D02*
X48094857Y-64588895D01*
X48094857Y-64588895D02*
X48018666Y-64703180D01*
X48018666Y-64703180D02*
X47942476Y-64779371D01*
X47942476Y-64779371D02*
X47866285Y-64817466D01*
X48818667Y-64588895D02*
X48894857Y-64588895D01*
X48894857Y-64588895D02*
X48971048Y-64626990D01*
X48971048Y-64626990D02*
X49009143Y-64665085D01*
X49009143Y-64665085D02*
X49047238Y-64741276D01*
X49047238Y-64741276D02*
X49085333Y-64893657D01*
X49085333Y-64893657D02*
X49085333Y-65084133D01*
X49085333Y-65084133D02*
X49047238Y-65236514D01*
X49047238Y-65236514D02*
X49009143Y-65312704D01*
X49009143Y-65312704D02*
X48971048Y-65350800D01*
X48971048Y-65350800D02*
X48894857Y-65388895D01*
X48894857Y-65388895D02*
X48818667Y-65388895D01*
X48818667Y-65388895D02*
X48742476Y-65350800D01*
X48742476Y-65350800D02*
X48704381Y-65312704D01*
X48704381Y-65312704D02*
X48666286Y-65236514D01*
X48666286Y-65236514D02*
X48628190Y-65084133D01*
X48628190Y-65084133D02*
X48628190Y-64893657D01*
X48628190Y-64893657D02*
X48666286Y-64741276D01*
X48666286Y-64741276D02*
X48704381Y-64665085D01*
X48704381Y-64665085D02*
X48742476Y-64626990D01*
X48742476Y-64626990D02*
X48818667Y-64588895D01*
X49390095Y-64665085D02*
X49428191Y-64626990D01*
X49428191Y-64626990D02*
X49504381Y-64588895D01*
X49504381Y-64588895D02*
X49694857Y-64588895D01*
X49694857Y-64588895D02*
X49771048Y-64626990D01*
X49771048Y-64626990D02*
X49809143Y-64665085D01*
X49809143Y-64665085D02*
X49847238Y-64741276D01*
X49847238Y-64741276D02*
X49847238Y-64817466D01*
X49847238Y-64817466D02*
X49809143Y-64931752D01*
X49809143Y-64931752D02*
X49352000Y-65388895D01*
X49352000Y-65388895D02*
X49847238Y-65388895D01*
X50571048Y-64588895D02*
X50190096Y-64588895D01*
X50190096Y-64588895D02*
X50152000Y-64969847D01*
X50152000Y-64969847D02*
X50190096Y-64931752D01*
X50190096Y-64931752D02*
X50266286Y-64893657D01*
X50266286Y-64893657D02*
X50456762Y-64893657D01*
X50456762Y-64893657D02*
X50532953Y-64931752D01*
X50532953Y-64931752D02*
X50571048Y-64969847D01*
X50571048Y-64969847D02*
X50609143Y-65046038D01*
X50609143Y-65046038D02*
X50609143Y-65236514D01*
X50609143Y-65236514D02*
X50571048Y-65312704D01*
X50571048Y-65312704D02*
X50532953Y-65350800D01*
X50532953Y-65350800D02*
X50456762Y-65388895D01*
X50456762Y-65388895D02*
X50266286Y-65388895D01*
X50266286Y-65388895D02*
X50190096Y-65350800D01*
X50190096Y-65350800D02*
X50152000Y-65312704D01*
X69767524Y-61959895D02*
X69767524Y-61159895D01*
X69767524Y-61159895D02*
X69958000Y-61159895D01*
X69958000Y-61159895D02*
X70072286Y-61197990D01*
X70072286Y-61197990D02*
X70148476Y-61274180D01*
X70148476Y-61274180D02*
X70186571Y-61350371D01*
X70186571Y-61350371D02*
X70224667Y-61502752D01*
X70224667Y-61502752D02*
X70224667Y-61617038D01*
X70224667Y-61617038D02*
X70186571Y-61769419D01*
X70186571Y-61769419D02*
X70148476Y-61845609D01*
X70148476Y-61845609D02*
X70072286Y-61921800D01*
X70072286Y-61921800D02*
X69958000Y-61959895D01*
X69958000Y-61959895D02*
X69767524Y-61959895D01*
X70529428Y-61236085D02*
X70567524Y-61197990D01*
X70567524Y-61197990D02*
X70643714Y-61159895D01*
X70643714Y-61159895D02*
X70834190Y-61159895D01*
X70834190Y-61159895D02*
X70910381Y-61197990D01*
X70910381Y-61197990D02*
X70948476Y-61236085D01*
X70948476Y-61236085D02*
X70986571Y-61312276D01*
X70986571Y-61312276D02*
X70986571Y-61388466D01*
X70986571Y-61388466D02*
X70948476Y-61502752D01*
X70948476Y-61502752D02*
X70491333Y-61959895D01*
X70491333Y-61959895D02*
X70986571Y-61959895D01*
X71785714Y-61869895D02*
X71404762Y-61869895D01*
X71404762Y-61869895D02*
X71404762Y-61069895D01*
X72052381Y-61450847D02*
X72319047Y-61450847D01*
X72433333Y-61869895D02*
X72052381Y-61869895D01*
X72052381Y-61869895D02*
X72052381Y-61069895D01*
X72052381Y-61069895D02*
X72433333Y-61069895D01*
X72776191Y-61869895D02*
X72776191Y-61069895D01*
X72776191Y-61069895D02*
X72966667Y-61069895D01*
X72966667Y-61069895D02*
X73080953Y-61107990D01*
X73080953Y-61107990D02*
X73157143Y-61184180D01*
X73157143Y-61184180D02*
X73195238Y-61260371D01*
X73195238Y-61260371D02*
X73233334Y-61412752D01*
X73233334Y-61412752D02*
X73233334Y-61527038D01*
X73233334Y-61527038D02*
X73195238Y-61679419D01*
X73195238Y-61679419D02*
X73157143Y-61755609D01*
X73157143Y-61755609D02*
X73080953Y-61831800D01*
X73080953Y-61831800D02*
X72966667Y-61869895D01*
X72966667Y-61869895D02*
X72776191Y-61869895D01*
X38474856Y-62180847D02*
X38589142Y-62218942D01*
X38589142Y-62218942D02*
X38627237Y-62257038D01*
X38627237Y-62257038D02*
X38665333Y-62333228D01*
X38665333Y-62333228D02*
X38665333Y-62447514D01*
X38665333Y-62447514D02*
X38627237Y-62523704D01*
X38627237Y-62523704D02*
X38589142Y-62561800D01*
X38589142Y-62561800D02*
X38512952Y-62599895D01*
X38512952Y-62599895D02*
X38208190Y-62599895D01*
X38208190Y-62599895D02*
X38208190Y-61799895D01*
X38208190Y-61799895D02*
X38474856Y-61799895D01*
X38474856Y-61799895D02*
X38551047Y-61837990D01*
X38551047Y-61837990D02*
X38589142Y-61876085D01*
X38589142Y-61876085D02*
X38627237Y-61952276D01*
X38627237Y-61952276D02*
X38627237Y-62028466D01*
X38627237Y-62028466D02*
X38589142Y-62104657D01*
X38589142Y-62104657D02*
X38551047Y-62142752D01*
X38551047Y-62142752D02*
X38474856Y-62180847D01*
X38474856Y-62180847D02*
X38208190Y-62180847D01*
X39351047Y-62599895D02*
X39351047Y-62180847D01*
X39351047Y-62180847D02*
X39312952Y-62104657D01*
X39312952Y-62104657D02*
X39236761Y-62066561D01*
X39236761Y-62066561D02*
X39084380Y-62066561D01*
X39084380Y-62066561D02*
X39008190Y-62104657D01*
X39351047Y-62561800D02*
X39274856Y-62599895D01*
X39274856Y-62599895D02*
X39084380Y-62599895D01*
X39084380Y-62599895D02*
X39008190Y-62561800D01*
X39008190Y-62561800D02*
X38970094Y-62485609D01*
X38970094Y-62485609D02*
X38970094Y-62409419D01*
X38970094Y-62409419D02*
X39008190Y-62333228D01*
X39008190Y-62333228D02*
X39084380Y-62295133D01*
X39084380Y-62295133D02*
X39274856Y-62295133D01*
X39274856Y-62295133D02*
X39351047Y-62257038D01*
X39617714Y-62066561D02*
X39922476Y-62066561D01*
X39732000Y-61799895D02*
X39732000Y-62485609D01*
X39732000Y-62485609D02*
X39770095Y-62561800D01*
X39770095Y-62561800D02*
X39846285Y-62599895D01*
X39846285Y-62599895D02*
X39922476Y-62599895D01*
X40074857Y-62066561D02*
X40379619Y-62066561D01*
X40189143Y-61799895D02*
X40189143Y-62485609D01*
X40189143Y-62485609D02*
X40227238Y-62561800D01*
X40227238Y-62561800D02*
X40303428Y-62599895D01*
X40303428Y-62599895D02*
X40379619Y-62599895D01*
X40951048Y-62561800D02*
X40874857Y-62599895D01*
X40874857Y-62599895D02*
X40722476Y-62599895D01*
X40722476Y-62599895D02*
X40646286Y-62561800D01*
X40646286Y-62561800D02*
X40608190Y-62485609D01*
X40608190Y-62485609D02*
X40608190Y-62180847D01*
X40608190Y-62180847D02*
X40646286Y-62104657D01*
X40646286Y-62104657D02*
X40722476Y-62066561D01*
X40722476Y-62066561D02*
X40874857Y-62066561D01*
X40874857Y-62066561D02*
X40951048Y-62104657D01*
X40951048Y-62104657D02*
X40989143Y-62180847D01*
X40989143Y-62180847D02*
X40989143Y-62257038D01*
X40989143Y-62257038D02*
X40608190Y-62333228D01*
X41332000Y-62599895D02*
X41332000Y-62066561D01*
X41332000Y-62218942D02*
X41370095Y-62142752D01*
X41370095Y-62142752D02*
X41408190Y-62104657D01*
X41408190Y-62104657D02*
X41484381Y-62066561D01*
X41484381Y-62066561D02*
X41560571Y-62066561D01*
X41751047Y-62066561D02*
X41941523Y-62599895D01*
X42132000Y-62066561D02*
X41941523Y-62599895D01*
X41941523Y-62599895D02*
X41865333Y-62790371D01*
X41865333Y-62790371D02*
X41827238Y-62828466D01*
X41827238Y-62828466D02*
X41751047Y-62866561D01*
X69970667Y-82584704D02*
X69932571Y-82622800D01*
X69932571Y-82622800D02*
X69818286Y-82660895D01*
X69818286Y-82660895D02*
X69742095Y-82660895D01*
X69742095Y-82660895D02*
X69627809Y-82622800D01*
X69627809Y-82622800D02*
X69551619Y-82546609D01*
X69551619Y-82546609D02*
X69513524Y-82470419D01*
X69513524Y-82470419D02*
X69475428Y-82318038D01*
X69475428Y-82318038D02*
X69475428Y-82203752D01*
X69475428Y-82203752D02*
X69513524Y-82051371D01*
X69513524Y-82051371D02*
X69551619Y-81975180D01*
X69551619Y-81975180D02*
X69627809Y-81898990D01*
X69627809Y-81898990D02*
X69742095Y-81860895D01*
X69742095Y-81860895D02*
X69818286Y-81860895D01*
X69818286Y-81860895D02*
X69932571Y-81898990D01*
X69932571Y-81898990D02*
X69970667Y-81937085D01*
X70656381Y-82127561D02*
X70656381Y-82660895D01*
X70465905Y-81822800D02*
X70275428Y-82394228D01*
X70275428Y-82394228D02*
X70770667Y-82394228D01*
X71583714Y-81987895D02*
X71659904Y-81987895D01*
X71659904Y-81987895D02*
X71736095Y-82025990D01*
X71736095Y-82025990D02*
X71774190Y-82064085D01*
X71774190Y-82064085D02*
X71812285Y-82140276D01*
X71812285Y-82140276D02*
X71850380Y-82292657D01*
X71850380Y-82292657D02*
X71850380Y-82483133D01*
X71850380Y-82483133D02*
X71812285Y-82635514D01*
X71812285Y-82635514D02*
X71774190Y-82711704D01*
X71774190Y-82711704D02*
X71736095Y-82749800D01*
X71736095Y-82749800D02*
X71659904Y-82787895D01*
X71659904Y-82787895D02*
X71583714Y-82787895D01*
X71583714Y-82787895D02*
X71507523Y-82749800D01*
X71507523Y-82749800D02*
X71469428Y-82711704D01*
X71469428Y-82711704D02*
X71431333Y-82635514D01*
X71431333Y-82635514D02*
X71393237Y-82483133D01*
X71393237Y-82483133D02*
X71393237Y-82292657D01*
X71393237Y-82292657D02*
X71431333Y-82140276D01*
X71431333Y-82140276D02*
X71469428Y-82064085D01*
X71469428Y-82064085D02*
X71507523Y-82025990D01*
X71507523Y-82025990D02*
X71583714Y-81987895D01*
X72193238Y-82711704D02*
X72231333Y-82749800D01*
X72231333Y-82749800D02*
X72193238Y-82787895D01*
X72193238Y-82787895D02*
X72155142Y-82749800D01*
X72155142Y-82749800D02*
X72193238Y-82711704D01*
X72193238Y-82711704D02*
X72193238Y-82787895D01*
X72993237Y-82787895D02*
X72536094Y-82787895D01*
X72764666Y-82787895D02*
X72764666Y-81987895D01*
X72764666Y-81987895D02*
X72688475Y-82102180D01*
X72688475Y-82102180D02*
X72612285Y-82178371D01*
X72612285Y-82178371D02*
X72536094Y-82216466D01*
X73678952Y-82254561D02*
X73678952Y-82787895D01*
X73336095Y-82254561D02*
X73336095Y-82673609D01*
X73336095Y-82673609D02*
X73374190Y-82749800D01*
X73374190Y-82749800D02*
X73450380Y-82787895D01*
X73450380Y-82787895D02*
X73564666Y-82787895D01*
X73564666Y-82787895D02*
X73640857Y-82749800D01*
X73640857Y-82749800D02*
X73678952Y-82711704D01*
X74326571Y-82368847D02*
X74059905Y-82368847D01*
X74059905Y-82787895D02*
X74059905Y-81987895D01*
X74059905Y-81987895D02*
X74440857Y-81987895D01*
X77076333Y-84273895D02*
X77076333Y-84845323D01*
X77076333Y-84845323D02*
X77038238Y-84959609D01*
X77038238Y-84959609D02*
X76962047Y-85035800D01*
X76962047Y-85035800D02*
X76847762Y-85073895D01*
X76847762Y-85073895D02*
X76771571Y-85073895D01*
X77381095Y-84273895D02*
X77876333Y-84273895D01*
X77876333Y-84273895D02*
X77609667Y-84578657D01*
X77609667Y-84578657D02*
X77723952Y-84578657D01*
X77723952Y-84578657D02*
X77800143Y-84616752D01*
X77800143Y-84616752D02*
X77838238Y-84654847D01*
X77838238Y-84654847D02*
X77876333Y-84731038D01*
X77876333Y-84731038D02*
X77876333Y-84921514D01*
X77876333Y-84921514D02*
X77838238Y-84997704D01*
X77838238Y-84997704D02*
X77800143Y-85035800D01*
X77800143Y-85035800D02*
X77723952Y-85073895D01*
X77723952Y-85073895D02*
X77495381Y-85073895D01*
X77495381Y-85073895D02*
X77419190Y-85035800D01*
X77419190Y-85035800D02*
X77381095Y-84997704D01*
X82410333Y-85670895D02*
X82410333Y-86242323D01*
X82410333Y-86242323D02*
X82372238Y-86356609D01*
X82372238Y-86356609D02*
X82296047Y-86432800D01*
X82296047Y-86432800D02*
X82181762Y-86470895D01*
X82181762Y-86470895D02*
X82105571Y-86470895D01*
X83210333Y-86470895D02*
X82753190Y-86470895D01*
X82981762Y-86470895D02*
X82981762Y-85670895D01*
X82981762Y-85670895D02*
X82905571Y-85785180D01*
X82905571Y-85785180D02*
X82829381Y-85861371D01*
X82829381Y-85861371D02*
X82753190Y-85899466D01*
X73831524Y-61705895D02*
X73831524Y-60905895D01*
X73831524Y-60905895D02*
X74022000Y-60905895D01*
X74022000Y-60905895D02*
X74136286Y-60943990D01*
X74136286Y-60943990D02*
X74212476Y-61020180D01*
X74212476Y-61020180D02*
X74250571Y-61096371D01*
X74250571Y-61096371D02*
X74288667Y-61248752D01*
X74288667Y-61248752D02*
X74288667Y-61363038D01*
X74288667Y-61363038D02*
X74250571Y-61515419D01*
X74250571Y-61515419D02*
X74212476Y-61591609D01*
X74212476Y-61591609D02*
X74136286Y-61667800D01*
X74136286Y-61667800D02*
X74022000Y-61705895D01*
X74022000Y-61705895D02*
X73831524Y-61705895D01*
X75050571Y-61705895D02*
X74593428Y-61705895D01*
X74822000Y-61705895D02*
X74822000Y-60905895D01*
X74822000Y-60905895D02*
X74745809Y-61020180D01*
X74745809Y-61020180D02*
X74669619Y-61096371D01*
X74669619Y-61096371D02*
X74593428Y-61134466D01*
X75685714Y-61704895D02*
X75304762Y-61704895D01*
X75304762Y-61704895D02*
X75304762Y-60904895D01*
X75952381Y-61285847D02*
X76219047Y-61285847D01*
X76333333Y-61704895D02*
X75952381Y-61704895D01*
X75952381Y-61704895D02*
X75952381Y-60904895D01*
X75952381Y-60904895D02*
X76333333Y-60904895D01*
X76676191Y-61704895D02*
X76676191Y-60904895D01*
X76676191Y-60904895D02*
X76866667Y-60904895D01*
X76866667Y-60904895D02*
X76980953Y-60942990D01*
X76980953Y-60942990D02*
X77057143Y-61019180D01*
X77057143Y-61019180D02*
X77095238Y-61095371D01*
X77095238Y-61095371D02*
X77133334Y-61247752D01*
X77133334Y-61247752D02*
X77133334Y-61362038D01*
X77133334Y-61362038D02*
X77095238Y-61514419D01*
X77095238Y-61514419D02*
X77057143Y-61590609D01*
X77057143Y-61590609D02*
X76980953Y-61666800D01*
X76980953Y-61666800D02*
X76866667Y-61704895D01*
X76866667Y-61704895D02*
X76676191Y-61704895D01*
X58445476Y-63699895D02*
X58445476Y-64347514D01*
X58445476Y-64347514D02*
X58483571Y-64423704D01*
X58483571Y-64423704D02*
X58521666Y-64461800D01*
X58521666Y-64461800D02*
X58597857Y-64499895D01*
X58597857Y-64499895D02*
X58750238Y-64499895D01*
X58750238Y-64499895D02*
X58826428Y-64461800D01*
X58826428Y-64461800D02*
X58864523Y-64423704D01*
X58864523Y-64423704D02*
X58902619Y-64347514D01*
X58902619Y-64347514D02*
X58902619Y-63699895D01*
X59626428Y-63966561D02*
X59626428Y-64499895D01*
X59435952Y-63661800D02*
X59245475Y-64233228D01*
X59245475Y-64233228D02*
X59740714Y-64233228D01*
X58515856Y-75701323D02*
X58896809Y-75701323D01*
X58439666Y-75929895D02*
X58706333Y-75129895D01*
X58706333Y-75129895D02*
X58972999Y-75929895D01*
X59125380Y-75129895D02*
X59582523Y-75129895D01*
X59353951Y-75929895D02*
X59353951Y-75129895D01*
X59849190Y-75929895D02*
X59849190Y-75129895D01*
X59849190Y-75129895D02*
X60115856Y-75701323D01*
X60115856Y-75701323D02*
X60382523Y-75129895D01*
X60382523Y-75129895D02*
X60382523Y-75929895D01*
X60763476Y-75510847D02*
X61030142Y-75510847D01*
X61144428Y-75929895D02*
X60763476Y-75929895D01*
X60763476Y-75929895D02*
X60763476Y-75129895D01*
X60763476Y-75129895D02*
X61144428Y-75129895D01*
X61906333Y-75167990D02*
X61830143Y-75129895D01*
X61830143Y-75129895D02*
X61715857Y-75129895D01*
X61715857Y-75129895D02*
X61601571Y-75167990D01*
X61601571Y-75167990D02*
X61525381Y-75244180D01*
X61525381Y-75244180D02*
X61487286Y-75320371D01*
X61487286Y-75320371D02*
X61449190Y-75472752D01*
X61449190Y-75472752D02*
X61449190Y-75587038D01*
X61449190Y-75587038D02*
X61487286Y-75739419D01*
X61487286Y-75739419D02*
X61525381Y-75815609D01*
X61525381Y-75815609D02*
X61601571Y-75891800D01*
X61601571Y-75891800D02*
X61715857Y-75929895D01*
X61715857Y-75929895D02*
X61792048Y-75929895D01*
X61792048Y-75929895D02*
X61906333Y-75891800D01*
X61906333Y-75891800D02*
X61944429Y-75853704D01*
X61944429Y-75853704D02*
X61944429Y-75587038D01*
X61944429Y-75587038D02*
X61792048Y-75587038D01*
X62249190Y-75701323D02*
X62630143Y-75701323D01*
X62173000Y-75929895D02*
X62439667Y-75129895D01*
X62439667Y-75129895D02*
X62706333Y-75929895D01*
X62896809Y-75129895D02*
X63392047Y-75129895D01*
X63392047Y-75129895D02*
X63125381Y-75434657D01*
X63125381Y-75434657D02*
X63239666Y-75434657D01*
X63239666Y-75434657D02*
X63315857Y-75472752D01*
X63315857Y-75472752D02*
X63353952Y-75510847D01*
X63353952Y-75510847D02*
X63392047Y-75587038D01*
X63392047Y-75587038D02*
X63392047Y-75777514D01*
X63392047Y-75777514D02*
X63353952Y-75853704D01*
X63353952Y-75853704D02*
X63315857Y-75891800D01*
X63315857Y-75891800D02*
X63239666Y-75929895D01*
X63239666Y-75929895D02*
X63011095Y-75929895D01*
X63011095Y-75929895D02*
X62934904Y-75891800D01*
X62934904Y-75891800D02*
X62896809Y-75853704D01*
X63696809Y-75206085D02*
X63734905Y-75167990D01*
X63734905Y-75167990D02*
X63811095Y-75129895D01*
X63811095Y-75129895D02*
X64001571Y-75129895D01*
X64001571Y-75129895D02*
X64077762Y-75167990D01*
X64077762Y-75167990D02*
X64115857Y-75206085D01*
X64115857Y-75206085D02*
X64153952Y-75282276D01*
X64153952Y-75282276D02*
X64153952Y-75358466D01*
X64153952Y-75358466D02*
X64115857Y-75472752D01*
X64115857Y-75472752D02*
X63658714Y-75929895D01*
X63658714Y-75929895D02*
X64153952Y-75929895D01*
X64611095Y-75472752D02*
X64534905Y-75434657D01*
X64534905Y-75434657D02*
X64496810Y-75396561D01*
X64496810Y-75396561D02*
X64458714Y-75320371D01*
X64458714Y-75320371D02*
X64458714Y-75282276D01*
X64458714Y-75282276D02*
X64496810Y-75206085D01*
X64496810Y-75206085D02*
X64534905Y-75167990D01*
X64534905Y-75167990D02*
X64611095Y-75129895D01*
X64611095Y-75129895D02*
X64763476Y-75129895D01*
X64763476Y-75129895D02*
X64839667Y-75167990D01*
X64839667Y-75167990D02*
X64877762Y-75206085D01*
X64877762Y-75206085D02*
X64915857Y-75282276D01*
X64915857Y-75282276D02*
X64915857Y-75320371D01*
X64915857Y-75320371D02*
X64877762Y-75396561D01*
X64877762Y-75396561D02*
X64839667Y-75434657D01*
X64839667Y-75434657D02*
X64763476Y-75472752D01*
X64763476Y-75472752D02*
X64611095Y-75472752D01*
X64611095Y-75472752D02*
X64534905Y-75510847D01*
X64534905Y-75510847D02*
X64496810Y-75548942D01*
X64496810Y-75548942D02*
X64458714Y-75625133D01*
X64458714Y-75625133D02*
X64458714Y-75777514D01*
X64458714Y-75777514D02*
X64496810Y-75853704D01*
X64496810Y-75853704D02*
X64534905Y-75891800D01*
X64534905Y-75891800D02*
X64611095Y-75929895D01*
X64611095Y-75929895D02*
X64763476Y-75929895D01*
X64763476Y-75929895D02*
X64839667Y-75891800D01*
X64839667Y-75891800D02*
X64877762Y-75853704D01*
X64877762Y-75853704D02*
X64915857Y-75777514D01*
X64915857Y-75777514D02*
X64915857Y-75625133D01*
X64915857Y-75625133D02*
X64877762Y-75548942D01*
X64877762Y-75548942D02*
X64839667Y-75510847D01*
X64839667Y-75510847D02*
X64763476Y-75472752D01*
X65258715Y-75929895D02*
X65258715Y-75129895D01*
X65258715Y-75129895D02*
X65563477Y-75129895D01*
X65563477Y-75129895D02*
X65639667Y-75167990D01*
X65639667Y-75167990D02*
X65677762Y-75206085D01*
X65677762Y-75206085D02*
X65715858Y-75282276D01*
X65715858Y-75282276D02*
X65715858Y-75396561D01*
X65715858Y-75396561D02*
X65677762Y-75472752D01*
X65677762Y-75472752D02*
X65639667Y-75510847D01*
X65639667Y-75510847D02*
X65563477Y-75548942D01*
X65563477Y-75548942D02*
X65258715Y-75548942D01*
X66058715Y-75625133D02*
X66668239Y-75625133D01*
X67011095Y-75701323D02*
X67392048Y-75701323D01*
X66934905Y-75929895D02*
X67201572Y-75129895D01*
X67201572Y-75129895D02*
X67468238Y-75929895D01*
X67734905Y-75129895D02*
X67734905Y-75777514D01*
X67734905Y-75777514D02*
X67773000Y-75853704D01*
X67773000Y-75853704D02*
X67811095Y-75891800D01*
X67811095Y-75891800D02*
X67887286Y-75929895D01*
X67887286Y-75929895D02*
X68039667Y-75929895D01*
X68039667Y-75929895D02*
X68115857Y-75891800D01*
X68115857Y-75891800D02*
X68153952Y-75853704D01*
X68153952Y-75853704D02*
X68192048Y-75777514D01*
X68192048Y-75777514D02*
X68192048Y-75129895D01*
X58674048Y-82025942D02*
X58674048Y-82406895D01*
X58407381Y-81606895D02*
X58674048Y-82025942D01*
X58674048Y-82025942D02*
X58940714Y-81606895D01*
X59169285Y-81683085D02*
X59207381Y-81644990D01*
X59207381Y-81644990D02*
X59283571Y-81606895D01*
X59283571Y-81606895D02*
X59474047Y-81606895D01*
X59474047Y-81606895D02*
X59550238Y-81644990D01*
X59550238Y-81644990D02*
X59588333Y-81683085D01*
X59588333Y-81683085D02*
X59626428Y-81759276D01*
X59626428Y-81759276D02*
X59626428Y-81835466D01*
X59626428Y-81835466D02*
X59588333Y-81949752D01*
X59588333Y-81949752D02*
X59131190Y-82406895D01*
X59131190Y-82406895D02*
X59626428Y-82406895D01*
X65017856Y-82406895D02*
X64560713Y-82406895D01*
X64789285Y-82406895D02*
X64789285Y-81606895D01*
X64789285Y-81606895D02*
X64713094Y-81721180D01*
X64713094Y-81721180D02*
X64636904Y-81797371D01*
X64636904Y-81797371D02*
X64560713Y-81835466D01*
X65703571Y-81606895D02*
X65551190Y-81606895D01*
X65551190Y-81606895D02*
X65474999Y-81644990D01*
X65474999Y-81644990D02*
X65436904Y-81683085D01*
X65436904Y-81683085D02*
X65360714Y-81797371D01*
X65360714Y-81797371D02*
X65322618Y-81949752D01*
X65322618Y-81949752D02*
X65322618Y-82254514D01*
X65322618Y-82254514D02*
X65360714Y-82330704D01*
X65360714Y-82330704D02*
X65398809Y-82368800D01*
X65398809Y-82368800D02*
X65474999Y-82406895D01*
X65474999Y-82406895D02*
X65627380Y-82406895D01*
X65627380Y-82406895D02*
X65703571Y-82368800D01*
X65703571Y-82368800D02*
X65741666Y-82330704D01*
X65741666Y-82330704D02*
X65779761Y-82254514D01*
X65779761Y-82254514D02*
X65779761Y-82064038D01*
X65779761Y-82064038D02*
X65741666Y-81987847D01*
X65741666Y-81987847D02*
X65703571Y-81949752D01*
X65703571Y-81949752D02*
X65627380Y-81911657D01*
X65627380Y-81911657D02*
X65474999Y-81911657D01*
X65474999Y-81911657D02*
X65398809Y-81949752D01*
X65398809Y-81949752D02*
X65360714Y-81987847D01*
X65360714Y-81987847D02*
X65322618Y-82064038D01*
X66732143Y-82406895D02*
X66732143Y-81606895D01*
X66732143Y-81606895D02*
X66998809Y-82178323D01*
X66998809Y-82178323D02*
X67265476Y-81606895D01*
X67265476Y-81606895D02*
X67265476Y-82406895D01*
X67646429Y-82406895D02*
X67646429Y-81606895D01*
X67646429Y-81987847D02*
X68103572Y-81987847D01*
X68103572Y-82406895D02*
X68103572Y-81606895D01*
X68408333Y-81873561D02*
X68827381Y-81873561D01*
X68827381Y-81873561D02*
X68408333Y-82406895D01*
X68408333Y-82406895D02*
X68827381Y-82406895D01*
D12*
%TO.C,R5*%
X75514564Y-62765000D02*
X75060436Y-62765000D01*
X75514564Y-64235000D02*
X75060436Y-64235000D01*
D13*
%TO.C,U2*%
X47530000Y-73680000D02*
X51530000Y-73680000D01*
X47530000Y-78720000D02*
X51530000Y-78720000D01*
D14*
X45185000Y-73705000D02*
G75*
G02*
X44985000Y-73705000I-100000J0D01*
G01*
X44985000Y-73705000D02*
G75*
G02*
X45185000Y-73705000I100000J0D01*
G01*
D12*
%TO.C,Y1*%
X38586000Y-70813000D02*
X38586000Y-78138000D01*
X42186000Y-70813000D02*
X38586000Y-70813000D01*
X42186000Y-78138000D02*
X42186000Y-70813000D01*
%TO.C,R2*%
X52574564Y-79910000D02*
X52120436Y-79910000D01*
X52574564Y-81380000D02*
X52120436Y-81380000D01*
%TO.C,R1*%
X46762936Y-79910000D02*
X47217064Y-79910000D01*
X46762936Y-81380000D02*
X47217064Y-81380000D01*
%TO.C,J4*%
X78680000Y-64710000D02*
X80010000Y-64710000D01*
X78680000Y-66040000D02*
X78680000Y-64710000D01*
X78680000Y-67310000D02*
X78680000Y-72450000D01*
X78680000Y-67310000D02*
X81280000Y-67310000D01*
X78680000Y-72450000D02*
X83880000Y-72450000D01*
X81280000Y-64710000D02*
X83880000Y-64710000D01*
X81280000Y-67310000D02*
X81280000Y-64710000D01*
X83880000Y-64710000D02*
X83880000Y-72450000D01*
%TO.C,C5*%
X66733748Y-58955000D02*
X67256252Y-58955000D01*
X66733748Y-60425000D02*
X67256252Y-60425000D01*
%TO.C,R4*%
X71704564Y-67210000D02*
X71250436Y-67210000D01*
X71704564Y-68680000D02*
X71250436Y-68680000D01*
%TO.C,R7*%
X71250436Y-62765000D02*
X71704564Y-62765000D01*
X71250436Y-64235000D02*
X71704564Y-64235000D01*
%TO.C,R3*%
X71704564Y-71020000D02*
X71250436Y-71020000D01*
X71704564Y-72490000D02*
X71250436Y-72490000D01*
%TO.C,R6*%
X75060436Y-67210000D02*
X75514564Y-67210000D01*
X75060436Y-68680000D02*
X75514564Y-68680000D01*
%TO.C,C3*%
X62288748Y-58955000D02*
X62811252Y-58955000D01*
X62288748Y-60425000D02*
X62811252Y-60425000D01*
%TO.C,C2*%
X71738752Y-76100000D02*
X71216248Y-76100000D01*
X71738752Y-77570000D02*
X71216248Y-77570000D01*
%TO.C,C1*%
X58163748Y-58955000D02*
X58686252Y-58955000D01*
X58163748Y-60425000D02*
X58686252Y-60425000D01*
%TO.C,U1*%
X46805000Y-65855000D02*
X46805000Y-66115000D01*
X46805000Y-71305000D02*
X46805000Y-71045000D01*
X49530000Y-65855000D02*
X46805000Y-65855000D01*
X49530000Y-65855000D02*
X52255000Y-65855000D01*
X49530000Y-71305000D02*
X46805000Y-71305000D01*
X49530000Y-71305000D02*
X52255000Y-71305000D01*
X52255000Y-65855000D02*
X52255000Y-66115000D01*
X52255000Y-71305000D02*
X52255000Y-71045000D01*
X46022500Y-66115000D02*
X45782500Y-65785000D01*
X46262500Y-65785000D01*
X46022500Y-66115000D01*
G36*
X46022500Y-66115000D02*
G01*
X45782500Y-65785000D01*
X46262500Y-65785000D01*
X46022500Y-66115000D01*
G37*
%TO.C,J2*%
X40961000Y-87182000D02*
X40961000Y-85852000D01*
X42291000Y-87182000D02*
X40961000Y-87182000D01*
X43561000Y-84522000D02*
X63941000Y-84522000D01*
X43561000Y-87182000D02*
X43561000Y-84522000D01*
X43561000Y-87182000D02*
X63941000Y-87182000D01*
X63941000Y-87182000D02*
X63941000Y-84522000D01*
%TO.C,U3*%
X46805000Y-58870000D02*
X46805000Y-59130000D01*
X46805000Y-64320000D02*
X46805000Y-64060000D01*
X49530000Y-58870000D02*
X46805000Y-58870000D01*
X49530000Y-58870000D02*
X52255000Y-58870000D01*
X49530000Y-64320000D02*
X46805000Y-64320000D01*
X49530000Y-64320000D02*
X52255000Y-64320000D01*
X52255000Y-58870000D02*
X52255000Y-59130000D01*
X52255000Y-64320000D02*
X52255000Y-64060000D01*
X46022500Y-59130000D02*
X45782500Y-58800000D01*
X46262500Y-58800000D01*
X46022500Y-59130000D01*
G36*
X46022500Y-59130000D02*
G01*
X45782500Y-58800000D01*
X46262500Y-58800000D01*
X46022500Y-59130000D01*
G37*
%TO.C,D2*%
X69792500Y-58730000D02*
X69792500Y-60650000D01*
X69792500Y-60650000D02*
X72477500Y-60650000D01*
X72477500Y-58730000D02*
X69792500Y-58730000D01*
%TO.C,BT1*%
X38802000Y-62805000D02*
X40132000Y-62805000D01*
X38802000Y-64135000D02*
X38802000Y-62805000D01*
X38802000Y-65405000D02*
X38802000Y-68005000D01*
X38802000Y-65405000D02*
X41462000Y-65405000D01*
X38802000Y-68005000D02*
X41462000Y-68005000D01*
X41462000Y-65405000D02*
X41462000Y-68005000D01*
%TO.C,C4*%
X71738752Y-79910000D02*
X71216248Y-79910000D01*
X71738752Y-81380000D02*
X71216248Y-81380000D01*
%TO.C,J3*%
X66361000Y-87182000D02*
X66361000Y-85852000D01*
X67691000Y-87182000D02*
X66361000Y-87182000D01*
X68961000Y-84522000D02*
X76641000Y-84522000D01*
X68961000Y-87182000D02*
X68961000Y-84522000D01*
X68961000Y-87182000D02*
X76641000Y-87182000D01*
X76641000Y-87182000D02*
X76641000Y-84522000D01*
%TO.C,J1*%
X81220000Y-74870000D02*
X82550000Y-74870000D01*
X81220000Y-76200000D02*
X81220000Y-74870000D01*
X81220000Y-77470000D02*
X81220000Y-85150000D01*
X81220000Y-77470000D02*
X83880000Y-77470000D01*
X81220000Y-85150000D02*
X83880000Y-85150000D01*
X83880000Y-77470000D02*
X83880000Y-85150000D01*
%TO.C,D1*%
X73602500Y-58730000D02*
X73602500Y-60650000D01*
X73602500Y-60650000D02*
X76287500Y-60650000D01*
X76287500Y-58730000D02*
X73602500Y-58730000D01*
D13*
%TO.C,U4*%
X60000000Y-66350000D02*
X60000000Y-66455000D01*
X60000000Y-66350000D02*
X60105000Y-66350000D01*
X60000000Y-73350000D02*
X60000000Y-73245000D01*
X60000000Y-73350000D02*
X60105000Y-73350000D01*
X67000000Y-66350000D02*
X66895000Y-66350000D01*
X67000000Y-66350000D02*
X67000000Y-66455000D01*
X67000000Y-73350000D02*
X66895000Y-73350000D01*
X67000000Y-73350000D02*
X67000000Y-73245000D01*
D14*
X57760000Y-67050000D02*
G75*
G02*
X57560000Y-67050000I-100000J0D01*
G01*
X57560000Y-67050000D02*
G75*
G02*
X57760000Y-67050000I100000J0D01*
G01*
D12*
%TO.C,Y2*%
X60800000Y-81175000D02*
X68125000Y-81175000D01*
X68125000Y-77575000D02*
X60800000Y-77575000D01*
X68125000Y-81175000D02*
X68125000Y-77575000D01*
%TD*%
M02*
