%TF.GenerationSoftware,KiCad,Pcbnew,8.0.6*%
%TF.CreationDate,2024-11-27T12:56:47-08:00*%
%TF.ProjectId,Project 3 MCUdatalogger,50726f6a-6563-4742-9033-204d43556461,1*%
%TF.SameCoordinates,Original*%
%TF.FileFunction,Paste,Top*%
%TF.FilePolarity,Positive*%
%FSLAX46Y46*%
G04 Gerber Fmt 4.6, Leading zero omitted, Abs format (unit mm)*
G04 Created by KiCad (PCBNEW 8.0.6) date 2024-11-27 12:56:47*
%MOMM*%
%LPD*%
G01*
G04 APERTURE LIST*
G04 Aperture macros list*
%AMRoundRect*
0 Rectangle with rounded corners*
0 $1 Rounding radius*
0 $2 $3 $4 $5 $6 $7 $8 $9 X,Y pos of 4 corners*
0 Add a 4 corners polygon primitive as box body*
4,1,4,$2,$3,$4,$5,$6,$7,$8,$9,$2,$3,0*
0 Add four circle primitives for the rounded corners*
1,1,$1+$1,$2,$3*
1,1,$1+$1,$4,$5*
1,1,$1+$1,$6,$7*
1,1,$1+$1,$8,$9*
0 Add four rect primitives between the rounded corners*
20,1,$1+$1,$2,$3,$4,$5,0*
20,1,$1+$1,$4,$5,$6,$7,0*
20,1,$1+$1,$6,$7,$8,$9,0*
20,1,$1+$1,$8,$9,$2,$3,0*%
G04 Aperture macros list end*
%ADD10RoundRect,0.250000X0.262500X0.450000X-0.262500X0.450000X-0.262500X-0.450000X0.262500X-0.450000X0*%
%ADD11RoundRect,0.073750X-0.911250X-0.221250X0.911250X-0.221250X0.911250X0.221250X-0.911250X0.221250X0*%
%ADD12R,2.400000X3.325000*%
%ADD13RoundRect,0.250000X-0.262500X-0.450000X0.262500X-0.450000X0.262500X0.450000X-0.262500X0.450000X0*%
%ADD14RoundRect,0.250000X-0.250000X-0.475000X0.250000X-0.475000X0.250000X0.475000X-0.250000X0.475000X0*%
%ADD15RoundRect,0.250000X0.250000X0.475000X-0.250000X0.475000X-0.250000X-0.475000X0.250000X-0.475000X0*%
%ADD16RoundRect,0.150000X-0.650000X-0.150000X0.650000X-0.150000X0.650000X0.150000X-0.650000X0.150000X0*%
%ADD17RoundRect,0.243750X-0.243750X-0.456250X0.243750X-0.456250X0.243750X0.456250X-0.243750X0.456250X0*%
%ADD18RoundRect,0.068750X-0.666250X-0.206250X0.666250X-0.206250X0.666250X0.206250X-0.666250X0.206250X0*%
%ADD19RoundRect,0.068750X-0.206250X-0.666250X0.206250X-0.666250X0.206250X0.666250X-0.206250X0.666250X0*%
%ADD20R,3.325000X2.400000*%
G04 APERTURE END LIST*
D10*
%TO.C,R5*%
X76200000Y-63500000D03*
X74375000Y-63500000D03*
%TD*%
D11*
%TO.C,U2*%
X47055000Y-74295000D03*
X47055000Y-75565000D03*
X47055000Y-76835000D03*
X47055000Y-78105000D03*
X52005000Y-78105000D03*
X52005000Y-76835000D03*
X52005000Y-75565000D03*
X52005000Y-74295000D03*
%TD*%
D12*
%TO.C,Y1*%
X40386000Y-72675500D03*
X40386000Y-78200500D03*
%TD*%
D10*
%TO.C,R2*%
X53260000Y-80645000D03*
X51435000Y-80645000D03*
%TD*%
D13*
%TO.C,R1*%
X46077500Y-80645000D03*
X47902500Y-80645000D03*
%TD*%
D14*
%TO.C,C5*%
X66045000Y-59690000D03*
X67945000Y-59690000D03*
%TD*%
D10*
%TO.C,R4*%
X72390000Y-67945000D03*
X70565000Y-67945000D03*
%TD*%
D13*
%TO.C,R7*%
X70565000Y-63500000D03*
X72390000Y-63500000D03*
%TD*%
D10*
%TO.C,R3*%
X72390000Y-71755000D03*
X70565000Y-71755000D03*
%TD*%
D13*
%TO.C,R6*%
X74375000Y-67945000D03*
X76200000Y-67945000D03*
%TD*%
D14*
%TO.C,C3*%
X61600000Y-59690000D03*
X63500000Y-59690000D03*
%TD*%
D15*
%TO.C,C2*%
X72427500Y-76835000D03*
X70527500Y-76835000D03*
%TD*%
D14*
%TO.C,C1*%
X57475000Y-59690000D03*
X59375000Y-59690000D03*
%TD*%
D16*
%TO.C,U1*%
X45930000Y-66675000D03*
X45930000Y-67945000D03*
X45930000Y-69215000D03*
X45930000Y-70485000D03*
X53130000Y-70485000D03*
X53130000Y-69215000D03*
X53130000Y-67945000D03*
X53130000Y-66675000D03*
%TD*%
%TO.C,U3*%
X45930000Y-59690000D03*
X45930000Y-60960000D03*
X45930000Y-62230000D03*
X45930000Y-63500000D03*
X53130000Y-63500000D03*
X53130000Y-62230000D03*
X53130000Y-60960000D03*
X53130000Y-59690000D03*
%TD*%
D17*
%TO.C,D2*%
X70540000Y-59690000D03*
X72415000Y-59690000D03*
%TD*%
D15*
%TO.C,C4*%
X72427500Y-80645000D03*
X70527500Y-80645000D03*
%TD*%
D17*
%TO.C,D1*%
X74350000Y-59690000D03*
X76225000Y-59690000D03*
%TD*%
D18*
%TO.C,U4*%
X59330000Y-67050000D03*
X59330000Y-67850000D03*
X59330000Y-68650000D03*
X59330000Y-69450000D03*
X59330000Y-70250000D03*
X59330000Y-71050000D03*
X59330000Y-71850000D03*
X59330000Y-72650000D03*
D19*
X60700000Y-74020000D03*
X61500000Y-74020000D03*
X62300000Y-74020000D03*
X63100000Y-74020000D03*
X63900000Y-74020000D03*
X64700000Y-74020000D03*
X65500000Y-74020000D03*
X66300000Y-74020000D03*
D18*
X67670000Y-72650000D03*
X67670000Y-71850000D03*
X67670000Y-71050000D03*
X67670000Y-70250000D03*
X67670000Y-69450000D03*
X67670000Y-68650000D03*
X67670000Y-67850000D03*
X67670000Y-67050000D03*
D19*
X66300000Y-65680000D03*
X65500000Y-65680000D03*
X64700000Y-65680000D03*
X63900000Y-65680000D03*
X63100000Y-65680000D03*
X62300000Y-65680000D03*
X61500000Y-65680000D03*
X60700000Y-65680000D03*
%TD*%
D20*
%TO.C,Y2*%
X66262500Y-79375000D03*
X60737500Y-79375000D03*
%TD*%
M02*
