%TF.GenerationSoftware,KiCad,Pcbnew,8.0.6*%
%TF.CreationDate,2024-11-27T12:56:47-08:00*%
%TF.ProjectId,Project 3 MCUdatalogger,50726f6a-6563-4742-9033-204d43556461,1*%
%TF.SameCoordinates,Original*%
%TF.FileFunction,Copper,L4,Bot*%
%TF.FilePolarity,Positive*%
%FSLAX46Y46*%
G04 Gerber Fmt 4.6, Leading zero omitted, Abs format (unit mm)*
G04 Created by KiCad (PCBNEW 8.0.6) date 2024-11-27 12:56:47*
%MOMM*%
%LPD*%
G01*
G04 APERTURE LIST*
%TA.AperFunction,ComponentPad*%
%ADD10R,1.700000X1.700000*%
%TD*%
%TA.AperFunction,ComponentPad*%
%ADD11O,1.700000X1.700000*%
%TD*%
%TA.AperFunction,ViaPad*%
%ADD12C,0.900000*%
%TD*%
%TA.AperFunction,ViaPad*%
%ADD13C,0.800000*%
%TD*%
%TA.AperFunction,Conductor*%
%ADD14C,0.250000*%
%TD*%
G04 APERTURE END LIST*
D10*
%TO.P,J4,1,Pin_1*%
%TO.N,/MISO*%
X80010000Y-66040000D03*
D11*
%TO.P,J4,2,Pin_2*%
%TO.N,/Vcc*%
X82550000Y-66040000D03*
%TO.P,J4,3,Pin_3*%
%TO.N,/SCK*%
X80010000Y-68580000D03*
%TO.P,J4,4,Pin_4*%
%TO.N,/MOSI*%
X82550000Y-68580000D03*
%TO.P,J4,5,Pin_5*%
%TO.N,/RESET*%
X80010000Y-71120000D03*
%TO.P,J4,6,Pin_6*%
%TO.N,GND*%
X82550000Y-71120000D03*
%TD*%
D10*
%TO.P,J2,1,Pin_1*%
%TO.N,/D2*%
X42291000Y-85852000D03*
D11*
%TO.P,J2,2,Pin_2*%
%TO.N,/D3*%
X44831000Y-85852000D03*
%TO.P,J2,3,Pin_3*%
%TO.N,/D4*%
X47371000Y-85852000D03*
%TO.P,J2,4,Pin_4*%
%TO.N,/D5*%
X49911000Y-85852000D03*
%TO.P,J2,5,Pin_5*%
%TO.N,/D6*%
X52451000Y-85852000D03*
%TO.P,J2,6,Pin_6*%
%TO.N,/D7*%
X54991000Y-85852000D03*
%TO.P,J2,7,Pin_7*%
%TO.N,/D8*%
X57531000Y-85852000D03*
%TO.P,J2,8,Pin_8*%
%TO.N,GND*%
X60071000Y-85852000D03*
%TO.P,J2,9,Pin_9*%
%TO.N,/Vcc*%
X62611000Y-85852000D03*
%TD*%
D10*
%TO.P,BT1,1,+*%
%TO.N,/Vcc*%
X40132000Y-64135000D03*
D11*
%TO.P,BT1,2,-*%
%TO.N,GND*%
X40132000Y-66675000D03*
%TD*%
D10*
%TO.P,J3,1,Pin_1*%
%TO.N,GND*%
X67691000Y-85852000D03*
D11*
%TO.P,J3,2,Pin_2*%
%TO.N,/Vcc*%
X70231000Y-85852000D03*
%TO.P,J3,3,Pin_3*%
%TO.N,/RX*%
X72771000Y-85852000D03*
%TO.P,J3,4,Pin_4*%
%TO.N,/TX*%
X75311000Y-85852000D03*
%TD*%
D10*
%TO.P,J1,1,Pin_1*%
%TO.N,GND*%
X82550000Y-76200000D03*
D11*
%TO.P,J1,2,Pin_2*%
%TO.N,/Vcc*%
X82550000Y-78740000D03*
%TO.P,J1,3,Pin_3*%
%TO.N,/SDA*%
X82550000Y-81280000D03*
%TO.P,J1,4,Pin_4*%
%TO.N,/SCK*%
X82550000Y-83820000D03*
%TD*%
D12*
%TO.N,/Vcc*%
X51181000Y-73025000D03*
X65278000Y-71247000D03*
X73660000Y-66167000D03*
X72390000Y-61341000D03*
X66040000Y-61341000D03*
X61214000Y-70929000D03*
X52705000Y-65278000D03*
X51308000Y-60071000D03*
X47625000Y-66548000D03*
X43942000Y-60960000D03*
X44958000Y-81661000D03*
X54102000Y-79629000D03*
D13*
%TO.N,/MISO*%
X66548000Y-75766000D03*
X80010000Y-64262000D03*
%TO.N,GND*%
X67945000Y-61214000D03*
X72390000Y-64897000D03*
X76200000Y-65024000D03*
X73152000Y-78867000D03*
X45085000Y-78105000D03*
X66035347Y-69210347D03*
X60833000Y-69379000D03*
X47117000Y-69977000D03*
X51181000Y-67056000D03*
X47752000Y-61976000D03*
X51816000Y-61341000D03*
%TO.N,/RESET*%
X62484000Y-68326000D03*
%TO.N,/SCK*%
X54483000Y-69088000D03*
X64325500Y-70040500D03*
%TO.N,Net-(U4-PB6)*%
X57658000Y-71882000D03*
%TO.N,/SCK*%
X79375000Y-74676000D03*
%TO.N,/SDA*%
X80391000Y-80010000D03*
%TO.N,Net-(U4-AREF)*%
X71700527Y-79014722D03*
X66040000Y-70231000D03*
%TO.N,Net-(U4-PB6)*%
X70739000Y-78740000D03*
X63119000Y-80391000D03*
%TO.N,Net-(U4-PB7)*%
X66040000Y-77216000D03*
X61722000Y-72517000D03*
X63373000Y-61214000D03*
%TO.N,/SCK*%
X68267153Y-73591847D03*
X70612000Y-70231000D03*
%TO.N,/SDA*%
X64770000Y-67564000D03*
X70612000Y-66294000D03*
%TO.N,/MOSI*%
X64135000Y-72644000D03*
X70739000Y-74549000D03*
%TO.N,/SDA*%
X54610000Y-65913000D03*
%TD*%
D14*
%TO.N,/SCK*%
X70612000Y-70231000D02*
X78359000Y-70231000D01*
X78359000Y-70231000D02*
X80010000Y-68580000D01*
%TD*%
%TA.AperFunction,Conductor*%
%TO.N,GND*%
G36*
X81930677Y-58566685D02*
G01*
X81951319Y-58583319D01*
X84926681Y-61558681D01*
X84960166Y-61620004D01*
X84963000Y-61646362D01*
X84963000Y-84784638D01*
X84943315Y-84851677D01*
X84926681Y-84872319D01*
X81951319Y-87847681D01*
X81889996Y-87881166D01*
X81863638Y-87884000D01*
X41453362Y-87884000D01*
X41386323Y-87864315D01*
X41365681Y-87847681D01*
X38472135Y-84954135D01*
X40940500Y-84954135D01*
X40940500Y-86749870D01*
X40940501Y-86749876D01*
X40946908Y-86809483D01*
X40997202Y-86944328D01*
X40997206Y-86944335D01*
X41083452Y-87059544D01*
X41083455Y-87059547D01*
X41198664Y-87145793D01*
X41198671Y-87145797D01*
X41333517Y-87196091D01*
X41333516Y-87196091D01*
X41340444Y-87196835D01*
X41393127Y-87202500D01*
X43188872Y-87202499D01*
X43248483Y-87196091D01*
X43383331Y-87145796D01*
X43498546Y-87059546D01*
X43584796Y-86944331D01*
X43633810Y-86812916D01*
X43675681Y-86756984D01*
X43741145Y-86732566D01*
X43809418Y-86747417D01*
X43837673Y-86768569D01*
X43959599Y-86890495D01*
X44056384Y-86958265D01*
X44153165Y-87026032D01*
X44153167Y-87026033D01*
X44153170Y-87026035D01*
X44367337Y-87125903D01*
X44595592Y-87187063D01*
X44772034Y-87202500D01*
X44830999Y-87207659D01*
X44831000Y-87207659D01*
X44831001Y-87207659D01*
X44889966Y-87202500D01*
X45066408Y-87187063D01*
X45294663Y-87125903D01*
X45508830Y-87026035D01*
X45702401Y-86890495D01*
X45869495Y-86723401D01*
X45999425Y-86537842D01*
X46054002Y-86494217D01*
X46123500Y-86487023D01*
X46185855Y-86518546D01*
X46202575Y-86537842D01*
X46332500Y-86723395D01*
X46332505Y-86723401D01*
X46499599Y-86890495D01*
X46596384Y-86958265D01*
X46693165Y-87026032D01*
X46693167Y-87026033D01*
X46693170Y-87026035D01*
X46907337Y-87125903D01*
X47135592Y-87187063D01*
X47312034Y-87202500D01*
X47370999Y-87207659D01*
X47371000Y-87207659D01*
X47371001Y-87207659D01*
X47429966Y-87202500D01*
X47606408Y-87187063D01*
X47834663Y-87125903D01*
X48048830Y-87026035D01*
X48242401Y-86890495D01*
X48409495Y-86723401D01*
X48539425Y-86537842D01*
X48594002Y-86494217D01*
X48663500Y-86487023D01*
X48725855Y-86518546D01*
X48742575Y-86537842D01*
X48872500Y-86723395D01*
X48872505Y-86723401D01*
X49039599Y-86890495D01*
X49136384Y-86958265D01*
X49233165Y-87026032D01*
X49233167Y-87026033D01*
X49233170Y-87026035D01*
X49447337Y-87125903D01*
X49675592Y-87187063D01*
X49852034Y-87202500D01*
X49910999Y-87207659D01*
X49911000Y-87207659D01*
X49911001Y-87207659D01*
X49969966Y-87202500D01*
X50146408Y-87187063D01*
X50374663Y-87125903D01*
X50588830Y-87026035D01*
X50782401Y-86890495D01*
X50949495Y-86723401D01*
X51079425Y-86537842D01*
X51134002Y-86494217D01*
X51203500Y-86487023D01*
X51265855Y-86518546D01*
X51282575Y-86537842D01*
X51412500Y-86723395D01*
X51412505Y-86723401D01*
X51579599Y-86890495D01*
X51676384Y-86958265D01*
X51773165Y-87026032D01*
X51773167Y-87026033D01*
X51773170Y-87026035D01*
X51987337Y-87125903D01*
X52215592Y-87187063D01*
X52392034Y-87202500D01*
X52450999Y-87207659D01*
X52451000Y-87207659D01*
X52451001Y-87207659D01*
X52509966Y-87202500D01*
X52686408Y-87187063D01*
X52914663Y-87125903D01*
X53128830Y-87026035D01*
X53322401Y-86890495D01*
X53489495Y-86723401D01*
X53619425Y-86537842D01*
X53674002Y-86494217D01*
X53743500Y-86487023D01*
X53805855Y-86518546D01*
X53822575Y-86537842D01*
X53952500Y-86723395D01*
X53952505Y-86723401D01*
X54119599Y-86890495D01*
X54216384Y-86958265D01*
X54313165Y-87026032D01*
X54313167Y-87026033D01*
X54313170Y-87026035D01*
X54527337Y-87125903D01*
X54755592Y-87187063D01*
X54932034Y-87202500D01*
X54990999Y-87207659D01*
X54991000Y-87207659D01*
X54991001Y-87207659D01*
X55049966Y-87202500D01*
X55226408Y-87187063D01*
X55454663Y-87125903D01*
X55668830Y-87026035D01*
X55862401Y-86890495D01*
X56029495Y-86723401D01*
X56159425Y-86537842D01*
X56214002Y-86494217D01*
X56283500Y-86487023D01*
X56345855Y-86518546D01*
X56362575Y-86537842D01*
X56492500Y-86723395D01*
X56492505Y-86723401D01*
X56659599Y-86890495D01*
X56756384Y-86958265D01*
X56853165Y-87026032D01*
X56853167Y-87026033D01*
X56853170Y-87026035D01*
X57067337Y-87125903D01*
X57295592Y-87187063D01*
X57472034Y-87202500D01*
X57530999Y-87207659D01*
X57531000Y-87207659D01*
X57531001Y-87207659D01*
X57589966Y-87202500D01*
X57766408Y-87187063D01*
X57994663Y-87125903D01*
X58208830Y-87026035D01*
X58402401Y-86890495D01*
X58569495Y-86723401D01*
X58699730Y-86537405D01*
X58754307Y-86493781D01*
X58823805Y-86486587D01*
X58886160Y-86518110D01*
X58902879Y-86537405D01*
X59032890Y-86723078D01*
X59199917Y-86890105D01*
X59393421Y-87025600D01*
X59607507Y-87125429D01*
X59607516Y-87125433D01*
X59821000Y-87182634D01*
X59821000Y-86285012D01*
X59878007Y-86317925D01*
X60005174Y-86352000D01*
X60136826Y-86352000D01*
X60263993Y-86317925D01*
X60321000Y-86285012D01*
X60321000Y-87182633D01*
X60534483Y-87125433D01*
X60534492Y-87125429D01*
X60748578Y-87025600D01*
X60942082Y-86890105D01*
X61109105Y-86723082D01*
X61239119Y-86537405D01*
X61293696Y-86493781D01*
X61363195Y-86486588D01*
X61425549Y-86518110D01*
X61442269Y-86537405D01*
X61572505Y-86723401D01*
X61739599Y-86890495D01*
X61836384Y-86958265D01*
X61933165Y-87026032D01*
X61933167Y-87026033D01*
X61933170Y-87026035D01*
X62147337Y-87125903D01*
X62375592Y-87187063D01*
X62552034Y-87202500D01*
X62610999Y-87207659D01*
X62611000Y-87207659D01*
X62611001Y-87207659D01*
X62669966Y-87202500D01*
X62846408Y-87187063D01*
X63074663Y-87125903D01*
X63288830Y-87026035D01*
X63482401Y-86890495D01*
X63649495Y-86723401D01*
X63785035Y-86529830D01*
X63884903Y-86315663D01*
X63946063Y-86087408D01*
X63966659Y-85852000D01*
X63946063Y-85616592D01*
X63884903Y-85388337D01*
X63785035Y-85174171D01*
X63779731Y-85166595D01*
X63649494Y-84980597D01*
X63623052Y-84954155D01*
X66341000Y-84954155D01*
X66341000Y-85602000D01*
X67257988Y-85602000D01*
X67225075Y-85659007D01*
X67191000Y-85786174D01*
X67191000Y-85917826D01*
X67225075Y-86044993D01*
X67257988Y-86102000D01*
X66341000Y-86102000D01*
X66341000Y-86749844D01*
X66347401Y-86809372D01*
X66347403Y-86809379D01*
X66397645Y-86944086D01*
X66397649Y-86944093D01*
X66483809Y-87059187D01*
X66483812Y-87059190D01*
X66598906Y-87145350D01*
X66598913Y-87145354D01*
X66733620Y-87195596D01*
X66733627Y-87195598D01*
X66793155Y-87201999D01*
X66793172Y-87202000D01*
X67441000Y-87202000D01*
X67441000Y-86285012D01*
X67498007Y-86317925D01*
X67625174Y-86352000D01*
X67756826Y-86352000D01*
X67883993Y-86317925D01*
X67941000Y-86285012D01*
X67941000Y-87202000D01*
X68588828Y-87202000D01*
X68588844Y-87201999D01*
X68648372Y-87195598D01*
X68648379Y-87195596D01*
X68783086Y-87145354D01*
X68783093Y-87145350D01*
X68898187Y-87059190D01*
X68898190Y-87059187D01*
X68984350Y-86944093D01*
X68984354Y-86944086D01*
X69033422Y-86812529D01*
X69075293Y-86756595D01*
X69140757Y-86732178D01*
X69209030Y-86747030D01*
X69237285Y-86768181D01*
X69359599Y-86890495D01*
X69456384Y-86958265D01*
X69553165Y-87026032D01*
X69553167Y-87026033D01*
X69553170Y-87026035D01*
X69767337Y-87125903D01*
X69995592Y-87187063D01*
X70172034Y-87202500D01*
X70230999Y-87207659D01*
X70231000Y-87207659D01*
X70231001Y-87207659D01*
X70289966Y-87202500D01*
X70466408Y-87187063D01*
X70694663Y-87125903D01*
X70908830Y-87026035D01*
X71102401Y-86890495D01*
X71269495Y-86723401D01*
X71399425Y-86537842D01*
X71454002Y-86494217D01*
X71523500Y-86487023D01*
X71585855Y-86518546D01*
X71602575Y-86537842D01*
X71732500Y-86723395D01*
X71732505Y-86723401D01*
X71899599Y-86890495D01*
X71996384Y-86958265D01*
X72093165Y-87026032D01*
X72093167Y-87026033D01*
X72093170Y-87026035D01*
X72307337Y-87125903D01*
X72535592Y-87187063D01*
X72712034Y-87202500D01*
X72770999Y-87207659D01*
X72771000Y-87207659D01*
X72771001Y-87207659D01*
X72829966Y-87202500D01*
X73006408Y-87187063D01*
X73234663Y-87125903D01*
X73448830Y-87026035D01*
X73642401Y-86890495D01*
X73809495Y-86723401D01*
X73939425Y-86537842D01*
X73994002Y-86494217D01*
X74063500Y-86487023D01*
X74125855Y-86518546D01*
X74142575Y-86537842D01*
X74272500Y-86723395D01*
X74272505Y-86723401D01*
X74439599Y-86890495D01*
X74536384Y-86958265D01*
X74633165Y-87026032D01*
X74633167Y-87026033D01*
X74633170Y-87026035D01*
X74847337Y-87125903D01*
X75075592Y-87187063D01*
X75252034Y-87202500D01*
X75310999Y-87207659D01*
X75311000Y-87207659D01*
X75311001Y-87207659D01*
X75369966Y-87202500D01*
X75546408Y-87187063D01*
X75774663Y-87125903D01*
X75988830Y-87026035D01*
X76182401Y-86890495D01*
X76349495Y-86723401D01*
X76485035Y-86529830D01*
X76584903Y-86315663D01*
X76646063Y-86087408D01*
X76666659Y-85852000D01*
X76646063Y-85616592D01*
X76584903Y-85388337D01*
X76485035Y-85174171D01*
X76479731Y-85166595D01*
X76349494Y-84980597D01*
X76182402Y-84813506D01*
X76182395Y-84813501D01*
X75988834Y-84677967D01*
X75988830Y-84677965D01*
X75917727Y-84644809D01*
X75774663Y-84578097D01*
X75774659Y-84578096D01*
X75774655Y-84578094D01*
X75546413Y-84516938D01*
X75546403Y-84516936D01*
X75311001Y-84496341D01*
X75310999Y-84496341D01*
X75075596Y-84516936D01*
X75075586Y-84516938D01*
X74847344Y-84578094D01*
X74847335Y-84578098D01*
X74633171Y-84677964D01*
X74633169Y-84677965D01*
X74439597Y-84813505D01*
X74272505Y-84980597D01*
X74142575Y-85166158D01*
X74087998Y-85209783D01*
X74018500Y-85216977D01*
X73956145Y-85185454D01*
X73939425Y-85166158D01*
X73809494Y-84980597D01*
X73642402Y-84813506D01*
X73642395Y-84813501D01*
X73448834Y-84677967D01*
X73448830Y-84677965D01*
X73377727Y-84644809D01*
X73234663Y-84578097D01*
X73234659Y-84578096D01*
X73234655Y-84578094D01*
X73006413Y-84516938D01*
X73006403Y-84516936D01*
X72771001Y-84496341D01*
X72770999Y-84496341D01*
X72535596Y-84516936D01*
X72535586Y-84516938D01*
X72307344Y-84578094D01*
X72307335Y-84578098D01*
X72093171Y-84677964D01*
X72093169Y-84677965D01*
X71899597Y-84813505D01*
X71732505Y-84980597D01*
X71602575Y-85166158D01*
X71547998Y-85209783D01*
X71478500Y-85216977D01*
X71416145Y-85185454D01*
X71399425Y-85166158D01*
X71269494Y-84980597D01*
X71102402Y-84813506D01*
X71102395Y-84813501D01*
X70908834Y-84677967D01*
X70908830Y-84677965D01*
X70837727Y-84644809D01*
X70694663Y-84578097D01*
X70694659Y-84578096D01*
X70694655Y-84578094D01*
X70466413Y-84516938D01*
X70466403Y-84516936D01*
X70231001Y-84496341D01*
X70230999Y-84496341D01*
X69995596Y-84516936D01*
X69995586Y-84516938D01*
X69767344Y-84578094D01*
X69767335Y-84578098D01*
X69553171Y-84677964D01*
X69553169Y-84677965D01*
X69359600Y-84813503D01*
X69237284Y-84935819D01*
X69175961Y-84969303D01*
X69106269Y-84964319D01*
X69050336Y-84922447D01*
X69033421Y-84891470D01*
X68984354Y-84759913D01*
X68984350Y-84759906D01*
X68898190Y-84644812D01*
X68898187Y-84644809D01*
X68783093Y-84558649D01*
X68783086Y-84558645D01*
X68648379Y-84508403D01*
X68648372Y-84508401D01*
X68588844Y-84502000D01*
X67941000Y-84502000D01*
X67941000Y-85418988D01*
X67883993Y-85386075D01*
X67756826Y-85352000D01*
X67625174Y-85352000D01*
X67498007Y-85386075D01*
X67441000Y-85418988D01*
X67441000Y-84502000D01*
X66793155Y-84502000D01*
X66733627Y-84508401D01*
X66733620Y-84508403D01*
X66598913Y-84558645D01*
X66598906Y-84558649D01*
X66483812Y-84644809D01*
X66483809Y-84644812D01*
X66397649Y-84759906D01*
X66397645Y-84759913D01*
X66347403Y-84894620D01*
X66347401Y-84894627D01*
X66341000Y-84954155D01*
X63623052Y-84954155D01*
X63482402Y-84813506D01*
X63482395Y-84813501D01*
X63288834Y-84677967D01*
X63288830Y-84677965D01*
X63217727Y-84644809D01*
X63074663Y-84578097D01*
X63074659Y-84578096D01*
X63074655Y-84578094D01*
X62846413Y-84516938D01*
X62846403Y-84516936D01*
X62611001Y-84496341D01*
X62610999Y-84496341D01*
X62375596Y-84516936D01*
X62375586Y-84516938D01*
X62147344Y-84578094D01*
X62147335Y-84578098D01*
X61933171Y-84677964D01*
X61933169Y-84677965D01*
X61739597Y-84813505D01*
X61572508Y-84980594D01*
X61442269Y-85166595D01*
X61387692Y-85210219D01*
X61318193Y-85217412D01*
X61255839Y-85185890D01*
X61239119Y-85166594D01*
X61109113Y-84980926D01*
X61109108Y-84980920D01*
X60942082Y-84813894D01*
X60748578Y-84678399D01*
X60534492Y-84578570D01*
X60534486Y-84578567D01*
X60321000Y-84521364D01*
X60321000Y-85418988D01*
X60263993Y-85386075D01*
X60136826Y-85352000D01*
X60005174Y-85352000D01*
X59878007Y-85386075D01*
X59821000Y-85418988D01*
X59821000Y-84521364D01*
X59820999Y-84521364D01*
X59607513Y-84578567D01*
X59607507Y-84578570D01*
X59393422Y-84678399D01*
X59393420Y-84678400D01*
X59199926Y-84813886D01*
X59199920Y-84813891D01*
X59032891Y-84980920D01*
X59032890Y-84980922D01*
X58902880Y-85166595D01*
X58848303Y-85210219D01*
X58778804Y-85217412D01*
X58716450Y-85185890D01*
X58699730Y-85166594D01*
X58569494Y-84980597D01*
X58402402Y-84813506D01*
X58402395Y-84813501D01*
X58208834Y-84677967D01*
X58208830Y-84677965D01*
X58137727Y-84644809D01*
X57994663Y-84578097D01*
X57994659Y-84578096D01*
X57994655Y-84578094D01*
X57766413Y-84516938D01*
X57766403Y-84516936D01*
X57531001Y-84496341D01*
X57530999Y-84496341D01*
X57295596Y-84516936D01*
X57295586Y-84516938D01*
X57067344Y-84578094D01*
X57067335Y-84578098D01*
X56853171Y-84677964D01*
X56853169Y-84677965D01*
X56659597Y-84813505D01*
X56492505Y-84980597D01*
X56362575Y-85166158D01*
X56307998Y-85209783D01*
X56238500Y-85216977D01*
X56176145Y-85185454D01*
X56159425Y-85166158D01*
X56029494Y-84980597D01*
X55862402Y-84813506D01*
X55862395Y-84813501D01*
X55668834Y-84677967D01*
X55668830Y-84677965D01*
X55597727Y-84644809D01*
X55454663Y-84578097D01*
X55454659Y-84578096D01*
X55454655Y-84578094D01*
X55226413Y-84516938D01*
X55226403Y-84516936D01*
X54991001Y-84496341D01*
X54990999Y-84496341D01*
X54755596Y-84516936D01*
X54755586Y-84516938D01*
X54527344Y-84578094D01*
X54527335Y-84578098D01*
X54313171Y-84677964D01*
X54313169Y-84677965D01*
X54119597Y-84813505D01*
X53952505Y-84980597D01*
X53822575Y-85166158D01*
X53767998Y-85209783D01*
X53698500Y-85216977D01*
X53636145Y-85185454D01*
X53619425Y-85166158D01*
X53489494Y-84980597D01*
X53322402Y-84813506D01*
X53322395Y-84813501D01*
X53128834Y-84677967D01*
X53128830Y-84677965D01*
X53057727Y-84644809D01*
X52914663Y-84578097D01*
X52914659Y-84578096D01*
X52914655Y-84578094D01*
X52686413Y-84516938D01*
X52686403Y-84516936D01*
X52451001Y-84496341D01*
X52450999Y-84496341D01*
X52215596Y-84516936D01*
X52215586Y-84516938D01*
X51987344Y-84578094D01*
X51987335Y-84578098D01*
X51773171Y-84677964D01*
X51773169Y-84677965D01*
X51579597Y-84813505D01*
X51412505Y-84980597D01*
X51282575Y-85166158D01*
X51227998Y-85209783D01*
X51158500Y-85216977D01*
X51096145Y-85185454D01*
X51079425Y-85166158D01*
X50949494Y-84980597D01*
X50782402Y-84813506D01*
X50782395Y-84813501D01*
X50588834Y-84677967D01*
X50588830Y-84677965D01*
X50517727Y-84644809D01*
X50374663Y-84578097D01*
X50374659Y-84578096D01*
X50374655Y-84578094D01*
X50146413Y-84516938D01*
X50146403Y-84516936D01*
X49911001Y-84496341D01*
X49910999Y-84496341D01*
X49675596Y-84516936D01*
X49675586Y-84516938D01*
X49447344Y-84578094D01*
X49447335Y-84578098D01*
X49233171Y-84677964D01*
X49233169Y-84677965D01*
X49039597Y-84813505D01*
X48872505Y-84980597D01*
X48742575Y-85166158D01*
X48687998Y-85209783D01*
X48618500Y-85216977D01*
X48556145Y-85185454D01*
X48539425Y-85166158D01*
X48409494Y-84980597D01*
X48242402Y-84813506D01*
X48242395Y-84813501D01*
X48048834Y-84677967D01*
X48048830Y-84677965D01*
X47977727Y-84644809D01*
X47834663Y-84578097D01*
X47834659Y-84578096D01*
X47834655Y-84578094D01*
X47606413Y-84516938D01*
X47606403Y-84516936D01*
X47371001Y-84496341D01*
X47370999Y-84496341D01*
X47135596Y-84516936D01*
X47135586Y-84516938D01*
X46907344Y-84578094D01*
X46907335Y-84578098D01*
X46693171Y-84677964D01*
X46693169Y-84677965D01*
X46499597Y-84813505D01*
X46332505Y-84980597D01*
X46202575Y-85166158D01*
X46147998Y-85209783D01*
X46078500Y-85216977D01*
X46016145Y-85185454D01*
X45999425Y-85166158D01*
X45869494Y-84980597D01*
X45702402Y-84813506D01*
X45702395Y-84813501D01*
X45508834Y-84677967D01*
X45508830Y-84677965D01*
X45437727Y-84644809D01*
X45294663Y-84578097D01*
X45294659Y-84578096D01*
X45294655Y-84578094D01*
X45066413Y-84516938D01*
X45066403Y-84516936D01*
X44831001Y-84496341D01*
X44830999Y-84496341D01*
X44595596Y-84516936D01*
X44595586Y-84516938D01*
X44367344Y-84578094D01*
X44367335Y-84578098D01*
X44153171Y-84677964D01*
X44153169Y-84677965D01*
X43959600Y-84813503D01*
X43837673Y-84935430D01*
X43776350Y-84968914D01*
X43706658Y-84963930D01*
X43650725Y-84922058D01*
X43633810Y-84891081D01*
X43584797Y-84759671D01*
X43584793Y-84759664D01*
X43498547Y-84644455D01*
X43498544Y-84644452D01*
X43383335Y-84558206D01*
X43383328Y-84558202D01*
X43248482Y-84507908D01*
X43248483Y-84507908D01*
X43188883Y-84501501D01*
X43188881Y-84501500D01*
X43188873Y-84501500D01*
X43188864Y-84501500D01*
X41393129Y-84501500D01*
X41393123Y-84501501D01*
X41333516Y-84507908D01*
X41198671Y-84558202D01*
X41198664Y-84558206D01*
X41083455Y-84644452D01*
X41083452Y-84644455D01*
X40997206Y-84759664D01*
X40997202Y-84759671D01*
X40946908Y-84894517D01*
X40940501Y-84954116D01*
X40940500Y-84954135D01*
X38472135Y-84954135D01*
X38263319Y-84745319D01*
X38229834Y-84683996D01*
X38227000Y-84657638D01*
X38227000Y-81661000D01*
X44002901Y-81661000D01*
X44021252Y-81847331D01*
X44021253Y-81847333D01*
X44075604Y-82026502D01*
X44163862Y-82191623D01*
X44163864Y-82191626D01*
X44282642Y-82336357D01*
X44427373Y-82455135D01*
X44427376Y-82455137D01*
X44562759Y-82527500D01*
X44592499Y-82543396D01*
X44769200Y-82596998D01*
X44771666Y-82597746D01*
X44771668Y-82597747D01*
X44788374Y-82599392D01*
X44958000Y-82616099D01*
X45144331Y-82597747D01*
X45323501Y-82543396D01*
X45488625Y-82455136D01*
X45633357Y-82336357D01*
X45752136Y-82191625D01*
X45840396Y-82026501D01*
X45894747Y-81847331D01*
X45913099Y-81661000D01*
X45894747Y-81474669D01*
X45840396Y-81295499D01*
X45832111Y-81279999D01*
X45752137Y-81130376D01*
X45752135Y-81130373D01*
X45633357Y-80985642D01*
X45488626Y-80866864D01*
X45488623Y-80866862D01*
X45323502Y-80778604D01*
X45144333Y-80724253D01*
X45144331Y-80724252D01*
X44958000Y-80705901D01*
X44771668Y-80724252D01*
X44771666Y-80724253D01*
X44592497Y-80778604D01*
X44427376Y-80866862D01*
X44427373Y-80866864D01*
X44282642Y-80985642D01*
X44163864Y-81130373D01*
X44163862Y-81130376D01*
X44075604Y-81295497D01*
X44021253Y-81474666D01*
X44021252Y-81474668D01*
X44002901Y-81661000D01*
X38227000Y-81661000D01*
X38227000Y-79629000D01*
X53146901Y-79629000D01*
X53165252Y-79815331D01*
X53165253Y-79815333D01*
X53219604Y-79994502D01*
X53307862Y-80159623D01*
X53307864Y-80159626D01*
X53426642Y-80304357D01*
X53571373Y-80423135D01*
X53571376Y-80423137D01*
X53736497Y-80511395D01*
X53736499Y-80511396D01*
X53915666Y-80565746D01*
X53915668Y-80565747D01*
X53932374Y-80567392D01*
X54102000Y-80584099D01*
X54288331Y-80565747D01*
X54467501Y-80511396D01*
X54632625Y-80423136D01*
X54671783Y-80391000D01*
X62213540Y-80391000D01*
X62233326Y-80579256D01*
X62233327Y-80579259D01*
X62291818Y-80759277D01*
X62291821Y-80759284D01*
X62386467Y-80923216D01*
X62442676Y-80985642D01*
X62513129Y-81063888D01*
X62666265Y-81175148D01*
X62666270Y-81175151D01*
X62839192Y-81252142D01*
X62839197Y-81252144D01*
X63024354Y-81291500D01*
X63024355Y-81291500D01*
X63213644Y-81291500D01*
X63213646Y-81291500D01*
X63398803Y-81252144D01*
X63571730Y-81175151D01*
X63724871Y-81063888D01*
X63851533Y-80923216D01*
X63946179Y-80759284D01*
X64004674Y-80579256D01*
X64024460Y-80391000D01*
X64004674Y-80202744D01*
X63946179Y-80022716D01*
X63938837Y-80010000D01*
X79485540Y-80010000D01*
X79505326Y-80198256D01*
X79505327Y-80198259D01*
X79563818Y-80378277D01*
X79563821Y-80378284D01*
X79658467Y-80542216D01*
X79712451Y-80602171D01*
X79785129Y-80682888D01*
X79938265Y-80794148D01*
X79938270Y-80794151D01*
X80111192Y-80871142D01*
X80111197Y-80871144D01*
X80296354Y-80910500D01*
X80296355Y-80910500D01*
X80485644Y-80910500D01*
X80485646Y-80910500D01*
X80670803Y-80871144D01*
X80843730Y-80794151D01*
X80996871Y-80682888D01*
X81123533Y-80542216D01*
X81218179Y-80378284D01*
X81276674Y-80198256D01*
X81296460Y-80010000D01*
X81276674Y-79821744D01*
X81218179Y-79641716D01*
X81123533Y-79477784D01*
X80996871Y-79337112D01*
X80996870Y-79337111D01*
X80843734Y-79225851D01*
X80843729Y-79225848D01*
X80670807Y-79148857D01*
X80670802Y-79148855D01*
X80525001Y-79117865D01*
X80485646Y-79109500D01*
X80296354Y-79109500D01*
X80263897Y-79116398D01*
X80111197Y-79148855D01*
X80111192Y-79148857D01*
X79938270Y-79225848D01*
X79938265Y-79225851D01*
X79785129Y-79337111D01*
X79658466Y-79477785D01*
X79563821Y-79641715D01*
X79563818Y-79641722D01*
X79507409Y-79815333D01*
X79505326Y-79821744D01*
X79485540Y-80010000D01*
X63938837Y-80010000D01*
X63851533Y-79858784D01*
X63724871Y-79718112D01*
X63724870Y-79718111D01*
X63571734Y-79606851D01*
X63571729Y-79606848D01*
X63398807Y-79529857D01*
X63398802Y-79529855D01*
X63253001Y-79498865D01*
X63213646Y-79490500D01*
X63024354Y-79490500D01*
X62991897Y-79497398D01*
X62839197Y-79529855D01*
X62839192Y-79529857D01*
X62666270Y-79606848D01*
X62666265Y-79606851D01*
X62513129Y-79718111D01*
X62386466Y-79858785D01*
X62291821Y-80022715D01*
X62291818Y-80022722D01*
X62234784Y-80198256D01*
X62233326Y-80202744D01*
X62213540Y-80391000D01*
X54671783Y-80391000D01*
X54777357Y-80304357D01*
X54896136Y-80159625D01*
X54984396Y-79994501D01*
X55038747Y-79815331D01*
X55057099Y-79629000D01*
X55038747Y-79442669D01*
X54984396Y-79263499D01*
X54923119Y-79148857D01*
X54896137Y-79098376D01*
X54896135Y-79098373D01*
X54777357Y-78953642D01*
X54632626Y-78834864D01*
X54632623Y-78834862D01*
X54467502Y-78746604D01*
X54445732Y-78740000D01*
X69833540Y-78740000D01*
X69853326Y-78928256D01*
X69853327Y-78928259D01*
X69911818Y-79108277D01*
X69911821Y-79108284D01*
X70006467Y-79272216D01*
X70064899Y-79337111D01*
X70133129Y-79412888D01*
X70286265Y-79524148D01*
X70286270Y-79524151D01*
X70459192Y-79601142D01*
X70459197Y-79601144D01*
X70644354Y-79640500D01*
X70644355Y-79640500D01*
X70833644Y-79640500D01*
X70833646Y-79640500D01*
X70947097Y-79616385D01*
X71016762Y-79621701D01*
X71065025Y-79654702D01*
X71094655Y-79687609D01*
X71094662Y-79687615D01*
X71247792Y-79798870D01*
X71247797Y-79798873D01*
X71420719Y-79875864D01*
X71420724Y-79875866D01*
X71605881Y-79915222D01*
X71605882Y-79915222D01*
X71795171Y-79915222D01*
X71795173Y-79915222D01*
X71980330Y-79875866D01*
X72153257Y-79798873D01*
X72306398Y-79687610D01*
X72433060Y-79546938D01*
X72527706Y-79383006D01*
X72586201Y-79202978D01*
X72605987Y-79014722D01*
X72586201Y-78826466D01*
X72558106Y-78739999D01*
X81194341Y-78739999D01*
X81194341Y-78740000D01*
X81214936Y-78975403D01*
X81214938Y-78975413D01*
X81276094Y-79203655D01*
X81276096Y-79203659D01*
X81276097Y-79203663D01*
X81359723Y-79382999D01*
X81375965Y-79417830D01*
X81375967Y-79417834D01*
X81511501Y-79611395D01*
X81511506Y-79611402D01*
X81678597Y-79778493D01*
X81678603Y-79778498D01*
X81864158Y-79908425D01*
X81907783Y-79963002D01*
X81914977Y-80032500D01*
X81883454Y-80094855D01*
X81864158Y-80111575D01*
X81678597Y-80241505D01*
X81511505Y-80408597D01*
X81375965Y-80602169D01*
X81375964Y-80602171D01*
X81276098Y-80816335D01*
X81276094Y-80816344D01*
X81214938Y-81044586D01*
X81214936Y-81044596D01*
X81194341Y-81279999D01*
X81194341Y-81280000D01*
X81214936Y-81515403D01*
X81214938Y-81515413D01*
X81276094Y-81743655D01*
X81276096Y-81743659D01*
X81276097Y-81743663D01*
X81375965Y-81957830D01*
X81375967Y-81957834D01*
X81511501Y-82151395D01*
X81511506Y-82151402D01*
X81678597Y-82318493D01*
X81678603Y-82318498D01*
X81864158Y-82448425D01*
X81907783Y-82503002D01*
X81914977Y-82572500D01*
X81883454Y-82634855D01*
X81864158Y-82651575D01*
X81678597Y-82781505D01*
X81511505Y-82948597D01*
X81375965Y-83142169D01*
X81375964Y-83142171D01*
X81276098Y-83356335D01*
X81276094Y-83356344D01*
X81214938Y-83584586D01*
X81214936Y-83584596D01*
X81194341Y-83819999D01*
X81194341Y-83820000D01*
X81214936Y-84055403D01*
X81214938Y-84055413D01*
X81276094Y-84283655D01*
X81276096Y-84283659D01*
X81276097Y-84283663D01*
X81375271Y-84496341D01*
X81375965Y-84497830D01*
X81375967Y-84497834D01*
X81478631Y-84644452D01*
X81511505Y-84691401D01*
X81678599Y-84858495D01*
X81730044Y-84894517D01*
X81872165Y-84994032D01*
X81872167Y-84994033D01*
X81872170Y-84994035D01*
X82086337Y-85093903D01*
X82314592Y-85155063D01*
X82502918Y-85171539D01*
X82549999Y-85175659D01*
X82550000Y-85175659D01*
X82550001Y-85175659D01*
X82589234Y-85172226D01*
X82785408Y-85155063D01*
X83013663Y-85093903D01*
X83227830Y-84994035D01*
X83421401Y-84858495D01*
X83588495Y-84691401D01*
X83724035Y-84497830D01*
X83823903Y-84283663D01*
X83885063Y-84055408D01*
X83905659Y-83820000D01*
X83885063Y-83584592D01*
X83823903Y-83356337D01*
X83724035Y-83142171D01*
X83588495Y-82948599D01*
X83588494Y-82948597D01*
X83421402Y-82781506D01*
X83421396Y-82781501D01*
X83235842Y-82651575D01*
X83192217Y-82596998D01*
X83185023Y-82527500D01*
X83216546Y-82465145D01*
X83235842Y-82448425D01*
X83395891Y-82336357D01*
X83421401Y-82318495D01*
X83588495Y-82151401D01*
X83724035Y-81957830D01*
X83823903Y-81743663D01*
X83885063Y-81515408D01*
X83905659Y-81280000D01*
X83885063Y-81044592D01*
X83823903Y-80816337D01*
X83724035Y-80602171D01*
X83711381Y-80584098D01*
X83588494Y-80408597D01*
X83421402Y-80241506D01*
X83421396Y-80241501D01*
X83235842Y-80111575D01*
X83192217Y-80056998D01*
X83185023Y-79987500D01*
X83216546Y-79925145D01*
X83235842Y-79908425D01*
X83306735Y-79858785D01*
X83421401Y-79778495D01*
X83588495Y-79611401D01*
X83724035Y-79417830D01*
X83823903Y-79203663D01*
X83885063Y-78975408D01*
X83905659Y-78740000D01*
X83885063Y-78504592D01*
X83823903Y-78276337D01*
X83724035Y-78062171D01*
X83680608Y-78000151D01*
X83588496Y-77868600D01*
X83559396Y-77839500D01*
X83466179Y-77746283D01*
X83432696Y-77684963D01*
X83437680Y-77615271D01*
X83479551Y-77559337D01*
X83510529Y-77542422D01*
X83642086Y-77493354D01*
X83642093Y-77493350D01*
X83757187Y-77407190D01*
X83757190Y-77407187D01*
X83843350Y-77292093D01*
X83843354Y-77292086D01*
X83893596Y-77157379D01*
X83893598Y-77157372D01*
X83899999Y-77097844D01*
X83900000Y-77097827D01*
X83900000Y-76450000D01*
X82983012Y-76450000D01*
X83015925Y-76392993D01*
X83050000Y-76265826D01*
X83050000Y-76134174D01*
X83015925Y-76007007D01*
X82983012Y-75950000D01*
X83900000Y-75950000D01*
X83900000Y-75302172D01*
X83899999Y-75302155D01*
X83893598Y-75242627D01*
X83893596Y-75242620D01*
X83843354Y-75107913D01*
X83843350Y-75107906D01*
X83757190Y-74992812D01*
X83757187Y-74992809D01*
X83642093Y-74906649D01*
X83642086Y-74906645D01*
X83507379Y-74856403D01*
X83507372Y-74856401D01*
X83447844Y-74850000D01*
X82800000Y-74850000D01*
X82800000Y-75766988D01*
X82742993Y-75734075D01*
X82615826Y-75700000D01*
X82484174Y-75700000D01*
X82357007Y-75734075D01*
X82300000Y-75766988D01*
X82300000Y-74850000D01*
X81652155Y-74850000D01*
X81592627Y-74856401D01*
X81592620Y-74856403D01*
X81457913Y-74906645D01*
X81457906Y-74906649D01*
X81342812Y-74992809D01*
X81342809Y-74992812D01*
X81256649Y-75107906D01*
X81256645Y-75107913D01*
X81206403Y-75242620D01*
X81206401Y-75242627D01*
X81200000Y-75302155D01*
X81200000Y-75950000D01*
X82116988Y-75950000D01*
X82084075Y-76007007D01*
X82050000Y-76134174D01*
X82050000Y-76265826D01*
X82084075Y-76392993D01*
X82116988Y-76450000D01*
X81200000Y-76450000D01*
X81200000Y-77097844D01*
X81206401Y-77157372D01*
X81206403Y-77157379D01*
X81256645Y-77292086D01*
X81256649Y-77292093D01*
X81342809Y-77407187D01*
X81342812Y-77407190D01*
X81457906Y-77493350D01*
X81457913Y-77493354D01*
X81589470Y-77542421D01*
X81645403Y-77584292D01*
X81669821Y-77649756D01*
X81654970Y-77718029D01*
X81633819Y-77746284D01*
X81511503Y-77868600D01*
X81375965Y-78062169D01*
X81375964Y-78062171D01*
X81276098Y-78276335D01*
X81276094Y-78276344D01*
X81214938Y-78504586D01*
X81214936Y-78504596D01*
X81194341Y-78739999D01*
X72558106Y-78739999D01*
X72527706Y-78646438D01*
X72433060Y-78482506D01*
X72306398Y-78341834D01*
X72306397Y-78341833D01*
X72153261Y-78230573D01*
X72153256Y-78230570D01*
X71980334Y-78153579D01*
X71980329Y-78153577D01*
X71805890Y-78116500D01*
X71795173Y-78114222D01*
X71605881Y-78114222D01*
X71492429Y-78138336D01*
X71422762Y-78133019D01*
X71374501Y-78100019D01*
X71344871Y-78067112D01*
X71344869Y-78067110D01*
X71344866Y-78067107D01*
X71344864Y-78067106D01*
X71191734Y-77955851D01*
X71191729Y-77955848D01*
X71018807Y-77878857D01*
X71018802Y-77878855D01*
X70873001Y-77847865D01*
X70833646Y-77839500D01*
X70644354Y-77839500D01*
X70611897Y-77846398D01*
X70459197Y-77878855D01*
X70459192Y-77878857D01*
X70286270Y-77955848D01*
X70286265Y-77955851D01*
X70133129Y-78067111D01*
X70006466Y-78207785D01*
X69911821Y-78371715D01*
X69911818Y-78371722D01*
X69868645Y-78504596D01*
X69853326Y-78551744D01*
X69833540Y-78740000D01*
X54445732Y-78740000D01*
X54288333Y-78692253D01*
X54288331Y-78692252D01*
X54102000Y-78673901D01*
X53915668Y-78692252D01*
X53915666Y-78692253D01*
X53736497Y-78746604D01*
X53571376Y-78834862D01*
X53571373Y-78834864D01*
X53426642Y-78953642D01*
X53307864Y-79098373D01*
X53307862Y-79098376D01*
X53219604Y-79263497D01*
X53165253Y-79442666D01*
X53165252Y-79442668D01*
X53146901Y-79629000D01*
X38227000Y-79629000D01*
X38227000Y-77216000D01*
X65134540Y-77216000D01*
X65154326Y-77404256D01*
X65154327Y-77404259D01*
X65212818Y-77584277D01*
X65212821Y-77584284D01*
X65307467Y-77748216D01*
X65389660Y-77839500D01*
X65434129Y-77888888D01*
X65587265Y-78000148D01*
X65587270Y-78000151D01*
X65760192Y-78077142D01*
X65760197Y-78077144D01*
X65945354Y-78116500D01*
X65945355Y-78116500D01*
X66134644Y-78116500D01*
X66134646Y-78116500D01*
X66319803Y-78077144D01*
X66492730Y-78000151D01*
X66645871Y-77888888D01*
X66772533Y-77748216D01*
X66867179Y-77584284D01*
X66925674Y-77404256D01*
X66945460Y-77216000D01*
X66925674Y-77027744D01*
X66867179Y-76847716D01*
X66826677Y-76777565D01*
X66810205Y-76709667D01*
X66833057Y-76643640D01*
X66883625Y-76602289D01*
X67000730Y-76550151D01*
X67153871Y-76438888D01*
X67280533Y-76298216D01*
X67375179Y-76134284D01*
X67433674Y-75954256D01*
X67453460Y-75766000D01*
X67433674Y-75577744D01*
X67375179Y-75397716D01*
X67280533Y-75233784D01*
X67153871Y-75093112D01*
X67153870Y-75093111D01*
X67000734Y-74981851D01*
X67000729Y-74981848D01*
X66827807Y-74904857D01*
X66827802Y-74904855D01*
X66682001Y-74873865D01*
X66642646Y-74865500D01*
X66453354Y-74865500D01*
X66420897Y-74872398D01*
X66268197Y-74904855D01*
X66268192Y-74904857D01*
X66095270Y-74981848D01*
X66095265Y-74981851D01*
X65942129Y-75093111D01*
X65815466Y-75233785D01*
X65720821Y-75397715D01*
X65720818Y-75397722D01*
X65662730Y-75576500D01*
X65662326Y-75577744D01*
X65642540Y-75766000D01*
X65662326Y-75954256D01*
X65662327Y-75954259D01*
X65720818Y-76134277D01*
X65720821Y-76134284D01*
X65761321Y-76204432D01*
X65777794Y-76272333D01*
X65754941Y-76338359D01*
X65704371Y-76379711D01*
X65587267Y-76431850D01*
X65587265Y-76431851D01*
X65434129Y-76543111D01*
X65307466Y-76683785D01*
X65212821Y-76847715D01*
X65212818Y-76847722D01*
X65154327Y-77027740D01*
X65154326Y-77027744D01*
X65134540Y-77216000D01*
X38227000Y-77216000D01*
X38227000Y-74549000D01*
X69833540Y-74549000D01*
X69853326Y-74737256D01*
X69853327Y-74737259D01*
X69911818Y-74917277D01*
X69911821Y-74917284D01*
X70006467Y-75081216D01*
X70120817Y-75208214D01*
X70133129Y-75221888D01*
X70286265Y-75333148D01*
X70286270Y-75333151D01*
X70459192Y-75410142D01*
X70459197Y-75410144D01*
X70644354Y-75449500D01*
X70644355Y-75449500D01*
X70833644Y-75449500D01*
X70833646Y-75449500D01*
X71018803Y-75410144D01*
X71191730Y-75333151D01*
X71344871Y-75221888D01*
X71471533Y-75081216D01*
X71566179Y-74917284D01*
X71624674Y-74737256D01*
X71631112Y-74676000D01*
X78469540Y-74676000D01*
X78489326Y-74864256D01*
X78489327Y-74864259D01*
X78547818Y-75044277D01*
X78547821Y-75044284D01*
X78642467Y-75208216D01*
X78727066Y-75302172D01*
X78769129Y-75348888D01*
X78922265Y-75460148D01*
X78922270Y-75460151D01*
X79095192Y-75537142D01*
X79095197Y-75537144D01*
X79280354Y-75576500D01*
X79280355Y-75576500D01*
X79469644Y-75576500D01*
X79469646Y-75576500D01*
X79654803Y-75537144D01*
X79827730Y-75460151D01*
X79980871Y-75348888D01*
X80107533Y-75208216D01*
X80202179Y-75044284D01*
X80260674Y-74864256D01*
X80280460Y-74676000D01*
X80260674Y-74487744D01*
X80202179Y-74307716D01*
X80107533Y-74143784D01*
X79980871Y-74003112D01*
X79980870Y-74003111D01*
X79827734Y-73891851D01*
X79827729Y-73891848D01*
X79654807Y-73814857D01*
X79654802Y-73814855D01*
X79509001Y-73783865D01*
X79469646Y-73775500D01*
X79280354Y-73775500D01*
X79247897Y-73782398D01*
X79095197Y-73814855D01*
X79095192Y-73814857D01*
X78922270Y-73891848D01*
X78922265Y-73891851D01*
X78769129Y-74003111D01*
X78642466Y-74143785D01*
X78547821Y-74307715D01*
X78547818Y-74307722D01*
X78500618Y-74452991D01*
X78489326Y-74487744D01*
X78469540Y-74676000D01*
X71631112Y-74676000D01*
X71644460Y-74549000D01*
X71624674Y-74360744D01*
X71566179Y-74180716D01*
X71471533Y-74016784D01*
X71344871Y-73876112D01*
X71344870Y-73876111D01*
X71191734Y-73764851D01*
X71191729Y-73764848D01*
X71018807Y-73687857D01*
X71018802Y-73687855D01*
X70873001Y-73656865D01*
X70833646Y-73648500D01*
X70644354Y-73648500D01*
X70611897Y-73655398D01*
X70459197Y-73687855D01*
X70459192Y-73687857D01*
X70286270Y-73764848D01*
X70286265Y-73764851D01*
X70133129Y-73876111D01*
X70006466Y-74016785D01*
X69911821Y-74180715D01*
X69911818Y-74180722D01*
X69853327Y-74360740D01*
X69853326Y-74360744D01*
X69833540Y-74549000D01*
X38227000Y-74549000D01*
X38227000Y-73025000D01*
X50225901Y-73025000D01*
X50244252Y-73211331D01*
X50244253Y-73211333D01*
X50298604Y-73390502D01*
X50386862Y-73555623D01*
X50386864Y-73555626D01*
X50505642Y-73700357D01*
X50650373Y-73819135D01*
X50650376Y-73819137D01*
X50786412Y-73891849D01*
X50815499Y-73907396D01*
X50989319Y-73960124D01*
X50994666Y-73961746D01*
X50994668Y-73961747D01*
X51011374Y-73963392D01*
X51181000Y-73980099D01*
X51367331Y-73961747D01*
X51546501Y-73907396D01*
X51711625Y-73819136D01*
X51856357Y-73700357D01*
X51945409Y-73591847D01*
X67361693Y-73591847D01*
X67381479Y-73780103D01*
X67381480Y-73780106D01*
X67439971Y-73960124D01*
X67439974Y-73960131D01*
X67534620Y-74124063D01*
X67661282Y-74264735D01*
X67814418Y-74375995D01*
X67814423Y-74375998D01*
X67987345Y-74452989D01*
X67987350Y-74452991D01*
X68172507Y-74492347D01*
X68172508Y-74492347D01*
X68361797Y-74492347D01*
X68361799Y-74492347D01*
X68546956Y-74452991D01*
X68719883Y-74375998D01*
X68873024Y-74264735D01*
X68999686Y-74124063D01*
X69094332Y-73960131D01*
X69152827Y-73780103D01*
X69172613Y-73591847D01*
X69152827Y-73403591D01*
X69094332Y-73223563D01*
X68999686Y-73059631D01*
X68873024Y-72918959D01*
X68873023Y-72918958D01*
X68719887Y-72807698D01*
X68719882Y-72807695D01*
X68546960Y-72730704D01*
X68546955Y-72730702D01*
X68401154Y-72699712D01*
X68361799Y-72691347D01*
X68172507Y-72691347D01*
X68140050Y-72698245D01*
X67987350Y-72730702D01*
X67987345Y-72730704D01*
X67814423Y-72807695D01*
X67814418Y-72807698D01*
X67661282Y-72918958D01*
X67534619Y-73059632D01*
X67439974Y-73223562D01*
X67439971Y-73223569D01*
X67389748Y-73378142D01*
X67381479Y-73403591D01*
X67361693Y-73591847D01*
X51945409Y-73591847D01*
X51975136Y-73555625D01*
X52063396Y-73390501D01*
X52117747Y-73211331D01*
X52136099Y-73025000D01*
X52117747Y-72838669D01*
X52063396Y-72659499D01*
X52007481Y-72554888D01*
X51975137Y-72494376D01*
X51975135Y-72494373D01*
X51856357Y-72349642D01*
X51711626Y-72230864D01*
X51711623Y-72230862D01*
X51546502Y-72142604D01*
X51367333Y-72088253D01*
X51367331Y-72088252D01*
X51181000Y-72069901D01*
X50994668Y-72088252D01*
X50994666Y-72088253D01*
X50815497Y-72142604D01*
X50650376Y-72230862D01*
X50650373Y-72230864D01*
X50505642Y-72349642D01*
X50386864Y-72494373D01*
X50386862Y-72494376D01*
X50298604Y-72659497D01*
X50244253Y-72838666D01*
X50244252Y-72838668D01*
X50225901Y-73025000D01*
X38227000Y-73025000D01*
X38227000Y-71882000D01*
X56752540Y-71882000D01*
X56772326Y-72070256D01*
X56772327Y-72070259D01*
X56830818Y-72250277D01*
X56830821Y-72250284D01*
X56925467Y-72414216D01*
X57052129Y-72554888D01*
X57205265Y-72666148D01*
X57205270Y-72666151D01*
X57378192Y-72743142D01*
X57378197Y-72743144D01*
X57563354Y-72782500D01*
X57563355Y-72782500D01*
X57752644Y-72782500D01*
X57752646Y-72782500D01*
X57937803Y-72743144D01*
X58110730Y-72666151D01*
X58263871Y-72554888D01*
X58390533Y-72414216D01*
X58485179Y-72250284D01*
X58543674Y-72070256D01*
X58563460Y-71882000D01*
X58543674Y-71693744D01*
X58485179Y-71513716D01*
X58390533Y-71349784D01*
X58263871Y-71209112D01*
X58263870Y-71209111D01*
X58110734Y-71097851D01*
X58110729Y-71097848D01*
X57937807Y-71020857D01*
X57937802Y-71020855D01*
X57792001Y-70989865D01*
X57752646Y-70981500D01*
X57563354Y-70981500D01*
X57530897Y-70988398D01*
X57378197Y-71020855D01*
X57378192Y-71020857D01*
X57205270Y-71097848D01*
X57205265Y-71097851D01*
X57052129Y-71209111D01*
X56925466Y-71349785D01*
X56830821Y-71513715D01*
X56830818Y-71513722D01*
X56772327Y-71693740D01*
X56772326Y-71693744D01*
X56752540Y-71882000D01*
X38227000Y-71882000D01*
X38227000Y-70929000D01*
X60258901Y-70929000D01*
X60277252Y-71115331D01*
X60277253Y-71115333D01*
X60331604Y-71294502D01*
X60419862Y-71459623D01*
X60419864Y-71459626D01*
X60538642Y-71604357D01*
X60683373Y-71723135D01*
X60683376Y-71723137D01*
X60837292Y-71805406D01*
X60848499Y-71811396D01*
X60904133Y-71828272D01*
X60962570Y-71866568D01*
X60991027Y-71930380D01*
X60980468Y-71999447D01*
X60975525Y-72008931D01*
X60894820Y-72148718D01*
X60894818Y-72148722D01*
X60836327Y-72328740D01*
X60836326Y-72328744D01*
X60816540Y-72517000D01*
X60836326Y-72705256D01*
X60836327Y-72705259D01*
X60894818Y-72885277D01*
X60894821Y-72885284D01*
X60989467Y-73049216D01*
X60998845Y-73059631D01*
X61116129Y-73189888D01*
X61269265Y-73301148D01*
X61269270Y-73301151D01*
X61442192Y-73378142D01*
X61442197Y-73378144D01*
X61627354Y-73417500D01*
X61627355Y-73417500D01*
X61816644Y-73417500D01*
X61816646Y-73417500D01*
X62001803Y-73378144D01*
X62174730Y-73301151D01*
X62327871Y-73189888D01*
X62454533Y-73049216D01*
X62549179Y-72885284D01*
X62607674Y-72705256D01*
X62614112Y-72644000D01*
X63229540Y-72644000D01*
X63249326Y-72832256D01*
X63249327Y-72832259D01*
X63307818Y-73012277D01*
X63307821Y-73012284D01*
X63402467Y-73176216D01*
X63434085Y-73211331D01*
X63529129Y-73316888D01*
X63682265Y-73428148D01*
X63682270Y-73428151D01*
X63855192Y-73505142D01*
X63855197Y-73505144D01*
X64040354Y-73544500D01*
X64040355Y-73544500D01*
X64229644Y-73544500D01*
X64229646Y-73544500D01*
X64414803Y-73505144D01*
X64587730Y-73428151D01*
X64740871Y-73316888D01*
X64867533Y-73176216D01*
X64962179Y-73012284D01*
X65020674Y-72832256D01*
X65040460Y-72644000D01*
X65020674Y-72455744D01*
X64996086Y-72380071D01*
X64985612Y-72347834D01*
X64983617Y-72277993D01*
X65019697Y-72218160D01*
X65082398Y-72187332D01*
X65115692Y-72186113D01*
X65278000Y-72202099D01*
X65464331Y-72183747D01*
X65643501Y-72129396D01*
X65808625Y-72041136D01*
X65953357Y-71922357D01*
X66072136Y-71777625D01*
X66160396Y-71612501D01*
X66214747Y-71433331D01*
X66233099Y-71247000D01*
X66230784Y-71223505D01*
X66243801Y-71154864D01*
X66291864Y-71104152D01*
X66315885Y-71093416D01*
X66319790Y-71092146D01*
X66319803Y-71092144D01*
X66492730Y-71015151D01*
X66645871Y-70903888D01*
X66772533Y-70763216D01*
X66867179Y-70599284D01*
X66925674Y-70419256D01*
X66945460Y-70231000D01*
X69706540Y-70231000D01*
X69726326Y-70419256D01*
X69726327Y-70419259D01*
X69784818Y-70599277D01*
X69784821Y-70599284D01*
X69879467Y-70763216D01*
X70006126Y-70903885D01*
X70006129Y-70903888D01*
X70159265Y-71015148D01*
X70159270Y-71015151D01*
X70332192Y-71092142D01*
X70332197Y-71092144D01*
X70517354Y-71131500D01*
X70517355Y-71131500D01*
X70706644Y-71131500D01*
X70706646Y-71131500D01*
X70891803Y-71092144D01*
X71064730Y-71015151D01*
X71217871Y-70903888D01*
X71220788Y-70900647D01*
X71223600Y-70897526D01*
X71283087Y-70860879D01*
X71315748Y-70856500D01*
X78420607Y-70856500D01*
X78481029Y-70844481D01*
X78519816Y-70836766D01*
X78589406Y-70842993D01*
X78644584Y-70885855D01*
X78667829Y-70951745D01*
X78667535Y-70969190D01*
X78654341Y-71119998D01*
X78654341Y-71120000D01*
X78674936Y-71355403D01*
X78674938Y-71355413D01*
X78736094Y-71583655D01*
X78736096Y-71583659D01*
X78736097Y-71583663D01*
X78828983Y-71782857D01*
X78835965Y-71797830D01*
X78835967Y-71797834D01*
X78944281Y-71952521D01*
X78971505Y-71991401D01*
X79138599Y-72158495D01*
X79200872Y-72202099D01*
X79332165Y-72294032D01*
X79332167Y-72294033D01*
X79332170Y-72294035D01*
X79546337Y-72393903D01*
X79774592Y-72455063D01*
X79962918Y-72471539D01*
X80009999Y-72475659D01*
X80010000Y-72475659D01*
X80010001Y-72475659D01*
X80049234Y-72472226D01*
X80245408Y-72455063D01*
X80473663Y-72393903D01*
X80687830Y-72294035D01*
X80881401Y-72158495D01*
X81048495Y-71991401D01*
X81178730Y-71805405D01*
X81233307Y-71761781D01*
X81302805Y-71754587D01*
X81365160Y-71786110D01*
X81381879Y-71805405D01*
X81511890Y-71991078D01*
X81678917Y-72158105D01*
X81872421Y-72293600D01*
X82086507Y-72393429D01*
X82086516Y-72393433D01*
X82300000Y-72450634D01*
X82300000Y-71553012D01*
X82357007Y-71585925D01*
X82484174Y-71620000D01*
X82615826Y-71620000D01*
X82742993Y-71585925D01*
X82800000Y-71553012D01*
X82800000Y-72450633D01*
X83013483Y-72393433D01*
X83013492Y-72393429D01*
X83227578Y-72293600D01*
X83421082Y-72158105D01*
X83588105Y-71991082D01*
X83723600Y-71797578D01*
X83823429Y-71583492D01*
X83823432Y-71583486D01*
X83880636Y-71370000D01*
X82983012Y-71370000D01*
X83015925Y-71312993D01*
X83050000Y-71185826D01*
X83050000Y-71054174D01*
X83015925Y-70927007D01*
X82983012Y-70870000D01*
X83880636Y-70870000D01*
X83880635Y-70869999D01*
X83823432Y-70656513D01*
X83823429Y-70656507D01*
X83723600Y-70442422D01*
X83723599Y-70442420D01*
X83588113Y-70248926D01*
X83588108Y-70248920D01*
X83421078Y-70081890D01*
X83235405Y-69951879D01*
X83191780Y-69897302D01*
X83184588Y-69827804D01*
X83216110Y-69765449D01*
X83235406Y-69748730D01*
X83306735Y-69698785D01*
X83421401Y-69618495D01*
X83588495Y-69451401D01*
X83724035Y-69257830D01*
X83823903Y-69043663D01*
X83885063Y-68815408D01*
X83905659Y-68580000D01*
X83885063Y-68344592D01*
X83823903Y-68116337D01*
X83724035Y-67902171D01*
X83718425Y-67894158D01*
X83588494Y-67708597D01*
X83421402Y-67541506D01*
X83421396Y-67541501D01*
X83235842Y-67411575D01*
X83192217Y-67356998D01*
X83185023Y-67287500D01*
X83216546Y-67225145D01*
X83235842Y-67208425D01*
X83311938Y-67155142D01*
X83421401Y-67078495D01*
X83588495Y-66911401D01*
X83724035Y-66717830D01*
X83823903Y-66503663D01*
X83885063Y-66275408D01*
X83905659Y-66040000D01*
X83885063Y-65804592D01*
X83823903Y-65576337D01*
X83724035Y-65362171D01*
X83710295Y-65342547D01*
X83588494Y-65168597D01*
X83421402Y-65001506D01*
X83421395Y-65001501D01*
X83227834Y-64865967D01*
X83227830Y-64865965D01*
X83227828Y-64865964D01*
X83013663Y-64766097D01*
X83013659Y-64766096D01*
X83013655Y-64766094D01*
X82785413Y-64704938D01*
X82785403Y-64704936D01*
X82550001Y-64684341D01*
X82549999Y-64684341D01*
X82314596Y-64704936D01*
X82314586Y-64704938D01*
X82086344Y-64766094D01*
X82086335Y-64766098D01*
X81872171Y-64865964D01*
X81872169Y-64865965D01*
X81678600Y-65001503D01*
X81556673Y-65123430D01*
X81495350Y-65156914D01*
X81425658Y-65151930D01*
X81369725Y-65110058D01*
X81352810Y-65079081D01*
X81303797Y-64947671D01*
X81303793Y-64947664D01*
X81217547Y-64832455D01*
X81217544Y-64832452D01*
X81102335Y-64746206D01*
X81102328Y-64746202D01*
X80967482Y-64695908D01*
X80959938Y-64694126D01*
X80960580Y-64691404D01*
X80908294Y-64669742D01*
X80868451Y-64612346D01*
X80865963Y-64542520D01*
X80868178Y-64534879D01*
X80868178Y-64534878D01*
X80895674Y-64450256D01*
X80915460Y-64262000D01*
X80895674Y-64073744D01*
X80837179Y-63893716D01*
X80742533Y-63729784D01*
X80615871Y-63589112D01*
X80615870Y-63589111D01*
X80462734Y-63477851D01*
X80462729Y-63477848D01*
X80289807Y-63400857D01*
X80289802Y-63400855D01*
X80144001Y-63369865D01*
X80104646Y-63361500D01*
X79915354Y-63361500D01*
X79882897Y-63368398D01*
X79730197Y-63400855D01*
X79730192Y-63400857D01*
X79557270Y-63477848D01*
X79557265Y-63477851D01*
X79404129Y-63589111D01*
X79277466Y-63729785D01*
X79182821Y-63893715D01*
X79182818Y-63893722D01*
X79124327Y-64073740D01*
X79124326Y-64073744D01*
X79104540Y-64262000D01*
X79124326Y-64450256D01*
X79124327Y-64450259D01*
X79151821Y-64534878D01*
X79153816Y-64604720D01*
X79117735Y-64664552D01*
X79059809Y-64693031D01*
X79060068Y-64694124D01*
X79055294Y-64695252D01*
X79055034Y-64695380D01*
X79054341Y-64695477D01*
X79052520Y-64695907D01*
X78917671Y-64746202D01*
X78917664Y-64746206D01*
X78802455Y-64832452D01*
X78802452Y-64832455D01*
X78716206Y-64947664D01*
X78716202Y-64947671D01*
X78665908Y-65082517D01*
X78659501Y-65142116D01*
X78659500Y-65142135D01*
X78659500Y-66937870D01*
X78659501Y-66937876D01*
X78665908Y-66997483D01*
X78716202Y-67132328D01*
X78716206Y-67132335D01*
X78802452Y-67247544D01*
X78802455Y-67247547D01*
X78917664Y-67333793D01*
X78917671Y-67333797D01*
X79049081Y-67382810D01*
X79105015Y-67424681D01*
X79129432Y-67490145D01*
X79114580Y-67558418D01*
X79093430Y-67586673D01*
X78971503Y-67708600D01*
X78835965Y-67902169D01*
X78835964Y-67902171D01*
X78736098Y-68116335D01*
X78736094Y-68116344D01*
X78674938Y-68344586D01*
X78674936Y-68344596D01*
X78654341Y-68579999D01*
X78654341Y-68580000D01*
X78674936Y-68815403D01*
X78674938Y-68815413D01*
X78701856Y-68915872D01*
X78700193Y-68985722D01*
X78669762Y-69035646D01*
X78136229Y-69569181D01*
X78074906Y-69602666D01*
X78048548Y-69605500D01*
X71315748Y-69605500D01*
X71248709Y-69585815D01*
X71223600Y-69564474D01*
X71217873Y-69558114D01*
X71217869Y-69558110D01*
X71064734Y-69446851D01*
X71064729Y-69446848D01*
X70891807Y-69369857D01*
X70891802Y-69369855D01*
X70746001Y-69338865D01*
X70706646Y-69330500D01*
X70517354Y-69330500D01*
X70484897Y-69337398D01*
X70332197Y-69369855D01*
X70332192Y-69369857D01*
X70159270Y-69446848D01*
X70159265Y-69446851D01*
X70006129Y-69558111D01*
X69879466Y-69698785D01*
X69784821Y-69862715D01*
X69784818Y-69862722D01*
X69727055Y-70040500D01*
X69726326Y-70042744D01*
X69706540Y-70231000D01*
X66945460Y-70231000D01*
X66925674Y-70042744D01*
X66867179Y-69862716D01*
X66772533Y-69698784D01*
X66645871Y-69558112D01*
X66645870Y-69558111D01*
X66492734Y-69446851D01*
X66492729Y-69446848D01*
X66319807Y-69369857D01*
X66319802Y-69369855D01*
X66174001Y-69338865D01*
X66134646Y-69330500D01*
X65945354Y-69330500D01*
X65912897Y-69337398D01*
X65760197Y-69369855D01*
X65760192Y-69369857D01*
X65587270Y-69446848D01*
X65587265Y-69446851D01*
X65434132Y-69558109D01*
X65434129Y-69558111D01*
X65434129Y-69558112D01*
X65378211Y-69620216D01*
X65336701Y-69666317D01*
X65277214Y-69702965D01*
X65207357Y-69701634D01*
X65149309Y-69662747D01*
X65137164Y-69645343D01*
X65058036Y-69508288D01*
X65058034Y-69508285D01*
X64933392Y-69369857D01*
X64931371Y-69367612D01*
X64880291Y-69330500D01*
X64778234Y-69256351D01*
X64778229Y-69256348D01*
X64605307Y-69179357D01*
X64605302Y-69179355D01*
X64459501Y-69148365D01*
X64420146Y-69140000D01*
X64230854Y-69140000D01*
X64198397Y-69146898D01*
X64045697Y-69179355D01*
X64045692Y-69179357D01*
X63872770Y-69256348D01*
X63872765Y-69256351D01*
X63719629Y-69367611D01*
X63592966Y-69508285D01*
X63498321Y-69672215D01*
X63498318Y-69672222D01*
X63447767Y-69827804D01*
X63439826Y-69852244D01*
X63420040Y-70040500D01*
X63439826Y-70228756D01*
X63439827Y-70228759D01*
X63498318Y-70408777D01*
X63498321Y-70408784D01*
X63592967Y-70572716D01*
X63719629Y-70713388D01*
X63872765Y-70824648D01*
X63872770Y-70824651D01*
X64045692Y-70901642D01*
X64045697Y-70901644D01*
X64230854Y-70941000D01*
X64230855Y-70941000D01*
X64237211Y-70942351D01*
X64236869Y-70943958D01*
X64293889Y-70967421D01*
X64333871Y-71024720D01*
X64339712Y-71076308D01*
X64322901Y-71246999D01*
X64341252Y-71433331D01*
X64341253Y-71433333D01*
X64388563Y-71589291D01*
X64389187Y-71659158D01*
X64351939Y-71718271D01*
X64288645Y-71747862D01*
X64244127Y-71746578D01*
X64229646Y-71743500D01*
X64040354Y-71743500D01*
X64007897Y-71750398D01*
X63855197Y-71782855D01*
X63855192Y-71782857D01*
X63682270Y-71859848D01*
X63682265Y-71859851D01*
X63529129Y-71971111D01*
X63402466Y-72111785D01*
X63307821Y-72275715D01*
X63307818Y-72275722D01*
X63250986Y-72450634D01*
X63249326Y-72455744D01*
X63229540Y-72644000D01*
X62614112Y-72644000D01*
X62627460Y-72517000D01*
X62607674Y-72328744D01*
X62549179Y-72148716D01*
X62454533Y-71984784D01*
X62327871Y-71844112D01*
X62327870Y-71844111D01*
X62174734Y-71732851D01*
X62174729Y-71732848D01*
X62037127Y-71671583D01*
X61983890Y-71626333D01*
X61963569Y-71559484D01*
X61982615Y-71492260D01*
X61991702Y-71479649D01*
X62008136Y-71459625D01*
X62096396Y-71294501D01*
X62150747Y-71115331D01*
X62169099Y-70929000D01*
X62150747Y-70742669D01*
X62096396Y-70563499D01*
X62050813Y-70478219D01*
X62008137Y-70398376D01*
X62008135Y-70398373D01*
X61889357Y-70253642D01*
X61744626Y-70134864D01*
X61744623Y-70134862D01*
X61579502Y-70046604D01*
X61400333Y-69992253D01*
X61400331Y-69992252D01*
X61214000Y-69973901D01*
X61027668Y-69992252D01*
X61027666Y-69992253D01*
X60848497Y-70046604D01*
X60683376Y-70134862D01*
X60683373Y-70134864D01*
X60538642Y-70253642D01*
X60419864Y-70398373D01*
X60419862Y-70398376D01*
X60331604Y-70563497D01*
X60277253Y-70742666D01*
X60277252Y-70742668D01*
X60258901Y-70929000D01*
X38227000Y-70929000D01*
X38227000Y-69088000D01*
X53577540Y-69088000D01*
X53597326Y-69276256D01*
X53597327Y-69276259D01*
X53655818Y-69456277D01*
X53655821Y-69456284D01*
X53750467Y-69620216D01*
X53824975Y-69702965D01*
X53877129Y-69760888D01*
X54030265Y-69872148D01*
X54030270Y-69872151D01*
X54203192Y-69949142D01*
X54203197Y-69949144D01*
X54388354Y-69988500D01*
X54388355Y-69988500D01*
X54577644Y-69988500D01*
X54577646Y-69988500D01*
X54762803Y-69949144D01*
X54935730Y-69872151D01*
X55088871Y-69760888D01*
X55215533Y-69620216D01*
X55310179Y-69456284D01*
X55368674Y-69276256D01*
X55388460Y-69088000D01*
X55368674Y-68899744D01*
X55310179Y-68719716D01*
X55215533Y-68555784D01*
X55088871Y-68415112D01*
X55088870Y-68415111D01*
X54966219Y-68326000D01*
X61578540Y-68326000D01*
X61598326Y-68514256D01*
X61598327Y-68514259D01*
X61656818Y-68694277D01*
X61656821Y-68694284D01*
X61751467Y-68858216D01*
X61803381Y-68915872D01*
X61878129Y-68998888D01*
X62031265Y-69110148D01*
X62031270Y-69110151D01*
X62204192Y-69187142D01*
X62204197Y-69187144D01*
X62389354Y-69226500D01*
X62389355Y-69226500D01*
X62578644Y-69226500D01*
X62578646Y-69226500D01*
X62763803Y-69187144D01*
X62936730Y-69110151D01*
X63089871Y-68998888D01*
X63216533Y-68858216D01*
X63311179Y-68694284D01*
X63369674Y-68514256D01*
X63389460Y-68326000D01*
X63369674Y-68137744D01*
X63311179Y-67957716D01*
X63216533Y-67793784D01*
X63089871Y-67653112D01*
X62998427Y-67586674D01*
X62967219Y-67564000D01*
X63864540Y-67564000D01*
X63884326Y-67752256D01*
X63884327Y-67752259D01*
X63942818Y-67932277D01*
X63942821Y-67932284D01*
X64037467Y-68096216D01*
X64119660Y-68187500D01*
X64164129Y-68236888D01*
X64317265Y-68348148D01*
X64317270Y-68348151D01*
X64490192Y-68425142D01*
X64490197Y-68425144D01*
X64675354Y-68464500D01*
X64675355Y-68464500D01*
X64864644Y-68464500D01*
X64864646Y-68464500D01*
X65049803Y-68425144D01*
X65222730Y-68348151D01*
X65375871Y-68236888D01*
X65502533Y-68096216D01*
X65597179Y-67932284D01*
X65655674Y-67752256D01*
X65675460Y-67564000D01*
X65655674Y-67375744D01*
X65597179Y-67195716D01*
X65502533Y-67031784D01*
X65375871Y-66891112D01*
X65375870Y-66891111D01*
X65222734Y-66779851D01*
X65222729Y-66779848D01*
X65049807Y-66702857D01*
X65049802Y-66702855D01*
X64904001Y-66671865D01*
X64864646Y-66663500D01*
X64675354Y-66663500D01*
X64642897Y-66670398D01*
X64490197Y-66702855D01*
X64490192Y-66702857D01*
X64317270Y-66779848D01*
X64317265Y-66779851D01*
X64164129Y-66891111D01*
X64037466Y-67031785D01*
X63942821Y-67195715D01*
X63942818Y-67195722D01*
X63891853Y-67352578D01*
X63884326Y-67375744D01*
X63864540Y-67564000D01*
X62967219Y-67564000D01*
X62936734Y-67541851D01*
X62936729Y-67541848D01*
X62763807Y-67464857D01*
X62763802Y-67464855D01*
X62601675Y-67430395D01*
X62578646Y-67425500D01*
X62389354Y-67425500D01*
X62366325Y-67430395D01*
X62204197Y-67464855D01*
X62204192Y-67464857D01*
X62031270Y-67541848D01*
X62031265Y-67541851D01*
X61878129Y-67653111D01*
X61751466Y-67793785D01*
X61656821Y-67957715D01*
X61656818Y-67957722D01*
X61605279Y-68116344D01*
X61598326Y-68137744D01*
X61578540Y-68326000D01*
X54966219Y-68326000D01*
X54935734Y-68303851D01*
X54935729Y-68303848D01*
X54762807Y-68226857D01*
X54762802Y-68226855D01*
X54617001Y-68195865D01*
X54577646Y-68187500D01*
X54388354Y-68187500D01*
X54355897Y-68194398D01*
X54203197Y-68226855D01*
X54203192Y-68226857D01*
X54030270Y-68303848D01*
X54030265Y-68303851D01*
X53877129Y-68415111D01*
X53750466Y-68555785D01*
X53655821Y-68719715D01*
X53655818Y-68719722D01*
X53610820Y-68858214D01*
X53597326Y-68899744D01*
X53577540Y-69088000D01*
X38227000Y-69088000D01*
X38227000Y-63237135D01*
X38781500Y-63237135D01*
X38781500Y-65032870D01*
X38781501Y-65032876D01*
X38787908Y-65092483D01*
X38838202Y-65227328D01*
X38838206Y-65227335D01*
X38924452Y-65342544D01*
X38924455Y-65342547D01*
X39039664Y-65428793D01*
X39039671Y-65428797D01*
X39050554Y-65432856D01*
X39171598Y-65478002D01*
X39227531Y-65519873D01*
X39251949Y-65585337D01*
X39237098Y-65653610D01*
X39215947Y-65681865D01*
X39093886Y-65803926D01*
X38958400Y-65997420D01*
X38958399Y-65997422D01*
X38858570Y-66211507D01*
X38858567Y-66211513D01*
X38801364Y-66424999D01*
X38801364Y-66425000D01*
X39698988Y-66425000D01*
X39666075Y-66482007D01*
X39632000Y-66609174D01*
X39632000Y-66740826D01*
X39666075Y-66867993D01*
X39698988Y-66925000D01*
X38801364Y-66925000D01*
X38858567Y-67138486D01*
X38858570Y-67138492D01*
X38958399Y-67352578D01*
X39093894Y-67546082D01*
X39260917Y-67713105D01*
X39454421Y-67848600D01*
X39668507Y-67948429D01*
X39668516Y-67948433D01*
X39882000Y-68005634D01*
X39882000Y-67108012D01*
X39939007Y-67140925D01*
X40066174Y-67175000D01*
X40197826Y-67175000D01*
X40324993Y-67140925D01*
X40382000Y-67108012D01*
X40382000Y-68005633D01*
X40595483Y-67948433D01*
X40595492Y-67948429D01*
X40809578Y-67848600D01*
X41003082Y-67713105D01*
X41170105Y-67546082D01*
X41305600Y-67352578D01*
X41405429Y-67138492D01*
X41405432Y-67138486D01*
X41462636Y-66925000D01*
X40565012Y-66925000D01*
X40597925Y-66867993D01*
X40632000Y-66740826D01*
X40632000Y-66609174D01*
X40615608Y-66548000D01*
X46669901Y-66548000D01*
X46688252Y-66734331D01*
X46688253Y-66734333D01*
X46742604Y-66913502D01*
X46830862Y-67078623D01*
X46830864Y-67078626D01*
X46949642Y-67223357D01*
X47094373Y-67342135D01*
X47094376Y-67342137D01*
X47184856Y-67390499D01*
X47259499Y-67430396D01*
X47438666Y-67484746D01*
X47438668Y-67484747D01*
X47455374Y-67486392D01*
X47625000Y-67503099D01*
X47811331Y-67484747D01*
X47990501Y-67430396D01*
X48155625Y-67342136D01*
X48300357Y-67223357D01*
X48419136Y-67078625D01*
X48507396Y-66913501D01*
X48561747Y-66734331D01*
X48580099Y-66548000D01*
X48561747Y-66361669D01*
X48507396Y-66182499D01*
X48448406Y-66072135D01*
X48419137Y-66017376D01*
X48419135Y-66017373D01*
X48300357Y-65872642D01*
X48155626Y-65753864D01*
X48155623Y-65753862D01*
X47990502Y-65665604D01*
X47811333Y-65611253D01*
X47811331Y-65611252D01*
X47625000Y-65592901D01*
X47438668Y-65611252D01*
X47438666Y-65611253D01*
X47259497Y-65665604D01*
X47094376Y-65753862D01*
X47094373Y-65753864D01*
X46949642Y-65872642D01*
X46830864Y-66017373D01*
X46830862Y-66017376D01*
X46742604Y-66182497D01*
X46688253Y-66361666D01*
X46688252Y-66361668D01*
X46669901Y-66548000D01*
X40615608Y-66548000D01*
X40597925Y-66482007D01*
X40565012Y-66425000D01*
X41462636Y-66425000D01*
X41462635Y-66424999D01*
X41405432Y-66211513D01*
X41405429Y-66211507D01*
X41305600Y-65997422D01*
X41305599Y-65997420D01*
X41170113Y-65803926D01*
X41170108Y-65803920D01*
X41048053Y-65681865D01*
X41014568Y-65620542D01*
X41019552Y-65550850D01*
X41061424Y-65494917D01*
X41092400Y-65478002D01*
X41213446Y-65432856D01*
X41224326Y-65428798D01*
X41224326Y-65428797D01*
X41224331Y-65428796D01*
X41339546Y-65342546D01*
X41387865Y-65278000D01*
X51749901Y-65278000D01*
X51768252Y-65464331D01*
X51768253Y-65464333D01*
X51822604Y-65643502D01*
X51910862Y-65808623D01*
X51910864Y-65808626D01*
X52029642Y-65953357D01*
X52174373Y-66072135D01*
X52174376Y-66072137D01*
X52339497Y-66160395D01*
X52339499Y-66160396D01*
X52508008Y-66211513D01*
X52518666Y-66214746D01*
X52518668Y-66214747D01*
X52535374Y-66216392D01*
X52705000Y-66233099D01*
X52891331Y-66214747D01*
X53070501Y-66160396D01*
X53235625Y-66072136D01*
X53380357Y-65953357D01*
X53484881Y-65825994D01*
X53542625Y-65786661D01*
X53612470Y-65784790D01*
X53672238Y-65820977D01*
X53702954Y-65883733D01*
X53703697Y-65906502D01*
X53704540Y-65906502D01*
X53704540Y-65912997D01*
X53704540Y-65913000D01*
X53724326Y-66101256D01*
X53724327Y-66101259D01*
X53782818Y-66281277D01*
X53782821Y-66281284D01*
X53877467Y-66445216D01*
X54004129Y-66585888D01*
X54157265Y-66697148D01*
X54157270Y-66697151D01*
X54330192Y-66774142D01*
X54330197Y-66774144D01*
X54515354Y-66813500D01*
X54515355Y-66813500D01*
X54704644Y-66813500D01*
X54704646Y-66813500D01*
X54889803Y-66774144D01*
X55062730Y-66697151D01*
X55215871Y-66585888D01*
X55342533Y-66445216D01*
X55429837Y-66294000D01*
X69706540Y-66294000D01*
X69726326Y-66482256D01*
X69726327Y-66482259D01*
X69784818Y-66662277D01*
X69784821Y-66662284D01*
X69879467Y-66826216D01*
X69996838Y-66956569D01*
X70006129Y-66966888D01*
X70159265Y-67078148D01*
X70159270Y-67078151D01*
X70332192Y-67155142D01*
X70332197Y-67155144D01*
X70517354Y-67194500D01*
X70517355Y-67194500D01*
X70706644Y-67194500D01*
X70706646Y-67194500D01*
X70891803Y-67155144D01*
X71064730Y-67078151D01*
X71217871Y-66966888D01*
X71344533Y-66826216D01*
X71439179Y-66662284D01*
X71497674Y-66482256D01*
X71517460Y-66294000D01*
X71504112Y-66167000D01*
X72704901Y-66167000D01*
X72723252Y-66353331D01*
X72723253Y-66353333D01*
X72777604Y-66532502D01*
X72865862Y-66697623D01*
X72865864Y-66697626D01*
X72984642Y-66842357D01*
X73129373Y-66961135D01*
X73129376Y-66961137D01*
X73261549Y-67031784D01*
X73294499Y-67049396D01*
X73390857Y-67078626D01*
X73473666Y-67103746D01*
X73473668Y-67103747D01*
X73490374Y-67105392D01*
X73660000Y-67122099D01*
X73846331Y-67103747D01*
X74025501Y-67049396D01*
X74190625Y-66961136D01*
X74335357Y-66842357D01*
X74454136Y-66697625D01*
X74542396Y-66532501D01*
X74596747Y-66353331D01*
X74615099Y-66167000D01*
X74596747Y-65980669D01*
X74542396Y-65801499D01*
X74478451Y-65681865D01*
X74454137Y-65636376D01*
X74454135Y-65636373D01*
X74335357Y-65491642D01*
X74190626Y-65372864D01*
X74190623Y-65372862D01*
X74025502Y-65284604D01*
X73846333Y-65230253D01*
X73846331Y-65230252D01*
X73660000Y-65211901D01*
X73473668Y-65230252D01*
X73473666Y-65230253D01*
X73294497Y-65284604D01*
X73129376Y-65372862D01*
X73129373Y-65372864D01*
X72984642Y-65491642D01*
X72865864Y-65636373D01*
X72865862Y-65636376D01*
X72777604Y-65801497D01*
X72723253Y-65980666D01*
X72723252Y-65980668D01*
X72704901Y-66167000D01*
X71504112Y-66167000D01*
X71497674Y-66105744D01*
X71439179Y-65925716D01*
X71344533Y-65761784D01*
X71217871Y-65621112D01*
X71217870Y-65621111D01*
X71064734Y-65509851D01*
X71064729Y-65509848D01*
X70891807Y-65432857D01*
X70891802Y-65432855D01*
X70715288Y-65395337D01*
X70706646Y-65393500D01*
X70517354Y-65393500D01*
X70508712Y-65395337D01*
X70332197Y-65432855D01*
X70332192Y-65432857D01*
X70159270Y-65509848D01*
X70159265Y-65509851D01*
X70006129Y-65621111D01*
X69879466Y-65761785D01*
X69784821Y-65925715D01*
X69784818Y-65925722D01*
X69727784Y-66101256D01*
X69726326Y-66105744D01*
X69706540Y-66294000D01*
X55429837Y-66294000D01*
X55437179Y-66281284D01*
X55495674Y-66101256D01*
X55515460Y-65913000D01*
X55495674Y-65724744D01*
X55437179Y-65544716D01*
X55342533Y-65380784D01*
X55215871Y-65240112D01*
X55215870Y-65240111D01*
X55062734Y-65128851D01*
X55062729Y-65128848D01*
X54889807Y-65051857D01*
X54889802Y-65051855D01*
X54744001Y-65020865D01*
X54704646Y-65012500D01*
X54515354Y-65012500D01*
X54482897Y-65019398D01*
X54330197Y-65051855D01*
X54330192Y-65051857D01*
X54157270Y-65128848D01*
X54157265Y-65128851D01*
X54004129Y-65240111D01*
X53874582Y-65383988D01*
X53815095Y-65420637D01*
X53745238Y-65419306D01*
X53687190Y-65380420D01*
X53659380Y-65316323D01*
X53659029Y-65288861D01*
X53660099Y-65278000D01*
X53641747Y-65091669D01*
X53587396Y-64912499D01*
X53544612Y-64832455D01*
X53499137Y-64747376D01*
X53499135Y-64747373D01*
X53380357Y-64602642D01*
X53235626Y-64483864D01*
X53235623Y-64483862D01*
X53070502Y-64395604D01*
X52891333Y-64341253D01*
X52891331Y-64341252D01*
X52705000Y-64322901D01*
X52518668Y-64341252D01*
X52518666Y-64341253D01*
X52339497Y-64395604D01*
X52174376Y-64483862D01*
X52174373Y-64483864D01*
X52029642Y-64602642D01*
X51910864Y-64747373D01*
X51910862Y-64747376D01*
X51822604Y-64912497D01*
X51768253Y-65091666D01*
X51768252Y-65091668D01*
X51749901Y-65278000D01*
X41387865Y-65278000D01*
X41425796Y-65227331D01*
X41476091Y-65092483D01*
X41482500Y-65032873D01*
X41482499Y-63237128D01*
X41476091Y-63177517D01*
X41425796Y-63042669D01*
X41425795Y-63042668D01*
X41425793Y-63042664D01*
X41339547Y-62927455D01*
X41339544Y-62927452D01*
X41224335Y-62841206D01*
X41224328Y-62841202D01*
X41089482Y-62790908D01*
X41089483Y-62790908D01*
X41029883Y-62784501D01*
X41029881Y-62784500D01*
X41029873Y-62784500D01*
X41029864Y-62784500D01*
X39234129Y-62784500D01*
X39234123Y-62784501D01*
X39174516Y-62790908D01*
X39039671Y-62841202D01*
X39039664Y-62841206D01*
X38924455Y-62927452D01*
X38924452Y-62927455D01*
X38838206Y-63042664D01*
X38838202Y-63042671D01*
X38787908Y-63177517D01*
X38781501Y-63237116D01*
X38781501Y-63237123D01*
X38781500Y-63237135D01*
X38227000Y-63237135D01*
X38227000Y-61773362D01*
X38246685Y-61706323D01*
X38263319Y-61685681D01*
X38989000Y-60960000D01*
X42986901Y-60960000D01*
X43005252Y-61146331D01*
X43005253Y-61146333D01*
X43059604Y-61325502D01*
X43147862Y-61490623D01*
X43147864Y-61490626D01*
X43266642Y-61635357D01*
X43411373Y-61754135D01*
X43411376Y-61754137D01*
X43576497Y-61842395D01*
X43576499Y-61842396D01*
X43755666Y-61896746D01*
X43755668Y-61896747D01*
X43772374Y-61898392D01*
X43942000Y-61915099D01*
X44128331Y-61896747D01*
X44307501Y-61842396D01*
X44472625Y-61754136D01*
X44617357Y-61635357D01*
X44736136Y-61490625D01*
X44824396Y-61325501D01*
X44858220Y-61214000D01*
X62467540Y-61214000D01*
X62487326Y-61402256D01*
X62487327Y-61402259D01*
X62545818Y-61582277D01*
X62545821Y-61582284D01*
X62640467Y-61746216D01*
X62727067Y-61842395D01*
X62767129Y-61886888D01*
X62920265Y-61998148D01*
X62920270Y-61998151D01*
X63093192Y-62075142D01*
X63093197Y-62075144D01*
X63278354Y-62114500D01*
X63278355Y-62114500D01*
X63467644Y-62114500D01*
X63467646Y-62114500D01*
X63652803Y-62075144D01*
X63825730Y-61998151D01*
X63978871Y-61886888D01*
X64105533Y-61746216D01*
X64200179Y-61582284D01*
X64258674Y-61402256D01*
X64265112Y-61341000D01*
X65084901Y-61341000D01*
X65103252Y-61527331D01*
X65103253Y-61527333D01*
X65157604Y-61706502D01*
X65245862Y-61871623D01*
X65245864Y-61871626D01*
X65364642Y-62016357D01*
X65509373Y-62135135D01*
X65509376Y-62135137D01*
X65674497Y-62223395D01*
X65674499Y-62223396D01*
X65853666Y-62277746D01*
X65853668Y-62277747D01*
X65870374Y-62279392D01*
X66040000Y-62296099D01*
X66226331Y-62277747D01*
X66405501Y-62223396D01*
X66570625Y-62135136D01*
X66715357Y-62016357D01*
X66834136Y-61871625D01*
X66922396Y-61706501D01*
X66976747Y-61527331D01*
X66995099Y-61341000D01*
X71434901Y-61341000D01*
X71453252Y-61527331D01*
X71453253Y-61527333D01*
X71507604Y-61706502D01*
X71595862Y-61871623D01*
X71595864Y-61871626D01*
X71714642Y-62016357D01*
X71859373Y-62135135D01*
X71859376Y-62135137D01*
X72024497Y-62223395D01*
X72024499Y-62223396D01*
X72203666Y-62277746D01*
X72203668Y-62277747D01*
X72220374Y-62279392D01*
X72390000Y-62296099D01*
X72576331Y-62277747D01*
X72755501Y-62223396D01*
X72920625Y-62135136D01*
X73065357Y-62016357D01*
X73184136Y-61871625D01*
X73272396Y-61706501D01*
X73326747Y-61527331D01*
X73345099Y-61341000D01*
X73326747Y-61154669D01*
X73272396Y-60975499D01*
X73213406Y-60865135D01*
X73184137Y-60810376D01*
X73184135Y-60810373D01*
X73065357Y-60665642D01*
X72920626Y-60546864D01*
X72920623Y-60546862D01*
X72755502Y-60458604D01*
X72576333Y-60404253D01*
X72576331Y-60404252D01*
X72390000Y-60385901D01*
X72203668Y-60404252D01*
X72203666Y-60404253D01*
X72024497Y-60458604D01*
X71859376Y-60546862D01*
X71859373Y-60546864D01*
X71714642Y-60665642D01*
X71595864Y-60810373D01*
X71595862Y-60810376D01*
X71507604Y-60975497D01*
X71453253Y-61154666D01*
X71453252Y-61154668D01*
X71434901Y-61341000D01*
X66995099Y-61341000D01*
X66976747Y-61154669D01*
X66922396Y-60975499D01*
X66863406Y-60865135D01*
X66834137Y-60810376D01*
X66834135Y-60810373D01*
X66715357Y-60665642D01*
X66570626Y-60546864D01*
X66570623Y-60546862D01*
X66405502Y-60458604D01*
X66226333Y-60404253D01*
X66226331Y-60404252D01*
X66040000Y-60385901D01*
X65853668Y-60404252D01*
X65853666Y-60404253D01*
X65674497Y-60458604D01*
X65509376Y-60546862D01*
X65509373Y-60546864D01*
X65364642Y-60665642D01*
X65245864Y-60810373D01*
X65245862Y-60810376D01*
X65157604Y-60975497D01*
X65103253Y-61154666D01*
X65103252Y-61154668D01*
X65084901Y-61341000D01*
X64265112Y-61341000D01*
X64278460Y-61214000D01*
X64258674Y-61025744D01*
X64200179Y-60845716D01*
X64105533Y-60681784D01*
X63978871Y-60541112D01*
X63978870Y-60541111D01*
X63825734Y-60429851D01*
X63825729Y-60429848D01*
X63652807Y-60352857D01*
X63652802Y-60352855D01*
X63507001Y-60321865D01*
X63467646Y-60313500D01*
X63278354Y-60313500D01*
X63245897Y-60320398D01*
X63093197Y-60352855D01*
X63093192Y-60352857D01*
X62920270Y-60429848D01*
X62920265Y-60429851D01*
X62767129Y-60541111D01*
X62640466Y-60681785D01*
X62545821Y-60845715D01*
X62545818Y-60845722D01*
X62487327Y-61025740D01*
X62487326Y-61025744D01*
X62467540Y-61214000D01*
X44858220Y-61214000D01*
X44878747Y-61146331D01*
X44897099Y-60960000D01*
X44878747Y-60773669D01*
X44824396Y-60594499D01*
X44795860Y-60541111D01*
X44736137Y-60429376D01*
X44736135Y-60429373D01*
X44617357Y-60284642D01*
X44472626Y-60165864D01*
X44472623Y-60165862D01*
X44307502Y-60077604D01*
X44285732Y-60071000D01*
X50352901Y-60071000D01*
X50371252Y-60257331D01*
X50371253Y-60257333D01*
X50425604Y-60436502D01*
X50513862Y-60601623D01*
X50513864Y-60601626D01*
X50632642Y-60746357D01*
X50777373Y-60865135D01*
X50777376Y-60865137D01*
X50942497Y-60953395D01*
X50942499Y-60953396D01*
X51121666Y-61007746D01*
X51121668Y-61007747D01*
X51138374Y-61009392D01*
X51308000Y-61026099D01*
X51494331Y-61007747D01*
X51673501Y-60953396D01*
X51838625Y-60865136D01*
X51983357Y-60746357D01*
X52102136Y-60601625D01*
X52190396Y-60436501D01*
X52244747Y-60257331D01*
X52263099Y-60071000D01*
X52244747Y-59884669D01*
X52190396Y-59705499D01*
X52102136Y-59540375D01*
X52102135Y-59540373D01*
X51983357Y-59395642D01*
X51838626Y-59276864D01*
X51838623Y-59276862D01*
X51673502Y-59188604D01*
X51494333Y-59134253D01*
X51494331Y-59134252D01*
X51308000Y-59115901D01*
X51121668Y-59134252D01*
X51121666Y-59134253D01*
X50942497Y-59188604D01*
X50777376Y-59276862D01*
X50777373Y-59276864D01*
X50632642Y-59395642D01*
X50513864Y-59540373D01*
X50513862Y-59540376D01*
X50425604Y-59705497D01*
X50371253Y-59884666D01*
X50371252Y-59884668D01*
X50352901Y-60071000D01*
X44285732Y-60071000D01*
X44128333Y-60023253D01*
X44128331Y-60023252D01*
X43942000Y-60004901D01*
X43755668Y-60023252D01*
X43755666Y-60023253D01*
X43576497Y-60077604D01*
X43411376Y-60165862D01*
X43411373Y-60165864D01*
X43266642Y-60284642D01*
X43147864Y-60429373D01*
X43147862Y-60429376D01*
X43059604Y-60594497D01*
X43005253Y-60773666D01*
X43005252Y-60773668D01*
X42986901Y-60960000D01*
X38989000Y-60960000D01*
X41365681Y-58583319D01*
X41427004Y-58549834D01*
X41453362Y-58547000D01*
X81863638Y-58547000D01*
X81930677Y-58566685D01*
G37*
%TD.AperFunction*%
%TD*%
M02*
