M48
; DRILL file {KiCad 8.0.6} date 2024-11-27T12:56:50-0800
; FORMAT={-:-/ absolute / inch / decimal}
; #@! TF.CreationDate,2024-11-27T12:56:50-08:00
; #@! TF.GenerationSoftware,Kicad,Pcbnew,8.0.6
; #@! TF.FileFunction,Plated,1,4,PTH
FMAT,2
INCH
; #@! TA.AperFunction,Plated,PTH,ViaDrill
T1C0.0157
; #@! TA.AperFunction,Plated,PTH,ComponentDrill
T2C0.0394
%
G90
G05
T1
X1.73Y-2.4
X1.77Y-3.215
X1.775Y-3.075
X1.855Y-2.755
X1.875Y-2.62
X1.88Y-2.44
X2.015Y-2.64
X2.015Y-2.875
X2.02Y-2.365
X2.04Y-2.415
X2.075Y-2.57
X2.13Y-3.135
X2.145Y-2.72
X2.15Y-2.595
X2.27Y-2.83
X2.395Y-2.7315
X2.41Y-2.7925
X2.43Y-2.855
X2.46Y-2.69
X2.485Y-3.165
X2.495Y-2.41
X2.525Y-2.86
X2.5325Y-2.7575
X2.55Y-2.66
X2.57Y-2.805
X2.5998Y-2.7248
X2.6Y-2.415
X2.6Y-2.765
X2.6Y-3.04
X2.62Y-2.9829
X2.675Y-2.41
X2.6877Y-2.8973
X2.78Y-2.61
X2.78Y-2.765
X2.785Y-2.935
X2.785Y-3.1
X2.8229Y-3.1108
X2.85Y-2.415
X2.85Y-2.555
X2.88Y-3.105
X2.9Y-2.605
X3.0Y-2.56
X3.125Y-2.94
X3.15Y-2.53
X3.165Y-3.15
T2
X1.58Y-2.525
X1.58Y-2.625
X1.665Y-3.38
X1.765Y-3.38
X1.865Y-3.38
X1.965Y-3.38
X2.065Y-3.38
X2.165Y-3.38
X2.265Y-3.38
X2.365Y-3.38
X2.465Y-3.38
X2.665Y-3.38
X2.765Y-3.38
X2.865Y-3.38
X2.965Y-3.38
X3.15Y-2.6
X3.15Y-2.7
X3.15Y-2.8
X3.25Y-2.6
X3.25Y-2.7
X3.25Y-2.8
X3.25Y-3.0
X3.25Y-3.1
X3.25Y-3.2
X3.25Y-3.3
M30
