%TF.GenerationSoftware,KiCad,Pcbnew,8.0.6*%
%TF.CreationDate,2024-11-27T12:56:47-08:00*%
%TF.ProjectId,Project 3 MCUdatalogger,50726f6a-6563-4742-9033-204d43556461,1*%
%TF.SameCoordinates,Original*%
%TF.FileFunction,Copper,L3,Inr*%
%TF.FilePolarity,Positive*%
%FSLAX46Y46*%
G04 Gerber Fmt 4.6, Leading zero omitted, Abs format (unit mm)*
G04 Created by KiCad (PCBNEW 8.0.6) date 2024-11-27 12:56:47*
%MOMM*%
%LPD*%
G01*
G04 APERTURE LIST*
%TA.AperFunction,ComponentPad*%
%ADD10R,1.700000X1.700000*%
%TD*%
%TA.AperFunction,ComponentPad*%
%ADD11O,1.700000X1.700000*%
%TD*%
%TA.AperFunction,ViaPad*%
%ADD12C,0.900000*%
%TD*%
%TA.AperFunction,ViaPad*%
%ADD13C,0.800000*%
%TD*%
%TA.AperFunction,Conductor*%
%ADD14C,0.250000*%
%TD*%
G04 APERTURE END LIST*
D10*
%TO.N,/MISO*%
%TO.C,J4*%
X80010000Y-66040000D03*
D11*
%TO.N,/Vcc*%
X82550000Y-66040000D03*
%TO.N,/SCK*%
X80010000Y-68580000D03*
%TO.N,/MOSI*%
X82550000Y-68580000D03*
%TO.N,/RESET*%
X80010000Y-71120000D03*
%TO.N,GND*%
X82550000Y-71120000D03*
%TD*%
D10*
%TO.N,/D2*%
%TO.C,J2*%
X42291000Y-85852000D03*
D11*
%TO.N,/D3*%
X44831000Y-85852000D03*
%TO.N,/D4*%
X47371000Y-85852000D03*
%TO.N,/D5*%
X49911000Y-85852000D03*
%TO.N,/D6*%
X52451000Y-85852000D03*
%TO.N,/D7*%
X54991000Y-85852000D03*
%TO.N,/D8*%
X57531000Y-85852000D03*
%TO.N,GND*%
X60071000Y-85852000D03*
%TO.N,/Vcc*%
X62611000Y-85852000D03*
%TD*%
D10*
%TO.N,/Vcc*%
%TO.C,BT1*%
X40132000Y-64135000D03*
D11*
%TO.N,GND*%
X40132000Y-66675000D03*
%TD*%
D10*
%TO.N,GND*%
%TO.C,J3*%
X67691000Y-85852000D03*
D11*
%TO.N,/Vcc*%
X70231000Y-85852000D03*
%TO.N,/RX*%
X72771000Y-85852000D03*
%TO.N,/TX*%
X75311000Y-85852000D03*
%TD*%
D10*
%TO.N,GND*%
%TO.C,J1*%
X82550000Y-76200000D03*
D11*
%TO.N,/Vcc*%
X82550000Y-78740000D03*
%TO.N,/SDA*%
X82550000Y-81280000D03*
%TO.N,/SCK*%
X82550000Y-83820000D03*
%TD*%
D12*
%TO.N,/Vcc*%
X51181000Y-73025000D03*
X65278000Y-71247000D03*
X73660000Y-66167000D03*
X72390000Y-61341000D03*
X66040000Y-61341000D03*
X61214000Y-70929000D03*
X52705000Y-65278000D03*
X51308000Y-60071000D03*
X47625000Y-66548000D03*
X43942000Y-60960000D03*
X44958000Y-81661000D03*
X54102000Y-79629000D03*
D13*
%TO.N,/MISO*%
X66548000Y-75766000D03*
X80010000Y-64262000D03*
%TO.N,GND*%
X67945000Y-61214000D03*
X72390000Y-64897000D03*
X76200000Y-65024000D03*
X73152000Y-78867000D03*
X45085000Y-78105000D03*
X66035347Y-69210347D03*
X60833000Y-69379000D03*
X47117000Y-69977000D03*
X51181000Y-67056000D03*
X47752000Y-61976000D03*
X51816000Y-61341000D03*
%TO.N,/RESET*%
X62484000Y-68326000D03*
%TO.N,/SCK*%
X54483000Y-69088000D03*
X64325500Y-70040500D03*
%TO.N,Net-(U4-PB6)*%
X57658000Y-71882000D03*
%TO.N,/SCK*%
X79375000Y-74676000D03*
%TO.N,/SDA*%
X80391000Y-80010000D03*
%TO.N,Net-(U4-AREF)*%
X71700527Y-79014722D03*
X66040000Y-70231000D03*
%TO.N,Net-(U4-PB6)*%
X70739000Y-78740000D03*
X63119000Y-80391000D03*
%TO.N,Net-(U4-PB7)*%
X66040000Y-77216000D03*
X61722000Y-72517000D03*
X63373000Y-61214000D03*
%TO.N,/SCK*%
X68267153Y-73591847D03*
X70612000Y-70231000D03*
%TO.N,/SDA*%
X64770000Y-67564000D03*
X70612000Y-66294000D03*
%TO.N,/MOSI*%
X64135000Y-72644000D03*
X70739000Y-74549000D03*
%TO.N,/SDA*%
X54610000Y-65913000D03*
%TD*%
D14*
%TO.N,/MISO*%
X77025701Y-75766000D02*
X66548000Y-75766000D01*
X81185000Y-71606701D02*
X77025701Y-75766000D01*
X80010000Y-64262000D02*
X81185000Y-65437000D01*
X81185000Y-65437000D02*
X81185000Y-71606701D01*
%TO.N,/RESET*%
X62484000Y-68326000D02*
X77216000Y-68326000D01*
X77216000Y-68326000D02*
X80010000Y-71120000D01*
%TO.N,/SDA*%
X64897000Y-64389000D02*
X64897000Y-67437000D01*
X55626000Y-65913000D02*
X57150000Y-64389000D01*
X64897000Y-67437000D02*
X64770000Y-67564000D01*
X57150000Y-64389000D02*
X64897000Y-64389000D01*
X54610000Y-65913000D02*
X55626000Y-65913000D01*
%TO.N,/SCK*%
X54483000Y-69088000D02*
X55499000Y-70104000D01*
X55499000Y-70104000D02*
X64262000Y-70104000D01*
X64262000Y-70104000D02*
X64325500Y-70040500D01*
%TD*%
%TA.AperFunction,Conductor*%
%TO.N,/Vcc*%
G36*
X81930677Y-58566685D02*
G01*
X81951319Y-58583319D01*
X84926681Y-61558681D01*
X84960166Y-61620004D01*
X84963000Y-61646362D01*
X84963000Y-84784638D01*
X84943315Y-84851677D01*
X84926681Y-84872319D01*
X81951319Y-87847681D01*
X81889996Y-87881166D01*
X81863638Y-87884000D01*
X41453362Y-87884000D01*
X41386323Y-87864315D01*
X41365681Y-87847681D01*
X38472135Y-84954135D01*
X40940500Y-84954135D01*
X40940500Y-86749870D01*
X40940501Y-86749876D01*
X40946908Y-86809483D01*
X40997202Y-86944328D01*
X40997206Y-86944335D01*
X41083452Y-87059544D01*
X41083455Y-87059547D01*
X41198664Y-87145793D01*
X41198671Y-87145797D01*
X41333517Y-87196091D01*
X41333516Y-87196091D01*
X41340444Y-87196835D01*
X41393127Y-87202500D01*
X43188872Y-87202499D01*
X43248483Y-87196091D01*
X43383331Y-87145796D01*
X43498546Y-87059546D01*
X43584796Y-86944331D01*
X43633810Y-86812916D01*
X43675681Y-86756984D01*
X43741145Y-86732566D01*
X43809418Y-86747417D01*
X43837673Y-86768569D01*
X43959599Y-86890495D01*
X44056384Y-86958265D01*
X44153165Y-87026032D01*
X44153167Y-87026033D01*
X44153170Y-87026035D01*
X44367337Y-87125903D01*
X44595592Y-87187063D01*
X44772034Y-87202500D01*
X44830999Y-87207659D01*
X44831000Y-87207659D01*
X44831001Y-87207659D01*
X44889966Y-87202500D01*
X45066408Y-87187063D01*
X45294663Y-87125903D01*
X45508830Y-87026035D01*
X45702401Y-86890495D01*
X45869495Y-86723401D01*
X45999425Y-86537842D01*
X46054002Y-86494217D01*
X46123500Y-86487023D01*
X46185855Y-86518546D01*
X46202575Y-86537842D01*
X46332500Y-86723395D01*
X46332505Y-86723401D01*
X46499599Y-86890495D01*
X46596384Y-86958265D01*
X46693165Y-87026032D01*
X46693167Y-87026033D01*
X46693170Y-87026035D01*
X46907337Y-87125903D01*
X47135592Y-87187063D01*
X47312034Y-87202500D01*
X47370999Y-87207659D01*
X47371000Y-87207659D01*
X47371001Y-87207659D01*
X47429966Y-87202500D01*
X47606408Y-87187063D01*
X47834663Y-87125903D01*
X48048830Y-87026035D01*
X48242401Y-86890495D01*
X48409495Y-86723401D01*
X48539425Y-86537842D01*
X48594002Y-86494217D01*
X48663500Y-86487023D01*
X48725855Y-86518546D01*
X48742575Y-86537842D01*
X48872500Y-86723395D01*
X48872505Y-86723401D01*
X49039599Y-86890495D01*
X49136384Y-86958265D01*
X49233165Y-87026032D01*
X49233167Y-87026033D01*
X49233170Y-87026035D01*
X49447337Y-87125903D01*
X49675592Y-87187063D01*
X49852034Y-87202500D01*
X49910999Y-87207659D01*
X49911000Y-87207659D01*
X49911001Y-87207659D01*
X49969966Y-87202500D01*
X50146408Y-87187063D01*
X50374663Y-87125903D01*
X50588830Y-87026035D01*
X50782401Y-86890495D01*
X50949495Y-86723401D01*
X51079425Y-86537842D01*
X51134002Y-86494217D01*
X51203500Y-86487023D01*
X51265855Y-86518546D01*
X51282575Y-86537842D01*
X51412500Y-86723395D01*
X51412505Y-86723401D01*
X51579599Y-86890495D01*
X51676384Y-86958265D01*
X51773165Y-87026032D01*
X51773167Y-87026033D01*
X51773170Y-87026035D01*
X51987337Y-87125903D01*
X52215592Y-87187063D01*
X52392034Y-87202500D01*
X52450999Y-87207659D01*
X52451000Y-87207659D01*
X52451001Y-87207659D01*
X52509966Y-87202500D01*
X52686408Y-87187063D01*
X52914663Y-87125903D01*
X53128830Y-87026035D01*
X53322401Y-86890495D01*
X53489495Y-86723401D01*
X53619425Y-86537842D01*
X53674002Y-86494217D01*
X53743500Y-86487023D01*
X53805855Y-86518546D01*
X53822575Y-86537842D01*
X53952500Y-86723395D01*
X53952505Y-86723401D01*
X54119599Y-86890495D01*
X54216384Y-86958265D01*
X54313165Y-87026032D01*
X54313167Y-87026033D01*
X54313170Y-87026035D01*
X54527337Y-87125903D01*
X54755592Y-87187063D01*
X54932034Y-87202500D01*
X54990999Y-87207659D01*
X54991000Y-87207659D01*
X54991001Y-87207659D01*
X55049966Y-87202500D01*
X55226408Y-87187063D01*
X55454663Y-87125903D01*
X55668830Y-87026035D01*
X55862401Y-86890495D01*
X56029495Y-86723401D01*
X56159425Y-86537842D01*
X56214002Y-86494217D01*
X56283500Y-86487023D01*
X56345855Y-86518546D01*
X56362575Y-86537842D01*
X56492500Y-86723395D01*
X56492505Y-86723401D01*
X56659599Y-86890495D01*
X56756384Y-86958265D01*
X56853165Y-87026032D01*
X56853167Y-87026033D01*
X56853170Y-87026035D01*
X57067337Y-87125903D01*
X57295592Y-87187063D01*
X57472034Y-87202500D01*
X57530999Y-87207659D01*
X57531000Y-87207659D01*
X57531001Y-87207659D01*
X57589966Y-87202500D01*
X57766408Y-87187063D01*
X57994663Y-87125903D01*
X58208830Y-87026035D01*
X58402401Y-86890495D01*
X58569495Y-86723401D01*
X58699425Y-86537842D01*
X58754002Y-86494217D01*
X58823500Y-86487023D01*
X58885855Y-86518546D01*
X58902575Y-86537842D01*
X59032500Y-86723395D01*
X59032505Y-86723401D01*
X59199599Y-86890495D01*
X59296384Y-86958265D01*
X59393165Y-87026032D01*
X59393167Y-87026033D01*
X59393170Y-87026035D01*
X59607337Y-87125903D01*
X59835592Y-87187063D01*
X60012034Y-87202500D01*
X60070999Y-87207659D01*
X60071000Y-87207659D01*
X60071001Y-87207659D01*
X60129966Y-87202500D01*
X60306408Y-87187063D01*
X60534663Y-87125903D01*
X60748830Y-87026035D01*
X60942401Y-86890495D01*
X61109495Y-86723401D01*
X61239730Y-86537405D01*
X61294307Y-86493781D01*
X61363805Y-86486587D01*
X61426160Y-86518110D01*
X61442879Y-86537405D01*
X61572890Y-86723078D01*
X61739917Y-86890105D01*
X61933421Y-87025600D01*
X62147507Y-87125429D01*
X62147516Y-87125433D01*
X62361000Y-87182634D01*
X62361000Y-86285012D01*
X62418007Y-86317925D01*
X62545174Y-86352000D01*
X62676826Y-86352000D01*
X62803993Y-86317925D01*
X62861000Y-86285012D01*
X62861000Y-87182633D01*
X63074483Y-87125433D01*
X63074492Y-87125429D01*
X63288578Y-87025600D01*
X63482082Y-86890105D01*
X63649105Y-86723082D01*
X63784600Y-86529578D01*
X63884429Y-86315492D01*
X63884432Y-86315486D01*
X63941636Y-86102000D01*
X63044012Y-86102000D01*
X63076925Y-86044993D01*
X63111000Y-85917826D01*
X63111000Y-85786174D01*
X63076925Y-85659007D01*
X63044012Y-85602000D01*
X63941636Y-85602000D01*
X63941635Y-85601999D01*
X63884432Y-85388513D01*
X63884429Y-85388507D01*
X63784600Y-85174422D01*
X63784599Y-85174420D01*
X63649113Y-84980926D01*
X63649108Y-84980920D01*
X63622323Y-84954135D01*
X66340500Y-84954135D01*
X66340500Y-86749870D01*
X66340501Y-86749876D01*
X66346908Y-86809483D01*
X66397202Y-86944328D01*
X66397206Y-86944335D01*
X66483452Y-87059544D01*
X66483455Y-87059547D01*
X66598664Y-87145793D01*
X66598671Y-87145797D01*
X66733517Y-87196091D01*
X66733516Y-87196091D01*
X66740444Y-87196835D01*
X66793127Y-87202500D01*
X68588872Y-87202499D01*
X68648483Y-87196091D01*
X68783331Y-87145796D01*
X68898546Y-87059546D01*
X68984796Y-86944331D01*
X69034002Y-86812401D01*
X69075872Y-86756468D01*
X69141337Y-86732050D01*
X69209610Y-86746901D01*
X69237865Y-86768053D01*
X69359917Y-86890105D01*
X69553421Y-87025600D01*
X69767507Y-87125429D01*
X69767516Y-87125433D01*
X69981000Y-87182634D01*
X69981000Y-86285012D01*
X70038007Y-86317925D01*
X70165174Y-86352000D01*
X70296826Y-86352000D01*
X70423993Y-86317925D01*
X70481000Y-86285012D01*
X70481000Y-87182633D01*
X70694483Y-87125433D01*
X70694492Y-87125429D01*
X70908578Y-87025600D01*
X71102082Y-86890105D01*
X71269105Y-86723082D01*
X71399119Y-86537405D01*
X71453696Y-86493781D01*
X71523195Y-86486588D01*
X71585549Y-86518110D01*
X71602269Y-86537405D01*
X71732505Y-86723401D01*
X71899599Y-86890495D01*
X71996384Y-86958265D01*
X72093165Y-87026032D01*
X72093167Y-87026033D01*
X72093170Y-87026035D01*
X72307337Y-87125903D01*
X72535592Y-87187063D01*
X72712034Y-87202500D01*
X72770999Y-87207659D01*
X72771000Y-87207659D01*
X72771001Y-87207659D01*
X72829966Y-87202500D01*
X73006408Y-87187063D01*
X73234663Y-87125903D01*
X73448830Y-87026035D01*
X73642401Y-86890495D01*
X73809495Y-86723401D01*
X73939425Y-86537842D01*
X73994002Y-86494217D01*
X74063500Y-86487023D01*
X74125855Y-86518546D01*
X74142575Y-86537842D01*
X74272500Y-86723395D01*
X74272505Y-86723401D01*
X74439599Y-86890495D01*
X74536384Y-86958265D01*
X74633165Y-87026032D01*
X74633167Y-87026033D01*
X74633170Y-87026035D01*
X74847337Y-87125903D01*
X75075592Y-87187063D01*
X75252034Y-87202500D01*
X75310999Y-87207659D01*
X75311000Y-87207659D01*
X75311001Y-87207659D01*
X75369966Y-87202500D01*
X75546408Y-87187063D01*
X75774663Y-87125903D01*
X75988830Y-87026035D01*
X76182401Y-86890495D01*
X76349495Y-86723401D01*
X76485035Y-86529830D01*
X76584903Y-86315663D01*
X76646063Y-86087408D01*
X76666659Y-85852000D01*
X76646063Y-85616592D01*
X76584903Y-85388337D01*
X76485035Y-85174171D01*
X76479731Y-85166595D01*
X76349494Y-84980597D01*
X76182402Y-84813506D01*
X76182395Y-84813501D01*
X75988834Y-84677967D01*
X75988830Y-84677965D01*
X75945239Y-84657638D01*
X75774663Y-84578097D01*
X75774659Y-84578096D01*
X75774655Y-84578094D01*
X75546413Y-84516938D01*
X75546403Y-84516936D01*
X75311001Y-84496341D01*
X75310999Y-84496341D01*
X75075596Y-84516936D01*
X75075586Y-84516938D01*
X74847344Y-84578094D01*
X74847335Y-84578098D01*
X74633171Y-84677964D01*
X74633169Y-84677965D01*
X74439597Y-84813505D01*
X74272505Y-84980597D01*
X74142575Y-85166158D01*
X74087998Y-85209783D01*
X74018500Y-85216977D01*
X73956145Y-85185454D01*
X73939425Y-85166158D01*
X73809494Y-84980597D01*
X73642402Y-84813506D01*
X73642395Y-84813501D01*
X73448834Y-84677967D01*
X73448830Y-84677965D01*
X73405239Y-84657638D01*
X73234663Y-84578097D01*
X73234659Y-84578096D01*
X73234655Y-84578094D01*
X73006413Y-84516938D01*
X73006403Y-84516936D01*
X72771001Y-84496341D01*
X72770999Y-84496341D01*
X72535596Y-84516936D01*
X72535586Y-84516938D01*
X72307344Y-84578094D01*
X72307335Y-84578098D01*
X72093171Y-84677964D01*
X72093169Y-84677965D01*
X71899597Y-84813505D01*
X71732508Y-84980594D01*
X71602269Y-85166595D01*
X71547692Y-85210219D01*
X71478193Y-85217412D01*
X71415839Y-85185890D01*
X71399119Y-85166594D01*
X71269113Y-84980926D01*
X71269108Y-84980920D01*
X71102082Y-84813894D01*
X70908578Y-84678399D01*
X70694492Y-84578570D01*
X70694486Y-84578567D01*
X70481000Y-84521364D01*
X70481000Y-85418988D01*
X70423993Y-85386075D01*
X70296826Y-85352000D01*
X70165174Y-85352000D01*
X70038007Y-85386075D01*
X69981000Y-85418988D01*
X69981000Y-84521364D01*
X69980999Y-84521364D01*
X69767513Y-84578567D01*
X69767507Y-84578570D01*
X69553422Y-84678399D01*
X69553420Y-84678400D01*
X69359926Y-84813886D01*
X69237865Y-84935947D01*
X69176542Y-84969431D01*
X69106850Y-84964447D01*
X69050917Y-84922575D01*
X69034002Y-84891598D01*
X69026811Y-84872319D01*
X69005021Y-84813894D01*
X68984797Y-84759671D01*
X68984793Y-84759664D01*
X68898547Y-84644455D01*
X68898544Y-84644452D01*
X68783335Y-84558206D01*
X68783328Y-84558202D01*
X68648482Y-84507908D01*
X68648483Y-84507908D01*
X68588883Y-84501501D01*
X68588881Y-84501500D01*
X68588873Y-84501500D01*
X68588864Y-84501500D01*
X66793129Y-84501500D01*
X66793123Y-84501501D01*
X66733516Y-84507908D01*
X66598671Y-84558202D01*
X66598664Y-84558206D01*
X66483455Y-84644452D01*
X66483452Y-84644455D01*
X66397206Y-84759664D01*
X66397202Y-84759671D01*
X66346908Y-84894517D01*
X66340501Y-84954116D01*
X66340500Y-84954135D01*
X63622323Y-84954135D01*
X63482082Y-84813894D01*
X63288578Y-84678399D01*
X63074492Y-84578570D01*
X63074486Y-84578567D01*
X62861000Y-84521364D01*
X62861000Y-85418988D01*
X62803993Y-85386075D01*
X62676826Y-85352000D01*
X62545174Y-85352000D01*
X62418007Y-85386075D01*
X62361000Y-85418988D01*
X62361000Y-84521364D01*
X62360999Y-84521364D01*
X62147513Y-84578567D01*
X62147507Y-84578570D01*
X61933422Y-84678399D01*
X61933420Y-84678400D01*
X61739926Y-84813886D01*
X61739920Y-84813891D01*
X61572891Y-84980920D01*
X61572890Y-84980922D01*
X61442880Y-85166595D01*
X61388303Y-85210219D01*
X61318804Y-85217412D01*
X61256450Y-85185890D01*
X61239730Y-85166594D01*
X61109494Y-84980597D01*
X60942402Y-84813506D01*
X60942395Y-84813501D01*
X60748834Y-84677967D01*
X60748830Y-84677965D01*
X60705239Y-84657638D01*
X60534663Y-84578097D01*
X60534659Y-84578096D01*
X60534655Y-84578094D01*
X60306413Y-84516938D01*
X60306403Y-84516936D01*
X60071001Y-84496341D01*
X60070999Y-84496341D01*
X59835596Y-84516936D01*
X59835586Y-84516938D01*
X59607344Y-84578094D01*
X59607335Y-84578098D01*
X59393171Y-84677964D01*
X59393169Y-84677965D01*
X59199597Y-84813505D01*
X59032505Y-84980597D01*
X58902575Y-85166158D01*
X58847998Y-85209783D01*
X58778500Y-85216977D01*
X58716145Y-85185454D01*
X58699425Y-85166158D01*
X58569494Y-84980597D01*
X58402402Y-84813506D01*
X58402395Y-84813501D01*
X58208834Y-84677967D01*
X58208830Y-84677965D01*
X58165239Y-84657638D01*
X57994663Y-84578097D01*
X57994659Y-84578096D01*
X57994655Y-84578094D01*
X57766413Y-84516938D01*
X57766403Y-84516936D01*
X57531001Y-84496341D01*
X57530999Y-84496341D01*
X57295596Y-84516936D01*
X57295586Y-84516938D01*
X57067344Y-84578094D01*
X57067335Y-84578098D01*
X56853171Y-84677964D01*
X56853169Y-84677965D01*
X56659597Y-84813505D01*
X56492505Y-84980597D01*
X56362575Y-85166158D01*
X56307998Y-85209783D01*
X56238500Y-85216977D01*
X56176145Y-85185454D01*
X56159425Y-85166158D01*
X56029494Y-84980597D01*
X55862402Y-84813506D01*
X55862395Y-84813501D01*
X55668834Y-84677967D01*
X55668830Y-84677965D01*
X55625239Y-84657638D01*
X55454663Y-84578097D01*
X55454659Y-84578096D01*
X55454655Y-84578094D01*
X55226413Y-84516938D01*
X55226403Y-84516936D01*
X54991001Y-84496341D01*
X54990999Y-84496341D01*
X54755596Y-84516936D01*
X54755586Y-84516938D01*
X54527344Y-84578094D01*
X54527335Y-84578098D01*
X54313171Y-84677964D01*
X54313169Y-84677965D01*
X54119597Y-84813505D01*
X53952505Y-84980597D01*
X53822575Y-85166158D01*
X53767998Y-85209783D01*
X53698500Y-85216977D01*
X53636145Y-85185454D01*
X53619425Y-85166158D01*
X53489494Y-84980597D01*
X53322402Y-84813506D01*
X53322395Y-84813501D01*
X53128834Y-84677967D01*
X53128830Y-84677965D01*
X53085239Y-84657638D01*
X52914663Y-84578097D01*
X52914659Y-84578096D01*
X52914655Y-84578094D01*
X52686413Y-84516938D01*
X52686403Y-84516936D01*
X52451001Y-84496341D01*
X52450999Y-84496341D01*
X52215596Y-84516936D01*
X52215586Y-84516938D01*
X51987344Y-84578094D01*
X51987335Y-84578098D01*
X51773171Y-84677964D01*
X51773169Y-84677965D01*
X51579597Y-84813505D01*
X51412505Y-84980597D01*
X51282575Y-85166158D01*
X51227998Y-85209783D01*
X51158500Y-85216977D01*
X51096145Y-85185454D01*
X51079425Y-85166158D01*
X50949494Y-84980597D01*
X50782402Y-84813506D01*
X50782395Y-84813501D01*
X50588834Y-84677967D01*
X50588830Y-84677965D01*
X50545239Y-84657638D01*
X50374663Y-84578097D01*
X50374659Y-84578096D01*
X50374655Y-84578094D01*
X50146413Y-84516938D01*
X50146403Y-84516936D01*
X49911001Y-84496341D01*
X49910999Y-84496341D01*
X49675596Y-84516936D01*
X49675586Y-84516938D01*
X49447344Y-84578094D01*
X49447335Y-84578098D01*
X49233171Y-84677964D01*
X49233169Y-84677965D01*
X49039597Y-84813505D01*
X48872505Y-84980597D01*
X48742575Y-85166158D01*
X48687998Y-85209783D01*
X48618500Y-85216977D01*
X48556145Y-85185454D01*
X48539425Y-85166158D01*
X48409494Y-84980597D01*
X48242402Y-84813506D01*
X48242395Y-84813501D01*
X48048834Y-84677967D01*
X48048830Y-84677965D01*
X48005239Y-84657638D01*
X47834663Y-84578097D01*
X47834659Y-84578096D01*
X47834655Y-84578094D01*
X47606413Y-84516938D01*
X47606403Y-84516936D01*
X47371001Y-84496341D01*
X47370999Y-84496341D01*
X47135596Y-84516936D01*
X47135586Y-84516938D01*
X46907344Y-84578094D01*
X46907335Y-84578098D01*
X46693171Y-84677964D01*
X46693169Y-84677965D01*
X46499597Y-84813505D01*
X46332505Y-84980597D01*
X46202575Y-85166158D01*
X46147998Y-85209783D01*
X46078500Y-85216977D01*
X46016145Y-85185454D01*
X45999425Y-85166158D01*
X45869494Y-84980597D01*
X45702402Y-84813506D01*
X45702395Y-84813501D01*
X45508834Y-84677967D01*
X45508830Y-84677965D01*
X45465239Y-84657638D01*
X45294663Y-84578097D01*
X45294659Y-84578096D01*
X45294655Y-84578094D01*
X45066413Y-84516938D01*
X45066403Y-84516936D01*
X44831001Y-84496341D01*
X44830999Y-84496341D01*
X44595596Y-84516936D01*
X44595586Y-84516938D01*
X44367344Y-84578094D01*
X44367335Y-84578098D01*
X44153171Y-84677964D01*
X44153169Y-84677965D01*
X43959600Y-84813503D01*
X43837673Y-84935430D01*
X43776350Y-84968914D01*
X43706658Y-84963930D01*
X43650725Y-84922058D01*
X43633810Y-84891081D01*
X43584797Y-84759671D01*
X43584793Y-84759664D01*
X43498547Y-84644455D01*
X43498544Y-84644452D01*
X43383335Y-84558206D01*
X43383328Y-84558202D01*
X43248482Y-84507908D01*
X43248483Y-84507908D01*
X43188883Y-84501501D01*
X43188881Y-84501500D01*
X43188873Y-84501500D01*
X43188864Y-84501500D01*
X41393129Y-84501500D01*
X41393123Y-84501501D01*
X41333516Y-84507908D01*
X41198671Y-84558202D01*
X41198664Y-84558206D01*
X41083455Y-84644452D01*
X41083452Y-84644455D01*
X40997206Y-84759664D01*
X40997202Y-84759671D01*
X40946908Y-84894517D01*
X40940501Y-84954116D01*
X40940500Y-84954135D01*
X38472135Y-84954135D01*
X38263319Y-84745319D01*
X38229834Y-84683996D01*
X38227000Y-84657638D01*
X38227000Y-80391000D01*
X62213540Y-80391000D01*
X62233326Y-80579256D01*
X62233327Y-80579259D01*
X62291818Y-80759277D01*
X62291821Y-80759284D01*
X62386467Y-80923216D01*
X62495749Y-81044586D01*
X62513129Y-81063888D01*
X62666265Y-81175148D01*
X62666270Y-81175151D01*
X62839192Y-81252142D01*
X62839197Y-81252144D01*
X63024354Y-81291500D01*
X63024355Y-81291500D01*
X63213644Y-81291500D01*
X63213646Y-81291500D01*
X63267754Y-81279999D01*
X81194341Y-81279999D01*
X81194341Y-81280000D01*
X81214936Y-81515403D01*
X81214938Y-81515413D01*
X81276094Y-81743655D01*
X81276096Y-81743659D01*
X81276097Y-81743663D01*
X81375965Y-81957830D01*
X81375967Y-81957834D01*
X81511501Y-82151395D01*
X81511506Y-82151402D01*
X81678597Y-82318493D01*
X81678603Y-82318498D01*
X81864158Y-82448425D01*
X81907783Y-82503002D01*
X81914977Y-82572500D01*
X81883454Y-82634855D01*
X81864158Y-82651575D01*
X81678597Y-82781505D01*
X81511505Y-82948597D01*
X81375965Y-83142169D01*
X81375964Y-83142171D01*
X81276098Y-83356335D01*
X81276094Y-83356344D01*
X81214938Y-83584586D01*
X81214936Y-83584596D01*
X81194341Y-83819999D01*
X81194341Y-83820000D01*
X81214936Y-84055403D01*
X81214938Y-84055413D01*
X81276094Y-84283655D01*
X81276096Y-84283659D01*
X81276097Y-84283663D01*
X81375271Y-84496341D01*
X81375965Y-84497830D01*
X81375967Y-84497834D01*
X81478631Y-84644452D01*
X81511505Y-84691401D01*
X81678599Y-84858495D01*
X81698342Y-84872319D01*
X81872165Y-84994032D01*
X81872167Y-84994033D01*
X81872170Y-84994035D01*
X82086337Y-85093903D01*
X82314592Y-85155063D01*
X82502918Y-85171539D01*
X82549999Y-85175659D01*
X82550000Y-85175659D01*
X82550001Y-85175659D01*
X82589234Y-85172226D01*
X82785408Y-85155063D01*
X83013663Y-85093903D01*
X83227830Y-84994035D01*
X83421401Y-84858495D01*
X83588495Y-84691401D01*
X83724035Y-84497830D01*
X83823903Y-84283663D01*
X83885063Y-84055408D01*
X83905659Y-83820000D01*
X83885063Y-83584592D01*
X83823903Y-83356337D01*
X83724035Y-83142171D01*
X83588495Y-82948599D01*
X83588494Y-82948597D01*
X83421402Y-82781506D01*
X83421396Y-82781501D01*
X83235842Y-82651575D01*
X83192217Y-82596998D01*
X83185023Y-82527500D01*
X83216546Y-82465145D01*
X83235842Y-82448425D01*
X83258026Y-82432891D01*
X83421401Y-82318495D01*
X83588495Y-82151401D01*
X83724035Y-81957830D01*
X83823903Y-81743663D01*
X83885063Y-81515408D01*
X83905659Y-81280000D01*
X83885063Y-81044592D01*
X83823903Y-80816337D01*
X83724035Y-80602171D01*
X83682055Y-80542216D01*
X83588494Y-80408597D01*
X83421402Y-80241506D01*
X83421401Y-80241505D01*
X83235405Y-80111269D01*
X83191781Y-80056692D01*
X83184588Y-79987193D01*
X83216110Y-79924839D01*
X83235405Y-79908119D01*
X83421082Y-79778105D01*
X83588105Y-79611082D01*
X83723600Y-79417578D01*
X83823429Y-79203492D01*
X83823432Y-79203486D01*
X83880636Y-78990000D01*
X82983012Y-78990000D01*
X83015925Y-78932993D01*
X83050000Y-78805826D01*
X83050000Y-78674174D01*
X83015925Y-78547007D01*
X82983012Y-78490000D01*
X83880636Y-78490000D01*
X83880635Y-78489999D01*
X83823432Y-78276513D01*
X83823429Y-78276507D01*
X83723600Y-78062422D01*
X83723599Y-78062420D01*
X83588113Y-77868926D01*
X83588108Y-77868920D01*
X83466053Y-77746865D01*
X83432568Y-77685542D01*
X83437552Y-77615850D01*
X83479424Y-77559917D01*
X83510400Y-77543002D01*
X83642331Y-77493796D01*
X83757546Y-77407546D01*
X83843796Y-77292331D01*
X83894091Y-77157483D01*
X83900500Y-77097873D01*
X83900499Y-75302128D01*
X83894091Y-75242517D01*
X83890834Y-75233785D01*
X83843797Y-75107671D01*
X83843793Y-75107664D01*
X83757547Y-74992455D01*
X83757544Y-74992452D01*
X83642335Y-74906206D01*
X83642328Y-74906202D01*
X83507482Y-74855908D01*
X83507483Y-74855908D01*
X83447883Y-74849501D01*
X83447881Y-74849500D01*
X83447873Y-74849500D01*
X83447864Y-74849500D01*
X81652129Y-74849500D01*
X81652123Y-74849501D01*
X81592516Y-74855908D01*
X81457671Y-74906202D01*
X81457664Y-74906206D01*
X81342455Y-74992452D01*
X81342452Y-74992455D01*
X81256206Y-75107664D01*
X81256202Y-75107671D01*
X81205908Y-75242517D01*
X81199501Y-75302116D01*
X81199501Y-75302123D01*
X81199500Y-75302135D01*
X81199500Y-77097870D01*
X81199501Y-77097876D01*
X81205908Y-77157483D01*
X81256202Y-77292328D01*
X81256206Y-77292335D01*
X81342452Y-77407544D01*
X81342455Y-77407547D01*
X81457664Y-77493793D01*
X81457671Y-77493797D01*
X81457674Y-77493798D01*
X81589598Y-77543002D01*
X81645531Y-77584873D01*
X81669949Y-77650337D01*
X81655098Y-77718610D01*
X81633947Y-77746865D01*
X81511886Y-77868926D01*
X81376400Y-78062420D01*
X81376399Y-78062422D01*
X81276570Y-78276507D01*
X81276567Y-78276513D01*
X81219364Y-78489999D01*
X81219364Y-78490000D01*
X82116988Y-78490000D01*
X82084075Y-78547007D01*
X82050000Y-78674174D01*
X82050000Y-78805826D01*
X82084075Y-78932993D01*
X82116988Y-78990000D01*
X81219364Y-78990000D01*
X81276567Y-79203486D01*
X81276570Y-79203492D01*
X81376399Y-79417578D01*
X81511894Y-79611082D01*
X81678917Y-79778105D01*
X81864595Y-79908119D01*
X81908219Y-79962696D01*
X81915412Y-80032195D01*
X81883890Y-80094549D01*
X81864595Y-80111269D01*
X81678594Y-80241508D01*
X81511505Y-80408597D01*
X81375965Y-80602169D01*
X81375964Y-80602171D01*
X81276098Y-80816335D01*
X81276094Y-80816344D01*
X81214938Y-81044586D01*
X81214936Y-81044596D01*
X81194341Y-81279999D01*
X63267754Y-81279999D01*
X63398803Y-81252144D01*
X63571730Y-81175151D01*
X63724871Y-81063888D01*
X63851533Y-80923216D01*
X63946179Y-80759284D01*
X64004674Y-80579256D01*
X64024460Y-80391000D01*
X64004674Y-80202744D01*
X63946179Y-80022716D01*
X63938837Y-80010000D01*
X79485540Y-80010000D01*
X79505326Y-80198256D01*
X79505327Y-80198259D01*
X79563818Y-80378277D01*
X79563821Y-80378284D01*
X79658467Y-80542216D01*
X79712451Y-80602171D01*
X79785129Y-80682888D01*
X79938265Y-80794148D01*
X79938270Y-80794151D01*
X80111192Y-80871142D01*
X80111197Y-80871144D01*
X80296354Y-80910500D01*
X80296355Y-80910500D01*
X80485644Y-80910500D01*
X80485646Y-80910500D01*
X80670803Y-80871144D01*
X80843730Y-80794151D01*
X80996871Y-80682888D01*
X81123533Y-80542216D01*
X81218179Y-80378284D01*
X81276674Y-80198256D01*
X81296460Y-80010000D01*
X81276674Y-79821744D01*
X81218179Y-79641716D01*
X81123533Y-79477784D01*
X80996871Y-79337112D01*
X80996870Y-79337111D01*
X80843734Y-79225851D01*
X80843729Y-79225848D01*
X80670807Y-79148857D01*
X80670802Y-79148855D01*
X80525001Y-79117865D01*
X80485646Y-79109500D01*
X80296354Y-79109500D01*
X80263897Y-79116398D01*
X80111197Y-79148855D01*
X80111192Y-79148857D01*
X79938270Y-79225848D01*
X79938265Y-79225851D01*
X79785129Y-79337111D01*
X79658466Y-79477785D01*
X79563821Y-79641715D01*
X79563818Y-79641722D01*
X79522951Y-79767500D01*
X79505326Y-79821744D01*
X79485540Y-80010000D01*
X63938837Y-80010000D01*
X63851533Y-79858784D01*
X63724871Y-79718112D01*
X63724870Y-79718111D01*
X63571734Y-79606851D01*
X63571729Y-79606848D01*
X63398807Y-79529857D01*
X63398802Y-79529855D01*
X63253001Y-79498865D01*
X63213646Y-79490500D01*
X63024354Y-79490500D01*
X62991897Y-79497398D01*
X62839197Y-79529855D01*
X62839192Y-79529857D01*
X62666270Y-79606848D01*
X62666265Y-79606851D01*
X62513129Y-79718111D01*
X62386466Y-79858785D01*
X62291821Y-80022715D01*
X62291818Y-80022722D01*
X62263048Y-80111269D01*
X62233326Y-80202744D01*
X62213540Y-80391000D01*
X38227000Y-80391000D01*
X38227000Y-78105000D01*
X44179540Y-78105000D01*
X44199326Y-78293256D01*
X44199327Y-78293259D01*
X44257818Y-78473277D01*
X44257821Y-78473284D01*
X44352467Y-78637216D01*
X44479129Y-78777888D01*
X44632265Y-78889148D01*
X44632270Y-78889151D01*
X44805192Y-78966142D01*
X44805197Y-78966144D01*
X44990354Y-79005500D01*
X44990355Y-79005500D01*
X45179644Y-79005500D01*
X45179646Y-79005500D01*
X45364803Y-78966144D01*
X45537730Y-78889151D01*
X45690871Y-78777888D01*
X45724986Y-78740000D01*
X69833540Y-78740000D01*
X69853326Y-78928256D01*
X69853327Y-78928259D01*
X69911818Y-79108277D01*
X69911821Y-79108284D01*
X70006467Y-79272216D01*
X70064899Y-79337111D01*
X70133129Y-79412888D01*
X70286265Y-79524148D01*
X70286270Y-79524151D01*
X70459192Y-79601142D01*
X70459197Y-79601144D01*
X70644354Y-79640500D01*
X70644355Y-79640500D01*
X70833644Y-79640500D01*
X70833646Y-79640500D01*
X70947097Y-79616385D01*
X71016762Y-79621701D01*
X71065025Y-79654702D01*
X71094655Y-79687609D01*
X71094662Y-79687615D01*
X71247792Y-79798870D01*
X71247797Y-79798873D01*
X71420719Y-79875864D01*
X71420724Y-79875866D01*
X71605881Y-79915222D01*
X71605882Y-79915222D01*
X71795171Y-79915222D01*
X71795173Y-79915222D01*
X71980330Y-79875866D01*
X72153257Y-79798873D01*
X72306398Y-79687610D01*
X72406906Y-79575984D01*
X72466390Y-79539337D01*
X72536247Y-79540667D01*
X72571939Y-79558640D01*
X72699265Y-79651148D01*
X72699270Y-79651151D01*
X72872192Y-79728142D01*
X72872197Y-79728144D01*
X73057354Y-79767500D01*
X73057355Y-79767500D01*
X73246644Y-79767500D01*
X73246646Y-79767500D01*
X73431803Y-79728144D01*
X73604730Y-79651151D01*
X73757871Y-79539888D01*
X73884533Y-79399216D01*
X73979179Y-79235284D01*
X74037674Y-79055256D01*
X74057460Y-78867000D01*
X74037674Y-78678744D01*
X73979179Y-78498716D01*
X73884533Y-78334784D01*
X73757871Y-78194112D01*
X73757870Y-78194111D01*
X73604734Y-78082851D01*
X73604729Y-78082848D01*
X73431807Y-78005857D01*
X73431802Y-78005855D01*
X73286001Y-77974865D01*
X73246646Y-77966500D01*
X73057354Y-77966500D01*
X73024897Y-77973398D01*
X72872197Y-78005855D01*
X72872192Y-78005857D01*
X72699270Y-78082848D01*
X72699265Y-78082851D01*
X72546129Y-78194111D01*
X72546128Y-78194112D01*
X72445621Y-78305736D01*
X72386135Y-78342384D01*
X72316278Y-78341053D01*
X72280587Y-78323081D01*
X72153261Y-78230573D01*
X72153256Y-78230570D01*
X71980334Y-78153579D01*
X71980329Y-78153577D01*
X71805890Y-78116500D01*
X71795173Y-78114222D01*
X71605881Y-78114222D01*
X71492429Y-78138336D01*
X71422762Y-78133019D01*
X71374501Y-78100019D01*
X71344871Y-78067112D01*
X71344869Y-78067110D01*
X71344866Y-78067107D01*
X71344864Y-78067106D01*
X71191734Y-77955851D01*
X71191729Y-77955848D01*
X71018807Y-77878857D01*
X71018802Y-77878855D01*
X70873001Y-77847865D01*
X70833646Y-77839500D01*
X70644354Y-77839500D01*
X70611897Y-77846398D01*
X70459197Y-77878855D01*
X70459192Y-77878857D01*
X70286270Y-77955848D01*
X70286265Y-77955851D01*
X70133129Y-78067111D01*
X70006466Y-78207785D01*
X69911821Y-78371715D01*
X69911818Y-78371722D01*
X69854865Y-78547007D01*
X69853326Y-78551744D01*
X69833540Y-78740000D01*
X45724986Y-78740000D01*
X45817533Y-78637216D01*
X45912179Y-78473284D01*
X45970674Y-78293256D01*
X45990460Y-78105000D01*
X45970674Y-77916744D01*
X45912179Y-77736716D01*
X45817533Y-77572784D01*
X45690871Y-77432112D01*
X45690870Y-77432111D01*
X45537734Y-77320851D01*
X45537729Y-77320848D01*
X45364807Y-77243857D01*
X45364802Y-77243855D01*
X45219001Y-77212865D01*
X45179646Y-77204500D01*
X44990354Y-77204500D01*
X44957897Y-77211398D01*
X44805197Y-77243855D01*
X44805192Y-77243857D01*
X44632270Y-77320848D01*
X44632265Y-77320851D01*
X44479129Y-77432111D01*
X44352466Y-77572785D01*
X44257821Y-77736715D01*
X44257818Y-77736722D01*
X44211636Y-77878857D01*
X44199326Y-77916744D01*
X44179540Y-78105000D01*
X38227000Y-78105000D01*
X38227000Y-73591847D01*
X67361693Y-73591847D01*
X67381479Y-73780103D01*
X67381480Y-73780106D01*
X67439971Y-73960124D01*
X67439974Y-73960131D01*
X67534620Y-74124063D01*
X67661282Y-74264735D01*
X67814418Y-74375995D01*
X67814423Y-74375998D01*
X67987345Y-74452989D01*
X67987350Y-74452991D01*
X68172507Y-74492347D01*
X68172508Y-74492347D01*
X68361797Y-74492347D01*
X68361799Y-74492347D01*
X68546956Y-74452991D01*
X68719883Y-74375998D01*
X68873024Y-74264735D01*
X68999686Y-74124063D01*
X69094332Y-73960131D01*
X69152827Y-73780103D01*
X69172613Y-73591847D01*
X69152827Y-73403591D01*
X69094332Y-73223563D01*
X68999686Y-73059631D01*
X68873024Y-72918959D01*
X68873023Y-72918958D01*
X68719887Y-72807698D01*
X68719882Y-72807695D01*
X68546960Y-72730704D01*
X68546955Y-72730702D01*
X68401154Y-72699712D01*
X68361799Y-72691347D01*
X68172507Y-72691347D01*
X68140050Y-72698245D01*
X67987350Y-72730702D01*
X67987345Y-72730704D01*
X67814423Y-72807695D01*
X67814418Y-72807698D01*
X67661282Y-72918958D01*
X67534619Y-73059632D01*
X67439974Y-73223562D01*
X67439971Y-73223569D01*
X67389748Y-73378142D01*
X67381479Y-73403591D01*
X67361693Y-73591847D01*
X38227000Y-73591847D01*
X38227000Y-71882000D01*
X56752540Y-71882000D01*
X56772326Y-72070256D01*
X56772327Y-72070259D01*
X56830818Y-72250277D01*
X56830821Y-72250284D01*
X56925467Y-72414216D01*
X57052129Y-72554888D01*
X57205265Y-72666148D01*
X57205270Y-72666151D01*
X57378192Y-72743142D01*
X57378197Y-72743144D01*
X57563354Y-72782500D01*
X57563355Y-72782500D01*
X57752644Y-72782500D01*
X57752646Y-72782500D01*
X57937803Y-72743144D01*
X58110730Y-72666151D01*
X58263871Y-72554888D01*
X58297986Y-72517000D01*
X60816540Y-72517000D01*
X60836326Y-72705256D01*
X60836327Y-72705259D01*
X60894818Y-72885277D01*
X60894821Y-72885284D01*
X60989467Y-73049216D01*
X60998845Y-73059631D01*
X61116129Y-73189888D01*
X61269265Y-73301148D01*
X61269270Y-73301151D01*
X61442192Y-73378142D01*
X61442197Y-73378144D01*
X61627354Y-73417500D01*
X61627355Y-73417500D01*
X61816644Y-73417500D01*
X61816646Y-73417500D01*
X62001803Y-73378144D01*
X62174730Y-73301151D01*
X62327871Y-73189888D01*
X62454533Y-73049216D01*
X62549179Y-72885284D01*
X62607674Y-72705256D01*
X62614112Y-72644000D01*
X63229540Y-72644000D01*
X63249326Y-72832256D01*
X63249327Y-72832259D01*
X63307818Y-73012277D01*
X63307821Y-73012284D01*
X63402467Y-73176216D01*
X63445098Y-73223562D01*
X63529129Y-73316888D01*
X63682265Y-73428148D01*
X63682270Y-73428151D01*
X63855192Y-73505142D01*
X63855197Y-73505144D01*
X64040354Y-73544500D01*
X64040355Y-73544500D01*
X64229644Y-73544500D01*
X64229646Y-73544500D01*
X64414803Y-73505144D01*
X64587730Y-73428151D01*
X64740871Y-73316888D01*
X64867533Y-73176216D01*
X64962179Y-73012284D01*
X65020674Y-72832256D01*
X65040460Y-72644000D01*
X65020674Y-72455744D01*
X64962179Y-72275716D01*
X64867533Y-72111784D01*
X64740871Y-71971112D01*
X64740870Y-71971111D01*
X64587734Y-71859851D01*
X64587729Y-71859848D01*
X64414807Y-71782857D01*
X64414802Y-71782855D01*
X64269001Y-71751865D01*
X64229646Y-71743500D01*
X64040354Y-71743500D01*
X64007897Y-71750398D01*
X63855197Y-71782855D01*
X63855192Y-71782857D01*
X63682270Y-71859848D01*
X63682265Y-71859851D01*
X63529129Y-71971111D01*
X63402466Y-72111785D01*
X63307821Y-72275715D01*
X63307818Y-72275722D01*
X63249548Y-72455061D01*
X63249326Y-72455744D01*
X63229540Y-72644000D01*
X62614112Y-72644000D01*
X62627460Y-72517000D01*
X62607674Y-72328744D01*
X62549179Y-72148716D01*
X62454533Y-71984784D01*
X62327871Y-71844112D01*
X62264175Y-71797834D01*
X62174734Y-71732851D01*
X62174729Y-71732848D01*
X62001807Y-71655857D01*
X62001802Y-71655855D01*
X61856001Y-71624865D01*
X61816646Y-71616500D01*
X61627354Y-71616500D01*
X61594897Y-71623398D01*
X61442197Y-71655855D01*
X61442192Y-71655857D01*
X61269270Y-71732848D01*
X61269265Y-71732851D01*
X61116129Y-71844111D01*
X60989466Y-71984785D01*
X60894821Y-72148715D01*
X60894818Y-72148722D01*
X60836327Y-72328740D01*
X60836326Y-72328744D01*
X60816540Y-72517000D01*
X58297986Y-72517000D01*
X58390533Y-72414216D01*
X58485179Y-72250284D01*
X58543674Y-72070256D01*
X58563460Y-71882000D01*
X58543674Y-71693744D01*
X58485179Y-71513716D01*
X58390533Y-71349784D01*
X58263871Y-71209112D01*
X58263870Y-71209111D01*
X58110734Y-71097851D01*
X58110729Y-71097848D01*
X57937807Y-71020857D01*
X57937802Y-71020855D01*
X57792001Y-70989865D01*
X57752646Y-70981500D01*
X57563354Y-70981500D01*
X57530897Y-70988398D01*
X57378197Y-71020855D01*
X57378192Y-71020857D01*
X57205270Y-71097848D01*
X57205265Y-71097851D01*
X57052129Y-71209111D01*
X56925466Y-71349785D01*
X56830821Y-71513715D01*
X56830818Y-71513722D01*
X56784636Y-71655857D01*
X56772326Y-71693744D01*
X56752540Y-71882000D01*
X38227000Y-71882000D01*
X38227000Y-69977000D01*
X46211540Y-69977000D01*
X46231326Y-70165256D01*
X46231327Y-70165259D01*
X46289818Y-70345277D01*
X46289821Y-70345284D01*
X46384467Y-70509216D01*
X46474089Y-70608751D01*
X46511129Y-70649888D01*
X46664265Y-70761148D01*
X46664270Y-70761151D01*
X46837192Y-70838142D01*
X46837197Y-70838144D01*
X47022354Y-70877500D01*
X47022355Y-70877500D01*
X47211644Y-70877500D01*
X47211646Y-70877500D01*
X47396803Y-70838144D01*
X47569730Y-70761151D01*
X47722871Y-70649888D01*
X47849533Y-70509216D01*
X47944179Y-70345284D01*
X48002674Y-70165256D01*
X48022460Y-69977000D01*
X48002674Y-69788744D01*
X47944179Y-69608716D01*
X47849533Y-69444784D01*
X47722871Y-69304112D01*
X47722870Y-69304111D01*
X47569734Y-69192851D01*
X47569729Y-69192848D01*
X47396807Y-69115857D01*
X47396802Y-69115855D01*
X47265750Y-69088000D01*
X53577540Y-69088000D01*
X53597326Y-69276256D01*
X53597327Y-69276259D01*
X53655818Y-69456277D01*
X53655821Y-69456284D01*
X53750467Y-69620216D01*
X53821211Y-69698785D01*
X53877129Y-69760888D01*
X54030265Y-69872148D01*
X54030270Y-69872151D01*
X54203192Y-69949142D01*
X54203197Y-69949144D01*
X54388354Y-69988500D01*
X54447548Y-69988500D01*
X54514587Y-70008185D01*
X54535229Y-70024819D01*
X55010016Y-70499606D01*
X55010045Y-70499637D01*
X55100264Y-70589856D01*
X55100267Y-70589858D01*
X55151490Y-70624084D01*
X55202714Y-70658312D01*
X55283207Y-70691652D01*
X55316548Y-70705463D01*
X55330614Y-70708260D01*
X55356349Y-70713380D01*
X55356369Y-70713383D01*
X55356391Y-70713388D01*
X55437391Y-70729499D01*
X55437392Y-70729500D01*
X55437393Y-70729500D01*
X55437394Y-70729500D01*
X63701516Y-70729500D01*
X63768555Y-70749185D01*
X63774379Y-70753166D01*
X63816992Y-70784126D01*
X63872770Y-70824651D01*
X64045692Y-70901642D01*
X64045697Y-70901644D01*
X64230854Y-70941000D01*
X64230855Y-70941000D01*
X64420144Y-70941000D01*
X64420146Y-70941000D01*
X64605303Y-70901644D01*
X64778230Y-70824651D01*
X64931371Y-70713388D01*
X65028801Y-70605180D01*
X65088284Y-70568535D01*
X65158141Y-70569864D01*
X65216190Y-70608751D01*
X65228334Y-70626154D01*
X65307467Y-70763216D01*
X65434129Y-70903888D01*
X65587265Y-71015148D01*
X65587270Y-71015151D01*
X65760192Y-71092142D01*
X65760197Y-71092144D01*
X65945354Y-71131500D01*
X65945355Y-71131500D01*
X66134644Y-71131500D01*
X66134646Y-71131500D01*
X66319803Y-71092144D01*
X66492730Y-71015151D01*
X66645871Y-70903888D01*
X66772533Y-70763216D01*
X66867179Y-70599284D01*
X66925674Y-70419256D01*
X66945460Y-70231000D01*
X69706540Y-70231000D01*
X69726326Y-70419256D01*
X69726327Y-70419259D01*
X69784818Y-70599277D01*
X69784821Y-70599284D01*
X69879467Y-70763216D01*
X70006129Y-70903888D01*
X70159265Y-71015148D01*
X70159270Y-71015151D01*
X70332192Y-71092142D01*
X70332197Y-71092144D01*
X70517354Y-71131500D01*
X70517355Y-71131500D01*
X70706644Y-71131500D01*
X70706646Y-71131500D01*
X70891803Y-71092144D01*
X71064730Y-71015151D01*
X71217871Y-70903888D01*
X71344533Y-70763216D01*
X71439179Y-70599284D01*
X71497674Y-70419256D01*
X71517460Y-70231000D01*
X71497674Y-70042744D01*
X71439179Y-69862716D01*
X71344533Y-69698784D01*
X71217871Y-69558112D01*
X71217870Y-69558111D01*
X71064734Y-69446851D01*
X71064729Y-69446848D01*
X70891807Y-69369857D01*
X70891802Y-69369855D01*
X70746001Y-69338865D01*
X70706646Y-69330500D01*
X70517354Y-69330500D01*
X70484897Y-69337398D01*
X70332197Y-69369855D01*
X70332192Y-69369857D01*
X70159270Y-69446848D01*
X70159265Y-69446851D01*
X70006129Y-69558111D01*
X69879466Y-69698785D01*
X69784821Y-69862715D01*
X69784818Y-69862722D01*
X69737555Y-70008185D01*
X69726326Y-70042744D01*
X69706540Y-70231000D01*
X66945460Y-70231000D01*
X66925674Y-70042744D01*
X66867179Y-69862716D01*
X66818638Y-69778641D01*
X66802166Y-69710743D01*
X66818637Y-69654647D01*
X66862526Y-69578631D01*
X66921021Y-69398603D01*
X66940807Y-69210347D01*
X66927996Y-69088459D01*
X66940565Y-69019732D01*
X66988298Y-68968708D01*
X67051317Y-68951500D01*
X76905548Y-68951500D01*
X76972587Y-68971185D01*
X76993229Y-68987819D01*
X78669762Y-70664352D01*
X78703247Y-70725675D01*
X78701856Y-70784126D01*
X78674938Y-70884586D01*
X78674936Y-70884596D01*
X78654341Y-71119999D01*
X78654341Y-71120000D01*
X78674936Y-71355403D01*
X78674938Y-71355413D01*
X78736094Y-71583655D01*
X78736096Y-71583659D01*
X78736097Y-71583663D01*
X78828983Y-71782857D01*
X78835965Y-71797830D01*
X78835967Y-71797834D01*
X78944281Y-71952521D01*
X78971505Y-71991401D01*
X79138599Y-72158495D01*
X79235384Y-72226265D01*
X79332165Y-72294032D01*
X79332167Y-72294033D01*
X79332170Y-72294035D01*
X79363244Y-72308525D01*
X79415684Y-72354697D01*
X79434836Y-72421890D01*
X79414621Y-72488771D01*
X79398521Y-72508588D01*
X76802930Y-75104181D01*
X76741607Y-75137666D01*
X76715249Y-75140500D01*
X71652079Y-75140500D01*
X71585040Y-75120815D01*
X71539285Y-75068011D01*
X71529341Y-74998853D01*
X71544692Y-74954500D01*
X71566179Y-74917284D01*
X71624674Y-74737256D01*
X71644460Y-74549000D01*
X71624674Y-74360744D01*
X71566179Y-74180716D01*
X71471533Y-74016784D01*
X71344871Y-73876112D01*
X71344870Y-73876111D01*
X71191734Y-73764851D01*
X71191729Y-73764848D01*
X71018807Y-73687857D01*
X71018802Y-73687855D01*
X70873001Y-73656865D01*
X70833646Y-73648500D01*
X70644354Y-73648500D01*
X70611897Y-73655398D01*
X70459197Y-73687855D01*
X70459192Y-73687857D01*
X70286270Y-73764848D01*
X70286265Y-73764851D01*
X70133129Y-73876111D01*
X70006466Y-74016785D01*
X69911821Y-74180715D01*
X69911818Y-74180722D01*
X69853327Y-74360740D01*
X69853326Y-74360744D01*
X69833540Y-74549000D01*
X69853326Y-74737256D01*
X69853327Y-74737259D01*
X69911818Y-74917277D01*
X69911821Y-74917284D01*
X69933308Y-74954500D01*
X69949781Y-75022400D01*
X69926928Y-75088427D01*
X69872007Y-75131618D01*
X69825921Y-75140500D01*
X67251748Y-75140500D01*
X67184709Y-75120815D01*
X67159600Y-75099474D01*
X67153873Y-75093114D01*
X67153869Y-75093110D01*
X67000734Y-74981851D01*
X67000729Y-74981848D01*
X66827807Y-74904857D01*
X66827802Y-74904855D01*
X66682001Y-74873865D01*
X66642646Y-74865500D01*
X66453354Y-74865500D01*
X66420897Y-74872398D01*
X66268197Y-74904855D01*
X66268192Y-74904857D01*
X66095270Y-74981848D01*
X66095265Y-74981851D01*
X65942129Y-75093111D01*
X65815466Y-75233785D01*
X65720821Y-75397715D01*
X65720818Y-75397722D01*
X65662730Y-75576500D01*
X65662326Y-75577744D01*
X65642540Y-75766000D01*
X65662326Y-75954256D01*
X65662327Y-75954259D01*
X65720818Y-76134277D01*
X65720821Y-76134284D01*
X65761321Y-76204432D01*
X65777794Y-76272333D01*
X65754941Y-76338359D01*
X65704371Y-76379711D01*
X65587267Y-76431850D01*
X65587265Y-76431851D01*
X65434129Y-76543111D01*
X65307466Y-76683785D01*
X65212821Y-76847715D01*
X65212818Y-76847722D01*
X65154327Y-77027740D01*
X65154326Y-77027744D01*
X65134540Y-77216000D01*
X65154326Y-77404256D01*
X65154327Y-77404259D01*
X65212818Y-77584277D01*
X65212821Y-77584284D01*
X65307467Y-77748216D01*
X65389660Y-77839500D01*
X65434129Y-77888888D01*
X65587265Y-78000148D01*
X65587270Y-78000151D01*
X65760192Y-78077142D01*
X65760197Y-78077144D01*
X65945354Y-78116500D01*
X65945355Y-78116500D01*
X66134644Y-78116500D01*
X66134646Y-78116500D01*
X66319803Y-78077144D01*
X66492730Y-78000151D01*
X66645871Y-77888888D01*
X66772533Y-77748216D01*
X66867179Y-77584284D01*
X66925674Y-77404256D01*
X66945460Y-77216000D01*
X66925674Y-77027744D01*
X66867179Y-76847716D01*
X66826677Y-76777565D01*
X66810205Y-76709667D01*
X66833057Y-76643640D01*
X66883625Y-76602289D01*
X67000730Y-76550151D01*
X67153871Y-76438888D01*
X67156788Y-76435647D01*
X67159600Y-76432526D01*
X67219087Y-76395879D01*
X67251748Y-76391500D01*
X77087308Y-76391500D01*
X77147730Y-76379481D01*
X77208153Y-76367463D01*
X77258197Y-76346734D01*
X77321987Y-76320312D01*
X77373210Y-76286084D01*
X77424434Y-76251858D01*
X77511559Y-76164733D01*
X77511560Y-76164731D01*
X77518626Y-76157665D01*
X77518629Y-76157661D01*
X78467445Y-75208844D01*
X78528766Y-75175361D01*
X78598458Y-75180345D01*
X78647274Y-75213555D01*
X78769129Y-75348888D01*
X78922265Y-75460148D01*
X78922270Y-75460151D01*
X79095192Y-75537142D01*
X79095197Y-75537144D01*
X79280354Y-75576500D01*
X79280355Y-75576500D01*
X79469644Y-75576500D01*
X79469646Y-75576500D01*
X79654803Y-75537144D01*
X79827730Y-75460151D01*
X79980871Y-75348888D01*
X80107533Y-75208216D01*
X80202179Y-75044284D01*
X80260674Y-74864256D01*
X80280460Y-74676000D01*
X80260674Y-74487744D01*
X80202179Y-74307716D01*
X80107533Y-74143784D01*
X79980871Y-74003112D01*
X79920111Y-73958967D01*
X79877448Y-73903641D01*
X79871469Y-73834028D01*
X79904074Y-73772232D01*
X79905244Y-73771045D01*
X81510819Y-72165470D01*
X81572140Y-72131987D01*
X81641832Y-72136971D01*
X81673955Y-72155688D01*
X81674164Y-72155390D01*
X81677733Y-72157889D01*
X81678203Y-72158163D01*
X81678600Y-72158496D01*
X81872165Y-72294032D01*
X81872167Y-72294033D01*
X81872170Y-72294035D01*
X82086337Y-72393903D01*
X82314592Y-72455063D01*
X82502918Y-72471539D01*
X82549999Y-72475659D01*
X82550000Y-72475659D01*
X82550001Y-72475659D01*
X82589234Y-72472226D01*
X82785408Y-72455063D01*
X83013663Y-72393903D01*
X83227830Y-72294035D01*
X83421401Y-72158495D01*
X83588495Y-71991401D01*
X83724035Y-71797830D01*
X83823903Y-71583663D01*
X83885063Y-71355408D01*
X83905659Y-71120000D01*
X83885063Y-70884592D01*
X83826051Y-70664352D01*
X83823905Y-70656344D01*
X83823904Y-70656343D01*
X83823903Y-70656337D01*
X83724035Y-70442171D01*
X83700658Y-70408784D01*
X83588494Y-70248597D01*
X83421402Y-70081506D01*
X83421396Y-70081501D01*
X83235842Y-69951575D01*
X83192217Y-69896998D01*
X83185023Y-69827500D01*
X83216546Y-69765145D01*
X83235842Y-69748425D01*
X83306735Y-69698785D01*
X83421401Y-69618495D01*
X83588495Y-69451401D01*
X83724035Y-69257830D01*
X83823903Y-69043663D01*
X83885063Y-68815408D01*
X83905659Y-68580000D01*
X83885063Y-68344592D01*
X83823903Y-68116337D01*
X83724035Y-67902171D01*
X83686829Y-67849034D01*
X83588494Y-67708597D01*
X83421402Y-67541506D01*
X83421401Y-67541505D01*
X83235405Y-67411269D01*
X83191781Y-67356692D01*
X83184588Y-67287193D01*
X83216110Y-67224839D01*
X83235405Y-67208119D01*
X83421082Y-67078105D01*
X83588105Y-66911082D01*
X83723600Y-66717578D01*
X83823429Y-66503492D01*
X83823432Y-66503486D01*
X83880636Y-66290000D01*
X82983012Y-66290000D01*
X83015925Y-66232993D01*
X83050000Y-66105826D01*
X83050000Y-65974174D01*
X83015925Y-65847007D01*
X82983012Y-65790000D01*
X83880636Y-65790000D01*
X83880635Y-65789999D01*
X83823432Y-65576513D01*
X83823429Y-65576507D01*
X83723600Y-65362422D01*
X83723599Y-65362420D01*
X83588113Y-65168926D01*
X83588108Y-65168920D01*
X83421082Y-65001894D01*
X83227578Y-64866399D01*
X83013492Y-64766570D01*
X83013486Y-64766567D01*
X82800000Y-64709364D01*
X82800000Y-65606988D01*
X82742993Y-65574075D01*
X82615826Y-65540000D01*
X82484174Y-65540000D01*
X82357007Y-65574075D01*
X82300000Y-65606988D01*
X82300000Y-64709364D01*
X82299999Y-64709364D01*
X82086513Y-64766567D01*
X82086507Y-64766570D01*
X81872422Y-64866399D01*
X81872420Y-64866400D01*
X81738013Y-64960513D01*
X81671807Y-64982840D01*
X81604040Y-64965830D01*
X81579209Y-64946619D01*
X80948960Y-64316370D01*
X80915475Y-64255047D01*
X80913323Y-64241671D01*
X80895674Y-64073744D01*
X80837179Y-63893716D01*
X80742533Y-63729784D01*
X80615871Y-63589112D01*
X80615870Y-63589111D01*
X80462734Y-63477851D01*
X80462729Y-63477848D01*
X80289807Y-63400857D01*
X80289802Y-63400855D01*
X80144001Y-63369865D01*
X80104646Y-63361500D01*
X79915354Y-63361500D01*
X79882897Y-63368398D01*
X79730197Y-63400855D01*
X79730192Y-63400857D01*
X79557270Y-63477848D01*
X79557265Y-63477851D01*
X79404129Y-63589111D01*
X79277466Y-63729785D01*
X79182821Y-63893715D01*
X79182818Y-63893722D01*
X79136636Y-64035857D01*
X79124326Y-64073744D01*
X79104540Y-64262000D01*
X79124326Y-64450256D01*
X79124327Y-64450259D01*
X79151821Y-64534878D01*
X79153816Y-64604720D01*
X79117735Y-64664552D01*
X79059809Y-64693031D01*
X79060068Y-64694124D01*
X79055294Y-64695252D01*
X79055034Y-64695380D01*
X79054341Y-64695477D01*
X79052520Y-64695907D01*
X78917671Y-64746202D01*
X78917664Y-64746206D01*
X78802455Y-64832452D01*
X78802452Y-64832455D01*
X78716206Y-64947664D01*
X78716202Y-64947671D01*
X78665908Y-65082517D01*
X78659501Y-65142116D01*
X78659500Y-65142135D01*
X78659500Y-66937870D01*
X78659501Y-66937876D01*
X78665908Y-66997483D01*
X78716202Y-67132328D01*
X78716206Y-67132335D01*
X78802452Y-67247544D01*
X78802455Y-67247547D01*
X78917664Y-67333793D01*
X78917671Y-67333797D01*
X79049081Y-67382810D01*
X79105015Y-67424681D01*
X79129432Y-67490145D01*
X79114580Y-67558418D01*
X79093430Y-67586673D01*
X78971505Y-67708599D01*
X78835965Y-67902169D01*
X78835964Y-67902171D01*
X78736098Y-68116335D01*
X78736094Y-68116344D01*
X78674938Y-68344586D01*
X78674936Y-68344596D01*
X78654341Y-68579999D01*
X78654341Y-68580388D01*
X78654292Y-68580553D01*
X78653869Y-68585394D01*
X78652896Y-68585308D01*
X78634656Y-68647427D01*
X78581852Y-68693182D01*
X78512694Y-68703126D01*
X78449138Y-68674101D01*
X78442660Y-68668069D01*
X77708928Y-67934338D01*
X77708925Y-67934334D01*
X77708925Y-67934335D01*
X77701859Y-67927269D01*
X77701858Y-67927267D01*
X77614733Y-67840142D01*
X77558938Y-67802861D01*
X77512286Y-67771688D01*
X77512287Y-67771688D01*
X77512285Y-67771687D01*
X77472039Y-67755017D01*
X77431792Y-67738347D01*
X77398452Y-67724537D01*
X77398450Y-67724536D01*
X77398446Y-67724535D01*
X77318331Y-67708599D01*
X77318324Y-67708599D01*
X77277607Y-67700500D01*
X77277606Y-67700500D01*
X65798829Y-67700500D01*
X65731790Y-67680815D01*
X65686035Y-67628011D01*
X65676646Y-67570498D01*
X65675460Y-67570498D01*
X65675460Y-67564002D01*
X65673610Y-67546401D01*
X65655674Y-67375744D01*
X65597179Y-67195716D01*
X65573754Y-67155142D01*
X65539113Y-67095141D01*
X65522500Y-67033141D01*
X65522500Y-66294000D01*
X69706540Y-66294000D01*
X69726326Y-66482256D01*
X69726327Y-66482259D01*
X69784818Y-66662277D01*
X69784821Y-66662284D01*
X69879467Y-66826216D01*
X70006129Y-66966888D01*
X70159265Y-67078148D01*
X70159270Y-67078151D01*
X70332192Y-67155142D01*
X70332197Y-67155144D01*
X70517354Y-67194500D01*
X70517355Y-67194500D01*
X70706644Y-67194500D01*
X70706646Y-67194500D01*
X70891803Y-67155144D01*
X71064730Y-67078151D01*
X71217871Y-66966888D01*
X71344533Y-66826216D01*
X71439179Y-66662284D01*
X71497674Y-66482256D01*
X71517460Y-66294000D01*
X71497674Y-66105744D01*
X71439179Y-65925716D01*
X71344533Y-65761784D01*
X71217871Y-65621112D01*
X71216290Y-65619963D01*
X71064734Y-65509851D01*
X71064729Y-65509848D01*
X70891807Y-65432857D01*
X70891802Y-65432855D01*
X70742387Y-65401097D01*
X70706646Y-65393500D01*
X70517354Y-65393500D01*
X70484897Y-65400398D01*
X70332197Y-65432855D01*
X70332192Y-65432857D01*
X70159270Y-65509848D01*
X70159265Y-65509851D01*
X70006129Y-65621111D01*
X69879466Y-65761785D01*
X69784821Y-65925715D01*
X69784818Y-65925722D01*
X69727784Y-66101256D01*
X69726326Y-66105744D01*
X69706540Y-66294000D01*
X65522500Y-66294000D01*
X65522500Y-64897000D01*
X71484540Y-64897000D01*
X71504326Y-65085256D01*
X71504327Y-65085259D01*
X71562818Y-65265277D01*
X71562821Y-65265284D01*
X71657467Y-65429216D01*
X71766466Y-65550271D01*
X71784129Y-65569888D01*
X71937265Y-65681148D01*
X71937270Y-65681151D01*
X72110192Y-65758142D01*
X72110197Y-65758144D01*
X72295354Y-65797500D01*
X72295355Y-65797500D01*
X72484644Y-65797500D01*
X72484646Y-65797500D01*
X72669803Y-65758144D01*
X72842730Y-65681151D01*
X72995871Y-65569888D01*
X73122533Y-65429216D01*
X73217179Y-65265284D01*
X73275674Y-65085256D01*
X73282112Y-65024000D01*
X75294540Y-65024000D01*
X75314326Y-65212256D01*
X75314327Y-65212259D01*
X75372818Y-65392277D01*
X75372821Y-65392284D01*
X75467467Y-65556216D01*
X75525899Y-65621111D01*
X75594129Y-65696888D01*
X75747265Y-65808148D01*
X75747270Y-65808151D01*
X75920192Y-65885142D01*
X75920197Y-65885144D01*
X76105354Y-65924500D01*
X76105355Y-65924500D01*
X76294644Y-65924500D01*
X76294646Y-65924500D01*
X76479803Y-65885144D01*
X76652730Y-65808151D01*
X76805871Y-65696888D01*
X76932533Y-65556216D01*
X77027179Y-65392284D01*
X77085674Y-65212256D01*
X77105460Y-65024000D01*
X77085674Y-64835744D01*
X77027179Y-64655716D01*
X76932533Y-64491784D01*
X76805871Y-64351112D01*
X76805870Y-64351111D01*
X76652734Y-64239851D01*
X76652729Y-64239848D01*
X76479807Y-64162857D01*
X76479802Y-64162855D01*
X76334001Y-64131865D01*
X76294646Y-64123500D01*
X76105354Y-64123500D01*
X76072897Y-64130398D01*
X75920197Y-64162855D01*
X75920192Y-64162857D01*
X75747270Y-64239848D01*
X75747265Y-64239851D01*
X75594129Y-64351111D01*
X75467466Y-64491785D01*
X75372821Y-64655715D01*
X75372818Y-64655722D01*
X75314327Y-64835740D01*
X75314326Y-64835744D01*
X75294540Y-65024000D01*
X73282112Y-65024000D01*
X73295460Y-64897000D01*
X73275674Y-64708744D01*
X73217179Y-64528716D01*
X73122533Y-64364784D01*
X72995871Y-64224112D01*
X72971706Y-64206555D01*
X72842734Y-64112851D01*
X72842729Y-64112848D01*
X72669807Y-64035857D01*
X72669802Y-64035855D01*
X72524001Y-64004865D01*
X72484646Y-63996500D01*
X72295354Y-63996500D01*
X72262897Y-64003398D01*
X72110197Y-64035855D01*
X72110192Y-64035857D01*
X71937270Y-64112848D01*
X71937265Y-64112851D01*
X71784129Y-64224111D01*
X71657466Y-64364785D01*
X71562821Y-64528715D01*
X71562818Y-64528722D01*
X71508497Y-64695907D01*
X71504326Y-64708744D01*
X71484540Y-64897000D01*
X65522500Y-64897000D01*
X65522500Y-64327393D01*
X65522499Y-64327389D01*
X65505087Y-64239851D01*
X65498463Y-64206548D01*
X65451311Y-64092714D01*
X65451310Y-64092713D01*
X65451307Y-64092707D01*
X65382858Y-63990267D01*
X65382855Y-63990263D01*
X65295736Y-63903144D01*
X65295732Y-63903141D01*
X65193292Y-63834692D01*
X65193283Y-63834687D01*
X65079454Y-63787538D01*
X65079455Y-63787538D01*
X65079452Y-63787537D01*
X65079448Y-63787536D01*
X65079444Y-63787535D01*
X64958610Y-63763500D01*
X64958606Y-63763500D01*
X57211606Y-63763500D01*
X57088393Y-63763500D01*
X57088388Y-63763500D01*
X56967555Y-63787535D01*
X56967547Y-63787537D01*
X56853716Y-63834687D01*
X56751265Y-63903142D01*
X56751262Y-63903145D01*
X55403229Y-65251181D01*
X55341906Y-65284666D01*
X55315548Y-65287500D01*
X55313748Y-65287500D01*
X55246709Y-65267815D01*
X55221600Y-65246474D01*
X55215873Y-65240114D01*
X55215869Y-65240110D01*
X55062734Y-65128851D01*
X55062729Y-65128848D01*
X54889807Y-65051857D01*
X54889802Y-65051855D01*
X54714055Y-65014500D01*
X54704646Y-65012500D01*
X54515354Y-65012500D01*
X54505945Y-65014500D01*
X54330197Y-65051855D01*
X54330192Y-65051857D01*
X54157270Y-65128848D01*
X54157265Y-65128851D01*
X54004129Y-65240111D01*
X53877466Y-65380785D01*
X53782821Y-65544715D01*
X53782818Y-65544722D01*
X53738491Y-65681148D01*
X53724326Y-65724744D01*
X53704540Y-65913000D01*
X53724326Y-66101256D01*
X53724327Y-66101259D01*
X53782818Y-66281277D01*
X53782821Y-66281284D01*
X53877467Y-66445216D01*
X53998401Y-66579526D01*
X54004129Y-66585888D01*
X54157265Y-66697148D01*
X54157270Y-66697151D01*
X54330192Y-66774142D01*
X54330197Y-66774144D01*
X54515354Y-66813500D01*
X54515355Y-66813500D01*
X54704644Y-66813500D01*
X54704646Y-66813500D01*
X54889803Y-66774144D01*
X55062730Y-66697151D01*
X55215871Y-66585888D01*
X55218788Y-66582647D01*
X55221600Y-66579526D01*
X55281087Y-66542879D01*
X55313748Y-66538500D01*
X55687607Y-66538500D01*
X55748029Y-66526481D01*
X55808452Y-66514463D01*
X55858496Y-66493734D01*
X55922286Y-66467312D01*
X55973509Y-66433084D01*
X56024733Y-66398858D01*
X56111858Y-66311733D01*
X56111858Y-66311731D01*
X56122066Y-66301524D01*
X56122067Y-66301521D01*
X57372772Y-65050819D01*
X57434095Y-65017334D01*
X57460453Y-65014500D01*
X64147500Y-65014500D01*
X64214539Y-65034185D01*
X64260294Y-65086989D01*
X64271500Y-65138500D01*
X64271500Y-66749920D01*
X64251815Y-66816959D01*
X64220387Y-66850237D01*
X64164128Y-66891112D01*
X64164123Y-66891116D01*
X64037466Y-67031785D01*
X63942821Y-67195715D01*
X63942818Y-67195722D01*
X63897955Y-67333797D01*
X63884326Y-67375744D01*
X63866390Y-67546401D01*
X63864540Y-67564002D01*
X63864540Y-67570498D01*
X63863218Y-67570498D01*
X63851924Y-67632265D01*
X63804193Y-67683290D01*
X63741171Y-67700500D01*
X63187748Y-67700500D01*
X63120709Y-67680815D01*
X63095600Y-67659474D01*
X63089873Y-67653114D01*
X63089869Y-67653110D01*
X62936734Y-67541851D01*
X62936729Y-67541848D01*
X62763807Y-67464857D01*
X62763802Y-67464855D01*
X62618001Y-67433865D01*
X62578646Y-67425500D01*
X62389354Y-67425500D01*
X62356897Y-67432398D01*
X62204197Y-67464855D01*
X62204192Y-67464857D01*
X62031270Y-67541848D01*
X62031265Y-67541851D01*
X61878129Y-67653111D01*
X61751466Y-67793785D01*
X61656821Y-67957715D01*
X61656818Y-67957722D01*
X61605279Y-68116344D01*
X61598326Y-68137744D01*
X61578540Y-68326000D01*
X61580494Y-68344596D01*
X61598327Y-68514261D01*
X61611270Y-68554096D01*
X61613265Y-68623937D01*
X61577184Y-68683770D01*
X61514483Y-68714597D01*
X61445068Y-68706632D01*
X61420454Y-68692731D01*
X61285734Y-68594851D01*
X61285729Y-68594848D01*
X61112807Y-68517857D01*
X61112802Y-68517855D01*
X60967001Y-68486865D01*
X60927646Y-68478500D01*
X60738354Y-68478500D01*
X60705897Y-68485398D01*
X60553197Y-68517855D01*
X60553192Y-68517857D01*
X60380270Y-68594848D01*
X60380265Y-68594851D01*
X60227129Y-68706111D01*
X60100466Y-68846785D01*
X60005821Y-69010715D01*
X60005818Y-69010722D01*
X59947964Y-69188779D01*
X59947326Y-69190744D01*
X59928753Y-69367462D01*
X59902168Y-69432076D01*
X59844871Y-69472061D01*
X59805432Y-69478500D01*
X55809452Y-69478500D01*
X55742413Y-69458815D01*
X55721771Y-69442181D01*
X55421960Y-69142370D01*
X55388475Y-69081047D01*
X55386323Y-69067671D01*
X55368674Y-68899744D01*
X55310179Y-68719716D01*
X55215533Y-68555784D01*
X55088871Y-68415112D01*
X55088870Y-68415111D01*
X54935734Y-68303851D01*
X54935729Y-68303848D01*
X54762807Y-68226857D01*
X54762802Y-68226855D01*
X54617001Y-68195865D01*
X54577646Y-68187500D01*
X54388354Y-68187500D01*
X54355897Y-68194398D01*
X54203197Y-68226855D01*
X54203192Y-68226857D01*
X54030270Y-68303848D01*
X54030265Y-68303851D01*
X53877129Y-68415111D01*
X53750466Y-68555785D01*
X53655821Y-68719715D01*
X53655818Y-68719722D01*
X53610819Y-68858216D01*
X53597326Y-68899744D01*
X53577540Y-69088000D01*
X47265750Y-69088000D01*
X47233038Y-69081047D01*
X47211646Y-69076500D01*
X47022354Y-69076500D01*
X47000962Y-69081047D01*
X46837197Y-69115855D01*
X46837192Y-69115857D01*
X46664270Y-69192848D01*
X46664265Y-69192851D01*
X46511129Y-69304111D01*
X46384466Y-69444785D01*
X46289821Y-69608715D01*
X46289818Y-69608722D01*
X46234608Y-69778643D01*
X46231326Y-69788744D01*
X46211540Y-69977000D01*
X38227000Y-69977000D01*
X38227000Y-66674999D01*
X38776341Y-66674999D01*
X38776341Y-66675000D01*
X38796936Y-66910403D01*
X38796938Y-66910413D01*
X38858094Y-67138655D01*
X38858096Y-67138659D01*
X38858097Y-67138663D01*
X38907654Y-67244937D01*
X38957965Y-67352830D01*
X38957967Y-67352834D01*
X39036407Y-67464857D01*
X39093505Y-67546401D01*
X39260599Y-67713495D01*
X39296093Y-67738348D01*
X39454165Y-67849032D01*
X39454167Y-67849033D01*
X39454170Y-67849035D01*
X39668337Y-67948903D01*
X39896592Y-68010063D01*
X40084918Y-68026539D01*
X40131999Y-68030659D01*
X40132000Y-68030659D01*
X40132001Y-68030659D01*
X40171234Y-68027226D01*
X40367408Y-68010063D01*
X40595663Y-67948903D01*
X40809830Y-67849035D01*
X41003401Y-67713495D01*
X41170495Y-67546401D01*
X41306035Y-67352830D01*
X41405903Y-67138663D01*
X41428052Y-67056000D01*
X50275540Y-67056000D01*
X50295326Y-67244256D01*
X50295327Y-67244259D01*
X50353818Y-67424277D01*
X50353821Y-67424284D01*
X50448467Y-67588216D01*
X50549568Y-67700500D01*
X50575129Y-67728888D01*
X50728265Y-67840148D01*
X50728270Y-67840151D01*
X50901192Y-67917142D01*
X50901197Y-67917144D01*
X51086354Y-67956500D01*
X51086355Y-67956500D01*
X51275644Y-67956500D01*
X51275646Y-67956500D01*
X51460803Y-67917144D01*
X51633730Y-67840151D01*
X51786871Y-67728888D01*
X51913533Y-67588216D01*
X52008179Y-67424284D01*
X52066674Y-67244256D01*
X52086460Y-67056000D01*
X52066674Y-66867744D01*
X52008179Y-66687716D01*
X51913533Y-66523784D01*
X51786871Y-66383112D01*
X51737177Y-66347007D01*
X51633734Y-66271851D01*
X51633729Y-66271848D01*
X51460807Y-66194857D01*
X51460802Y-66194855D01*
X51315001Y-66163865D01*
X51275646Y-66155500D01*
X51086354Y-66155500D01*
X51053897Y-66162398D01*
X50901197Y-66194855D01*
X50901192Y-66194857D01*
X50728270Y-66271848D01*
X50728265Y-66271851D01*
X50575129Y-66383111D01*
X50448466Y-66523785D01*
X50353821Y-66687715D01*
X50353818Y-66687722D01*
X50313080Y-66813102D01*
X50295326Y-66867744D01*
X50275540Y-67056000D01*
X41428052Y-67056000D01*
X41467063Y-66910408D01*
X41487659Y-66675000D01*
X41486546Y-66662284D01*
X41479863Y-66585889D01*
X41467063Y-66439592D01*
X41405903Y-66211337D01*
X41306035Y-65997171D01*
X41289932Y-65974174D01*
X41170496Y-65803600D01*
X41125038Y-65758142D01*
X41048179Y-65681283D01*
X41014696Y-65619963D01*
X41019680Y-65550271D01*
X41061551Y-65494337D01*
X41092529Y-65477422D01*
X41224086Y-65428354D01*
X41224093Y-65428350D01*
X41339187Y-65342190D01*
X41339190Y-65342187D01*
X41425350Y-65227093D01*
X41425354Y-65227086D01*
X41475596Y-65092379D01*
X41475598Y-65092372D01*
X41481999Y-65032844D01*
X41482000Y-65032827D01*
X41482000Y-64385000D01*
X40565012Y-64385000D01*
X40597925Y-64327993D01*
X40632000Y-64200826D01*
X40632000Y-64069174D01*
X40597925Y-63942007D01*
X40565012Y-63885000D01*
X41482000Y-63885000D01*
X41482000Y-63237172D01*
X41481999Y-63237155D01*
X41475598Y-63177627D01*
X41475596Y-63177620D01*
X41425354Y-63042913D01*
X41425350Y-63042906D01*
X41339190Y-62927812D01*
X41339187Y-62927809D01*
X41224093Y-62841649D01*
X41224086Y-62841645D01*
X41089379Y-62791403D01*
X41089372Y-62791401D01*
X41029844Y-62785000D01*
X40382000Y-62785000D01*
X40382000Y-63701988D01*
X40324993Y-63669075D01*
X40197826Y-63635000D01*
X40066174Y-63635000D01*
X39939007Y-63669075D01*
X39882000Y-63701988D01*
X39882000Y-62785000D01*
X39234155Y-62785000D01*
X39174627Y-62791401D01*
X39174620Y-62791403D01*
X39039913Y-62841645D01*
X39039906Y-62841649D01*
X38924812Y-62927809D01*
X38924809Y-62927812D01*
X38838649Y-63042906D01*
X38838645Y-63042913D01*
X38788403Y-63177620D01*
X38788401Y-63177627D01*
X38782000Y-63237155D01*
X38782000Y-63885000D01*
X39698988Y-63885000D01*
X39666075Y-63942007D01*
X39632000Y-64069174D01*
X39632000Y-64200826D01*
X39666075Y-64327993D01*
X39698988Y-64385000D01*
X38782000Y-64385000D01*
X38782000Y-65032844D01*
X38788401Y-65092372D01*
X38788403Y-65092379D01*
X38838645Y-65227086D01*
X38838649Y-65227093D01*
X38924809Y-65342187D01*
X38924812Y-65342190D01*
X39039906Y-65428350D01*
X39039913Y-65428354D01*
X39171470Y-65477421D01*
X39227403Y-65519292D01*
X39251821Y-65584756D01*
X39236970Y-65653029D01*
X39215819Y-65681284D01*
X39093503Y-65803600D01*
X38957965Y-65997169D01*
X38957964Y-65997171D01*
X38858098Y-66211335D01*
X38858094Y-66211344D01*
X38796938Y-66439586D01*
X38796936Y-66439596D01*
X38776341Y-66674999D01*
X38227000Y-66674999D01*
X38227000Y-61976000D01*
X46846540Y-61976000D01*
X46866326Y-62164256D01*
X46866327Y-62164259D01*
X46924818Y-62344277D01*
X46924821Y-62344284D01*
X47019467Y-62508216D01*
X47146129Y-62648888D01*
X47299265Y-62760148D01*
X47299270Y-62760151D01*
X47472192Y-62837142D01*
X47472197Y-62837144D01*
X47657354Y-62876500D01*
X47657355Y-62876500D01*
X47846644Y-62876500D01*
X47846646Y-62876500D01*
X48031803Y-62837144D01*
X48204730Y-62760151D01*
X48357871Y-62648888D01*
X48484533Y-62508216D01*
X48579179Y-62344284D01*
X48637674Y-62164256D01*
X48657460Y-61976000D01*
X48637674Y-61787744D01*
X48579179Y-61607716D01*
X48484533Y-61443784D01*
X48391986Y-61341000D01*
X50910540Y-61341000D01*
X50930326Y-61529256D01*
X50930327Y-61529259D01*
X50988818Y-61709277D01*
X50988821Y-61709284D01*
X51083467Y-61873216D01*
X51195957Y-61998148D01*
X51210129Y-62013888D01*
X51363265Y-62125148D01*
X51363270Y-62125151D01*
X51536192Y-62202142D01*
X51536197Y-62202144D01*
X51721354Y-62241500D01*
X51721355Y-62241500D01*
X51910644Y-62241500D01*
X51910646Y-62241500D01*
X52095803Y-62202144D01*
X52268730Y-62125151D01*
X52421871Y-62013888D01*
X52548533Y-61873216D01*
X52643179Y-61709284D01*
X52701674Y-61529256D01*
X52721460Y-61341000D01*
X52708112Y-61214000D01*
X62467540Y-61214000D01*
X62487326Y-61402256D01*
X62487327Y-61402259D01*
X62545818Y-61582277D01*
X62545821Y-61582284D01*
X62640467Y-61746216D01*
X62754817Y-61873214D01*
X62767129Y-61886888D01*
X62920265Y-61998148D01*
X62920270Y-61998151D01*
X63093192Y-62075142D01*
X63093197Y-62075144D01*
X63278354Y-62114500D01*
X63278355Y-62114500D01*
X63467644Y-62114500D01*
X63467646Y-62114500D01*
X63652803Y-62075144D01*
X63825730Y-61998151D01*
X63978871Y-61886888D01*
X64105533Y-61746216D01*
X64200179Y-61582284D01*
X64258674Y-61402256D01*
X64278460Y-61214000D01*
X67039540Y-61214000D01*
X67059326Y-61402256D01*
X67059327Y-61402259D01*
X67117818Y-61582277D01*
X67117821Y-61582284D01*
X67212467Y-61746216D01*
X67326817Y-61873214D01*
X67339129Y-61886888D01*
X67492265Y-61998148D01*
X67492270Y-61998151D01*
X67665192Y-62075142D01*
X67665197Y-62075144D01*
X67850354Y-62114500D01*
X67850355Y-62114500D01*
X68039644Y-62114500D01*
X68039646Y-62114500D01*
X68224803Y-62075144D01*
X68397730Y-61998151D01*
X68550871Y-61886888D01*
X68677533Y-61746216D01*
X68772179Y-61582284D01*
X68830674Y-61402256D01*
X68850460Y-61214000D01*
X68830674Y-61025744D01*
X68772179Y-60845716D01*
X68677533Y-60681784D01*
X68550871Y-60541112D01*
X68550870Y-60541111D01*
X68397734Y-60429851D01*
X68397729Y-60429848D01*
X68224807Y-60352857D01*
X68224802Y-60352855D01*
X68079001Y-60321865D01*
X68039646Y-60313500D01*
X67850354Y-60313500D01*
X67817897Y-60320398D01*
X67665197Y-60352855D01*
X67665192Y-60352857D01*
X67492270Y-60429848D01*
X67492265Y-60429851D01*
X67339129Y-60541111D01*
X67212466Y-60681785D01*
X67117821Y-60845715D01*
X67117818Y-60845722D01*
X67059327Y-61025740D01*
X67059326Y-61025744D01*
X67039540Y-61214000D01*
X64278460Y-61214000D01*
X64258674Y-61025744D01*
X64200179Y-60845716D01*
X64105533Y-60681784D01*
X63978871Y-60541112D01*
X63978870Y-60541111D01*
X63825734Y-60429851D01*
X63825729Y-60429848D01*
X63652807Y-60352857D01*
X63652802Y-60352855D01*
X63507001Y-60321865D01*
X63467646Y-60313500D01*
X63278354Y-60313500D01*
X63245897Y-60320398D01*
X63093197Y-60352855D01*
X63093192Y-60352857D01*
X62920270Y-60429848D01*
X62920265Y-60429851D01*
X62767129Y-60541111D01*
X62640466Y-60681785D01*
X62545821Y-60845715D01*
X62545818Y-60845722D01*
X62487327Y-61025740D01*
X62487326Y-61025744D01*
X62467540Y-61214000D01*
X52708112Y-61214000D01*
X52701674Y-61152744D01*
X52643179Y-60972716D01*
X52548533Y-60808784D01*
X52421871Y-60668112D01*
X52421870Y-60668111D01*
X52268734Y-60556851D01*
X52268729Y-60556848D01*
X52095807Y-60479857D01*
X52095802Y-60479855D01*
X51950001Y-60448865D01*
X51910646Y-60440500D01*
X51721354Y-60440500D01*
X51688897Y-60447398D01*
X51536197Y-60479855D01*
X51536192Y-60479857D01*
X51363270Y-60556848D01*
X51363265Y-60556851D01*
X51210129Y-60668111D01*
X51083466Y-60808785D01*
X50988821Y-60972715D01*
X50988818Y-60972722D01*
X50942636Y-61114857D01*
X50930326Y-61152744D01*
X50910540Y-61341000D01*
X48391986Y-61341000D01*
X48357871Y-61303112D01*
X48357870Y-61303111D01*
X48204734Y-61191851D01*
X48204729Y-61191848D01*
X48031807Y-61114857D01*
X48031802Y-61114855D01*
X47886001Y-61083865D01*
X47846646Y-61075500D01*
X47657354Y-61075500D01*
X47624897Y-61082398D01*
X47472197Y-61114855D01*
X47472192Y-61114857D01*
X47299270Y-61191848D01*
X47299265Y-61191851D01*
X47146129Y-61303111D01*
X47019466Y-61443785D01*
X46924821Y-61607715D01*
X46924818Y-61607722D01*
X46891819Y-61709284D01*
X46866326Y-61787744D01*
X46846540Y-61976000D01*
X38227000Y-61976000D01*
X38227000Y-61773362D01*
X38246685Y-61706323D01*
X38263319Y-61685681D01*
X41365681Y-58583319D01*
X41427004Y-58549834D01*
X41453362Y-58547000D01*
X81863638Y-58547000D01*
X81930677Y-58566685D01*
G37*
%TD.AperFunction*%
%TD*%
M02*
