%TF.GenerationSoftware,KiCad,Pcbnew,8.0.6*%
%TF.CreationDate,2024-11-27T00:55:28-08:00*%
%TF.ProjectId,Project 3 MCUdatalogger,50726f6a-6563-4742-9033-204d43556461,1*%
%TF.SameCoordinates,Original*%
%TF.FileFunction,Copper,L1,Top*%
%TF.FilePolarity,Positive*%
%FSLAX46Y46*%
G04 Gerber Fmt 4.6, Leading zero omitted, Abs format (unit mm)*
G04 Created by KiCad (PCBNEW 8.0.6) date 2024-11-27 00:55:28*
%MOMM*%
%LPD*%
G01*
G04 APERTURE LIST*
G04 Aperture macros list*
%AMRoundRect*
0 Rectangle with rounded corners*
0 $1 Rounding radius*
0 $2 $3 $4 $5 $6 $7 $8 $9 X,Y pos of 4 corners*
0 Add a 4 corners polygon primitive as box body*
4,1,4,$2,$3,$4,$5,$6,$7,$8,$9,$2,$3,0*
0 Add four circle primitives for the rounded corners*
1,1,$1+$1,$2,$3*
1,1,$1+$1,$4,$5*
1,1,$1+$1,$6,$7*
1,1,$1+$1,$8,$9*
0 Add four rect primitives between the rounded corners*
20,1,$1+$1,$2,$3,$4,$5,0*
20,1,$1+$1,$4,$5,$6,$7,0*
20,1,$1+$1,$6,$7,$8,$9,0*
20,1,$1+$1,$8,$9,$2,$3,0*%
G04 Aperture macros list end*
%TA.AperFunction,SMDPad,CuDef*%
%ADD10R,3.325000X2.400000*%
%TD*%
%TA.AperFunction,SMDPad,CuDef*%
%ADD11R,2.400000X3.325000*%
%TD*%
%TA.AperFunction,SMDPad,CuDef*%
%ADD12RoundRect,0.068750X-0.206250X-0.666250X0.206250X-0.666250X0.206250X0.666250X-0.206250X0.666250X0*%
%TD*%
%TA.AperFunction,SMDPad,CuDef*%
%ADD13RoundRect,0.068750X-0.666250X-0.206250X0.666250X-0.206250X0.666250X0.206250X-0.666250X0.206250X0*%
%TD*%
%TA.AperFunction,SMDPad,CuDef*%
%ADD14RoundRect,0.150000X-0.650000X-0.150000X0.650000X-0.150000X0.650000X0.150000X-0.650000X0.150000X0*%
%TD*%
%TA.AperFunction,SMDPad,CuDef*%
%ADD15RoundRect,0.073750X-0.911250X-0.221250X0.911250X-0.221250X0.911250X0.221250X-0.911250X0.221250X0*%
%TD*%
%TA.AperFunction,SMDPad,CuDef*%
%ADD16RoundRect,0.250000X-0.262500X-0.450000X0.262500X-0.450000X0.262500X0.450000X-0.262500X0.450000X0*%
%TD*%
%TA.AperFunction,SMDPad,CuDef*%
%ADD17RoundRect,0.250000X0.262500X0.450000X-0.262500X0.450000X-0.262500X-0.450000X0.262500X-0.450000X0*%
%TD*%
%TA.AperFunction,ComponentPad*%
%ADD18O,1.700000X1.700000*%
%TD*%
%TA.AperFunction,ComponentPad*%
%ADD19R,1.700000X1.700000*%
%TD*%
%TA.AperFunction,SMDPad,CuDef*%
%ADD20RoundRect,0.243750X-0.243750X-0.456250X0.243750X-0.456250X0.243750X0.456250X-0.243750X0.456250X0*%
%TD*%
%TA.AperFunction,SMDPad,CuDef*%
%ADD21RoundRect,0.250000X-0.250000X-0.475000X0.250000X-0.475000X0.250000X0.475000X-0.250000X0.475000X0*%
%TD*%
%TA.AperFunction,SMDPad,CuDef*%
%ADD22RoundRect,0.250000X0.250000X0.475000X-0.250000X0.475000X-0.250000X-0.475000X0.250000X-0.475000X0*%
%TD*%
%TA.AperFunction,ViaPad*%
%ADD23C,0.800000*%
%TD*%
%TA.AperFunction,ViaPad*%
%ADD24C,0.900000*%
%TD*%
%TA.AperFunction,Conductor*%
%ADD25C,0.250000*%
%TD*%
%TA.AperFunction,Conductor*%
%ADD26C,0.350000*%
%TD*%
G04 APERTURE END LIST*
D10*
%TO.P,Y2,2,2*%
%TO.N,Net-(U4-PB6)*%
X60737500Y-79375000D03*
%TO.P,Y2,1,1*%
%TO.N,Net-(U4-PB7)*%
X66262500Y-79375000D03*
%TD*%
D11*
%TO.P,Y1,1,1*%
%TO.N,Net-(U2-X1)*%
X40386000Y-72675500D03*
%TO.P,Y1,2,2*%
%TO.N,Net-(U2-X2)*%
X40386000Y-78200500D03*
%TD*%
D12*
%TO.P,U4,32,PD2*%
%TO.N,/D2*%
X60700000Y-65680000D03*
%TO.P,U4,31,PD1*%
%TO.N,/TX*%
X61500000Y-65680000D03*
%TO.P,U4,30,PD0*%
%TO.N,/RX*%
X62300000Y-65680000D03*
%TO.P,U4,29,PC6/~{RESET}*%
%TO.N,/RESET*%
X63100000Y-65680000D03*
%TO.P,U4,28,PC5*%
%TO.N,/SCK*%
X63900000Y-65680000D03*
%TO.P,U4,27,PC4*%
%TO.N,/SDA*%
X64700000Y-65680000D03*
%TO.P,U4,26,PC3*%
%TO.N,unconnected-(U4-PC3-Pad26)*%
X65500000Y-65680000D03*
%TO.P,U4,25,PC2*%
%TO.N,unconnected-(U4-PC2-Pad25)*%
X66300000Y-65680000D03*
D13*
%TO.P,U4,24,PC1*%
%TO.N,unconnected-(U4-PC1-Pad24)*%
X67670000Y-67050000D03*
%TO.P,U4,23,PC0*%
%TO.N,unconnected-(U4-PC0-Pad23)*%
X67670000Y-67850000D03*
%TO.P,U4,22,ADC7*%
%TO.N,unconnected-(U4-ADC7-Pad22)*%
X67670000Y-68650000D03*
%TO.P,U4,21,GND*%
%TO.N,GND*%
X67670000Y-69450000D03*
%TO.P,U4,20,AREF*%
%TO.N,Net-(U4-AREF)*%
X67670000Y-70250000D03*
%TO.P,U4,19,ADC6*%
%TO.N,unconnected-(U4-ADC6-Pad19)*%
X67670000Y-71050000D03*
%TO.P,U4,18,AVCC*%
%TO.N,/Vcc*%
X67670000Y-71850000D03*
%TO.P,U4,17,PB5*%
%TO.N,/SCK*%
X67670000Y-72650000D03*
D12*
%TO.P,U4,16,PB4*%
%TO.N,/MISO*%
X66300000Y-74020000D03*
%TO.P,U4,15,PB3*%
%TO.N,/MOSI*%
X65500000Y-74020000D03*
%TO.P,U4,14,PB2*%
%TO.N,unconnected-(U4-PB2-Pad14)*%
X64700000Y-74020000D03*
%TO.P,U4,13,PB1*%
%TO.N,unconnected-(U4-PB1-Pad13)*%
X63900000Y-74020000D03*
%TO.P,U4,12,PB0*%
%TO.N,/D8*%
X63100000Y-74020000D03*
%TO.P,U4,11,PD7*%
%TO.N,/D7*%
X62300000Y-74020000D03*
%TO.P,U4,10,PD6*%
%TO.N,/D6*%
X61500000Y-74020000D03*
%TO.P,U4,9,PD5*%
%TO.N,/D5*%
X60700000Y-74020000D03*
D13*
%TO.P,U4,8,PB7*%
%TO.N,Net-(U4-PB7)*%
X59330000Y-72650000D03*
%TO.P,U4,7,PB6*%
%TO.N,Net-(U4-PB6)*%
X59330000Y-71850000D03*
%TO.P,U4,6,VCC*%
%TO.N,/Vcc*%
X59330000Y-71050000D03*
%TO.P,U4,5,GND*%
%TO.N,GND*%
X59330000Y-70250000D03*
%TO.P,U4,4,VCC*%
%TO.N,unconnected-(U4-VCC-Pad4)*%
X59330000Y-69450000D03*
%TO.P,U4,3,GND*%
%TO.N,GND*%
X59330000Y-68650000D03*
%TO.P,U4,2,PD4*%
%TO.N,/D4*%
X59330000Y-67850000D03*
%TO.P,U4,1,PD3*%
%TO.N,/D3*%
X59330000Y-67050000D03*
%TD*%
D14*
%TO.P,U3,8,VCC*%
%TO.N,/Vcc*%
X53130000Y-59690000D03*
%TO.P,U3,7,WP*%
%TO.N,GND*%
X53130000Y-60960000D03*
%TO.P,U3,6,SCL*%
%TO.N,/SCK*%
X53130000Y-62230000D03*
%TO.P,U3,5,SDA*%
%TO.N,/SDA*%
X53130000Y-63500000D03*
%TO.P,U3,4,GND*%
%TO.N,GND*%
X45930000Y-63500000D03*
%TO.P,U3,3,A2*%
%TO.N,/Vcc*%
X45930000Y-62230000D03*
%TO.P,U3,2,A1*%
%TO.N,GND*%
X45930000Y-60960000D03*
%TO.P,U3,1,A0*%
%TO.N,/Vcc*%
X45930000Y-59690000D03*
%TD*%
D15*
%TO.P,U2,1,X1*%
%TO.N,Net-(U2-X1)*%
X47055000Y-74295000D03*
%TO.P,U2,2,X2*%
%TO.N,Net-(U2-X2)*%
X47055000Y-75565000D03*
%TO.P,U2,3,~{INTA}*%
%TO.N,Net-(U2-~{INTA})*%
X47055000Y-76835000D03*
%TO.P,U2,4,GND*%
%TO.N,GND*%
X47055000Y-78105000D03*
%TO.P,U2,5,SDA*%
%TO.N,/SDA*%
X52005000Y-78105000D03*
%TO.P,U2,6,SCL*%
%TO.N,/SCK*%
X52005000Y-76835000D03*
%TO.P,U2,7,SQW/~INT*%
%TO.N,Net-(U2-SQW{slash}~INT)*%
X52005000Y-75565000D03*
%TO.P,U2,8,VCC*%
%TO.N,/Vcc*%
X52005000Y-74295000D03*
%TD*%
D14*
%TO.P,U1,1,A0*%
%TO.N,/Vcc*%
X45930000Y-66675000D03*
%TO.P,U1,2,A1*%
X45930000Y-67945000D03*
%TO.P,U1,3,A2*%
X45930000Y-69215000D03*
%TO.P,U1,4,GND*%
%TO.N,GND*%
X45930000Y-70485000D03*
%TO.P,U1,5,SDA*%
%TO.N,/SDA*%
X53130000Y-70485000D03*
%TO.P,U1,6,SCL*%
%TO.N,/SCK*%
X53130000Y-69215000D03*
%TO.P,U1,7,WP*%
%TO.N,GND*%
X53130000Y-67945000D03*
%TO.P,U1,8,VCC*%
%TO.N,/Vcc*%
X53130000Y-66675000D03*
%TD*%
D16*
%TO.P,R7,2*%
%TO.N,GND*%
X72390000Y-63500000D03*
%TO.P,R7,1*%
%TO.N,Net-(D2-K)*%
X70565000Y-63500000D03*
%TD*%
%TO.P,R6,2*%
%TO.N,/RESET*%
X76200000Y-67945000D03*
%TO.P,R6,1*%
%TO.N,/Vcc*%
X74375000Y-67945000D03*
%TD*%
D17*
%TO.P,R5,1*%
%TO.N,GND*%
X76200000Y-63500000D03*
%TO.P,R5,2*%
%TO.N,Net-(D1-K)*%
X74375000Y-63500000D03*
%TD*%
%TO.P,R4,1*%
%TO.N,/Vcc*%
X72390000Y-67945000D03*
%TO.P,R4,2*%
%TO.N,/SDA*%
X70565000Y-67945000D03*
%TD*%
%TO.P,R3,1*%
%TO.N,/Vcc*%
X72390000Y-71755000D03*
%TO.P,R3,2*%
%TO.N,/SCK*%
X70565000Y-71755000D03*
%TD*%
%TO.P,R2,1*%
%TO.N,/Vcc*%
X53260000Y-80645000D03*
%TO.P,R2,2*%
%TO.N,Net-(U2-SQW{slash}~INT)*%
X51435000Y-80645000D03*
%TD*%
D16*
%TO.P,R1,1*%
%TO.N,/Vcc*%
X46077500Y-80645000D03*
%TO.P,R1,2*%
%TO.N,Net-(U2-~{INTA})*%
X47902500Y-80645000D03*
%TD*%
D18*
%TO.P,J4,6,Pin_6*%
%TO.N,GND*%
X82550000Y-71120000D03*
%TO.P,J4,5,Pin_5*%
%TO.N,/RESET*%
X80010000Y-71120000D03*
%TO.P,J4,4,Pin_4*%
%TO.N,/MOSI*%
X82550000Y-68580000D03*
%TO.P,J4,3,Pin_3*%
%TO.N,/SCK*%
X80010000Y-68580000D03*
%TO.P,J4,2,Pin_2*%
%TO.N,/Vcc*%
X82550000Y-66040000D03*
D19*
%TO.P,J4,1,Pin_1*%
%TO.N,/MISO*%
X80010000Y-66040000D03*
%TD*%
%TO.P,J3,1,Pin_1*%
%TO.N,GND*%
X67691000Y-85852000D03*
D18*
%TO.P,J3,2,Pin_2*%
%TO.N,/Vcc*%
X70231000Y-85852000D03*
%TO.P,J3,3,Pin_3*%
%TO.N,/RX*%
X72771000Y-85852000D03*
%TO.P,J3,4,Pin_4*%
%TO.N,/TX*%
X75311000Y-85852000D03*
%TD*%
D19*
%TO.P,J2,1,Pin_1*%
%TO.N,/D2*%
X42291000Y-85852000D03*
D18*
%TO.P,J2,2,Pin_2*%
%TO.N,/D3*%
X44831000Y-85852000D03*
%TO.P,J2,3,Pin_3*%
%TO.N,/D4*%
X47371000Y-85852000D03*
%TO.P,J2,4,Pin_4*%
%TO.N,/D5*%
X49911000Y-85852000D03*
%TO.P,J2,5,Pin_5*%
%TO.N,/D6*%
X52451000Y-85852000D03*
%TO.P,J2,6,Pin_6*%
%TO.N,/D7*%
X54991000Y-85852000D03*
%TO.P,J2,7,Pin_7*%
%TO.N,/D8*%
X57531000Y-85852000D03*
%TO.P,J2,8,Pin_8*%
%TO.N,GND*%
X60071000Y-85852000D03*
%TO.P,J2,9,Pin_9*%
%TO.N,/Vcc*%
X62611000Y-85852000D03*
%TD*%
%TO.P,J1,4,Pin_4*%
%TO.N,/SCK*%
X82550000Y-83820000D03*
%TO.P,J1,3,Pin_3*%
%TO.N,/SDA*%
X82550000Y-81280000D03*
%TO.P,J1,2,Pin_2*%
%TO.N,/Vcc*%
X82550000Y-78740000D03*
D19*
%TO.P,J1,1,Pin_1*%
%TO.N,GND*%
X82550000Y-76200000D03*
%TD*%
D20*
%TO.P,D2,2,A*%
%TO.N,/Vcc*%
X72415000Y-59690000D03*
%TO.P,D2,1,K*%
%TO.N,Net-(D2-K)*%
X70540000Y-59690000D03*
%TD*%
%TO.P,D1,1,K*%
%TO.N,Net-(D1-K)*%
X74350000Y-59690000D03*
%TO.P,D1,2,A*%
%TO.N,/SCK*%
X76225000Y-59690000D03*
%TD*%
D21*
%TO.P,C5,2*%
%TO.N,GND*%
X67945000Y-59690000D03*
%TO.P,C5,1*%
%TO.N,/Vcc*%
X66045000Y-59690000D03*
%TD*%
D22*
%TO.P,C4,2*%
%TO.N,Net-(U4-AREF)*%
X70527500Y-80645000D03*
%TO.P,C4,1*%
%TO.N,GND*%
X72427500Y-80645000D03*
%TD*%
D21*
%TO.P,C3,2*%
%TO.N,Net-(U4-PB7)*%
X63500000Y-59690000D03*
%TO.P,C3,1*%
%TO.N,GND*%
X61600000Y-59690000D03*
%TD*%
D22*
%TO.P,C2,2*%
%TO.N,Net-(U4-PB6)*%
X70527500Y-76835000D03*
%TO.P,C2,1*%
%TO.N,GND*%
X72427500Y-76835000D03*
%TD*%
D21*
%TO.P,C1,2*%
%TO.N,GND*%
X59375000Y-59690000D03*
%TO.P,C1,1*%
%TO.N,/Vcc*%
X57475000Y-59690000D03*
%TD*%
D19*
%TO.P,BT1,1,+*%
%TO.N,/Vcc*%
X40132000Y-64135000D03*
D18*
%TO.P,BT1,2,-*%
%TO.N,GND*%
X40132000Y-66675000D03*
%TD*%
D23*
%TO.N,GND*%
X44450000Y-62738000D03*
X69088000Y-70866000D03*
%TO.N,/RESET*%
X73660000Y-66040000D03*
X65278000Y-68580000D03*
%TO.N,/Vcc*%
X63680000Y-70226347D03*
%TO.N,GND*%
X57933508Y-69537492D03*
%TO.N,/SCK*%
X76835000Y-70485000D03*
%TO.N,GND*%
X55880000Y-60960000D03*
%TO.N,/D2*%
X54805153Y-70045153D03*
%TO.N,/D3*%
X55807891Y-69777891D03*
%TO.N,/D4*%
X56515000Y-70485000D03*
%TO.N,/D5*%
X59690000Y-74295000D03*
%TO.N,/D6*%
X60960000Y-76745000D03*
%TO.N,/D7*%
X62230000Y-76200000D03*
%TO.N,/D8*%
X63500000Y-76200000D03*
%TO.N,/SDA*%
X64135000Y-63500000D03*
X61595000Y-64135000D03*
%TO.N,/Vcc*%
X57404000Y-71755000D03*
%TO.N,/MISO*%
X73660000Y-73660000D03*
X78740000Y-63940000D03*
%TO.N,Net-(U4-PB7)*%
X60960000Y-71755000D03*
X62865000Y-61595000D03*
%TO.N,/Vcc*%
X73152000Y-61341000D03*
X66045000Y-61214000D03*
X65913000Y-71628000D03*
%TO.N,/TX*%
X61050000Y-67855000D03*
%TO.N,/RX*%
X62230000Y-68580000D03*
%TO.N,Net-(U4-AREF)*%
X65913000Y-70250000D03*
X69215000Y-80645000D03*
%TO.N,GND*%
X74295000Y-81280000D03*
%TO.N,/SDA*%
X70485000Y-69850000D03*
X74295000Y-76200000D03*
D24*
%TO.N,/Vcc*%
X74930000Y-70485000D03*
D23*
%TO.N,GND*%
X75565000Y-62230000D03*
X69215000Y-60960000D03*
X71374000Y-62230000D03*
X51700864Y-68845864D03*
X48895000Y-77470000D03*
%TD*%
D25*
%TO.N,Net-(U4-AREF)*%
X65913000Y-70250000D02*
X67670000Y-70250000D01*
%TO.N,/Vcc*%
X72415000Y-61239000D02*
X72415000Y-59690000D01*
X73152000Y-61341000D02*
X72517000Y-61341000D01*
X72517000Y-61341000D02*
X72415000Y-61239000D01*
%TO.N,GND*%
X58646016Y-70250000D02*
X59330000Y-70250000D01*
X57933508Y-69537492D02*
X58646016Y-70250000D01*
%TO.N,/Vcc*%
X58109000Y-71050000D02*
X57404000Y-71755000D01*
X59330000Y-71050000D02*
X58109000Y-71050000D01*
X60888653Y-70226347D02*
X60065000Y-71050000D01*
X60065000Y-71050000D02*
X59330000Y-71050000D01*
X63680000Y-70226347D02*
X60888653Y-70226347D01*
X65913000Y-71628000D02*
X66135000Y-71850000D01*
X66135000Y-71850000D02*
X67670000Y-71850000D01*
%TO.N,/SCK*%
X65665000Y-72650000D02*
X67670000Y-72650000D01*
X64680000Y-71665000D02*
X65665000Y-72650000D01*
X64680000Y-70184695D02*
X64680000Y-71665000D01*
X65104695Y-69760000D02*
X64680000Y-70184695D01*
X66548000Y-68580000D02*
X65368000Y-69760000D01*
X64708000Y-66740000D02*
X66548000Y-68580000D01*
X64328748Y-66740000D02*
X64708000Y-66740000D01*
X65368000Y-69760000D02*
X65104695Y-69760000D01*
X63900000Y-66311252D02*
X64328748Y-66740000D01*
X63900000Y-65680000D02*
X63900000Y-66311252D01*
%TO.N,GND*%
X58595000Y-68650000D02*
X59330000Y-68650000D01*
X58166000Y-69079000D02*
X58595000Y-68650000D01*
X57970508Y-69537492D02*
X58166000Y-69342000D01*
X57933508Y-69537492D02*
X57970508Y-69537492D01*
X58166000Y-69342000D02*
X58166000Y-69079000D01*
X71374000Y-62484000D02*
X72390000Y-63500000D01*
X71374000Y-62230000D02*
X71374000Y-62484000D01*
%TO.N,/Vcc*%
X66045000Y-61214000D02*
X66045000Y-59690000D01*
D26*
X62738000Y-86233000D02*
X62738000Y-85979000D01*
X62738000Y-85979000D02*
X62611000Y-85852000D01*
D25*
%TO.N,Net-(U2-X2)*%
X44481500Y-78200500D02*
X40386000Y-78200500D01*
X44740000Y-77942000D02*
X44481500Y-78200500D01*
X44740000Y-77451538D02*
X44740000Y-77942000D01*
X47055000Y-75565000D02*
X46626538Y-75565000D01*
%TO.N,Net-(U2-X1)*%
X42005500Y-74295000D02*
X40386000Y-72675500D01*
X47055000Y-74295000D02*
X42005500Y-74295000D01*
%TO.N,Net-(U2-X2)*%
X46626538Y-75565000D02*
X44740000Y-77451538D01*
%TO.N,GND*%
X41320001Y-66675000D02*
X40132000Y-66675000D01*
X45130001Y-70485000D02*
X41320001Y-66675000D01*
X45930000Y-70485000D02*
X45130001Y-70485000D01*
%TO.N,/SCK*%
X83725000Y-80793299D02*
X83725000Y-82645000D01*
X83725000Y-82645000D02*
X82550000Y-83820000D01*
X82011396Y-80105000D02*
X83036701Y-80105000D01*
X83036701Y-80105000D02*
X83725000Y-80793299D01*
X81280698Y-75119302D02*
X81280698Y-79374302D01*
X81280698Y-79374302D02*
X82011396Y-80105000D01*
X83725000Y-72675000D02*
X81280698Y-75119302D01*
X83725000Y-68093299D02*
X83725000Y-72675000D01*
X83036701Y-67405000D02*
X83725000Y-68093299D01*
X82063299Y-67405000D02*
X83036701Y-67405000D01*
X80888299Y-68580000D02*
X82063299Y-67405000D01*
X80010000Y-68580000D02*
X80888299Y-68580000D01*
%TO.N,/MOSI*%
X65500000Y-74755000D02*
X65500000Y-74020000D01*
X81280000Y-72263000D02*
X78463000Y-75080000D01*
X81280000Y-69215000D02*
X81280000Y-72263000D01*
X81915000Y-68580000D02*
X81280000Y-69215000D01*
X78463000Y-75080000D02*
X65825000Y-75080000D01*
X65825000Y-75080000D02*
X65500000Y-74755000D01*
X82550000Y-68580000D02*
X81915000Y-68580000D01*
%TO.N,GND*%
X72427500Y-76835000D02*
X72427500Y-80645000D01*
%TO.N,Net-(U4-PB6)*%
X62642500Y-81280000D02*
X60737500Y-79375000D01*
X67870000Y-81280000D02*
X62642500Y-81280000D01*
X68250000Y-78308000D02*
X68250000Y-80900000D01*
X69723000Y-76835000D02*
X68250000Y-78308000D01*
X70527500Y-76835000D02*
X69723000Y-76835000D01*
X68250000Y-80900000D02*
X67870000Y-81280000D01*
%TO.N,/RX*%
X62230000Y-65750000D02*
X62300000Y-65680000D01*
X62230000Y-68580000D02*
X62230000Y-65750000D01*
%TO.N,/RESET*%
X64521604Y-67190000D02*
X63978748Y-67190000D01*
X65278000Y-67946396D02*
X64521604Y-67190000D01*
X63100000Y-66311252D02*
X63100000Y-65680000D01*
X65278000Y-68580000D02*
X65278000Y-67946396D01*
X63978748Y-67190000D02*
X63100000Y-66311252D01*
%TO.N,/D2*%
X59930000Y-66450000D02*
X60700000Y-65680000D01*
X58110477Y-66450000D02*
X59930000Y-66450000D01*
X54805153Y-69755324D02*
X58110477Y-66450000D01*
X54805153Y-70045153D02*
X54805153Y-69755324D01*
%TO.N,GND*%
X45085000Y-63373000D02*
X44450000Y-62738000D01*
X45085000Y-63500000D02*
X45085000Y-63373000D01*
X45930000Y-63500000D02*
X45085000Y-63500000D01*
%TO.N,Net-(U2-~{INTA})*%
X45190000Y-81360810D02*
X45617190Y-81788000D01*
X45190000Y-79929190D02*
X45190000Y-81360810D01*
X46759500Y-81788000D02*
X47902500Y-80645000D01*
X45720000Y-79399190D02*
X45190000Y-79929190D01*
X45720000Y-77185000D02*
X45720000Y-79399190D01*
X46070000Y-76835000D02*
X45720000Y-77185000D01*
X45617190Y-81788000D02*
X46759500Y-81788000D01*
X47055000Y-76835000D02*
X46070000Y-76835000D01*
%TO.N,Net-(U2-SQW{slash}~INT)*%
X50695000Y-75890000D02*
X50695000Y-79905000D01*
X51020000Y-75565000D02*
X50695000Y-75890000D01*
X52005000Y-75565000D02*
X51020000Y-75565000D01*
X50695000Y-79905000D02*
X51435000Y-80645000D01*
D26*
%TO.N,/Vcc*%
X49720000Y-78677000D02*
X49720000Y-75375000D01*
X49720000Y-75375000D02*
X50800000Y-74295000D01*
X50800000Y-74295000D02*
X52005000Y-74295000D01*
X49022000Y-79375000D02*
X49720000Y-78677000D01*
X50885978Y-81770000D02*
X52135000Y-81770000D01*
X49022000Y-79906022D02*
X50885978Y-81770000D01*
X49022000Y-79375000D02*
X49022000Y-79906022D01*
X47347500Y-79375000D02*
X49022000Y-79375000D01*
X52135000Y-81770000D02*
X53260000Y-80645000D01*
D25*
%TO.N,GND*%
X69088000Y-70133000D02*
X69088000Y-70866000D01*
X68405000Y-69450000D02*
X69088000Y-70133000D01*
X67670000Y-69450000D02*
X68405000Y-69450000D01*
X75175000Y-64525000D02*
X76200000Y-63500000D01*
X73415000Y-64525000D02*
X75175000Y-64525000D01*
X72390000Y-63500000D02*
X73415000Y-64525000D01*
%TO.N,/RESET*%
X74295000Y-66040000D02*
X76200000Y-67945000D01*
X73660000Y-66040000D02*
X74295000Y-66040000D01*
%TO.N,GND*%
X58575305Y-70250000D02*
X59330000Y-70250000D01*
%TO.N,/SCK*%
X74385000Y-72935000D02*
X76835000Y-70485000D01*
X71745000Y-72935000D02*
X74385000Y-72935000D01*
X70565000Y-71755000D02*
X71745000Y-72935000D01*
D26*
%TO.N,/Vcc*%
X45930000Y-59690000D02*
X53130000Y-59690000D01*
D25*
%TO.N,GND*%
X55880000Y-60960000D02*
X58105000Y-60960000D01*
D26*
%TO.N,/Vcc*%
X47155000Y-65450000D02*
X45930000Y-66675000D01*
X47155000Y-62655001D02*
X47155000Y-65450000D01*
X46729999Y-62230000D02*
X47155000Y-62655001D01*
X45930000Y-62230000D02*
X46729999Y-62230000D01*
X50165000Y-72455000D02*
X50165000Y-69215000D01*
X52005000Y-74295000D02*
X50165000Y-72455000D01*
D25*
%TO.N,/D3*%
X58535782Y-67050000D02*
X59330000Y-67050000D01*
X55807891Y-69777891D02*
X58535782Y-67050000D01*
%TO.N,/D4*%
X58595000Y-67850000D02*
X59330000Y-67850000D01*
X57150000Y-69295000D02*
X58595000Y-67850000D01*
X57150000Y-69850000D02*
X57150000Y-69295000D01*
X56515000Y-70485000D02*
X57150000Y-69850000D01*
%TO.N,/D5*%
X59965000Y-74020000D02*
X59690000Y-74295000D01*
X60700000Y-74020000D02*
X59965000Y-74020000D01*
%TO.N,/D6*%
X61500000Y-74020000D02*
X61500000Y-76205000D01*
X61500000Y-76205000D02*
X60960000Y-76745000D01*
%TO.N,/D7*%
X62300000Y-76130000D02*
X62230000Y-76200000D01*
X62300000Y-74020000D02*
X62300000Y-76130000D01*
%TO.N,/D8*%
X63500000Y-76200000D02*
X63100000Y-75800000D01*
X63100000Y-75800000D02*
X63100000Y-74020000D01*
%TO.N,/SDA*%
X64700000Y-64065000D02*
X64700000Y-65680000D01*
X64135000Y-63500000D02*
X64700000Y-64065000D01*
X60960000Y-63500000D02*
X61595000Y-64135000D01*
X53130000Y-63500000D02*
X60960000Y-63500000D01*
%TO.N,/SCK*%
X63900000Y-64945000D02*
X63900000Y-65680000D01*
X61185000Y-62230000D02*
X63900000Y-64945000D01*
X53130000Y-62230000D02*
X61185000Y-62230000D01*
%TO.N,/SDA*%
X55060000Y-68765000D02*
X53340000Y-70485000D01*
X55060000Y-65430000D02*
X55060000Y-68765000D01*
X53340000Y-70485000D02*
X53130000Y-70485000D01*
X53130000Y-63500000D02*
X55060000Y-65430000D01*
%TO.N,/SCK*%
X52070000Y-62230000D02*
X53130000Y-62230000D01*
X52005000Y-62295000D02*
X52070000Y-62230000D01*
X52060000Y-64125000D02*
X52005000Y-64070000D01*
X52695000Y-64125000D02*
X52060000Y-64125000D01*
X52005000Y-64070000D02*
X52005000Y-62295000D01*
X54610000Y-66040000D02*
X52695000Y-64125000D01*
X53929999Y-69215000D02*
X54610000Y-68534999D01*
X54610000Y-68534999D02*
X54610000Y-66040000D01*
X53130000Y-69215000D02*
X53929999Y-69215000D01*
%TO.N,/SDA*%
X54610000Y-71965000D02*
X53130000Y-70485000D01*
X54610000Y-76485000D02*
X54610000Y-71965000D01*
X52990000Y-78105000D02*
X54610000Y-76485000D01*
X52005000Y-78105000D02*
X52990000Y-78105000D01*
%TO.N,/SCK*%
X52005000Y-69915000D02*
X52705000Y-69215000D01*
X53975000Y-72805908D02*
X52005000Y-70835908D01*
X53975000Y-75850000D02*
X53975000Y-72805908D01*
X52005000Y-70835908D02*
X52005000Y-69915000D01*
X52005000Y-76835000D02*
X52990000Y-76835000D01*
X52990000Y-76835000D02*
X53975000Y-75850000D01*
X52705000Y-69215000D02*
X53130000Y-69215000D01*
%TO.N,/MISO*%
X66660000Y-73660000D02*
X66300000Y-74020000D01*
X73660000Y-73660000D02*
X66660000Y-73660000D01*
X78740000Y-64135000D02*
X78740000Y-63940000D01*
X80010000Y-65405000D02*
X78740000Y-64135000D01*
X80010000Y-66040000D02*
X80010000Y-65405000D01*
%TO.N,Net-(U4-PB7)*%
X60065000Y-72650000D02*
X59330000Y-72650000D01*
X60960000Y-71755000D02*
X60065000Y-72650000D01*
X63500000Y-60960000D02*
X62865000Y-61595000D01*
X63500000Y-59690000D02*
X63500000Y-60960000D01*
%TO.N,/TX*%
X61050000Y-67855000D02*
X61500000Y-67405000D01*
X61500000Y-67405000D02*
X61500000Y-65680000D01*
%TO.N,Net-(U4-AREF)*%
X70527500Y-80645000D02*
X69215000Y-80645000D01*
%TO.N,GND*%
X73660000Y-80645000D02*
X74295000Y-81280000D01*
X72427500Y-80645000D02*
X73660000Y-80645000D01*
%TO.N,/SDA*%
X70485000Y-68025000D02*
X70565000Y-67945000D01*
X70485000Y-69850000D02*
X70485000Y-68025000D01*
X78105000Y-76835000D02*
X74930000Y-76835000D01*
X78740000Y-77470000D02*
X78105000Y-76835000D01*
X74930000Y-76835000D02*
X74295000Y-76200000D01*
X82550000Y-81280000D02*
X78740000Y-77470000D01*
D26*
%TO.N,/Vcc*%
X74295000Y-69850000D02*
X74930000Y-70485000D01*
X72390000Y-69850000D02*
X72390000Y-67945000D01*
X72390000Y-69850000D02*
X74295000Y-69850000D01*
X72390000Y-71755000D02*
X72390000Y-69850000D01*
D25*
%TO.N,/SCK*%
X77037500Y-65607500D02*
X77037500Y-60502500D01*
X77037500Y-60502500D02*
X76225000Y-59690000D01*
X80010000Y-68580000D02*
X77037500Y-65607500D01*
D26*
%TO.N,/Vcc*%
X74375000Y-67945000D02*
X72390000Y-67945000D01*
D25*
%TO.N,/RESET*%
X76835000Y-67945000D02*
X80010000Y-71120000D01*
X76200000Y-67945000D02*
X76835000Y-67945000D01*
%TO.N,GND*%
X75565000Y-62865000D02*
X75565000Y-62230000D01*
X76200000Y-63500000D02*
X75565000Y-62865000D01*
%TO.N,Net-(D1-K)*%
X74375000Y-59715000D02*
X74350000Y-59690000D01*
X74375000Y-63500000D02*
X74375000Y-59715000D01*
%TO.N,GND*%
X68580000Y-60960000D02*
X69215000Y-60960000D01*
%TO.N,Net-(D2-K)*%
X70565000Y-59715000D02*
X70540000Y-59690000D01*
X70565000Y-63500000D02*
X70565000Y-59715000D01*
%TO.N,/SDA*%
X67945000Y-63500000D02*
X66145000Y-63500000D01*
X70565000Y-66120000D02*
X67945000Y-63500000D01*
X70565000Y-67945000D02*
X70565000Y-66120000D01*
X66145000Y-63500000D02*
X64700000Y-64945000D01*
%TO.N,/SCK*%
X69670000Y-72650000D02*
X67670000Y-72650000D01*
X70565000Y-71755000D02*
X69670000Y-72650000D01*
%TO.N,Net-(U4-PB7)*%
X58720000Y-76500000D02*
X58720000Y-73260000D01*
X59690000Y-77470000D02*
X58720000Y-76500000D01*
X62445000Y-77470000D02*
X59690000Y-77470000D01*
X58720000Y-73260000D02*
X59330000Y-72650000D01*
X66262500Y-79375000D02*
X64350000Y-79375000D01*
X64350000Y-79375000D02*
X62445000Y-77470000D01*
%TO.N,Net-(U4-PB6)*%
X58595000Y-71850000D02*
X59330000Y-71850000D01*
X58270000Y-72175000D02*
X58595000Y-71850000D01*
X58270000Y-76907500D02*
X58270000Y-72175000D01*
X60737500Y-79375000D02*
X58270000Y-76907500D01*
%TO.N,GND*%
X52601728Y-67945000D02*
X51700864Y-68845864D01*
X53130000Y-67945000D02*
X52601728Y-67945000D01*
X48260000Y-78105000D02*
X48895000Y-77470000D01*
X47055000Y-78105000D02*
X48260000Y-78105000D01*
D26*
%TO.N,/Vcc*%
X46077500Y-80645000D02*
X47347500Y-79375000D01*
X50165000Y-69215000D02*
X52705000Y-66675000D01*
X45930000Y-69215000D02*
X50165000Y-69215000D01*
X52705000Y-66675000D02*
X53130000Y-66675000D01*
D25*
%TO.N,GND*%
X52924092Y-67945000D02*
X53130000Y-67945000D01*
D26*
%TO.N,/Vcc*%
X45930000Y-67945000D02*
X45930000Y-69215000D01*
X45930000Y-66675000D02*
X45930000Y-67945000D01*
D25*
%TO.N,GND*%
X47625000Y-60960000D02*
X53130000Y-60960000D01*
X45930000Y-60960000D02*
X47625000Y-60960000D01*
D26*
%TO.N,/Vcc*%
X45130001Y-62230000D02*
X45930000Y-62230000D01*
X45085000Y-59690000D02*
X44450000Y-60325000D01*
X45930000Y-59690000D02*
X45085000Y-59690000D01*
X44450000Y-60325000D02*
X44450000Y-61549999D01*
X44450000Y-61549999D02*
X45130001Y-62230000D01*
D25*
%TO.N,GND*%
X58105000Y-60960000D02*
X59375000Y-59690000D01*
X53130000Y-60960000D02*
X55880000Y-60960000D01*
X59375000Y-59690000D02*
X61600000Y-59690000D01*
D26*
%TO.N,/Vcc*%
X53130000Y-59690000D02*
X57475000Y-59690000D01*
D25*
%TO.N,GND*%
X67945000Y-59690000D02*
X67945000Y-60325000D01*
X67945000Y-60325000D02*
X68580000Y-60960000D01*
%TO.N,/SDA*%
X64700000Y-64945000D02*
X64700000Y-65680000D01*
%TD*%
%TA.AperFunction,Conductor*%
%TO.N,/Vcc*%
G36*
X56601464Y-58566685D02*
G01*
X56647219Y-58619489D01*
X56657163Y-58688647D01*
X56635207Y-58739727D01*
X56636475Y-58740509D01*
X56540643Y-58895875D01*
X56540641Y-58895880D01*
X56485494Y-59062302D01*
X56485493Y-59062309D01*
X56475000Y-59165013D01*
X56475000Y-59440000D01*
X57601000Y-59440000D01*
X57668039Y-59459685D01*
X57713794Y-59512489D01*
X57725000Y-59564000D01*
X57725000Y-59816000D01*
X57705315Y-59883039D01*
X57652511Y-59928794D01*
X57601000Y-59940000D01*
X56475001Y-59940000D01*
X56475001Y-60048248D01*
X56455316Y-60115287D01*
X56402512Y-60161042D01*
X56333354Y-60170986D01*
X56300565Y-60161528D01*
X56268786Y-60147379D01*
X56159803Y-60098856D01*
X56159801Y-60098855D01*
X56159800Y-60098855D01*
X56027244Y-60070680D01*
X55974646Y-60059500D01*
X55785354Y-60059500D01*
X55760278Y-60064830D01*
X55600197Y-60098855D01*
X55600192Y-60098857D01*
X55427270Y-60175848D01*
X55427265Y-60175851D01*
X55274130Y-60287110D01*
X55274126Y-60287114D01*
X55268400Y-60293474D01*
X55208913Y-60330121D01*
X55176252Y-60334500D01*
X54460111Y-60334500D01*
X54393072Y-60314815D01*
X54347317Y-60262011D01*
X54337373Y-60192853D01*
X54353379Y-60147379D01*
X54381281Y-60100198D01*
X54427100Y-59942486D01*
X54427295Y-59940001D01*
X54427295Y-59940000D01*
X51832705Y-59940000D01*
X51832704Y-59940001D01*
X51832899Y-59942486D01*
X51878718Y-60100198D01*
X51906621Y-60147379D01*
X51923804Y-60215103D01*
X51901644Y-60281365D01*
X51847178Y-60325129D01*
X51799889Y-60334500D01*
X47260111Y-60334500D01*
X47193072Y-60314815D01*
X47147317Y-60262011D01*
X47137373Y-60192853D01*
X47153379Y-60147379D01*
X47181281Y-60100198D01*
X47227100Y-59942486D01*
X47227295Y-59940001D01*
X47227295Y-59940000D01*
X44632705Y-59940000D01*
X44632704Y-59940001D01*
X44632899Y-59942486D01*
X44678718Y-60100198D01*
X44762314Y-60241552D01*
X44767100Y-60247722D01*
X44764640Y-60249629D01*
X44791210Y-60298288D01*
X44786226Y-60367980D01*
X44765162Y-60400781D01*
X44766699Y-60401974D01*
X44761915Y-60408140D01*
X44678255Y-60549603D01*
X44678254Y-60549606D01*
X44632402Y-60707426D01*
X44632401Y-60707432D01*
X44629500Y-60744298D01*
X44629500Y-61175701D01*
X44632401Y-61212567D01*
X44632402Y-61212573D01*
X44678254Y-61370393D01*
X44678255Y-61370396D01*
X44761917Y-61511862D01*
X44766702Y-61518031D01*
X44764369Y-61519840D01*
X44791210Y-61568995D01*
X44786226Y-61638687D01*
X44765470Y-61671021D01*
X44767097Y-61672283D01*
X44762311Y-61678452D01*
X44699804Y-61784144D01*
X44648735Y-61831827D01*
X44579993Y-61844330D01*
X44567295Y-61842313D01*
X44544649Y-61837500D01*
X44544646Y-61837500D01*
X44355354Y-61837500D01*
X44329751Y-61842942D01*
X44170197Y-61876855D01*
X44170192Y-61876857D01*
X43997270Y-61953848D01*
X43997265Y-61953851D01*
X43844129Y-62065111D01*
X43717466Y-62205785D01*
X43622821Y-62369715D01*
X43622818Y-62369722D01*
X43564327Y-62549740D01*
X43564326Y-62549744D01*
X43544540Y-62738000D01*
X43564326Y-62926256D01*
X43564327Y-62926259D01*
X43622818Y-63106277D01*
X43622821Y-63106284D01*
X43717467Y-63270216D01*
X43834700Y-63400416D01*
X43844129Y-63410888D01*
X43997265Y-63522148D01*
X43997270Y-63522151D01*
X44170192Y-63599142D01*
X44170197Y-63599144D01*
X44355354Y-63638500D01*
X44382477Y-63638500D01*
X44449516Y-63658185D01*
X44495271Y-63710989D01*
X44497038Y-63715047D01*
X44530687Y-63796282D01*
X44530692Y-63796292D01*
X44599141Y-63898732D01*
X44599144Y-63898736D01*
X44686263Y-63985855D01*
X44723333Y-64010625D01*
X44756785Y-64045967D01*
X44757134Y-64045697D01*
X44759878Y-64049234D01*
X44761167Y-64050596D01*
X44761913Y-64051857D01*
X44761915Y-64051860D01*
X44761917Y-64051862D01*
X44761919Y-64051865D01*
X44878135Y-64168081D01*
X45019602Y-64251744D01*
X45061224Y-64263836D01*
X45177426Y-64297597D01*
X45177429Y-64297597D01*
X45177431Y-64297598D01*
X45214306Y-64300500D01*
X45214314Y-64300500D01*
X46645686Y-64300500D01*
X46645694Y-64300500D01*
X46682569Y-64297598D01*
X46682571Y-64297597D01*
X46682573Y-64297597D01*
X46729366Y-64284002D01*
X46840398Y-64251744D01*
X46981865Y-64168081D01*
X47098081Y-64051865D01*
X47181744Y-63910398D01*
X47227598Y-63752569D01*
X47230500Y-63715694D01*
X47230500Y-63284306D01*
X47227598Y-63247431D01*
X47224617Y-63237172D01*
X47186591Y-63106284D01*
X47181744Y-63089602D01*
X47098081Y-62948135D01*
X47098078Y-62948132D01*
X47093298Y-62941969D01*
X47095635Y-62940155D01*
X47068798Y-62891050D01*
X47073756Y-62821356D01*
X47094554Y-62788998D01*
X47092903Y-62787717D01*
X47097686Y-62781550D01*
X47181281Y-62640198D01*
X47227100Y-62482486D01*
X47227295Y-62480001D01*
X47227295Y-62480000D01*
X45804000Y-62480000D01*
X45736961Y-62460315D01*
X45691206Y-62407511D01*
X45680000Y-62356000D01*
X45680000Y-62104000D01*
X45699685Y-62036961D01*
X45752489Y-61991206D01*
X45804000Y-61980000D01*
X47227295Y-61980000D01*
X47227295Y-61979998D01*
X47227100Y-61977513D01*
X47181281Y-61819801D01*
X47153379Y-61772621D01*
X47136196Y-61704897D01*
X47158356Y-61638635D01*
X47212822Y-61594871D01*
X47260111Y-61585500D01*
X47563394Y-61585500D01*
X51530547Y-61585500D01*
X51597586Y-61605185D01*
X51643341Y-61657989D01*
X51653285Y-61727147D01*
X51624260Y-61790703D01*
X51618228Y-61797181D01*
X51606267Y-61809142D01*
X51584142Y-61831267D01*
X51519144Y-61896264D01*
X51519142Y-61896267D01*
X51496811Y-61929688D01*
X51496810Y-61929690D01*
X51496809Y-61929689D01*
X51450689Y-61998712D01*
X51450687Y-61998716D01*
X51424835Y-62061127D01*
X51424836Y-62061128D01*
X51403536Y-62112549D01*
X51403535Y-62112555D01*
X51379500Y-62233389D01*
X51379500Y-64131611D01*
X51403535Y-64252444D01*
X51403540Y-64252461D01*
X51450685Y-64366281D01*
X51450690Y-64366290D01*
X51473550Y-64400501D01*
X51473551Y-64400502D01*
X51519140Y-64468731D01*
X51519141Y-64468732D01*
X51519142Y-64468733D01*
X51574142Y-64523733D01*
X51651334Y-64600925D01*
X51661269Y-64610860D01*
X51661271Y-64610861D01*
X51717923Y-64648715D01*
X51717924Y-64648715D01*
X51763715Y-64679312D01*
X51814866Y-64700499D01*
X51877548Y-64726463D01*
X51976786Y-64746202D01*
X51998389Y-64750499D01*
X51998393Y-64750500D01*
X51998394Y-64750500D01*
X52384548Y-64750500D01*
X52451587Y-64770185D01*
X52472229Y-64786819D01*
X53382524Y-65697114D01*
X53416009Y-65758437D01*
X53411025Y-65828129D01*
X53382524Y-65872476D01*
X53380000Y-65875000D01*
X53380000Y-66801000D01*
X53360315Y-66868039D01*
X53307511Y-66913794D01*
X53256000Y-66925000D01*
X51832705Y-66925000D01*
X51832704Y-66925001D01*
X51832899Y-66927486D01*
X51878718Y-67085198D01*
X51962314Y-67226552D01*
X51967100Y-67232722D01*
X51964640Y-67234629D01*
X51991210Y-67283288D01*
X51986226Y-67352980D01*
X51965162Y-67385781D01*
X51966699Y-67386974D01*
X51961915Y-67393140D01*
X51878255Y-67534603D01*
X51878254Y-67534606D01*
X51832402Y-67692426D01*
X51832401Y-67692432D01*
X51829500Y-67729298D01*
X51829500Y-67781276D01*
X51809815Y-67848315D01*
X51793181Y-67868957D01*
X51753093Y-67909045D01*
X51691770Y-67942530D01*
X51665412Y-67945364D01*
X51606218Y-67945364D01*
X51589559Y-67948905D01*
X51421061Y-67984719D01*
X51421056Y-67984721D01*
X51248134Y-68061712D01*
X51248129Y-68061715D01*
X51094993Y-68172975D01*
X50968330Y-68313649D01*
X50873685Y-68477579D01*
X50873682Y-68477586D01*
X50815890Y-68655453D01*
X50815190Y-68657608D01*
X50795404Y-68845864D01*
X50815190Y-69034120D01*
X50815191Y-69034123D01*
X50873682Y-69214141D01*
X50873685Y-69214148D01*
X50968331Y-69378080D01*
X51048833Y-69467486D01*
X51094993Y-69518752D01*
X51248129Y-69630012D01*
X51248134Y-69630015D01*
X51319119Y-69661620D01*
X51372356Y-69706870D01*
X51392677Y-69773719D01*
X51390301Y-69799086D01*
X51382819Y-69836708D01*
X51382818Y-69836715D01*
X51379500Y-69853394D01*
X51379500Y-70897514D01*
X51394087Y-70970851D01*
X51403302Y-71017181D01*
X51403537Y-71018361D01*
X51450685Y-71132188D01*
X51450686Y-71132190D01*
X51450688Y-71132194D01*
X51455048Y-71138719D01*
X51482057Y-71179141D01*
X51482059Y-71179143D01*
X51519140Y-71234639D01*
X51519141Y-71234640D01*
X51519142Y-71234641D01*
X51606267Y-71321766D01*
X51606268Y-71321766D01*
X51613335Y-71328833D01*
X51613334Y-71328833D01*
X51613338Y-71328836D01*
X53313181Y-73028679D01*
X53346666Y-73090002D01*
X53349500Y-73116360D01*
X53349500Y-73446606D01*
X53329815Y-73513645D01*
X53277011Y-73559400D01*
X53207853Y-73569344D01*
X53178048Y-73561167D01*
X53066032Y-73514769D01*
X53066028Y-73514768D01*
X52953863Y-73500000D01*
X52255000Y-73500000D01*
X52255000Y-74421000D01*
X52235315Y-74488039D01*
X52182511Y-74533794D01*
X52131000Y-74545000D01*
X50520000Y-74545000D01*
X50520000Y-74553863D01*
X50534768Y-74666028D01*
X50534769Y-74666032D01*
X50592578Y-74805598D01*
X50629797Y-74854102D01*
X50654991Y-74919272D01*
X50640953Y-74987716D01*
X50629798Y-75005074D01*
X50592143Y-75054147D01*
X50592140Y-75054153D01*
X50563313Y-75123746D01*
X50536434Y-75163973D01*
X50296269Y-75404140D01*
X50296267Y-75404142D01*
X50252704Y-75447704D01*
X50209142Y-75491266D01*
X50185191Y-75527112D01*
X50185190Y-75527111D01*
X50140686Y-75593716D01*
X50119799Y-75644141D01*
X50119800Y-75644142D01*
X50094392Y-75705485D01*
X50094387Y-75705497D01*
X50093537Y-75707547D01*
X50093536Y-75707549D01*
X50070398Y-75823878D01*
X50070397Y-75823883D01*
X50069500Y-75828391D01*
X50069500Y-79966610D01*
X50073199Y-79985209D01*
X50093535Y-80087444D01*
X50093537Y-80087452D01*
X50104030Y-80112784D01*
X50104030Y-80112785D01*
X50140685Y-80201280D01*
X50140686Y-80201282D01*
X50140688Y-80201286D01*
X50153556Y-80220544D01*
X50170742Y-80246265D01*
X50170744Y-80246267D01*
X50209141Y-80303732D01*
X50209144Y-80303736D01*
X50300586Y-80395178D01*
X50300608Y-80395198D01*
X50385681Y-80480271D01*
X50419166Y-80541594D01*
X50422000Y-80567952D01*
X50422000Y-81145001D01*
X50422001Y-81145019D01*
X50432500Y-81247796D01*
X50432501Y-81247799D01*
X50487685Y-81414331D01*
X50487687Y-81414336D01*
X50503106Y-81439334D01*
X50579788Y-81563656D01*
X50703844Y-81687712D01*
X50853166Y-81779814D01*
X51019703Y-81834999D01*
X51122491Y-81845500D01*
X51747508Y-81845499D01*
X51747516Y-81845498D01*
X51747519Y-81845498D01*
X51803802Y-81839748D01*
X51850297Y-81834999D01*
X52016834Y-81779814D01*
X52166156Y-81687712D01*
X52260175Y-81593692D01*
X52321494Y-81560210D01*
X52391186Y-81565194D01*
X52435534Y-81593695D01*
X52529154Y-81687315D01*
X52678375Y-81779356D01*
X52678380Y-81779358D01*
X52844802Y-81834505D01*
X52844809Y-81834506D01*
X52947519Y-81844999D01*
X53510000Y-81844999D01*
X53572472Y-81844999D01*
X53572486Y-81844998D01*
X53675197Y-81834505D01*
X53841619Y-81779358D01*
X53841624Y-81779356D01*
X53990845Y-81687315D01*
X54114815Y-81563345D01*
X54206856Y-81414124D01*
X54206858Y-81414119D01*
X54262005Y-81247697D01*
X54262006Y-81247690D01*
X54272499Y-81144986D01*
X54272500Y-81144973D01*
X54272500Y-80895000D01*
X53510000Y-80895000D01*
X53510000Y-81844999D01*
X52947519Y-81844999D01*
X53009999Y-81844998D01*
X53010000Y-81844998D01*
X53010000Y-80395000D01*
X53510000Y-80395000D01*
X54272499Y-80395000D01*
X54272499Y-80297000D01*
X56102000Y-80297000D01*
X57576501Y-80297000D01*
X57576500Y-78795000D01*
X56102000Y-78795000D01*
X56102000Y-80297000D01*
X54272499Y-80297000D01*
X54272499Y-80145028D01*
X54272498Y-80145013D01*
X54262005Y-80042302D01*
X54206858Y-79875880D01*
X54206856Y-79875875D01*
X54114815Y-79726654D01*
X53990845Y-79602684D01*
X53841624Y-79510643D01*
X53841619Y-79510641D01*
X53675197Y-79455494D01*
X53675190Y-79455493D01*
X53572486Y-79445000D01*
X53510000Y-79445000D01*
X53510000Y-80395000D01*
X53010000Y-80395000D01*
X53010000Y-79445000D01*
X53009999Y-79444999D01*
X52947528Y-79445000D01*
X52947511Y-79445001D01*
X52844802Y-79455494D01*
X52678380Y-79510641D01*
X52678375Y-79510643D01*
X52529157Y-79602682D01*
X52435534Y-79696305D01*
X52374210Y-79729789D01*
X52304519Y-79724805D01*
X52260172Y-79696304D01*
X52166157Y-79602289D01*
X52166156Y-79602288D01*
X52032468Y-79519829D01*
X52016836Y-79510187D01*
X52016831Y-79510185D01*
X52015362Y-79509698D01*
X51850297Y-79455001D01*
X51850295Y-79455000D01*
X51747516Y-79444500D01*
X51747509Y-79444500D01*
X51444500Y-79444500D01*
X51377461Y-79424815D01*
X51331706Y-79372011D01*
X51320500Y-79320500D01*
X51320500Y-79024499D01*
X51340185Y-78957460D01*
X51392989Y-78911705D01*
X51444500Y-78900499D01*
X52953888Y-78900499D01*
X53066151Y-78885720D01*
X53066150Y-78885720D01*
X53066159Y-78885719D01*
X53205853Y-78827856D01*
X53325810Y-78735810D01*
X53417856Y-78615853D01*
X53446685Y-78546252D01*
X53473565Y-78506025D01*
X53475858Y-78503733D01*
X53475860Y-78503730D01*
X53482919Y-78496671D01*
X53482925Y-78496663D01*
X54805304Y-77174285D01*
X56102000Y-77174285D01*
X56102000Y-77797000D01*
X56911777Y-77797000D01*
X56911712Y-77796903D01*
X56911700Y-77796884D01*
X56908537Y-77792150D01*
X56872280Y-77737891D01*
X56872245Y-77737836D01*
X56852685Y-77708562D01*
X56843526Y-77689199D01*
X56823982Y-77652634D01*
X56821245Y-77647197D01*
X56805498Y-77613902D01*
X56803032Y-77608338D01*
X56737126Y-77449224D01*
X56734935Y-77443546D01*
X56722530Y-77408876D01*
X56720621Y-77403095D01*
X56706399Y-77356208D01*
X56704776Y-77350346D01*
X56695832Y-77314641D01*
X56694500Y-77308706D01*
X56686000Y-77265983D01*
X56685998Y-77265977D01*
X56669008Y-77180558D01*
X56669008Y-77180557D01*
X56660896Y-77139777D01*
X56659855Y-77133778D01*
X56654451Y-77097345D01*
X56653706Y-77091304D01*
X56648903Y-77042532D01*
X56648455Y-77036462D01*
X56646649Y-76999690D01*
X56646500Y-76993607D01*
X56646500Y-76295000D01*
X56233500Y-76295000D01*
X56233500Y-76473838D01*
X56245034Y-76511861D01*
X56247990Y-76572047D01*
X56219109Y-76717238D01*
X56219096Y-76717323D01*
X56214399Y-76740923D01*
X56214400Y-76740924D01*
X56185508Y-76886180D01*
X56184174Y-76892121D01*
X56175226Y-76927842D01*
X56173603Y-76933707D01*
X56159375Y-76980610D01*
X56157466Y-76986388D01*
X56146583Y-77016801D01*
X56150026Y-77051745D01*
X56137008Y-77120392D01*
X56129725Y-77132792D01*
X56102000Y-77174285D01*
X54805304Y-77174285D01*
X55008729Y-76970860D01*
X55008733Y-76970858D01*
X55095858Y-76883733D01*
X55150829Y-76801463D01*
X55164312Y-76781285D01*
X55203839Y-76685857D01*
X55211463Y-76667452D01*
X55226828Y-76590204D01*
X55232517Y-76561606D01*
X55232517Y-76561601D01*
X55235500Y-76546607D01*
X55235500Y-76423393D01*
X55235500Y-75297000D01*
X56233500Y-75297000D01*
X56646500Y-75297000D01*
X56646500Y-73795000D01*
X56233500Y-73795000D01*
X56233500Y-75297000D01*
X55235500Y-75297000D01*
X55235500Y-71903394D01*
X55211463Y-71782548D01*
X55188514Y-71727144D01*
X55164312Y-71668714D01*
X55114331Y-71593914D01*
X55107476Y-71583655D01*
X55095859Y-71566268D01*
X55095855Y-71566263D01*
X55005637Y-71476045D01*
X55005606Y-71476016D01*
X54686924Y-71157334D01*
X54653439Y-71096011D01*
X54658423Y-71026319D01*
X54700295Y-70970386D01*
X54765759Y-70945969D01*
X54774605Y-70945653D01*
X54899797Y-70945653D01*
X54899799Y-70945653D01*
X55084956Y-70906297D01*
X55257883Y-70829304D01*
X55411024Y-70718041D01*
X55438419Y-70687615D01*
X55497904Y-70650967D01*
X55567761Y-70652296D01*
X55625810Y-70691182D01*
X55648500Y-70732268D01*
X55687819Y-70853280D01*
X55687821Y-70853284D01*
X55782467Y-71017216D01*
X55885989Y-71132188D01*
X55909129Y-71157888D01*
X56062265Y-71269148D01*
X56062270Y-71269151D01*
X56235192Y-71346142D01*
X56235197Y-71346144D01*
X56420354Y-71385500D01*
X56420355Y-71385500D01*
X56609644Y-71385500D01*
X56609646Y-71385500D01*
X56794803Y-71346144D01*
X56967730Y-71269151D01*
X57120871Y-71157888D01*
X57247533Y-71017216D01*
X57342179Y-70853284D01*
X57400674Y-70673256D01*
X57418321Y-70505344D01*
X57444904Y-70440734D01*
X57453951Y-70430638D01*
X57477373Y-70407216D01*
X57538694Y-70373733D01*
X57608386Y-70378717D01*
X57615477Y-70381615D01*
X57653705Y-70398636D01*
X57838862Y-70437992D01*
X57893283Y-70437992D01*
X57960322Y-70457677D01*
X58006077Y-70510481D01*
X58007827Y-70514500D01*
X58013944Y-70529266D01*
X58020994Y-70546286D01*
X58085506Y-70642835D01*
X58106383Y-70709512D01*
X58105342Y-70727910D01*
X58095851Y-70799999D01*
X58095852Y-70800000D01*
X58148845Y-70800000D01*
X58215884Y-70819685D01*
X58247221Y-70848514D01*
X58257483Y-70861889D01*
X58257756Y-70862244D01*
X58374239Y-70951624D01*
X58415441Y-71008052D01*
X58419596Y-71077798D01*
X58385383Y-71138719D01*
X58374243Y-71148372D01*
X58334145Y-71179141D01*
X58257754Y-71237757D01*
X58247221Y-71251486D01*
X58190793Y-71292689D01*
X58148845Y-71300000D01*
X58095852Y-71300000D01*
X58107014Y-71384786D01*
X58096249Y-71453821D01*
X58071756Y-71488652D01*
X57966498Y-71593911D01*
X57871269Y-71689140D01*
X57871267Y-71689142D01*
X57845716Y-71714693D01*
X57784142Y-71776266D01*
X57761035Y-71810849D01*
X57761034Y-71810850D01*
X57715690Y-71878709D01*
X57715688Y-71878713D01*
X57710207Y-71891947D01*
X57687606Y-71946511D01*
X57668538Y-71992544D01*
X57668535Y-71992556D01*
X57660599Y-72032450D01*
X57660600Y-72032451D01*
X57660600Y-72032452D01*
X57648022Y-72095689D01*
X57644500Y-72113394D01*
X57644500Y-76845893D01*
X57644500Y-76969107D01*
X57644500Y-76969109D01*
X57644499Y-76969109D01*
X57647831Y-76985855D01*
X57647831Y-76985857D01*
X57664819Y-77071264D01*
X57664820Y-77071267D01*
X57668537Y-77089951D01*
X57715688Y-77203786D01*
X57744299Y-77246604D01*
X57744300Y-77246607D01*
X57744301Y-77246607D01*
X57784141Y-77306233D01*
X57875586Y-77397678D01*
X57875608Y-77397698D01*
X58538181Y-78060271D01*
X58571666Y-78121594D01*
X58574500Y-78147952D01*
X58574500Y-80622870D01*
X58574501Y-80622876D01*
X58580908Y-80682483D01*
X58631202Y-80817328D01*
X58631206Y-80817335D01*
X58717452Y-80932544D01*
X58717455Y-80932547D01*
X58832664Y-81018793D01*
X58832671Y-81018797D01*
X58967517Y-81069091D01*
X58967516Y-81069091D01*
X58974444Y-81069835D01*
X59027127Y-81075500D01*
X61502047Y-81075499D01*
X61569086Y-81095184D01*
X61589728Y-81111818D01*
X62153516Y-81675606D01*
X62153545Y-81675637D01*
X62243764Y-81765856D01*
X62243767Y-81765858D01*
X62302067Y-81804812D01*
X62302068Y-81804814D01*
X62316751Y-81814624D01*
X62346215Y-81834312D01*
X62346220Y-81834314D01*
X62346219Y-81834314D01*
X62364678Y-81841959D01*
X62383137Y-81849605D01*
X62383139Y-81849607D01*
X62383140Y-81849607D01*
X62425200Y-81867028D01*
X62460048Y-81881463D01*
X62520471Y-81893481D01*
X62580893Y-81905500D01*
X67931607Y-81905500D01*
X67992029Y-81893481D01*
X68052452Y-81881463D01*
X68102496Y-81860734D01*
X68166286Y-81834312D01*
X68247846Y-81779814D01*
X68268733Y-81765858D01*
X68355858Y-81678733D01*
X68355859Y-81678731D01*
X68362925Y-81671665D01*
X68362928Y-81671661D01*
X68596549Y-81438039D01*
X68657870Y-81404556D01*
X68727562Y-81409540D01*
X68757113Y-81425404D01*
X68762270Y-81429151D01*
X68762271Y-81429151D01*
X68762272Y-81429152D01*
X68935192Y-81506142D01*
X68935197Y-81506144D01*
X69120354Y-81545500D01*
X69120355Y-81545500D01*
X69309644Y-81545500D01*
X69309646Y-81545500D01*
X69494803Y-81506144D01*
X69504867Y-81501662D01*
X69574116Y-81492373D01*
X69637394Y-81521998D01*
X69660847Y-81549842D01*
X69684788Y-81588656D01*
X69808844Y-81712712D01*
X69958166Y-81804814D01*
X70124703Y-81859999D01*
X70227491Y-81870500D01*
X70827508Y-81870499D01*
X70827516Y-81870498D01*
X70827519Y-81870498D01*
X70883802Y-81864748D01*
X70930297Y-81859999D01*
X71096834Y-81804814D01*
X71246156Y-81712712D01*
X71370212Y-81588656D01*
X71371961Y-81585819D01*
X71373669Y-81584283D01*
X71374693Y-81582989D01*
X71374914Y-81583163D01*
X71423906Y-81539096D01*
X71492868Y-81527872D01*
X71556951Y-81555713D01*
X71583037Y-81585817D01*
X71584788Y-81588656D01*
X71708844Y-81712712D01*
X71858166Y-81804814D01*
X72024703Y-81859999D01*
X72127491Y-81870500D01*
X72727508Y-81870499D01*
X72727516Y-81870498D01*
X72727519Y-81870498D01*
X72783802Y-81864748D01*
X72830297Y-81859999D01*
X72996834Y-81804814D01*
X73146156Y-81712712D01*
X73261657Y-81597210D01*
X73322976Y-81563728D01*
X73392668Y-81568712D01*
X73448602Y-81610583D01*
X73465088Y-81642379D01*
X73465175Y-81642341D01*
X73465816Y-81643781D01*
X73467267Y-81646580D01*
X73467818Y-81648277D01*
X73467821Y-81648284D01*
X73562467Y-81812216D01*
X73635634Y-81893476D01*
X73689129Y-81952888D01*
X73842265Y-82064148D01*
X73842270Y-82064151D01*
X74015192Y-82141142D01*
X74015197Y-82141144D01*
X74200354Y-82180500D01*
X74200355Y-82180500D01*
X74389644Y-82180500D01*
X74389646Y-82180500D01*
X74574803Y-82141144D01*
X74747730Y-82064151D01*
X74900871Y-81952888D01*
X74982437Y-81862300D01*
X76102000Y-81862300D01*
X76102000Y-82797000D01*
X77604000Y-82797000D01*
X78602000Y-82797000D01*
X80104000Y-82797000D01*
X80104000Y-81295000D01*
X78602000Y-81295000D01*
X78602000Y-82797000D01*
X77604000Y-82797000D01*
X77604000Y-81295000D01*
X76198460Y-81295000D01*
X76198460Y-81306137D01*
X76198290Y-81312628D01*
X76196234Y-81351853D01*
X76195725Y-81358323D01*
X76170475Y-81598563D01*
X76169628Y-81604998D01*
X76163486Y-81643781D01*
X76162303Y-81650161D01*
X76151436Y-81701296D01*
X76149920Y-81707612D01*
X76139751Y-81745565D01*
X76137907Y-81751791D01*
X76102000Y-81862300D01*
X74982437Y-81862300D01*
X75027533Y-81812216D01*
X75122179Y-81648284D01*
X75180674Y-81468256D01*
X75200460Y-81280000D01*
X75180674Y-81091744D01*
X75122179Y-80911716D01*
X75027533Y-80747784D01*
X74900871Y-80607112D01*
X74887695Y-80597539D01*
X74747734Y-80495851D01*
X74747729Y-80495848D01*
X74574807Y-80418857D01*
X74574802Y-80418855D01*
X74429001Y-80387865D01*
X74389646Y-80379500D01*
X74389645Y-80379500D01*
X74330452Y-80379500D01*
X74263413Y-80359815D01*
X74242771Y-80343181D01*
X74196590Y-80297000D01*
X76102000Y-80297000D01*
X77604000Y-80297000D01*
X77604000Y-78795000D01*
X76102000Y-78795000D01*
X76102000Y-80297000D01*
X74196590Y-80297000D01*
X74152928Y-80253338D01*
X74152925Y-80253334D01*
X74152925Y-80253335D01*
X74145859Y-80246269D01*
X74145858Y-80246267D01*
X74058733Y-80159142D01*
X74058729Y-80159139D01*
X74058728Y-80159138D01*
X74000142Y-80119992D01*
X74000140Y-80119991D01*
X73956286Y-80090688D01*
X73956287Y-80090688D01*
X73956285Y-80090687D01*
X73916039Y-80074017D01*
X73875792Y-80057347D01*
X73842452Y-80043537D01*
X73842448Y-80043536D01*
X73842444Y-80043535D01*
X73747708Y-80024690D01*
X73747699Y-80024690D01*
X73721607Y-80019500D01*
X73721606Y-80019500D01*
X73507801Y-80019500D01*
X73440762Y-79999815D01*
X73395007Y-79947011D01*
X73390095Y-79934504D01*
X73386309Y-79923079D01*
X73362314Y-79850666D01*
X73270212Y-79701344D01*
X73146156Y-79577288D01*
X73146153Y-79577285D01*
X73111901Y-79556158D01*
X73065178Y-79504210D01*
X73053000Y-79450621D01*
X73053000Y-79067468D01*
X74051000Y-79067468D01*
X74061184Y-79069494D01*
X74067123Y-79070827D01*
X74102841Y-79079774D01*
X74108706Y-79081397D01*
X74155603Y-79095623D01*
X74161382Y-79097532D01*
X74196052Y-79109937D01*
X74201731Y-79112128D01*
X74301369Y-79153399D01*
X74360836Y-79178030D01*
X74360887Y-79178051D01*
X74826367Y-79370859D01*
X74880770Y-79414700D01*
X74901001Y-79475484D01*
X74908046Y-79477773D01*
X74914171Y-79479942D01*
X74950852Y-79494023D01*
X74956849Y-79496507D01*
X75104000Y-79562024D01*
X75104000Y-78795000D01*
X74051000Y-78795000D01*
X74051000Y-79067468D01*
X73053000Y-79067468D01*
X73053000Y-78029377D01*
X73072685Y-77962338D01*
X73111906Y-77923837D01*
X73146154Y-77902713D01*
X73146153Y-77902713D01*
X73146156Y-77902712D01*
X73270212Y-77778656D01*
X73362314Y-77629334D01*
X73417499Y-77462797D01*
X73428000Y-77360009D01*
X73427999Y-76905903D01*
X73447683Y-76838866D01*
X73500487Y-76793111D01*
X73569646Y-76783167D01*
X73633202Y-76812192D01*
X73644142Y-76822926D01*
X73689129Y-76872888D01*
X73689132Y-76872890D01*
X73842265Y-76984148D01*
X73842270Y-76984151D01*
X74015192Y-77061142D01*
X74015197Y-77061144D01*
X74200354Y-77100500D01*
X74259547Y-77100500D01*
X74326586Y-77120185D01*
X74347228Y-77136819D01*
X74531263Y-77320855D01*
X74531267Y-77320858D01*
X74633710Y-77389309D01*
X74633711Y-77389309D01*
X74633715Y-77389312D01*
X74679784Y-77408394D01*
X74747548Y-77436463D01*
X74767597Y-77440451D01*
X74801196Y-77447134D01*
X74868392Y-77460501D01*
X74868394Y-77460501D01*
X74997721Y-77460501D01*
X74997741Y-77460500D01*
X77794548Y-77460500D01*
X77861587Y-77480185D01*
X77882228Y-77496818D01*
X78116611Y-77731202D01*
X78348332Y-77962923D01*
X78348338Y-77962928D01*
X81209761Y-80824352D01*
X81243246Y-80885675D01*
X81241855Y-80944124D01*
X81214937Y-81044589D01*
X81214937Y-81044590D01*
X81194341Y-81279999D01*
X81194341Y-81280000D01*
X81214936Y-81515403D01*
X81214938Y-81515413D01*
X81276094Y-81743655D01*
X81276096Y-81743659D01*
X81276097Y-81743663D01*
X81351563Y-81905500D01*
X81375965Y-81957830D01*
X81375967Y-81957834D01*
X81511501Y-82151395D01*
X81511506Y-82151402D01*
X81678597Y-82318493D01*
X81678603Y-82318498D01*
X81864158Y-82448425D01*
X81907783Y-82503002D01*
X81914977Y-82572500D01*
X81883454Y-82634855D01*
X81864158Y-82651575D01*
X81678597Y-82781505D01*
X81511505Y-82948597D01*
X81375965Y-83142169D01*
X81375964Y-83142171D01*
X81276098Y-83356335D01*
X81276094Y-83356344D01*
X81214938Y-83584586D01*
X81214936Y-83584596D01*
X81194341Y-83819999D01*
X81194341Y-83820000D01*
X81214936Y-84055403D01*
X81214938Y-84055413D01*
X81276094Y-84283655D01*
X81276096Y-84283659D01*
X81276097Y-84283663D01*
X81325839Y-84390335D01*
X81375965Y-84497830D01*
X81375967Y-84497834D01*
X81435131Y-84582328D01*
X81511505Y-84691401D01*
X81678599Y-84858495D01*
X81725137Y-84891081D01*
X81872165Y-84994032D01*
X81872167Y-84994033D01*
X81872170Y-84994035D01*
X82086337Y-85093903D01*
X82314592Y-85155063D01*
X82502918Y-85171539D01*
X82549999Y-85175659D01*
X82550000Y-85175659D01*
X82550001Y-85175659D01*
X82589234Y-85172226D01*
X82785408Y-85155063D01*
X83013663Y-85093903D01*
X83227830Y-84994035D01*
X83421401Y-84858495D01*
X83588495Y-84691401D01*
X83724035Y-84497830D01*
X83823903Y-84283663D01*
X83885063Y-84055408D01*
X83905659Y-83820000D01*
X83885063Y-83584592D01*
X83858143Y-83484125D01*
X83859806Y-83414276D01*
X83890235Y-83364353D01*
X84123729Y-83130860D01*
X84123733Y-83130858D01*
X84210858Y-83043733D01*
X84279311Y-82941286D01*
X84279312Y-82941285D01*
X84306932Y-82874603D01*
X84326463Y-82827452D01*
X84350500Y-82706606D01*
X84350500Y-80731693D01*
X84326463Y-80610847D01*
X84314519Y-80582011D01*
X84303202Y-80554689D01*
X84279314Y-80497018D01*
X84279313Y-80497016D01*
X84278533Y-80495849D01*
X84252404Y-80456744D01*
X84252404Y-80456743D01*
X84210861Y-80394570D01*
X84210855Y-80394562D01*
X84120637Y-80304344D01*
X84120606Y-80304315D01*
X83595115Y-79778824D01*
X83561630Y-79717501D01*
X83566614Y-79647809D01*
X83585310Y-79615726D01*
X83585004Y-79615512D01*
X83587579Y-79611833D01*
X83587819Y-79611423D01*
X83588109Y-79611076D01*
X83723600Y-79417578D01*
X83823429Y-79203492D01*
X83823432Y-79203486D01*
X83880636Y-78990000D01*
X82983012Y-78990000D01*
X83015925Y-78932993D01*
X83050000Y-78805826D01*
X83050000Y-78674174D01*
X83015925Y-78547007D01*
X82983012Y-78490000D01*
X83880636Y-78490000D01*
X83880635Y-78489999D01*
X83823432Y-78276513D01*
X83823429Y-78276507D01*
X83723600Y-78062422D01*
X83723599Y-78062420D01*
X83588113Y-77868926D01*
X83588108Y-77868920D01*
X83466053Y-77746865D01*
X83432568Y-77685542D01*
X83437552Y-77615850D01*
X83479424Y-77559917D01*
X83510400Y-77543002D01*
X83642331Y-77493796D01*
X83757546Y-77407546D01*
X83843796Y-77292331D01*
X83894091Y-77157483D01*
X83900500Y-77097873D01*
X83900499Y-75302128D01*
X83894091Y-75242517D01*
X83893472Y-75240858D01*
X83843797Y-75107671D01*
X83843793Y-75107664D01*
X83757547Y-74992455D01*
X83757544Y-74992452D01*
X83642335Y-74906206D01*
X83642328Y-74906202D01*
X83507482Y-74855908D01*
X83507483Y-74855908D01*
X83447883Y-74849501D01*
X83447881Y-74849500D01*
X83447873Y-74849500D01*
X83447865Y-74849500D01*
X82734451Y-74849500D01*
X82667412Y-74829815D01*
X82621657Y-74777011D01*
X82611713Y-74707853D01*
X82640738Y-74644297D01*
X82646770Y-74637819D01*
X83360752Y-73923837D01*
X84123729Y-73160860D01*
X84123733Y-73160858D01*
X84210858Y-73073733D01*
X84259985Y-73000210D01*
X84279312Y-72971286D01*
X84313602Y-72888500D01*
X84326463Y-72857452D01*
X84338487Y-72797000D01*
X84348970Y-72744301D01*
X84348971Y-72744301D01*
X84348971Y-72744291D01*
X84350500Y-72736607D01*
X84350500Y-72613393D01*
X84350500Y-68031693D01*
X84350294Y-68030659D01*
X84335146Y-67954499D01*
X84334033Y-67948905D01*
X84326464Y-67910852D01*
X84326463Y-67910851D01*
X84326463Y-67910847D01*
X84303330Y-67855000D01*
X84302012Y-67851819D01*
X84279314Y-67797019D01*
X84279312Y-67797014D01*
X84250229Y-67753489D01*
X84210858Y-67694566D01*
X84210856Y-67694563D01*
X84120637Y-67604344D01*
X84120606Y-67604315D01*
X83595115Y-67078824D01*
X83561630Y-67017501D01*
X83566614Y-66947809D01*
X83585310Y-66915726D01*
X83585004Y-66915512D01*
X83587579Y-66911833D01*
X83587819Y-66911423D01*
X83588109Y-66911076D01*
X83723600Y-66717578D01*
X83823429Y-66503492D01*
X83823432Y-66503486D01*
X83880636Y-66290000D01*
X82983012Y-66290000D01*
X83015925Y-66232993D01*
X83050000Y-66105826D01*
X83050000Y-65974174D01*
X83015925Y-65847007D01*
X82983012Y-65790000D01*
X83880636Y-65790000D01*
X83880635Y-65789999D01*
X83823432Y-65576513D01*
X83823429Y-65576507D01*
X83723600Y-65362422D01*
X83723599Y-65362420D01*
X83588113Y-65168926D01*
X83588108Y-65168920D01*
X83421082Y-65001894D01*
X83227578Y-64866399D01*
X83013492Y-64766570D01*
X83013486Y-64766567D01*
X82800000Y-64709364D01*
X82800000Y-65606988D01*
X82742993Y-65574075D01*
X82615826Y-65540000D01*
X82484174Y-65540000D01*
X82357007Y-65574075D01*
X82300000Y-65606988D01*
X82300000Y-64709364D01*
X82299999Y-64709364D01*
X82086513Y-64766567D01*
X82086507Y-64766570D01*
X81872422Y-64866399D01*
X81872420Y-64866400D01*
X81678926Y-65001886D01*
X81556865Y-65123947D01*
X81495542Y-65157431D01*
X81425850Y-65152447D01*
X81369917Y-65110575D01*
X81353002Y-65079598D01*
X81352895Y-65079312D01*
X81303796Y-64947669D01*
X81303795Y-64947668D01*
X81303793Y-64947664D01*
X81217547Y-64832455D01*
X81217544Y-64832452D01*
X81102335Y-64746206D01*
X81102328Y-64746202D01*
X80967482Y-64695908D01*
X80967483Y-64695908D01*
X80907883Y-64689501D01*
X80907881Y-64689500D01*
X80907873Y-64689500D01*
X80907865Y-64689500D01*
X80230452Y-64689500D01*
X80163413Y-64669815D01*
X80142771Y-64653181D01*
X79666751Y-64177161D01*
X79633266Y-64115838D01*
X79631111Y-64076522D01*
X79645460Y-63940000D01*
X79625674Y-63751744D01*
X79567179Y-63571716D01*
X79472533Y-63407784D01*
X79345871Y-63267112D01*
X79344641Y-63266218D01*
X79192734Y-63155851D01*
X79192729Y-63155848D01*
X79019807Y-63078857D01*
X79019802Y-63078855D01*
X78874001Y-63047865D01*
X78834646Y-63039500D01*
X78645354Y-63039500D01*
X78629330Y-63042906D01*
X78460197Y-63078855D01*
X78460192Y-63078857D01*
X78287270Y-63155848D01*
X78287265Y-63155851D01*
X78134129Y-63267111D01*
X78007466Y-63407785D01*
X77912821Y-63571715D01*
X77912819Y-63571719D01*
X77904931Y-63595998D01*
X77865493Y-63653673D01*
X77801134Y-63680871D01*
X77732288Y-63668956D01*
X77680812Y-63621711D01*
X77663000Y-63557679D01*
X77663000Y-62797000D01*
X81102000Y-62797000D01*
X82604000Y-62797000D01*
X82604000Y-61295000D01*
X81102000Y-61295000D01*
X81102000Y-62797000D01*
X77663000Y-62797000D01*
X77663000Y-62041500D01*
X78661000Y-62041500D01*
X78860792Y-62041500D01*
X78867283Y-62041670D01*
X78906523Y-62043727D01*
X78913000Y-62044237D01*
X78964988Y-62049704D01*
X78971418Y-62050551D01*
X79010197Y-62056693D01*
X79016580Y-62057876D01*
X79252860Y-62108098D01*
X79259172Y-62109613D01*
X79297105Y-62119777D01*
X79303326Y-62121620D01*
X79353046Y-62137773D01*
X79359171Y-62139942D01*
X79395852Y-62154023D01*
X79401849Y-62156507D01*
X79622528Y-62254762D01*
X79628383Y-62257554D01*
X79663364Y-62275376D01*
X79669070Y-62278474D01*
X79714342Y-62304610D01*
X79719877Y-62308002D01*
X79752834Y-62329403D01*
X79758187Y-62333082D01*
X79953626Y-62475076D01*
X79958779Y-62479029D01*
X79989302Y-62503747D01*
X79994235Y-62507961D01*
X80033083Y-62542939D01*
X80037793Y-62547409D01*
X80065569Y-62575185D01*
X80070038Y-62579894D01*
X80104000Y-62617612D01*
X80104000Y-61295000D01*
X78661000Y-61295000D01*
X78661000Y-62041500D01*
X77663000Y-62041500D01*
X77663000Y-60570241D01*
X77663001Y-60570220D01*
X77663001Y-60440891D01*
X77641974Y-60335185D01*
X77638963Y-60320049D01*
X77638030Y-60317797D01*
X77613883Y-60259500D01*
X77591812Y-60206215D01*
X77537092Y-60124322D01*
X77523358Y-60103767D01*
X77523355Y-60103763D01*
X77476627Y-60057035D01*
X78602000Y-60057035D01*
X78602724Y-60059652D01*
X78611671Y-60095370D01*
X78613004Y-60101308D01*
X78646605Y-60270223D01*
X78647646Y-60276222D01*
X78650728Y-60297000D01*
X80104000Y-60297000D01*
X80104000Y-59671000D01*
X78602000Y-59671000D01*
X78602000Y-60057035D01*
X77476627Y-60057035D01*
X77249319Y-59829727D01*
X77215834Y-59768404D01*
X77213000Y-59742046D01*
X77213000Y-59184157D01*
X77212999Y-59184144D01*
X77202587Y-59082225D01*
X77147862Y-58917075D01*
X77147858Y-58917069D01*
X77147857Y-58917066D01*
X77056528Y-58769000D01*
X77056525Y-58768996D01*
X77046210Y-58758681D01*
X77012725Y-58697358D01*
X77017709Y-58627666D01*
X77059581Y-58571733D01*
X77125045Y-58547316D01*
X77133891Y-58547000D01*
X81738176Y-58547000D01*
X81805215Y-58566685D01*
X81823971Y-58581472D01*
X84797797Y-61431388D01*
X84832578Y-61491984D01*
X84836000Y-61520914D01*
X84836000Y-84781708D01*
X84816315Y-84848747D01*
X84796107Y-84872824D01*
X81569624Y-87851116D01*
X81507011Y-87882123D01*
X81485517Y-87884000D01*
X41446894Y-87884000D01*
X41379855Y-87864315D01*
X41367511Y-87855259D01*
X38398617Y-85381180D01*
X38359718Y-85323141D01*
X38354000Y-85285921D01*
X38354000Y-84817546D01*
X39478000Y-84817546D01*
X39942500Y-85204630D01*
X39942500Y-84954135D01*
X40940500Y-84954135D01*
X40940500Y-86749870D01*
X40940501Y-86749876D01*
X40946908Y-86809483D01*
X40997202Y-86944328D01*
X40997206Y-86944335D01*
X41083452Y-87059544D01*
X41083455Y-87059547D01*
X41198664Y-87145793D01*
X41198671Y-87145797D01*
X41333517Y-87196091D01*
X41333516Y-87196091D01*
X41340444Y-87196835D01*
X41393127Y-87202500D01*
X43188872Y-87202499D01*
X43248483Y-87196091D01*
X43383331Y-87145796D01*
X43498546Y-87059546D01*
X43584796Y-86944331D01*
X43633810Y-86812916D01*
X43675681Y-86756984D01*
X43741145Y-86732566D01*
X43809418Y-86747417D01*
X43837673Y-86768569D01*
X43959599Y-86890495D01*
X44056384Y-86958265D01*
X44153165Y-87026032D01*
X44153167Y-87026033D01*
X44153170Y-87026035D01*
X44367337Y-87125903D01*
X44595592Y-87187063D01*
X44772034Y-87202500D01*
X44830999Y-87207659D01*
X44831000Y-87207659D01*
X44831001Y-87207659D01*
X44889966Y-87202500D01*
X45066408Y-87187063D01*
X45294663Y-87125903D01*
X45508830Y-87026035D01*
X45702401Y-86890495D01*
X45869495Y-86723401D01*
X45999425Y-86537842D01*
X46054002Y-86494217D01*
X46123500Y-86487023D01*
X46185855Y-86518546D01*
X46202575Y-86537842D01*
X46332500Y-86723395D01*
X46332505Y-86723401D01*
X46499599Y-86890495D01*
X46596384Y-86958265D01*
X46693165Y-87026032D01*
X46693167Y-87026033D01*
X46693170Y-87026035D01*
X46907337Y-87125903D01*
X47135592Y-87187063D01*
X47312034Y-87202500D01*
X47370999Y-87207659D01*
X47371000Y-87207659D01*
X47371001Y-87207659D01*
X47429966Y-87202500D01*
X47606408Y-87187063D01*
X47834663Y-87125903D01*
X48048830Y-87026035D01*
X48242401Y-86890495D01*
X48409495Y-86723401D01*
X48539425Y-86537842D01*
X48594002Y-86494217D01*
X48663500Y-86487023D01*
X48725855Y-86518546D01*
X48742575Y-86537842D01*
X48872500Y-86723395D01*
X48872505Y-86723401D01*
X49039599Y-86890495D01*
X49136384Y-86958265D01*
X49233165Y-87026032D01*
X49233167Y-87026033D01*
X49233170Y-87026035D01*
X49447337Y-87125903D01*
X49675592Y-87187063D01*
X49852034Y-87202500D01*
X49910999Y-87207659D01*
X49911000Y-87207659D01*
X49911001Y-87207659D01*
X49969966Y-87202500D01*
X50146408Y-87187063D01*
X50374663Y-87125903D01*
X50588830Y-87026035D01*
X50782401Y-86890495D01*
X50949495Y-86723401D01*
X51079425Y-86537842D01*
X51134002Y-86494217D01*
X51203500Y-86487023D01*
X51265855Y-86518546D01*
X51282575Y-86537842D01*
X51412500Y-86723395D01*
X51412505Y-86723401D01*
X51579599Y-86890495D01*
X51676384Y-86958265D01*
X51773165Y-87026032D01*
X51773167Y-87026033D01*
X51773170Y-87026035D01*
X51987337Y-87125903D01*
X52215592Y-87187063D01*
X52392034Y-87202500D01*
X52450999Y-87207659D01*
X52451000Y-87207659D01*
X52451001Y-87207659D01*
X52509966Y-87202500D01*
X52686408Y-87187063D01*
X52914663Y-87125903D01*
X53128830Y-87026035D01*
X53322401Y-86890495D01*
X53489495Y-86723401D01*
X53619425Y-86537842D01*
X53674002Y-86494217D01*
X53743500Y-86487023D01*
X53805855Y-86518546D01*
X53822575Y-86537842D01*
X53952500Y-86723395D01*
X53952505Y-86723401D01*
X54119599Y-86890495D01*
X54216384Y-86958265D01*
X54313165Y-87026032D01*
X54313167Y-87026033D01*
X54313170Y-87026035D01*
X54527337Y-87125903D01*
X54755592Y-87187063D01*
X54932034Y-87202500D01*
X54990999Y-87207659D01*
X54991000Y-87207659D01*
X54991001Y-87207659D01*
X55049966Y-87202500D01*
X55226408Y-87187063D01*
X55454663Y-87125903D01*
X55668830Y-87026035D01*
X55862401Y-86890495D01*
X56029495Y-86723401D01*
X56159425Y-86537842D01*
X56214002Y-86494217D01*
X56283500Y-86487023D01*
X56345855Y-86518546D01*
X56362575Y-86537842D01*
X56492500Y-86723395D01*
X56492505Y-86723401D01*
X56659599Y-86890495D01*
X56756384Y-86958265D01*
X56853165Y-87026032D01*
X56853167Y-87026033D01*
X56853170Y-87026035D01*
X57067337Y-87125903D01*
X57295592Y-87187063D01*
X57472034Y-87202500D01*
X57530999Y-87207659D01*
X57531000Y-87207659D01*
X57531001Y-87207659D01*
X57589966Y-87202500D01*
X57766408Y-87187063D01*
X57994663Y-87125903D01*
X58208830Y-87026035D01*
X58402401Y-86890495D01*
X58569495Y-86723401D01*
X58699425Y-86537842D01*
X58754002Y-86494217D01*
X58823500Y-86487023D01*
X58885855Y-86518546D01*
X58902575Y-86537842D01*
X59032500Y-86723395D01*
X59032505Y-86723401D01*
X59199599Y-86890495D01*
X59296384Y-86958265D01*
X59393165Y-87026032D01*
X59393167Y-87026033D01*
X59393170Y-87026035D01*
X59607337Y-87125903D01*
X59835592Y-87187063D01*
X60012034Y-87202500D01*
X60070999Y-87207659D01*
X60071000Y-87207659D01*
X60071001Y-87207659D01*
X60129966Y-87202500D01*
X60306408Y-87187063D01*
X60534663Y-87125903D01*
X60748830Y-87026035D01*
X60942401Y-86890495D01*
X61109495Y-86723401D01*
X61239730Y-86537405D01*
X61294307Y-86493781D01*
X61363805Y-86486587D01*
X61426160Y-86518110D01*
X61442879Y-86537405D01*
X61572890Y-86723078D01*
X61739917Y-86890105D01*
X61933421Y-87025600D01*
X62147507Y-87125429D01*
X62147516Y-87125433D01*
X62361000Y-87182634D01*
X62361000Y-86285012D01*
X62418007Y-86317925D01*
X62545174Y-86352000D01*
X62676826Y-86352000D01*
X62803993Y-86317925D01*
X62861000Y-86285012D01*
X62861000Y-87182633D01*
X63074483Y-87125433D01*
X63074492Y-87125429D01*
X63288578Y-87025600D01*
X63482082Y-86890105D01*
X63649105Y-86723082D01*
X63784600Y-86529578D01*
X63884429Y-86315492D01*
X63884432Y-86315486D01*
X63941636Y-86102000D01*
X63044012Y-86102000D01*
X63076925Y-86044993D01*
X63111000Y-85917826D01*
X63111000Y-85786174D01*
X63076925Y-85659007D01*
X63044012Y-85602000D01*
X63941636Y-85602000D01*
X63941635Y-85601999D01*
X63884432Y-85388513D01*
X63884429Y-85388507D01*
X63784600Y-85174422D01*
X63784599Y-85174420D01*
X63649113Y-84980926D01*
X63649108Y-84980920D01*
X63482082Y-84813894D01*
X63288578Y-84678399D01*
X63074492Y-84578570D01*
X63074486Y-84578567D01*
X62861000Y-84521364D01*
X62861000Y-85418988D01*
X62803993Y-85386075D01*
X62676826Y-85352000D01*
X62545174Y-85352000D01*
X62418007Y-85386075D01*
X62361000Y-85418988D01*
X62361000Y-84521364D01*
X62360999Y-84521364D01*
X62147513Y-84578567D01*
X62147507Y-84578570D01*
X61933422Y-84678399D01*
X61933420Y-84678400D01*
X61739926Y-84813886D01*
X61739920Y-84813891D01*
X61572891Y-84980920D01*
X61572890Y-84980922D01*
X61442880Y-85166595D01*
X61388303Y-85210219D01*
X61318804Y-85217412D01*
X61256450Y-85185890D01*
X61239730Y-85166594D01*
X61109494Y-84980597D01*
X60942402Y-84813506D01*
X60942395Y-84813501D01*
X60748834Y-84677967D01*
X60748830Y-84677965D01*
X60748828Y-84677964D01*
X60534663Y-84578097D01*
X60534659Y-84578096D01*
X60534655Y-84578094D01*
X60306413Y-84516938D01*
X60306403Y-84516936D01*
X60071001Y-84496341D01*
X60070999Y-84496341D01*
X59835596Y-84516936D01*
X59835586Y-84516938D01*
X59607344Y-84578094D01*
X59607335Y-84578098D01*
X59393171Y-84677964D01*
X59393169Y-84677965D01*
X59199597Y-84813505D01*
X59032505Y-84980597D01*
X58902575Y-85166158D01*
X58847998Y-85209783D01*
X58778500Y-85216977D01*
X58716145Y-85185454D01*
X58699425Y-85166158D01*
X58569494Y-84980597D01*
X58402402Y-84813506D01*
X58402395Y-84813501D01*
X58208834Y-84677967D01*
X58208830Y-84677965D01*
X58208828Y-84677964D01*
X57994663Y-84578097D01*
X57994659Y-84578096D01*
X57994655Y-84578094D01*
X57766413Y-84516938D01*
X57766403Y-84516936D01*
X57531001Y-84496341D01*
X57530999Y-84496341D01*
X57295596Y-84516936D01*
X57295586Y-84516938D01*
X57067344Y-84578094D01*
X57067335Y-84578098D01*
X56853171Y-84677964D01*
X56853169Y-84677965D01*
X56659597Y-84813505D01*
X56492505Y-84980597D01*
X56362575Y-85166158D01*
X56307998Y-85209783D01*
X56238500Y-85216977D01*
X56176145Y-85185454D01*
X56159425Y-85166158D01*
X56029494Y-84980597D01*
X55862402Y-84813506D01*
X55862395Y-84813501D01*
X55668834Y-84677967D01*
X55668830Y-84677965D01*
X55668828Y-84677964D01*
X55454663Y-84578097D01*
X55454659Y-84578096D01*
X55454655Y-84578094D01*
X55226413Y-84516938D01*
X55226403Y-84516936D01*
X54991001Y-84496341D01*
X54990999Y-84496341D01*
X54755596Y-84516936D01*
X54755586Y-84516938D01*
X54527344Y-84578094D01*
X54527335Y-84578098D01*
X54313171Y-84677964D01*
X54313169Y-84677965D01*
X54119597Y-84813505D01*
X53952505Y-84980597D01*
X53822575Y-85166158D01*
X53767998Y-85209783D01*
X53698500Y-85216977D01*
X53636145Y-85185454D01*
X53619425Y-85166158D01*
X53489494Y-84980597D01*
X53322402Y-84813506D01*
X53322395Y-84813501D01*
X53128834Y-84677967D01*
X53128830Y-84677965D01*
X53128828Y-84677964D01*
X52914663Y-84578097D01*
X52914659Y-84578096D01*
X52914655Y-84578094D01*
X52686413Y-84516938D01*
X52686403Y-84516936D01*
X52451001Y-84496341D01*
X52450999Y-84496341D01*
X52215596Y-84516936D01*
X52215586Y-84516938D01*
X51987344Y-84578094D01*
X51987335Y-84578098D01*
X51773171Y-84677964D01*
X51773169Y-84677965D01*
X51579597Y-84813505D01*
X51412505Y-84980597D01*
X51282575Y-85166158D01*
X51227998Y-85209783D01*
X51158500Y-85216977D01*
X51096145Y-85185454D01*
X51079425Y-85166158D01*
X50949494Y-84980597D01*
X50782402Y-84813506D01*
X50782395Y-84813501D01*
X50588834Y-84677967D01*
X50588830Y-84677965D01*
X50588828Y-84677964D01*
X50374663Y-84578097D01*
X50374659Y-84578096D01*
X50374655Y-84578094D01*
X50146413Y-84516938D01*
X50146403Y-84516936D01*
X49911001Y-84496341D01*
X49910999Y-84496341D01*
X49675596Y-84516936D01*
X49675586Y-84516938D01*
X49447344Y-84578094D01*
X49447335Y-84578098D01*
X49233171Y-84677964D01*
X49233169Y-84677965D01*
X49039597Y-84813505D01*
X48872505Y-84980597D01*
X48742575Y-85166158D01*
X48687998Y-85209783D01*
X48618500Y-85216977D01*
X48556145Y-85185454D01*
X48539425Y-85166158D01*
X48409494Y-84980597D01*
X48242402Y-84813506D01*
X48242395Y-84813501D01*
X48048834Y-84677967D01*
X48048830Y-84677965D01*
X48048828Y-84677964D01*
X47834663Y-84578097D01*
X47834659Y-84578096D01*
X47834655Y-84578094D01*
X47606413Y-84516938D01*
X47606403Y-84516936D01*
X47371001Y-84496341D01*
X47370999Y-84496341D01*
X47135596Y-84516936D01*
X47135586Y-84516938D01*
X46907344Y-84578094D01*
X46907335Y-84578098D01*
X46693171Y-84677964D01*
X46693169Y-84677965D01*
X46499597Y-84813505D01*
X46332505Y-84980597D01*
X46202575Y-85166158D01*
X46147998Y-85209783D01*
X46078500Y-85216977D01*
X46016145Y-85185454D01*
X45999425Y-85166158D01*
X45869494Y-84980597D01*
X45702402Y-84813506D01*
X45702395Y-84813501D01*
X45508834Y-84677967D01*
X45508830Y-84677965D01*
X45508828Y-84677964D01*
X45294663Y-84578097D01*
X45294659Y-84578096D01*
X45294655Y-84578094D01*
X45066413Y-84516938D01*
X45066403Y-84516936D01*
X44831001Y-84496341D01*
X44830999Y-84496341D01*
X44595596Y-84516936D01*
X44595586Y-84516938D01*
X44367344Y-84578094D01*
X44367335Y-84578098D01*
X44153171Y-84677964D01*
X44153169Y-84677965D01*
X43959600Y-84813503D01*
X43837673Y-84935430D01*
X43776350Y-84968914D01*
X43706658Y-84963930D01*
X43650725Y-84922058D01*
X43633810Y-84891081D01*
X43584797Y-84759671D01*
X43584793Y-84759664D01*
X43498547Y-84644455D01*
X43498544Y-84644452D01*
X43383335Y-84558206D01*
X43383328Y-84558202D01*
X43248482Y-84507908D01*
X43248483Y-84507908D01*
X43188883Y-84501501D01*
X43188881Y-84501500D01*
X43188873Y-84501500D01*
X43188864Y-84501500D01*
X41393129Y-84501500D01*
X41393123Y-84501501D01*
X41333516Y-84507908D01*
X41198671Y-84558202D01*
X41198664Y-84558206D01*
X41083455Y-84644452D01*
X41083452Y-84644455D01*
X40997206Y-84759664D01*
X40997202Y-84759671D01*
X40946908Y-84894517D01*
X40940501Y-84954116D01*
X40940500Y-84954135D01*
X39942500Y-84954135D01*
X39942500Y-84940752D01*
X39942545Y-84937428D01*
X39943084Y-84917327D01*
X39943217Y-84914007D01*
X39944649Y-84887320D01*
X39944871Y-84884011D01*
X39946481Y-84864018D01*
X39946792Y-84860715D01*
X39957962Y-84756825D01*
X39959029Y-84749157D01*
X39966936Y-84702971D01*
X39968481Y-84695381D01*
X39982826Y-84634670D01*
X39984842Y-84627191D01*
X39998450Y-84582328D01*
X40000929Y-84574988D01*
X40074587Y-84377498D01*
X40077975Y-84369318D01*
X40100233Y-84320581D01*
X40104000Y-84313056D01*
X40104000Y-83795000D01*
X63753189Y-83795000D01*
X63763958Y-83800606D01*
X63768700Y-83803208D01*
X63806424Y-83824987D01*
X63811048Y-83827792D01*
X63838664Y-83845384D01*
X63843166Y-83848393D01*
X64072346Y-84008869D01*
X64076706Y-84012065D01*
X64102665Y-84031983D01*
X64106885Y-84035370D01*
X64140252Y-84063367D01*
X64144320Y-84066935D01*
X64168458Y-84089053D01*
X64172367Y-84092795D01*
X64370196Y-84290623D01*
X64373938Y-84294531D01*
X64396038Y-84318649D01*
X64399601Y-84322712D01*
X64427602Y-84356079D01*
X64430988Y-84360298D01*
X64450925Y-84386278D01*
X64454128Y-84390646D01*
X64614604Y-84619831D01*
X64617609Y-84624328D01*
X64635192Y-84651927D01*
X64637998Y-84656550D01*
X64659778Y-84694272D01*
X64662382Y-84699020D01*
X64677497Y-84728057D01*
X64679889Y-84732907D01*
X64798126Y-84986465D01*
X64800304Y-84991416D01*
X64812822Y-85021636D01*
X64814782Y-85026674D01*
X64829682Y-85067605D01*
X64831422Y-85072729D01*
X64841271Y-85103962D01*
X64842786Y-85109160D01*
X64893118Y-85297000D01*
X65104000Y-85297000D01*
X65104000Y-84954135D01*
X66340500Y-84954135D01*
X66340500Y-86749870D01*
X66340501Y-86749876D01*
X66346908Y-86809483D01*
X66397202Y-86944328D01*
X66397206Y-86944335D01*
X66483452Y-87059544D01*
X66483455Y-87059547D01*
X66598664Y-87145793D01*
X66598671Y-87145797D01*
X66733517Y-87196091D01*
X66733516Y-87196091D01*
X66740444Y-87196835D01*
X66793127Y-87202500D01*
X68588872Y-87202499D01*
X68648483Y-87196091D01*
X68783331Y-87145796D01*
X68898546Y-87059546D01*
X68984796Y-86944331D01*
X69034002Y-86812401D01*
X69075872Y-86756468D01*
X69141337Y-86732050D01*
X69209610Y-86746901D01*
X69237865Y-86768053D01*
X69359917Y-86890105D01*
X69553421Y-87025600D01*
X69767507Y-87125429D01*
X69767516Y-87125433D01*
X69981000Y-87182634D01*
X69981000Y-86285012D01*
X70038007Y-86317925D01*
X70165174Y-86352000D01*
X70296826Y-86352000D01*
X70423993Y-86317925D01*
X70481000Y-86285012D01*
X70481000Y-87182633D01*
X70694483Y-87125433D01*
X70694492Y-87125429D01*
X70908578Y-87025600D01*
X71102082Y-86890105D01*
X71269105Y-86723082D01*
X71399119Y-86537405D01*
X71453696Y-86493781D01*
X71523195Y-86486588D01*
X71585549Y-86518110D01*
X71602269Y-86537405D01*
X71732505Y-86723401D01*
X71899599Y-86890495D01*
X71996384Y-86958265D01*
X72093165Y-87026032D01*
X72093167Y-87026033D01*
X72093170Y-87026035D01*
X72307337Y-87125903D01*
X72535592Y-87187063D01*
X72712034Y-87202500D01*
X72770999Y-87207659D01*
X72771000Y-87207659D01*
X72771001Y-87207659D01*
X72829966Y-87202500D01*
X73006408Y-87187063D01*
X73234663Y-87125903D01*
X73448830Y-87026035D01*
X73642401Y-86890495D01*
X73809495Y-86723401D01*
X73939425Y-86537842D01*
X73994002Y-86494217D01*
X74063500Y-86487023D01*
X74125855Y-86518546D01*
X74142575Y-86537842D01*
X74272500Y-86723395D01*
X74272505Y-86723401D01*
X74439599Y-86890495D01*
X74536384Y-86958265D01*
X74633165Y-87026032D01*
X74633167Y-87026033D01*
X74633170Y-87026035D01*
X74847337Y-87125903D01*
X75075592Y-87187063D01*
X75252034Y-87202500D01*
X75310999Y-87207659D01*
X75311000Y-87207659D01*
X75311001Y-87207659D01*
X75369966Y-87202500D01*
X75546408Y-87187063D01*
X75774663Y-87125903D01*
X75988830Y-87026035D01*
X76182401Y-86890495D01*
X76312896Y-86760000D01*
X78602000Y-86760000D01*
X80104000Y-86760000D01*
X80104000Y-86295000D01*
X78602000Y-86295000D01*
X78602000Y-86760000D01*
X76312896Y-86760000D01*
X76349495Y-86723401D01*
X76485035Y-86529830D01*
X76584903Y-86315663D01*
X76646063Y-86087408D01*
X76666659Y-85852000D01*
X76646063Y-85616592D01*
X76584903Y-85388337D01*
X76485035Y-85174171D01*
X76479731Y-85166595D01*
X76349494Y-84980597D01*
X76182402Y-84813506D01*
X76182395Y-84813501D01*
X75988834Y-84677967D01*
X75988830Y-84677965D01*
X75988828Y-84677964D01*
X75774663Y-84578097D01*
X75774659Y-84578096D01*
X75774655Y-84578094D01*
X75546413Y-84516938D01*
X75546403Y-84516936D01*
X75311001Y-84496341D01*
X75310999Y-84496341D01*
X75075596Y-84516936D01*
X75075586Y-84516938D01*
X74847344Y-84578094D01*
X74847335Y-84578098D01*
X74633171Y-84677964D01*
X74633169Y-84677965D01*
X74439597Y-84813505D01*
X74272505Y-84980597D01*
X74142575Y-85166158D01*
X74087998Y-85209783D01*
X74018500Y-85216977D01*
X73956145Y-85185454D01*
X73939425Y-85166158D01*
X73809494Y-84980597D01*
X73642402Y-84813506D01*
X73642395Y-84813501D01*
X73448834Y-84677967D01*
X73448830Y-84677965D01*
X73448828Y-84677964D01*
X73234663Y-84578097D01*
X73234659Y-84578096D01*
X73234655Y-84578094D01*
X73006413Y-84516938D01*
X73006403Y-84516936D01*
X72771001Y-84496341D01*
X72770999Y-84496341D01*
X72535596Y-84516936D01*
X72535586Y-84516938D01*
X72307344Y-84578094D01*
X72307335Y-84578098D01*
X72093171Y-84677964D01*
X72093169Y-84677965D01*
X71899597Y-84813505D01*
X71732508Y-84980594D01*
X71602269Y-85166595D01*
X71547692Y-85210219D01*
X71478193Y-85217412D01*
X71415839Y-85185890D01*
X71399119Y-85166594D01*
X71269113Y-84980926D01*
X71269108Y-84980920D01*
X71102082Y-84813894D01*
X70908578Y-84678399D01*
X70694492Y-84578570D01*
X70694486Y-84578567D01*
X70481000Y-84521364D01*
X70481000Y-85418988D01*
X70423993Y-85386075D01*
X70296826Y-85352000D01*
X70165174Y-85352000D01*
X70038007Y-85386075D01*
X69981000Y-85418988D01*
X69981000Y-84521364D01*
X69980999Y-84521364D01*
X69767513Y-84578567D01*
X69767507Y-84578570D01*
X69553422Y-84678399D01*
X69553420Y-84678400D01*
X69359926Y-84813886D01*
X69237865Y-84935947D01*
X69176542Y-84969431D01*
X69106850Y-84964447D01*
X69050917Y-84922575D01*
X69034002Y-84891598D01*
X69032406Y-84887320D01*
X69005021Y-84813894D01*
X68984797Y-84759671D01*
X68984793Y-84759664D01*
X68898547Y-84644455D01*
X68898544Y-84644452D01*
X68783335Y-84558206D01*
X68783328Y-84558202D01*
X68648482Y-84507908D01*
X68648483Y-84507908D01*
X68588883Y-84501501D01*
X68588881Y-84501500D01*
X68588873Y-84501500D01*
X68588864Y-84501500D01*
X66793129Y-84501500D01*
X66793123Y-84501501D01*
X66733516Y-84507908D01*
X66598671Y-84558202D01*
X66598664Y-84558206D01*
X66483455Y-84644452D01*
X66483452Y-84644455D01*
X66397206Y-84759664D01*
X66397202Y-84759671D01*
X66346908Y-84894517D01*
X66340501Y-84954116D01*
X66340500Y-84954135D01*
X65104000Y-84954135D01*
X65104000Y-83795000D01*
X76454275Y-83795000D01*
X76464209Y-83800171D01*
X76468949Y-83802771D01*
X76506673Y-83824549D01*
X76511302Y-83827358D01*
X76538916Y-83844950D01*
X76543415Y-83847956D01*
X76772678Y-84008488D01*
X76777042Y-84011689D01*
X76803022Y-84031625D01*
X76807243Y-84035012D01*
X76840610Y-84063012D01*
X76844678Y-84066580D01*
X76868794Y-84088680D01*
X76872698Y-84092418D01*
X77070590Y-84290309D01*
X77074330Y-84294216D01*
X77096449Y-84318354D01*
X77100020Y-84322426D01*
X77128018Y-84355795D01*
X77131403Y-84360012D01*
X77151323Y-84385973D01*
X77154521Y-84390335D01*
X77315040Y-84619581D01*
X77318046Y-84624080D01*
X77335628Y-84651679D01*
X77338433Y-84656301D01*
X77360212Y-84694022D01*
X77362814Y-84698765D01*
X77377930Y-84727801D01*
X77380324Y-84732655D01*
X77498598Y-84986292D01*
X77500777Y-84991244D01*
X77513295Y-85021465D01*
X77515253Y-85026500D01*
X77530154Y-85067432D01*
X77531895Y-85072560D01*
X77541744Y-85103795D01*
X77543259Y-85108992D01*
X77593634Y-85297000D01*
X77604000Y-85297000D01*
X78602000Y-85297000D01*
X80104000Y-85297000D01*
X80104000Y-83795000D01*
X78602000Y-83795000D01*
X78602000Y-85297000D01*
X77604000Y-85297000D01*
X77604000Y-83795000D01*
X76454275Y-83795000D01*
X65104000Y-83795000D01*
X63753189Y-83795000D01*
X40104000Y-83795000D01*
X39478000Y-83795000D01*
X39478000Y-84817546D01*
X38354000Y-84817546D01*
X38354000Y-82797000D01*
X39478000Y-82797000D01*
X40104000Y-82797000D01*
X40104000Y-81361499D01*
X41102000Y-81361499D01*
X41102000Y-82797000D01*
X42604000Y-82797000D01*
X42604000Y-82792073D01*
X48602000Y-82792073D01*
X48602000Y-82797000D01*
X50104000Y-82797000D01*
X53939747Y-82797000D01*
X55104000Y-82797000D01*
X56102000Y-82797000D01*
X57604000Y-82797000D01*
X58602000Y-82797000D01*
X60104000Y-82797000D01*
X60104000Y-82073499D01*
X59013752Y-82073500D01*
X59010428Y-82073455D01*
X58990326Y-82072916D01*
X58987006Y-82072783D01*
X58960320Y-82071351D01*
X58957011Y-82071129D01*
X58937018Y-82069519D01*
X58933715Y-82069208D01*
X58829825Y-82058038D01*
X58822157Y-82056971D01*
X58775971Y-82049064D01*
X58768381Y-82047519D01*
X58707670Y-82033174D01*
X58700191Y-82031158D01*
X58655328Y-82017550D01*
X58647988Y-82015071D01*
X58602000Y-81997918D01*
X58602000Y-82797000D01*
X57604000Y-82797000D01*
X57604000Y-81295000D01*
X56102000Y-81295000D01*
X56102000Y-82797000D01*
X55104000Y-82797000D01*
X55104000Y-81851665D01*
X55099087Y-81862202D01*
X55095849Y-81868649D01*
X55075131Y-81907074D01*
X55071524Y-81913322D01*
X54948983Y-82111993D01*
X54945018Y-82118021D01*
X54919978Y-82153781D01*
X54915670Y-82159567D01*
X54879640Y-82205133D01*
X54875003Y-82210659D01*
X54845992Y-82243257D01*
X54841044Y-82248501D01*
X54676001Y-82413544D01*
X54670757Y-82418492D01*
X54638159Y-82447503D01*
X54632633Y-82452140D01*
X54587067Y-82488170D01*
X54581281Y-82492478D01*
X54545521Y-82517518D01*
X54539493Y-82521483D01*
X54340822Y-82644024D01*
X54334574Y-82647631D01*
X54296149Y-82668349D01*
X54289703Y-82671586D01*
X54237057Y-82696134D01*
X54230433Y-82698991D01*
X54189882Y-82715100D01*
X54183107Y-82717566D01*
X53963264Y-82790416D01*
X53956787Y-82792368D01*
X53939747Y-82797000D01*
X50104000Y-82797000D01*
X50104000Y-82485701D01*
X50062056Y-82452536D01*
X50056529Y-82447898D01*
X50023931Y-82418887D01*
X50018687Y-82413939D01*
X49853561Y-82248813D01*
X49848613Y-82243569D01*
X49819602Y-82210971D01*
X49814964Y-82205444D01*
X49778934Y-82159877D01*
X49774628Y-82154093D01*
X49749587Y-82118333D01*
X49745621Y-82112303D01*
X49668750Y-81987674D01*
X49591879Y-82112303D01*
X49587913Y-82118333D01*
X49562872Y-82154093D01*
X49558566Y-82159877D01*
X49522536Y-82205444D01*
X49517898Y-82210971D01*
X49488887Y-82243569D01*
X49483939Y-82248813D01*
X49318813Y-82413939D01*
X49313569Y-82418887D01*
X49280971Y-82447898D01*
X49275444Y-82452536D01*
X49229877Y-82488566D01*
X49224093Y-82492872D01*
X49188333Y-82517913D01*
X49182303Y-82521879D01*
X48983532Y-82644481D01*
X48977285Y-82648088D01*
X48938860Y-82668806D01*
X48932413Y-82672044D01*
X48879768Y-82696591D01*
X48873146Y-82699447D01*
X48832596Y-82715556D01*
X48825820Y-82718022D01*
X48605863Y-82790909D01*
X48602000Y-82792073D01*
X42604000Y-82792073D01*
X42604000Y-81295000D01*
X42034651Y-81295000D01*
X42013017Y-81303069D01*
X42005679Y-81305548D01*
X41960828Y-81319153D01*
X41953352Y-81321168D01*
X41892637Y-81335516D01*
X41885045Y-81337061D01*
X41838840Y-81344972D01*
X41831167Y-81346041D01*
X41727244Y-81357212D01*
X41723939Y-81357522D01*
X41703899Y-81359135D01*
X41700578Y-81359358D01*
X41673895Y-81360786D01*
X41670582Y-81360919D01*
X41650534Y-81361455D01*
X41647220Y-81361499D01*
X41102000Y-81361499D01*
X40104000Y-81361499D01*
X39478000Y-81361499D01*
X39478000Y-82797000D01*
X38354000Y-82797000D01*
X38354000Y-70965135D01*
X38685500Y-70965135D01*
X38685500Y-74385870D01*
X38685501Y-74385876D01*
X38691908Y-74445483D01*
X38742202Y-74580328D01*
X38742206Y-74580335D01*
X38828452Y-74695544D01*
X38828455Y-74695547D01*
X38943664Y-74781793D01*
X38943671Y-74781797D01*
X39078517Y-74832091D01*
X39078516Y-74832091D01*
X39085444Y-74832835D01*
X39138127Y-74838500D01*
X41633872Y-74838499D01*
X41641750Y-74837651D01*
X41702881Y-74848677D01*
X41703585Y-74846980D01*
X41709214Y-74849311D01*
X41709215Y-74849312D01*
X41773004Y-74875734D01*
X41823048Y-74896463D01*
X41872021Y-74906204D01*
X41943891Y-74920499D01*
X41943892Y-74920500D01*
X41943893Y-74920500D01*
X41943894Y-74920500D01*
X45511923Y-74920500D01*
X45578962Y-74940185D01*
X45624717Y-74992989D01*
X45634661Y-75062147D01*
X45626484Y-75091952D01*
X45584282Y-75193837D01*
X45584281Y-75193841D01*
X45569500Y-75306105D01*
X45569500Y-75686084D01*
X45549815Y-75753123D01*
X45533180Y-75773765D01*
X44341269Y-76965678D01*
X44341267Y-76965680D01*
X44313340Y-76993607D01*
X44254142Y-77052804D01*
X44248571Y-77061142D01*
X44222273Y-77100500D01*
X44192338Y-77145300D01*
X44185686Y-77155255D01*
X44185685Y-77155257D01*
X44165585Y-77203785D01*
X44138538Y-77269082D01*
X44138535Y-77269092D01*
X44132524Y-77299311D01*
X44132525Y-77299312D01*
X44114642Y-77389220D01*
X44114624Y-77389306D01*
X44114501Y-77389919D01*
X44114500Y-77389935D01*
X44114500Y-77451000D01*
X44094815Y-77518039D01*
X44042011Y-77563794D01*
X43990500Y-77575000D01*
X42210499Y-77575000D01*
X42143460Y-77555315D01*
X42097705Y-77502511D01*
X42086499Y-77451000D01*
X42086499Y-76490129D01*
X42086498Y-76490123D01*
X42086497Y-76490116D01*
X42080091Y-76430517D01*
X42040417Y-76324146D01*
X42029797Y-76295671D01*
X42029793Y-76295664D01*
X41943547Y-76180455D01*
X41943544Y-76180452D01*
X41828335Y-76094206D01*
X41828328Y-76094202D01*
X41693482Y-76043908D01*
X41693483Y-76043908D01*
X41633883Y-76037501D01*
X41633881Y-76037500D01*
X41633873Y-76037500D01*
X41633864Y-76037500D01*
X39138129Y-76037500D01*
X39138123Y-76037501D01*
X39078516Y-76043908D01*
X38943671Y-76094202D01*
X38943664Y-76094206D01*
X38828455Y-76180452D01*
X38828452Y-76180455D01*
X38742206Y-76295664D01*
X38742202Y-76295671D01*
X38691908Y-76430517D01*
X38687251Y-76473838D01*
X38685501Y-76490123D01*
X38685500Y-76490135D01*
X38685501Y-79910870D01*
X38691908Y-79970483D01*
X38742202Y-80105328D01*
X38742206Y-80105335D01*
X38828452Y-80220544D01*
X38828455Y-80220547D01*
X38943664Y-80306793D01*
X38943671Y-80306797D01*
X39078517Y-80357091D01*
X39078516Y-80357091D01*
X39085444Y-80357835D01*
X39138127Y-80363500D01*
X41633872Y-80363499D01*
X41693483Y-80357091D01*
X41828331Y-80306796D01*
X41943546Y-80220546D01*
X42029796Y-80105331D01*
X42080091Y-79970483D01*
X42086500Y-79910873D01*
X42086500Y-78950000D01*
X42106185Y-78882961D01*
X42158989Y-78837206D01*
X42210500Y-78826000D01*
X44543107Y-78826000D01*
X44603529Y-78813981D01*
X44663952Y-78801963D01*
X44663955Y-78801961D01*
X44663958Y-78801961D01*
X44697287Y-78788154D01*
X44697286Y-78788154D01*
X44697292Y-78788152D01*
X44777786Y-78754812D01*
X44829009Y-78720584D01*
X44834643Y-78716820D01*
X44850146Y-78706461D01*
X44880233Y-78686358D01*
X44882814Y-78683776D01*
X44884501Y-78682855D01*
X44884948Y-78682489D01*
X44885017Y-78682573D01*
X44944133Y-78650289D01*
X45013825Y-78655268D01*
X45069762Y-78697135D01*
X45094183Y-78762598D01*
X45094500Y-78771453D01*
X45094500Y-79088737D01*
X45074815Y-79155776D01*
X45058181Y-79176418D01*
X44914099Y-79320500D01*
X44791270Y-79443329D01*
X44791267Y-79443332D01*
X44759115Y-79475484D01*
X44704142Y-79530456D01*
X44690624Y-79550688D01*
X44669942Y-79581641D01*
X44644884Y-79619142D01*
X44635688Y-79632904D01*
X44635686Y-79632906D01*
X44607339Y-79701342D01*
X44607340Y-79701343D01*
X44598558Y-79722546D01*
X44598557Y-79722549D01*
X44588538Y-79746736D01*
X44588535Y-79746746D01*
X44565839Y-79860850D01*
X44564500Y-79867581D01*
X44564500Y-81422421D01*
X44588535Y-81543254D01*
X44588540Y-81543271D01*
X44635685Y-81657091D01*
X44635687Y-81657094D01*
X44635688Y-81657096D01*
X44650146Y-81678733D01*
X44656146Y-81687712D01*
X44656147Y-81687714D01*
X44704141Y-81759542D01*
X44704144Y-81759546D01*
X44795586Y-81850988D01*
X44795608Y-81851008D01*
X45128206Y-82183606D01*
X45128235Y-82183637D01*
X45218454Y-82273856D01*
X45218457Y-82273858D01*
X45285259Y-82318493D01*
X45285260Y-82318495D01*
X45299537Y-82328034D01*
X45320905Y-82342312D01*
X45387586Y-82369931D01*
X45387588Y-82369933D01*
X45427830Y-82386601D01*
X45434738Y-82389463D01*
X45495161Y-82401481D01*
X45555583Y-82413500D01*
X46821107Y-82413500D01*
X46881529Y-82401481D01*
X46941952Y-82389463D01*
X46941955Y-82389461D01*
X46941958Y-82389461D01*
X46975287Y-82375654D01*
X46975286Y-82375654D01*
X46975292Y-82375652D01*
X47055786Y-82342312D01*
X47107009Y-82308084D01*
X47158233Y-82273858D01*
X47245358Y-82186733D01*
X47245359Y-82186731D01*
X47252425Y-82179665D01*
X47252428Y-82179661D01*
X47550272Y-81881816D01*
X47611593Y-81848333D01*
X47637942Y-81845499D01*
X48215008Y-81845499D01*
X48215016Y-81845498D01*
X48215019Y-81845498D01*
X48271302Y-81839748D01*
X48317797Y-81834999D01*
X48484334Y-81779814D01*
X48633656Y-81687712D01*
X48757712Y-81563656D01*
X48849814Y-81414334D01*
X48904999Y-81247797D01*
X48915500Y-81145009D01*
X48915499Y-80144992D01*
X48909620Y-80087444D01*
X48904999Y-80042203D01*
X48904998Y-80042200D01*
X48879949Y-79966607D01*
X48849814Y-79875666D01*
X48757712Y-79726344D01*
X48633656Y-79602288D01*
X48499968Y-79519829D01*
X48484336Y-79510187D01*
X48484331Y-79510185D01*
X48482862Y-79509698D01*
X48317797Y-79455001D01*
X48317795Y-79455000D01*
X48215010Y-79444500D01*
X47589998Y-79444500D01*
X47589980Y-79444501D01*
X47487203Y-79455000D01*
X47487200Y-79455001D01*
X47320668Y-79510185D01*
X47320663Y-79510187D01*
X47171345Y-79602287D01*
X47077327Y-79696305D01*
X47016003Y-79729789D01*
X46946312Y-79724805D01*
X46901965Y-79696304D01*
X46808345Y-79602684D01*
X46659124Y-79510643D01*
X46659119Y-79510641D01*
X46492697Y-79455494D01*
X46492690Y-79455493D01*
X46456896Y-79451836D01*
X46392204Y-79425439D01*
X46352054Y-79368257D01*
X46345500Y-79328478D01*
X46345500Y-79024499D01*
X46365185Y-78957460D01*
X46417989Y-78911705D01*
X46469500Y-78900499D01*
X48003888Y-78900499D01*
X48116151Y-78885720D01*
X48116150Y-78885720D01*
X48116159Y-78885719D01*
X48255853Y-78827856D01*
X48375810Y-78735810D01*
X48375812Y-78735806D01*
X48381180Y-78731688D01*
X48432477Y-78708446D01*
X48442452Y-78706463D01*
X48442458Y-78706460D01*
X48442460Y-78706460D01*
X48475787Y-78692654D01*
X48475786Y-78692654D01*
X48475792Y-78692652D01*
X48556286Y-78659312D01*
X48621325Y-78615853D01*
X48658733Y-78590858D01*
X48745858Y-78503733D01*
X48745858Y-78503731D01*
X48756066Y-78493524D01*
X48756069Y-78493520D01*
X48842773Y-78406818D01*
X48904096Y-78373333D01*
X48930453Y-78370500D01*
X48989644Y-78370500D01*
X48989646Y-78370500D01*
X49174803Y-78331144D01*
X49347730Y-78254151D01*
X49500871Y-78142888D01*
X49627533Y-78002216D01*
X49722179Y-77838284D01*
X49780674Y-77658256D01*
X49800460Y-77470000D01*
X49780674Y-77281744D01*
X49722179Y-77101716D01*
X49627533Y-76937784D01*
X49500871Y-76797112D01*
X49495364Y-76793111D01*
X49347734Y-76685851D01*
X49347729Y-76685848D01*
X49174807Y-76608857D01*
X49174802Y-76608855D01*
X49029001Y-76577865D01*
X48989646Y-76569500D01*
X48800354Y-76569500D01*
X48800353Y-76569500D01*
X48677936Y-76595520D01*
X48608269Y-76590204D01*
X48552536Y-76548067D01*
X48529217Y-76490413D01*
X48525719Y-76463841D01*
X48478210Y-76349144D01*
X48467856Y-76324146D01*
X48430518Y-76275487D01*
X48405323Y-76210318D01*
X48419361Y-76141873D01*
X48430518Y-76124513D01*
X48467856Y-76075853D01*
X48469406Y-76072111D01*
X48525719Y-75936159D01*
X48540500Y-75823887D01*
X48540499Y-75306114D01*
X48539974Y-75302129D01*
X48525720Y-75193848D01*
X48525719Y-75193847D01*
X48525719Y-75193841D01*
X48490026Y-75107671D01*
X48467856Y-75054146D01*
X48430518Y-75005487D01*
X48405323Y-74940318D01*
X48419361Y-74871873D01*
X48430518Y-74854513D01*
X48467856Y-74805853D01*
X48485635Y-74762930D01*
X48525719Y-74666159D01*
X48540500Y-74553887D01*
X48540499Y-74036136D01*
X50520000Y-74036136D01*
X50520000Y-74045000D01*
X51755000Y-74045000D01*
X51755000Y-73500000D01*
X51056136Y-73500000D01*
X50943971Y-73514768D01*
X50943967Y-73514769D01*
X50804401Y-73572578D01*
X50684547Y-73664547D01*
X50592578Y-73784401D01*
X50534769Y-73923967D01*
X50534768Y-73923971D01*
X50520000Y-74036136D01*
X48540499Y-74036136D01*
X48540499Y-74036114D01*
X48539468Y-74028284D01*
X48525720Y-73923848D01*
X48525719Y-73923847D01*
X48525719Y-73923841D01*
X48487143Y-73830711D01*
X48467857Y-73784149D01*
X48467856Y-73784148D01*
X48467856Y-73784147D01*
X48375810Y-73664190D01*
X48255853Y-73572144D01*
X48255852Y-73572143D01*
X48255850Y-73572142D01*
X48116162Y-73514282D01*
X48116160Y-73514281D01*
X48116159Y-73514281D01*
X48003887Y-73499500D01*
X46106111Y-73499500D01*
X45993848Y-73514279D01*
X45993837Y-73514282D01*
X45854147Y-73572143D01*
X45760663Y-73643876D01*
X45695494Y-73669070D01*
X45685177Y-73669500D01*
X42315952Y-73669500D01*
X42248913Y-73649815D01*
X42228271Y-73633181D01*
X42122818Y-73527728D01*
X42089333Y-73466405D01*
X42086499Y-73440047D01*
X42086499Y-72671500D01*
X43602000Y-72671500D01*
X45104000Y-72671500D01*
X45104000Y-72635294D01*
X48602000Y-72635294D01*
X48667959Y-72662616D01*
X48675350Y-72665965D01*
X48719385Y-72687681D01*
X48726539Y-72691505D01*
X48783143Y-72724184D01*
X48790034Y-72728469D01*
X48830870Y-72755754D01*
X48837468Y-72760481D01*
X48885060Y-72797000D01*
X50104000Y-72797000D01*
X50104000Y-71295000D01*
X48602000Y-71295000D01*
X48602000Y-72635294D01*
X45104000Y-72635294D01*
X45104000Y-72283500D01*
X46102000Y-72283500D01*
X46102000Y-72501500D01*
X47604000Y-72501500D01*
X47604000Y-71933547D01*
X47568748Y-71960891D01*
X47562445Y-71965471D01*
X47523461Y-71991963D01*
X47516886Y-71996135D01*
X47321423Y-72111731D01*
X47314599Y-72115483D01*
X47272611Y-72136878D01*
X47265564Y-72140194D01*
X47207984Y-72165113D01*
X47200739Y-72167982D01*
X47156374Y-72183955D01*
X47148964Y-72186362D01*
X46936535Y-72248079D01*
X46930414Y-72249690D01*
X46893149Y-72258482D01*
X46886957Y-72259777D01*
X46836817Y-72268936D01*
X46830561Y-72269914D01*
X46792574Y-72274865D01*
X46786276Y-72275523D01*
X46706868Y-72281772D01*
X46702003Y-72282059D01*
X46667706Y-72283405D01*
X46662843Y-72283500D01*
X46102000Y-72283500D01*
X45104000Y-72283500D01*
X45104000Y-72277905D01*
X45073724Y-72275523D01*
X45067426Y-72274865D01*
X45029439Y-72269914D01*
X45023183Y-72268936D01*
X44973043Y-72259777D01*
X44966851Y-72258482D01*
X44929586Y-72249690D01*
X44923465Y-72248079D01*
X44711036Y-72186362D01*
X44703626Y-72183955D01*
X44659261Y-72167982D01*
X44652016Y-72165113D01*
X44594436Y-72140194D01*
X44587389Y-72136878D01*
X44545401Y-72115483D01*
X44538577Y-72111731D01*
X44343114Y-71996135D01*
X44336539Y-71991963D01*
X44297555Y-71965471D01*
X44291252Y-71960891D01*
X44241675Y-71922436D01*
X44235672Y-71917470D01*
X44200307Y-71886292D01*
X44194628Y-71880959D01*
X44034041Y-71720372D01*
X44028708Y-71714693D01*
X43997530Y-71679328D01*
X43992563Y-71673324D01*
X43954109Y-71623747D01*
X43949532Y-71617448D01*
X43923039Y-71578465D01*
X43918865Y-71571888D01*
X43915899Y-71566873D01*
X43644026Y-71295000D01*
X43602000Y-71295000D01*
X43602000Y-72671500D01*
X42086499Y-72671500D01*
X42086499Y-70965129D01*
X42086498Y-70965123D01*
X42086497Y-70965116D01*
X42080091Y-70905517D01*
X42077105Y-70897512D01*
X42029797Y-70770671D01*
X42029793Y-70770664D01*
X41943547Y-70655455D01*
X41943544Y-70655452D01*
X41828335Y-70569206D01*
X41828328Y-70569202D01*
X41693482Y-70518908D01*
X41693483Y-70518908D01*
X41633883Y-70512501D01*
X41633881Y-70512500D01*
X41633873Y-70512500D01*
X41633864Y-70512500D01*
X39138129Y-70512500D01*
X39138123Y-70512501D01*
X39078516Y-70518908D01*
X38943671Y-70569202D01*
X38943664Y-70569206D01*
X38828455Y-70655452D01*
X38828452Y-70655455D01*
X38742206Y-70770664D01*
X38742202Y-70770671D01*
X38691908Y-70905517D01*
X38686751Y-70953489D01*
X38685501Y-70965123D01*
X38685500Y-70965135D01*
X38354000Y-70965135D01*
X38354000Y-66674999D01*
X38776341Y-66674999D01*
X38776341Y-66675000D01*
X38796936Y-66910403D01*
X38796938Y-66910413D01*
X38858094Y-67138655D01*
X38858096Y-67138659D01*
X38858097Y-67138663D01*
X38922567Y-67276919D01*
X38957965Y-67352830D01*
X38957967Y-67352834D01*
X39051757Y-67486779D01*
X39093505Y-67546401D01*
X39260599Y-67713495D01*
X39334633Y-67765334D01*
X39454165Y-67849032D01*
X39454167Y-67849033D01*
X39454170Y-67849035D01*
X39668337Y-67948903D01*
X39896592Y-68010063D01*
X40084918Y-68026539D01*
X40131999Y-68030659D01*
X40132000Y-68030659D01*
X40132001Y-68030659D01*
X40171234Y-68027226D01*
X40367408Y-68010063D01*
X40595663Y-67948903D01*
X40809830Y-67849035D01*
X41003401Y-67713495D01*
X41150975Y-67565920D01*
X41212295Y-67532438D01*
X41281986Y-67537422D01*
X41326333Y-67565922D01*
X43013298Y-69252888D01*
X44699668Y-70939258D01*
X44718719Y-70963818D01*
X44761916Y-71036861D01*
X44761923Y-71036870D01*
X44878129Y-71153076D01*
X44878133Y-71153079D01*
X44878135Y-71153081D01*
X45019602Y-71236744D01*
X45023089Y-71237757D01*
X45177426Y-71282597D01*
X45177429Y-71282597D01*
X45177431Y-71282598D01*
X45214306Y-71285500D01*
X45214314Y-71285500D01*
X46645686Y-71285500D01*
X46645694Y-71285500D01*
X46682569Y-71282598D01*
X46682571Y-71282597D01*
X46682573Y-71282597D01*
X46728864Y-71269148D01*
X46840398Y-71236744D01*
X46981865Y-71153081D01*
X47098081Y-71036865D01*
X47181744Y-70895398D01*
X47217981Y-70770671D01*
X47227597Y-70737573D01*
X47227598Y-70737567D01*
X47228534Y-70725675D01*
X47230500Y-70700694D01*
X47230500Y-70297000D01*
X48602000Y-70297000D01*
X50104000Y-70297000D01*
X50104000Y-69877015D01*
X49996327Y-69690518D01*
X49993232Y-69684817D01*
X49975409Y-69649840D01*
X49972615Y-69643983D01*
X49951350Y-69596228D01*
X49948865Y-69590229D01*
X49934780Y-69553540D01*
X49932611Y-69547416D01*
X49857957Y-69317655D01*
X49856113Y-69311429D01*
X49845944Y-69273476D01*
X49844428Y-69267160D01*
X49833561Y-69216025D01*
X49832378Y-69209645D01*
X49826236Y-69170862D01*
X49825389Y-69164427D01*
X49800139Y-68924187D01*
X49799630Y-68917717D01*
X49797574Y-68878492D01*
X49797404Y-68872001D01*
X49797404Y-68819727D01*
X49797574Y-68813236D01*
X49798530Y-68795000D01*
X48602000Y-68795000D01*
X48602000Y-70297000D01*
X47230500Y-70297000D01*
X47230500Y-70269306D01*
X47227598Y-70232431D01*
X47181744Y-70074602D01*
X47098081Y-69933135D01*
X47098078Y-69933132D01*
X47093298Y-69926969D01*
X47095635Y-69925155D01*
X47068798Y-69876050D01*
X47073756Y-69806356D01*
X47094554Y-69773998D01*
X47092903Y-69772717D01*
X47097686Y-69766550D01*
X47181281Y-69625198D01*
X47227100Y-69467486D01*
X47227295Y-69465001D01*
X47227295Y-69465000D01*
X45804000Y-69465000D01*
X45736961Y-69445315D01*
X45691206Y-69392511D01*
X45680000Y-69341000D01*
X45680000Y-68965000D01*
X46180000Y-68965000D01*
X47227295Y-68965000D01*
X47227295Y-68964998D01*
X47227100Y-68962513D01*
X47181281Y-68804801D01*
X47097685Y-68663447D01*
X47092900Y-68657278D01*
X47095252Y-68655453D01*
X47068445Y-68606405D01*
X47073402Y-68536712D01*
X47094465Y-68503936D01*
X47092900Y-68502722D01*
X47097685Y-68496552D01*
X47181281Y-68355198D01*
X47227100Y-68197486D01*
X47227295Y-68195001D01*
X47227295Y-68195000D01*
X46180000Y-68195000D01*
X46180000Y-68965000D01*
X45680000Y-68965000D01*
X45680000Y-68195000D01*
X44632705Y-68195000D01*
X44632704Y-68195001D01*
X44632899Y-68197486D01*
X44678718Y-68355198D01*
X44762314Y-68496552D01*
X44767100Y-68502722D01*
X44764753Y-68504542D01*
X44791564Y-68553642D01*
X44786580Y-68623334D01*
X44765541Y-68656069D01*
X44767100Y-68657278D01*
X44762314Y-68663447D01*
X44678717Y-68804803D01*
X44678716Y-68804806D01*
X44659699Y-68870264D01*
X44622093Y-68929150D01*
X44558621Y-68958356D01*
X44489434Y-68948610D01*
X44452942Y-68923350D01*
X43326591Y-67797000D01*
X48602000Y-67797000D01*
X50104000Y-67797000D01*
X50104000Y-66424998D01*
X51832704Y-66424998D01*
X51832705Y-66425000D01*
X52880000Y-66425000D01*
X52880000Y-65875000D01*
X52414350Y-65875000D01*
X52377510Y-65877899D01*
X52377504Y-65877900D01*
X52219806Y-65923716D01*
X52219803Y-65923717D01*
X52078447Y-66007314D01*
X52078438Y-66007321D01*
X51962321Y-66123438D01*
X51962314Y-66123447D01*
X51878718Y-66264801D01*
X51832899Y-66422513D01*
X51832704Y-66424998D01*
X50104000Y-66424998D01*
X50104000Y-66295000D01*
X48602000Y-66295000D01*
X48602000Y-67797000D01*
X43326591Y-67797000D01*
X42454592Y-66925001D01*
X44632704Y-66925001D01*
X44632899Y-66927486D01*
X44678718Y-67085198D01*
X44762314Y-67226552D01*
X44767100Y-67232722D01*
X44764753Y-67234542D01*
X44791564Y-67283642D01*
X44786580Y-67353334D01*
X44765541Y-67386069D01*
X44767100Y-67387278D01*
X44762314Y-67393447D01*
X44678718Y-67534801D01*
X44632899Y-67692513D01*
X44632704Y-67694998D01*
X44632705Y-67695000D01*
X45680000Y-67695000D01*
X46180000Y-67695000D01*
X47227295Y-67695000D01*
X47227295Y-67694998D01*
X47227100Y-67692513D01*
X47181281Y-67534801D01*
X47097685Y-67393447D01*
X47092900Y-67387278D01*
X47095252Y-67385453D01*
X47068445Y-67336405D01*
X47073402Y-67266712D01*
X47094465Y-67233936D01*
X47092900Y-67232722D01*
X47097685Y-67226552D01*
X47181281Y-67085198D01*
X47227100Y-66927486D01*
X47227295Y-66925001D01*
X47227295Y-66925000D01*
X46180000Y-66925000D01*
X46180000Y-67695000D01*
X45680000Y-67695000D01*
X45680000Y-66925000D01*
X44632705Y-66925000D01*
X44632704Y-66925001D01*
X42454592Y-66925001D01*
X41954589Y-66424998D01*
X44632704Y-66424998D01*
X44632705Y-66425000D01*
X45680000Y-66425000D01*
X46180000Y-66425000D01*
X47227295Y-66425000D01*
X47227295Y-66424998D01*
X47227100Y-66422513D01*
X47181281Y-66264801D01*
X47097685Y-66123447D01*
X47097678Y-66123438D01*
X46981561Y-66007321D01*
X46981552Y-66007314D01*
X46840196Y-65923717D01*
X46840193Y-65923716D01*
X46682495Y-65877900D01*
X46682489Y-65877899D01*
X46645649Y-65875000D01*
X46180000Y-65875000D01*
X46180000Y-66425000D01*
X45680000Y-66425000D01*
X45680000Y-65875000D01*
X45214350Y-65875000D01*
X45177510Y-65877899D01*
X45177504Y-65877900D01*
X45019806Y-65923716D01*
X45019803Y-65923717D01*
X44878447Y-66007314D01*
X44878438Y-66007321D01*
X44762321Y-66123438D01*
X44762314Y-66123447D01*
X44678718Y-66264801D01*
X44632899Y-66422513D01*
X44632704Y-66424998D01*
X41954589Y-66424998D01*
X41812929Y-66283338D01*
X41812926Y-66283334D01*
X41812926Y-66283335D01*
X41805859Y-66276268D01*
X41805859Y-66276267D01*
X41718734Y-66189142D01*
X41718733Y-66189141D01*
X41718732Y-66189140D01*
X41658258Y-66148733D01*
X41616287Y-66120688D01*
X41616288Y-66120688D01*
X41616286Y-66120687D01*
X41560783Y-66097698D01*
X41535793Y-66087347D01*
X41502453Y-66073537D01*
X41502449Y-66073536D01*
X41502445Y-66073535D01*
X41390502Y-66051268D01*
X41390500Y-66051268D01*
X41385214Y-66050217D01*
X41323300Y-66017837D01*
X41307820Y-65999721D01*
X41306036Y-65997173D01*
X41306035Y-65997171D01*
X41201960Y-65848536D01*
X41170496Y-65803600D01*
X41125333Y-65758437D01*
X41048179Y-65681283D01*
X41014696Y-65619963D01*
X41019680Y-65550271D01*
X41061551Y-65494337D01*
X41092529Y-65477422D01*
X41224086Y-65428354D01*
X41224093Y-65428350D01*
X41339187Y-65342190D01*
X41339190Y-65342187D01*
X41373017Y-65297000D01*
X48602000Y-65297000D01*
X50104000Y-65297000D01*
X50104000Y-63795000D01*
X48602000Y-63795000D01*
X48602000Y-65297000D01*
X41373017Y-65297000D01*
X41425350Y-65227093D01*
X41425354Y-65227086D01*
X41475596Y-65092379D01*
X41475598Y-65092372D01*
X41481999Y-65032844D01*
X41482000Y-65032827D01*
X41482000Y-64385000D01*
X40565012Y-64385000D01*
X40597925Y-64327993D01*
X40632000Y-64200826D01*
X40632000Y-64069174D01*
X40597925Y-63942007D01*
X40565012Y-63885000D01*
X41482000Y-63885000D01*
X41482000Y-63237172D01*
X41481999Y-63237155D01*
X41475598Y-63177627D01*
X41475596Y-63177620D01*
X41425354Y-63042913D01*
X41425350Y-63042906D01*
X41339190Y-62927812D01*
X41339187Y-62927809D01*
X41224093Y-62841649D01*
X41224086Y-62841645D01*
X41089379Y-62791403D01*
X41089372Y-62791401D01*
X41029844Y-62785000D01*
X40382000Y-62785000D01*
X40382000Y-63701988D01*
X40324993Y-63669075D01*
X40197826Y-63635000D01*
X40066174Y-63635000D01*
X39939007Y-63669075D01*
X39882000Y-63701988D01*
X39882000Y-62785000D01*
X39234155Y-62785000D01*
X39174627Y-62791401D01*
X39174620Y-62791403D01*
X39039913Y-62841645D01*
X39039906Y-62841649D01*
X38924812Y-62927809D01*
X38924809Y-62927812D01*
X38838649Y-63042906D01*
X38838645Y-63042913D01*
X38788403Y-63177620D01*
X38788401Y-63177627D01*
X38782000Y-63237155D01*
X38782000Y-63885000D01*
X39698988Y-63885000D01*
X39666075Y-63942007D01*
X39632000Y-64069174D01*
X39632000Y-64200826D01*
X39666075Y-64327993D01*
X39698988Y-64385000D01*
X38782000Y-64385000D01*
X38782000Y-65032844D01*
X38788401Y-65092372D01*
X38788403Y-65092379D01*
X38838645Y-65227086D01*
X38838649Y-65227093D01*
X38924809Y-65342187D01*
X38924812Y-65342190D01*
X39039906Y-65428350D01*
X39039913Y-65428354D01*
X39171470Y-65477421D01*
X39227403Y-65519292D01*
X39251821Y-65584756D01*
X39236970Y-65653029D01*
X39215819Y-65681284D01*
X39093503Y-65803600D01*
X38957965Y-65997169D01*
X38957964Y-65997171D01*
X38858098Y-66211335D01*
X38858094Y-66211344D01*
X38796938Y-66439586D01*
X38796936Y-66439596D01*
X38776341Y-66674999D01*
X38354000Y-66674999D01*
X38354000Y-61789536D01*
X41102000Y-61789536D01*
X41119905Y-61790977D01*
X41123217Y-61791289D01*
X41227069Y-61802455D01*
X41234738Y-61803522D01*
X41280916Y-61811428D01*
X41288501Y-61812972D01*
X41349212Y-61827315D01*
X41356695Y-61829332D01*
X41401564Y-61842942D01*
X41408904Y-61845421D01*
X41606261Y-61919030D01*
X41614441Y-61922419D01*
X41663177Y-61944677D01*
X41671091Y-61948638D01*
X41733681Y-61982815D01*
X41741295Y-61987333D01*
X41786362Y-62016297D01*
X41793632Y-62021345D01*
X41965816Y-62150243D01*
X41972707Y-62155796D01*
X42013192Y-62190876D01*
X42019671Y-62196908D01*
X42070092Y-62247329D01*
X42076124Y-62253808D01*
X42111204Y-62294293D01*
X42116757Y-62301184D01*
X42245655Y-62473368D01*
X42250703Y-62480638D01*
X42279667Y-62525705D01*
X42284185Y-62533319D01*
X42318362Y-62595909D01*
X42322323Y-62603823D01*
X42344581Y-62652559D01*
X42347970Y-62660739D01*
X42398792Y-62797000D01*
X42548092Y-62797000D01*
X42546710Y-62770628D01*
X42546540Y-62764137D01*
X42546540Y-62711863D01*
X42546710Y-62705372D01*
X42548766Y-62666147D01*
X42549275Y-62659677D01*
X42574525Y-62419437D01*
X42575372Y-62413002D01*
X42581514Y-62374219D01*
X42582697Y-62367839D01*
X42593564Y-62316704D01*
X42595080Y-62310388D01*
X42604000Y-62277096D01*
X42604000Y-61295000D01*
X41102000Y-61295000D01*
X41102000Y-61789536D01*
X38354000Y-61789536D01*
X38354000Y-61520914D01*
X38373685Y-61453875D01*
X38392200Y-61431390D01*
X39575912Y-60297000D01*
X41200412Y-60297000D01*
X42604000Y-60297000D01*
X42604000Y-59671000D01*
X41853630Y-59671000D01*
X41200412Y-60297000D01*
X39575912Y-60297000D01*
X40470175Y-59439998D01*
X44632704Y-59439998D01*
X44632705Y-59440000D01*
X45680000Y-59440000D01*
X46180000Y-59440000D01*
X47227295Y-59440000D01*
X47227295Y-59439998D01*
X51832704Y-59439998D01*
X51832705Y-59440000D01*
X52880000Y-59440000D01*
X53380000Y-59440000D01*
X54427295Y-59440000D01*
X54427295Y-59439998D01*
X54427100Y-59437513D01*
X54381281Y-59279801D01*
X54297685Y-59138447D01*
X54297678Y-59138438D01*
X54181561Y-59022321D01*
X54181552Y-59022314D01*
X54040196Y-58938717D01*
X54040193Y-58938716D01*
X53882495Y-58892900D01*
X53882489Y-58892899D01*
X53845649Y-58890000D01*
X53380000Y-58890000D01*
X53380000Y-59440000D01*
X52880000Y-59440000D01*
X52880000Y-58890000D01*
X52414350Y-58890000D01*
X52377510Y-58892899D01*
X52377504Y-58892900D01*
X52219806Y-58938716D01*
X52219803Y-58938717D01*
X52078447Y-59022314D01*
X52078438Y-59022321D01*
X51962321Y-59138438D01*
X51962314Y-59138447D01*
X51878718Y-59279801D01*
X51832899Y-59437513D01*
X51832704Y-59439998D01*
X47227295Y-59439998D01*
X47227100Y-59437513D01*
X47181281Y-59279801D01*
X47097685Y-59138447D01*
X47097678Y-59138438D01*
X46981561Y-59022321D01*
X46981552Y-59022314D01*
X46840196Y-58938717D01*
X46840193Y-58938716D01*
X46682495Y-58892900D01*
X46682489Y-58892899D01*
X46645649Y-58890000D01*
X46180000Y-58890000D01*
X46180000Y-59440000D01*
X45680000Y-59440000D01*
X45680000Y-58890000D01*
X45214350Y-58890000D01*
X45177510Y-58892899D01*
X45177504Y-58892900D01*
X45019806Y-58938716D01*
X45019803Y-58938717D01*
X44878447Y-59022314D01*
X44878438Y-59022321D01*
X44762321Y-59138438D01*
X44762314Y-59138447D01*
X44678718Y-59279801D01*
X44632899Y-59437513D01*
X44632704Y-59439998D01*
X40470175Y-59439998D01*
X41366028Y-58581472D01*
X41428049Y-58549301D01*
X41451824Y-58547000D01*
X56534425Y-58547000D01*
X56601464Y-58566685D01*
G37*
%TD.AperFunction*%
%TA.AperFunction,Conductor*%
G36*
X71520834Y-64420548D02*
G01*
X71565181Y-64449049D01*
X71658844Y-64542712D01*
X71808166Y-64634814D01*
X71974703Y-64689999D01*
X72077491Y-64700500D01*
X72654547Y-64700499D01*
X72721586Y-64720183D01*
X72742228Y-64736818D01*
X72926016Y-64920606D01*
X72926045Y-64920637D01*
X73016262Y-65010854D01*
X73016265Y-65010856D01*
X73016267Y-65010858D01*
X73059133Y-65039500D01*
X73118715Y-65079312D01*
X73125301Y-65082040D01*
X73179705Y-65125876D01*
X73201774Y-65192169D01*
X73184499Y-65259869D01*
X73150739Y-65296920D01*
X73054127Y-65367113D01*
X72927466Y-65507785D01*
X72832821Y-65671715D01*
X72832818Y-65671722D01*
X72779273Y-65836518D01*
X72774326Y-65851744D01*
X72754540Y-66040000D01*
X72774326Y-66228256D01*
X72774327Y-66228259D01*
X72832818Y-66408277D01*
X72832823Y-66408289D01*
X72926333Y-66570254D01*
X72942806Y-66638154D01*
X72919953Y-66704181D01*
X72865032Y-66747371D01*
X72806343Y-66755611D01*
X72702486Y-66745000D01*
X72640000Y-66745000D01*
X72640000Y-67695000D01*
X74501000Y-67695000D01*
X74568039Y-67714685D01*
X74613794Y-67767489D01*
X74625000Y-67819000D01*
X74625000Y-69144999D01*
X74687472Y-69144999D01*
X74687486Y-69144998D01*
X74790197Y-69134505D01*
X74956619Y-69079358D01*
X74956624Y-69079356D01*
X75105842Y-68987317D01*
X75199464Y-68893695D01*
X75260787Y-68860210D01*
X75330479Y-68865194D01*
X75374827Y-68893695D01*
X75468844Y-68987712D01*
X75618166Y-69079814D01*
X75784703Y-69134999D01*
X75887491Y-69145500D01*
X76512508Y-69145499D01*
X76512516Y-69145498D01*
X76512519Y-69145498D01*
X76568802Y-69139748D01*
X76615297Y-69134999D01*
X76781834Y-69079814D01*
X76886035Y-69015542D01*
X76953426Y-68997103D01*
X77020089Y-69018026D01*
X77038811Y-69033401D01*
X78669762Y-70664352D01*
X78703247Y-70725675D01*
X78701856Y-70784126D01*
X78674938Y-70884586D01*
X78674936Y-70884596D01*
X78654341Y-71119999D01*
X78654341Y-71120000D01*
X78674936Y-71355403D01*
X78674938Y-71355413D01*
X78736094Y-71583655D01*
X78736096Y-71583659D01*
X78736097Y-71583663D01*
X78815993Y-71755000D01*
X78835965Y-71797830D01*
X78835967Y-71797834D01*
X78899909Y-71889152D01*
X78971505Y-71991401D01*
X79138599Y-72158495D01*
X79235384Y-72226265D01*
X79332165Y-72294032D01*
X79332167Y-72294033D01*
X79332170Y-72294035D01*
X79546337Y-72393903D01*
X79774592Y-72455063D01*
X79903945Y-72466380D01*
X79969013Y-72491833D01*
X80009992Y-72548423D01*
X80013870Y-72618185D01*
X79980818Y-72677589D01*
X78240229Y-74418181D01*
X78178906Y-74451666D01*
X78152548Y-74454500D01*
X74434880Y-74454500D01*
X74367841Y-74434815D01*
X74322086Y-74382011D01*
X74312142Y-74312853D01*
X74341167Y-74249297D01*
X74342730Y-74247528D01*
X74349657Y-74239834D01*
X74392533Y-74192216D01*
X74487179Y-74028284D01*
X74545674Y-73848256D01*
X74565460Y-73660000D01*
X74562779Y-73634494D01*
X74575348Y-73565765D01*
X74623080Y-73514741D01*
X74638632Y-73506979D01*
X74681286Y-73489312D01*
X74732509Y-73455084D01*
X74783733Y-73420858D01*
X74870858Y-73333733D01*
X74870859Y-73333731D01*
X74877925Y-73326665D01*
X74877927Y-73326661D01*
X76782771Y-71421819D01*
X76844094Y-71388334D01*
X76870452Y-71385500D01*
X76929644Y-71385500D01*
X76929646Y-71385500D01*
X77114803Y-71346144D01*
X77287730Y-71269151D01*
X77440871Y-71157888D01*
X77567533Y-71017216D01*
X77662179Y-70853284D01*
X77720674Y-70673256D01*
X77740460Y-70485000D01*
X77720674Y-70296744D01*
X77662179Y-70116716D01*
X77567533Y-69952784D01*
X77440871Y-69812112D01*
X77430887Y-69804858D01*
X77287734Y-69700851D01*
X77287729Y-69700848D01*
X77114807Y-69623857D01*
X77114802Y-69623855D01*
X76956599Y-69590229D01*
X76929646Y-69584500D01*
X76740354Y-69584500D01*
X76713401Y-69590229D01*
X76555197Y-69623855D01*
X76555192Y-69623857D01*
X76382270Y-69700848D01*
X76382265Y-69700851D01*
X76229129Y-69812111D01*
X76102466Y-69952785D01*
X76007821Y-70116715D01*
X76007818Y-70116722D01*
X75958241Y-70269306D01*
X75949326Y-70296744D01*
X75944049Y-70346957D01*
X75931678Y-70464651D01*
X75905093Y-70529266D01*
X75896038Y-70539370D01*
X74162229Y-72273181D01*
X74100906Y-72306666D01*
X74074548Y-72309500D01*
X73526500Y-72309500D01*
X73459461Y-72289815D01*
X73413706Y-72237011D01*
X73402500Y-72185500D01*
X73402500Y-72005000D01*
X72264000Y-72005000D01*
X72196961Y-71985315D01*
X72151206Y-71932511D01*
X72140000Y-71881000D01*
X72140000Y-71505000D01*
X72640000Y-71505000D01*
X73402499Y-71505000D01*
X73402499Y-71255028D01*
X73402498Y-71255013D01*
X73392005Y-71152302D01*
X73336858Y-70985880D01*
X73336856Y-70985875D01*
X73244815Y-70836654D01*
X73120845Y-70712684D01*
X72971624Y-70620643D01*
X72971619Y-70620641D01*
X72805197Y-70565494D01*
X72805190Y-70565493D01*
X72702486Y-70555000D01*
X72640000Y-70555000D01*
X72640000Y-71505000D01*
X72140000Y-71505000D01*
X72140000Y-70555000D01*
X72139999Y-70554999D01*
X72077528Y-70555000D01*
X72077511Y-70555001D01*
X71974802Y-70565494D01*
X71808380Y-70620641D01*
X71808375Y-70620643D01*
X71659157Y-70712682D01*
X71565534Y-70806305D01*
X71504210Y-70839789D01*
X71434519Y-70834805D01*
X71390172Y-70806304D01*
X71296157Y-70712289D01*
X71296156Y-70712288D01*
X71181048Y-70641289D01*
X71134325Y-70589342D01*
X71123102Y-70520379D01*
X71150946Y-70456297D01*
X71153957Y-70452823D01*
X71217533Y-70382216D01*
X71312179Y-70218284D01*
X71370674Y-70038256D01*
X71390460Y-69850000D01*
X71370674Y-69661744D01*
X71312179Y-69481716D01*
X71217533Y-69317784D01*
X71153997Y-69247220D01*
X71123767Y-69184228D01*
X71132392Y-69114893D01*
X71177134Y-69061228D01*
X71181051Y-69058709D01*
X71195170Y-69050000D01*
X71296156Y-68987712D01*
X71390175Y-68893692D01*
X71451494Y-68860210D01*
X71521186Y-68865194D01*
X71565534Y-68893695D01*
X71659154Y-68987315D01*
X71808375Y-69079356D01*
X71808380Y-69079358D01*
X71974802Y-69134505D01*
X71974809Y-69134506D01*
X72077519Y-69144999D01*
X72640000Y-69144999D01*
X72702472Y-69144999D01*
X72702486Y-69144998D01*
X72805197Y-69134505D01*
X72971619Y-69079358D01*
X72971624Y-69079356D01*
X73120845Y-68987315D01*
X73244817Y-68863343D01*
X73276961Y-68811230D01*
X73328909Y-68764505D01*
X73397871Y-68753282D01*
X73461954Y-68781126D01*
X73488039Y-68811230D01*
X73520182Y-68863343D01*
X73644154Y-68987315D01*
X73793375Y-69079356D01*
X73793380Y-69079358D01*
X73959802Y-69134505D01*
X73959809Y-69134506D01*
X74062519Y-69144999D01*
X74124999Y-69144998D01*
X74125000Y-69144998D01*
X74125000Y-68195000D01*
X72640000Y-68195000D01*
X72640000Y-69144999D01*
X72077519Y-69144999D01*
X72139999Y-69144998D01*
X72140000Y-69144998D01*
X72140000Y-66745000D01*
X72139999Y-66744999D01*
X72077528Y-66745000D01*
X72077511Y-66745001D01*
X71974802Y-66755494D01*
X71808380Y-66810641D01*
X71808375Y-66810643D01*
X71659157Y-66902682D01*
X71565534Y-66996305D01*
X71504210Y-67029789D01*
X71434519Y-67024805D01*
X71390172Y-66996304D01*
X71296155Y-66902287D01*
X71249402Y-66873449D01*
X71202678Y-66821500D01*
X71190500Y-66767911D01*
X71190500Y-66187741D01*
X71190501Y-66187720D01*
X71190501Y-66058391D01*
X71190500Y-66058389D01*
X71166465Y-65937557D01*
X71166464Y-65937554D01*
X71166463Y-65937553D01*
X71166463Y-65937549D01*
X71164351Y-65932451D01*
X71121390Y-65828733D01*
X71119312Y-65823715D01*
X71119309Y-65823711D01*
X71119308Y-65823708D01*
X71050858Y-65721267D01*
X71050855Y-65721263D01*
X70241771Y-64912180D01*
X70208286Y-64850857D01*
X70213270Y-64781166D01*
X70255142Y-64725232D01*
X70320606Y-64700815D01*
X70329427Y-64700499D01*
X70877508Y-64700499D01*
X70877516Y-64700498D01*
X70877519Y-64700498D01*
X70933802Y-64694748D01*
X70980297Y-64689999D01*
X71146834Y-64634814D01*
X71296156Y-64542712D01*
X71389819Y-64449049D01*
X71451142Y-64415564D01*
X71520834Y-64420548D01*
G37*
%TD.AperFunction*%
%TA.AperFunction,Conductor*%
G36*
X63060703Y-67156991D02*
G01*
X63067176Y-67163018D01*
X63492889Y-67588732D01*
X63492890Y-67588733D01*
X63580015Y-67675858D01*
X63580016Y-67675859D01*
X63682455Y-67744307D01*
X63682461Y-67744310D01*
X63682462Y-67744311D01*
X63796296Y-67791463D01*
X63818347Y-67795849D01*
X63917139Y-67815499D01*
X63917140Y-67815500D01*
X63917141Y-67815500D01*
X63917142Y-67815500D01*
X64211152Y-67815500D01*
X64278191Y-67835185D01*
X64298832Y-67851818D01*
X64459640Y-68012627D01*
X64493125Y-68073949D01*
X64488141Y-68143641D01*
X64479347Y-68162306D01*
X64450820Y-68211716D01*
X64392327Y-68391740D01*
X64392326Y-68391744D01*
X64372540Y-68580000D01*
X64392326Y-68768256D01*
X64392327Y-68768259D01*
X64450818Y-68948277D01*
X64450821Y-68948284D01*
X64526758Y-69079812D01*
X64545467Y-69112216D01*
X64619492Y-69194429D01*
X64649721Y-69257418D01*
X64641096Y-69326753D01*
X64615022Y-69365080D01*
X64281269Y-69698835D01*
X64281267Y-69698837D01*
X64247556Y-69732548D01*
X64194142Y-69785961D01*
X64185373Y-69799086D01*
X64166148Y-69827858D01*
X64125687Y-69888410D01*
X64125685Y-69888413D01*
X64095893Y-69960341D01*
X64078538Y-70002238D01*
X64078535Y-70002247D01*
X64072527Y-70032449D01*
X64072528Y-70032450D01*
X64055768Y-70116715D01*
X64055767Y-70116717D01*
X64054500Y-70123086D01*
X64054500Y-70123089D01*
X64054500Y-71726606D01*
X64074170Y-71825499D01*
X64078537Y-71847451D01*
X64125688Y-71961286D01*
X64146576Y-71992546D01*
X64146577Y-71992549D01*
X64146578Y-71992549D01*
X64194140Y-72063731D01*
X64194141Y-72063732D01*
X64194142Y-72063733D01*
X64281267Y-72150858D01*
X64281268Y-72150858D01*
X64288335Y-72157925D01*
X64288334Y-72157925D01*
X64288338Y-72157928D01*
X64703228Y-72572819D01*
X64736713Y-72634142D01*
X64731729Y-72703834D01*
X64689857Y-72759767D01*
X64624393Y-72784184D01*
X64615548Y-72784500D01*
X64456438Y-72784500D01*
X64345153Y-72799150D01*
X64337300Y-72801255D01*
X64336788Y-72799345D01*
X64277969Y-72805662D01*
X64262723Y-72801185D01*
X64262705Y-72801256D01*
X64254855Y-72799152D01*
X64254854Y-72799152D01*
X64143561Y-72784500D01*
X63656437Y-72784500D01*
X63545153Y-72799150D01*
X63537300Y-72801255D01*
X63536788Y-72799345D01*
X63477969Y-72805662D01*
X63462723Y-72801185D01*
X63462705Y-72801256D01*
X63454855Y-72799152D01*
X63454854Y-72799152D01*
X63343561Y-72784500D01*
X62856437Y-72784500D01*
X62745153Y-72799150D01*
X62737300Y-72801255D01*
X62736788Y-72799345D01*
X62677969Y-72805662D01*
X62662723Y-72801185D01*
X62662705Y-72801256D01*
X62654855Y-72799152D01*
X62654854Y-72799152D01*
X62543561Y-72784500D01*
X62056437Y-72784500D01*
X61945153Y-72799150D01*
X61937300Y-72801255D01*
X61936788Y-72799345D01*
X61877969Y-72805662D01*
X61862723Y-72801185D01*
X61862705Y-72801256D01*
X61854855Y-72799152D01*
X61854854Y-72799152D01*
X61838508Y-72797000D01*
X61743568Y-72784500D01*
X61445039Y-72784500D01*
X61378000Y-72764815D01*
X61332245Y-72712011D01*
X61322301Y-72642853D01*
X61351326Y-72579297D01*
X61394601Y-72547222D01*
X61412730Y-72539151D01*
X61565871Y-72427888D01*
X61692533Y-72287216D01*
X61787179Y-72123284D01*
X61845674Y-71943256D01*
X61865460Y-71755000D01*
X61845674Y-71566744D01*
X61787179Y-71386716D01*
X61692533Y-71222784D01*
X61565871Y-71082112D01*
X61564612Y-71081197D01*
X61412734Y-70970851D01*
X61412729Y-70970848D01*
X61239807Y-70893857D01*
X61239802Y-70893855D01*
X61091079Y-70862244D01*
X61054646Y-70854500D01*
X60865354Y-70854500D01*
X60710537Y-70887407D01*
X60640870Y-70882090D01*
X60585137Y-70839952D01*
X60561818Y-70782301D01*
X60550360Y-70695272D01*
X60548257Y-70687422D01*
X60550324Y-70686868D01*
X60544065Y-70628633D01*
X60548768Y-70612615D01*
X60550847Y-70604858D01*
X60554519Y-70576973D01*
X60565500Y-70493561D01*
X60565499Y-70006440D01*
X60564946Y-70002243D01*
X60561056Y-69972693D01*
X60550848Y-69895146D01*
X60550847Y-69895143D01*
X60548744Y-69887292D01*
X60550658Y-69886779D01*
X60544332Y-69827997D01*
X60548815Y-69812728D01*
X60548744Y-69812709D01*
X60550847Y-69804858D01*
X60554910Y-69773998D01*
X60565500Y-69693561D01*
X60565499Y-69206440D01*
X60563917Y-69194426D01*
X60557477Y-69145500D01*
X60550848Y-69095146D01*
X60550847Y-69095143D01*
X60548744Y-69087292D01*
X60550658Y-69086779D01*
X60544332Y-69027997D01*
X60548815Y-69012728D01*
X60548744Y-69012709D01*
X60550847Y-69004858D01*
X60550848Y-69004854D01*
X60565500Y-68893561D01*
X60565499Y-68815949D01*
X60585183Y-68748912D01*
X60637986Y-68703156D01*
X60707145Y-68693212D01*
X60739935Y-68702671D01*
X60770192Y-68716142D01*
X60770197Y-68716144D01*
X60955354Y-68755500D01*
X60955355Y-68755500D01*
X61144644Y-68755500D01*
X61144646Y-68755500D01*
X61218339Y-68739836D01*
X61288006Y-68745152D01*
X61343740Y-68787289D01*
X61362051Y-68822808D01*
X61402818Y-68948277D01*
X61402821Y-68948284D01*
X61497467Y-69112216D01*
X61624129Y-69252888D01*
X61777265Y-69364148D01*
X61777270Y-69364151D01*
X61950192Y-69441142D01*
X61950197Y-69441144D01*
X62135354Y-69480500D01*
X62135355Y-69480500D01*
X62324644Y-69480500D01*
X62324646Y-69480500D01*
X62509803Y-69441144D01*
X62682730Y-69364151D01*
X62835871Y-69252888D01*
X62962533Y-69112216D01*
X63057179Y-68948284D01*
X63115674Y-68768256D01*
X63135460Y-68580000D01*
X63115674Y-68391744D01*
X63057179Y-68211716D01*
X62962533Y-68047784D01*
X62887350Y-67964284D01*
X62857120Y-67901292D01*
X62855500Y-67881312D01*
X62855500Y-67250704D01*
X62875185Y-67183665D01*
X62927989Y-67137910D01*
X62997147Y-67127966D01*
X63060703Y-67156991D01*
G37*
%TD.AperFunction*%
%TA.AperFunction,Conductor*%
G36*
X65479927Y-71042903D02*
G01*
X65633197Y-71111144D01*
X65818354Y-71150500D01*
X65818355Y-71150500D01*
X66007644Y-71150500D01*
X66007646Y-71150500D01*
X66192803Y-71111144D01*
X66260064Y-71081196D01*
X66329313Y-71071911D01*
X66392590Y-71101539D01*
X66429804Y-71160674D01*
X66434500Y-71194475D01*
X66434500Y-71293561D01*
X66449150Y-71404851D01*
X66451255Y-71412704D01*
X66449539Y-71413163D01*
X66455933Y-71472681D01*
X66451615Y-71487386D01*
X66451743Y-71487421D01*
X66449639Y-71495271D01*
X66435851Y-71600000D01*
X66488845Y-71600000D01*
X66555884Y-71619685D01*
X66587219Y-71648512D01*
X66597756Y-71662244D01*
X66714239Y-71751624D01*
X66755441Y-71808052D01*
X66759596Y-71877798D01*
X66725383Y-71938719D01*
X66714238Y-71948376D01*
X66648425Y-71998876D01*
X66583256Y-72024070D01*
X66572939Y-72024500D01*
X65975453Y-72024500D01*
X65908414Y-72004815D01*
X65887772Y-71988181D01*
X65341819Y-71442228D01*
X65308334Y-71380905D01*
X65305500Y-71354547D01*
X65305500Y-71156185D01*
X65325185Y-71089146D01*
X65377989Y-71043391D01*
X65447147Y-71033447D01*
X65479927Y-71042903D01*
G37*
%TD.AperFunction*%
%TA.AperFunction,Conductor*%
G36*
X65171464Y-58566685D02*
G01*
X65217219Y-58619489D01*
X65227163Y-58688647D01*
X65205207Y-58739727D01*
X65206475Y-58740509D01*
X65110643Y-58895875D01*
X65110641Y-58895880D01*
X65055494Y-59062302D01*
X65055493Y-59062309D01*
X65045000Y-59165013D01*
X65045000Y-59440000D01*
X66171000Y-59440000D01*
X66238039Y-59459685D01*
X66283794Y-59512489D01*
X66295000Y-59564000D01*
X66295000Y-60914999D01*
X66344972Y-60914999D01*
X66344986Y-60914998D01*
X66447697Y-60904505D01*
X66614119Y-60849358D01*
X66614124Y-60849356D01*
X66763345Y-60757315D01*
X66887318Y-60633342D01*
X66889165Y-60630348D01*
X66890969Y-60628724D01*
X66891798Y-60627677D01*
X66891976Y-60627818D01*
X66941110Y-60583621D01*
X67010073Y-60572396D01*
X67074156Y-60600236D01*
X67100243Y-60630341D01*
X67102288Y-60633656D01*
X67226344Y-60757712D01*
X67375666Y-60849814D01*
X67542203Y-60904999D01*
X67607698Y-60911690D01*
X67672388Y-60938084D01*
X67682776Y-60947366D01*
X68181263Y-61445855D01*
X68181267Y-61445858D01*
X68283708Y-61514308D01*
X68283715Y-61514312D01*
X68347504Y-61540734D01*
X68397548Y-61561463D01*
X68399821Y-61561915D01*
X68399839Y-61561924D01*
X68399841Y-61561919D01*
X68518394Y-61585501D01*
X68518405Y-61585501D01*
X68523296Y-61585983D01*
X68588085Y-61612139D01*
X68603298Y-61626413D01*
X68609129Y-61632888D01*
X68609130Y-61632889D01*
X68609135Y-61632893D01*
X68762265Y-61744148D01*
X68762270Y-61744151D01*
X68935192Y-61821142D01*
X68935197Y-61821144D01*
X69120354Y-61860500D01*
X69120355Y-61860500D01*
X69309644Y-61860500D01*
X69309646Y-61860500D01*
X69494803Y-61821144D01*
X69667730Y-61744151D01*
X69742616Y-61689743D01*
X69808421Y-61666264D01*
X69876475Y-61682089D01*
X69925169Y-61732195D01*
X69939500Y-61790062D01*
X69939500Y-62322911D01*
X69919815Y-62389950D01*
X69880598Y-62428449D01*
X69833844Y-62457287D01*
X69709789Y-62581342D01*
X69617687Y-62730663D01*
X69617685Y-62730668D01*
X69611857Y-62748256D01*
X69562501Y-62897203D01*
X69562501Y-62897204D01*
X69562500Y-62897204D01*
X69552000Y-62999983D01*
X69552000Y-63923048D01*
X69532315Y-63990087D01*
X69479511Y-64035842D01*
X69410353Y-64045786D01*
X69346797Y-64016761D01*
X69340319Y-64010729D01*
X68437928Y-63108338D01*
X68437925Y-63108334D01*
X68437925Y-63108335D01*
X68430859Y-63101269D01*
X68430858Y-63101267D01*
X68343733Y-63014142D01*
X68343729Y-63014139D01*
X68343728Y-63014138D01*
X68284057Y-62974267D01*
X68284055Y-62974266D01*
X68241286Y-62945688D01*
X68241284Y-62945687D01*
X68241281Y-62945685D01*
X68147575Y-62906872D01*
X68127455Y-62898538D01*
X68127453Y-62898537D01*
X68127452Y-62898537D01*
X68067029Y-62886518D01*
X68006610Y-62874500D01*
X68006607Y-62874500D01*
X68006606Y-62874500D01*
X66212741Y-62874500D01*
X66212721Y-62874499D01*
X66206607Y-62874499D01*
X66083394Y-62874499D01*
X65982597Y-62894548D01*
X65982592Y-62894548D01*
X65962553Y-62898535D01*
X65962550Y-62898536D01*
X65942423Y-62906873D01*
X65848717Y-62945686D01*
X65848708Y-62945691D01*
X65746267Y-63014141D01*
X65746263Y-63014144D01*
X65245206Y-63515202D01*
X65183883Y-63548687D01*
X65114191Y-63543703D01*
X65058258Y-63501831D01*
X65034204Y-63440483D01*
X65020674Y-63311744D01*
X64962179Y-63131716D01*
X64867533Y-62967784D01*
X64740871Y-62827112D01*
X64732949Y-62821356D01*
X64587734Y-62715851D01*
X64587729Y-62715848D01*
X64414807Y-62638857D01*
X64414802Y-62638855D01*
X64249984Y-62603823D01*
X64229646Y-62599500D01*
X64040354Y-62599500D01*
X64020016Y-62603823D01*
X63855197Y-62638855D01*
X63855192Y-62638857D01*
X63682270Y-62715848D01*
X63682265Y-62715851D01*
X63529129Y-62827111D01*
X63402466Y-62967785D01*
X63307821Y-63131715D01*
X63307818Y-63131722D01*
X63287824Y-63193259D01*
X63248386Y-63250935D01*
X63184028Y-63278133D01*
X63115181Y-63266218D01*
X63082212Y-63242622D01*
X62513604Y-62674014D01*
X62480119Y-62612691D01*
X62485103Y-62542999D01*
X62526975Y-62487066D01*
X62592439Y-62462649D01*
X62627062Y-62465042D01*
X62770354Y-62495500D01*
X62770355Y-62495500D01*
X62959644Y-62495500D01*
X62959646Y-62495500D01*
X63144803Y-62456144D01*
X63317730Y-62379151D01*
X63470871Y-62267888D01*
X63597533Y-62127216D01*
X63692179Y-61963284D01*
X63750674Y-61783256D01*
X63768321Y-61615344D01*
X63794904Y-61550734D01*
X63803941Y-61540648D01*
X63985858Y-61358733D01*
X64054312Y-61256285D01*
X64081932Y-61189603D01*
X64087694Y-61175694D01*
X64101461Y-61142456D01*
X64101463Y-61142452D01*
X64109119Y-61103963D01*
X64125501Y-61021606D01*
X64125501Y-60898393D01*
X64125501Y-60893283D01*
X64125500Y-60893257D01*
X64125500Y-60884377D01*
X64145185Y-60817338D01*
X64184406Y-60778837D01*
X64218656Y-60757712D01*
X64342712Y-60633656D01*
X64434814Y-60484334D01*
X64489999Y-60317797D01*
X64490010Y-60317697D01*
X64500499Y-60215016D01*
X64500500Y-60215009D01*
X64500500Y-60214986D01*
X65045001Y-60214986D01*
X65055494Y-60317697D01*
X65110641Y-60484119D01*
X65110643Y-60484124D01*
X65202684Y-60633345D01*
X65326654Y-60757315D01*
X65475875Y-60849356D01*
X65475880Y-60849358D01*
X65642302Y-60904505D01*
X65642309Y-60904506D01*
X65745019Y-60914999D01*
X65794999Y-60914998D01*
X65795000Y-60914998D01*
X65795000Y-59940000D01*
X65045001Y-59940000D01*
X65045001Y-60214986D01*
X64500500Y-60214986D01*
X64500499Y-59164992D01*
X64497787Y-59138447D01*
X64489999Y-59062203D01*
X64489998Y-59062200D01*
X64476781Y-59022314D01*
X64434814Y-58895666D01*
X64342712Y-58746344D01*
X64342710Y-58746342D01*
X64338920Y-58740197D01*
X64340456Y-58739249D01*
X64317810Y-58683116D01*
X64330850Y-58614474D01*
X64378931Y-58563778D01*
X64441217Y-58547000D01*
X65104425Y-58547000D01*
X65171464Y-58566685D01*
G37*
%TD.AperFunction*%
%TA.AperFunction,Conductor*%
G36*
X72608039Y-59459685D02*
G01*
X72653794Y-59512489D01*
X72665000Y-59564000D01*
X72665000Y-60890000D01*
X72708303Y-60890000D01*
X72708315Y-60889999D01*
X72810173Y-60879592D01*
X72975209Y-60824905D01*
X72975214Y-60824903D01*
X73123191Y-60733629D01*
X73246129Y-60610691D01*
X73276665Y-60561184D01*
X73328612Y-60514458D01*
X73397575Y-60503235D01*
X73461657Y-60531077D01*
X73487743Y-60561181D01*
X73518281Y-60610691D01*
X73518474Y-60611003D01*
X73641497Y-60734026D01*
X73690597Y-60764311D01*
X73737321Y-60816257D01*
X73749500Y-60869849D01*
X73749500Y-62322911D01*
X73729815Y-62389950D01*
X73690598Y-62428449D01*
X73643844Y-62457287D01*
X73519789Y-62581342D01*
X73488039Y-62632818D01*
X73436091Y-62679542D01*
X73367128Y-62690765D01*
X73303046Y-62662921D01*
X73276961Y-62632818D01*
X73267582Y-62617612D01*
X73245212Y-62581344D01*
X73121156Y-62457288D01*
X72979188Y-62369722D01*
X72971836Y-62365187D01*
X72971831Y-62365185D01*
X72970362Y-62364698D01*
X72805297Y-62310001D01*
X72805295Y-62310000D01*
X72702516Y-62299500D01*
X72702509Y-62299500D01*
X72398415Y-62299500D01*
X72331376Y-62279815D01*
X72285621Y-62227011D01*
X72275094Y-62188462D01*
X72259674Y-62041744D01*
X72201179Y-61861716D01*
X72106533Y-61697784D01*
X71979871Y-61557112D01*
X71979870Y-61557111D01*
X71826734Y-61445851D01*
X71826729Y-61445848D01*
X71653807Y-61368857D01*
X71653802Y-61368855D01*
X71508001Y-61337865D01*
X71468646Y-61329500D01*
X71314500Y-61329500D01*
X71247461Y-61309815D01*
X71201706Y-61257011D01*
X71190500Y-61205500D01*
X71190500Y-60839009D01*
X71210185Y-60771970D01*
X71243463Y-60739304D01*
X71242834Y-60738509D01*
X71248501Y-60734027D01*
X71248500Y-60734027D01*
X71248503Y-60734026D01*
X71371526Y-60611003D01*
X71372255Y-60609821D01*
X71372966Y-60609181D01*
X71376007Y-60605336D01*
X71376663Y-60605855D01*
X71424201Y-60563097D01*
X71493164Y-60551873D01*
X71557246Y-60579715D01*
X71579261Y-60605123D01*
X71579388Y-60605023D01*
X71581613Y-60607838D01*
X71583333Y-60609822D01*
X71583865Y-60610685D01*
X71583869Y-60610690D01*
X71706808Y-60733629D01*
X71854785Y-60824903D01*
X71854790Y-60824905D01*
X72019826Y-60879592D01*
X72121684Y-60889999D01*
X72121697Y-60890000D01*
X72165000Y-60890000D01*
X72165000Y-59564000D01*
X72184685Y-59496961D01*
X72237489Y-59451206D01*
X72289000Y-59440000D01*
X72541000Y-59440000D01*
X72608039Y-59459685D01*
G37*
%TD.AperFunction*%
%TD*%
M02*
