%TF.GenerationSoftware,KiCad,Pcbnew,8.0.6*%
%TF.CreationDate,2024-11-27T00:55:28-08:00*%
%TF.ProjectId,Project 3 MCUdatalogger,50726f6a-6563-4742-9033-204d43556461,1*%
%TF.SameCoordinates,Original*%
%TF.FileFunction,Legend,Bot*%
%TF.FilePolarity,Positive*%
%FSLAX46Y46*%
G04 Gerber Fmt 4.6, Leading zero omitted, Abs format (unit mm)*
G04 Created by KiCad (PCBNEW 8.0.6) date 2024-11-27 00:55:28*
%MOMM*%
%LPD*%
G01*
G04 APERTURE LIST*
%ADD10C,0.100000*%
%ADD11C,0.010000*%
G04 APERTURE END LIST*
D10*
X51639115Y-66588475D02*
X51639115Y-65588475D01*
X51639115Y-65588475D02*
X51305782Y-66302760D01*
X51305782Y-66302760D02*
X50972449Y-65588475D01*
X50972449Y-65588475D02*
X50972449Y-66588475D01*
X49924830Y-66493236D02*
X49972449Y-66540856D01*
X49972449Y-66540856D02*
X50115306Y-66588475D01*
X50115306Y-66588475D02*
X50210544Y-66588475D01*
X50210544Y-66588475D02*
X50353401Y-66540856D01*
X50353401Y-66540856D02*
X50448639Y-66445617D01*
X50448639Y-66445617D02*
X50496258Y-66350379D01*
X50496258Y-66350379D02*
X50543877Y-66159903D01*
X50543877Y-66159903D02*
X50543877Y-66017046D01*
X50543877Y-66017046D02*
X50496258Y-65826570D01*
X50496258Y-65826570D02*
X50448639Y-65731332D01*
X50448639Y-65731332D02*
X50353401Y-65636094D01*
X50353401Y-65636094D02*
X50210544Y-65588475D01*
X50210544Y-65588475D02*
X50115306Y-65588475D01*
X50115306Y-65588475D02*
X49972449Y-65636094D01*
X49972449Y-65636094D02*
X49924830Y-65683713D01*
X49496258Y-65588475D02*
X49496258Y-66397998D01*
X49496258Y-66397998D02*
X49448639Y-66493236D01*
X49448639Y-66493236D02*
X49401020Y-66540856D01*
X49401020Y-66540856D02*
X49305782Y-66588475D01*
X49305782Y-66588475D02*
X49115306Y-66588475D01*
X49115306Y-66588475D02*
X49020068Y-66540856D01*
X49020068Y-66540856D02*
X48972449Y-66493236D01*
X48972449Y-66493236D02*
X48924830Y-66397998D01*
X48924830Y-66397998D02*
X48924830Y-65588475D01*
X48020068Y-66588475D02*
X48020068Y-65588475D01*
X48020068Y-66540856D02*
X48115306Y-66588475D01*
X48115306Y-66588475D02*
X48305782Y-66588475D01*
X48305782Y-66588475D02*
X48401020Y-66540856D01*
X48401020Y-66540856D02*
X48448639Y-66493236D01*
X48448639Y-66493236D02*
X48496258Y-66397998D01*
X48496258Y-66397998D02*
X48496258Y-66112284D01*
X48496258Y-66112284D02*
X48448639Y-66017046D01*
X48448639Y-66017046D02*
X48401020Y-65969427D01*
X48401020Y-65969427D02*
X48305782Y-65921808D01*
X48305782Y-65921808D02*
X48115306Y-65921808D01*
X48115306Y-65921808D02*
X48020068Y-65969427D01*
X47115306Y-66588475D02*
X47115306Y-66064665D01*
X47115306Y-66064665D02*
X47162925Y-65969427D01*
X47162925Y-65969427D02*
X47258163Y-65921808D01*
X47258163Y-65921808D02*
X47448639Y-65921808D01*
X47448639Y-65921808D02*
X47543877Y-65969427D01*
X47115306Y-66540856D02*
X47210544Y-66588475D01*
X47210544Y-66588475D02*
X47448639Y-66588475D01*
X47448639Y-66588475D02*
X47543877Y-66540856D01*
X47543877Y-66540856D02*
X47591496Y-66445617D01*
X47591496Y-66445617D02*
X47591496Y-66350379D01*
X47591496Y-66350379D02*
X47543877Y-66255141D01*
X47543877Y-66255141D02*
X47448639Y-66207522D01*
X47448639Y-66207522D02*
X47210544Y-66207522D01*
X47210544Y-66207522D02*
X47115306Y-66159903D01*
X46781972Y-65921808D02*
X46401020Y-65921808D01*
X46639115Y-65588475D02*
X46639115Y-66445617D01*
X46639115Y-66445617D02*
X46591496Y-66540856D01*
X46591496Y-66540856D02*
X46496258Y-66588475D01*
X46496258Y-66588475D02*
X46401020Y-66588475D01*
X45639115Y-66588475D02*
X45639115Y-66064665D01*
X45639115Y-66064665D02*
X45686734Y-65969427D01*
X45686734Y-65969427D02*
X45781972Y-65921808D01*
X45781972Y-65921808D02*
X45972448Y-65921808D01*
X45972448Y-65921808D02*
X46067686Y-65969427D01*
X45639115Y-66540856D02*
X45734353Y-66588475D01*
X45734353Y-66588475D02*
X45972448Y-66588475D01*
X45972448Y-66588475D02*
X46067686Y-66540856D01*
X46067686Y-66540856D02*
X46115305Y-66445617D01*
X46115305Y-66445617D02*
X46115305Y-66350379D01*
X46115305Y-66350379D02*
X46067686Y-66255141D01*
X46067686Y-66255141D02*
X45972448Y-66207522D01*
X45972448Y-66207522D02*
X45734353Y-66207522D01*
X45734353Y-66207522D02*
X45639115Y-66159903D01*
X45020067Y-66588475D02*
X45115305Y-66540856D01*
X45115305Y-66540856D02*
X45162924Y-66445617D01*
X45162924Y-66445617D02*
X45162924Y-65588475D01*
X44496257Y-66588475D02*
X44591495Y-66540856D01*
X44591495Y-66540856D02*
X44639114Y-66493236D01*
X44639114Y-66493236D02*
X44686733Y-66397998D01*
X44686733Y-66397998D02*
X44686733Y-66112284D01*
X44686733Y-66112284D02*
X44639114Y-66017046D01*
X44639114Y-66017046D02*
X44591495Y-65969427D01*
X44591495Y-65969427D02*
X44496257Y-65921808D01*
X44496257Y-65921808D02*
X44353400Y-65921808D01*
X44353400Y-65921808D02*
X44258162Y-65969427D01*
X44258162Y-65969427D02*
X44210543Y-66017046D01*
X44210543Y-66017046D02*
X44162924Y-66112284D01*
X44162924Y-66112284D02*
X44162924Y-66397998D01*
X44162924Y-66397998D02*
X44210543Y-66493236D01*
X44210543Y-66493236D02*
X44258162Y-66540856D01*
X44258162Y-66540856D02*
X44353400Y-66588475D01*
X44353400Y-66588475D02*
X44496257Y-66588475D01*
X43305781Y-65921808D02*
X43305781Y-66731332D01*
X43305781Y-66731332D02*
X43353400Y-66826570D01*
X43353400Y-66826570D02*
X43401019Y-66874189D01*
X43401019Y-66874189D02*
X43496257Y-66921808D01*
X43496257Y-66921808D02*
X43639114Y-66921808D01*
X43639114Y-66921808D02*
X43734352Y-66874189D01*
X43305781Y-66540856D02*
X43401019Y-66588475D01*
X43401019Y-66588475D02*
X43591495Y-66588475D01*
X43591495Y-66588475D02*
X43686733Y-66540856D01*
X43686733Y-66540856D02*
X43734352Y-66493236D01*
X43734352Y-66493236D02*
X43781971Y-66397998D01*
X43781971Y-66397998D02*
X43781971Y-66112284D01*
X43781971Y-66112284D02*
X43734352Y-66017046D01*
X43734352Y-66017046D02*
X43686733Y-65969427D01*
X43686733Y-65969427D02*
X43591495Y-65921808D01*
X43591495Y-65921808D02*
X43401019Y-65921808D01*
X43401019Y-65921808D02*
X43305781Y-65969427D01*
X42401019Y-65921808D02*
X42401019Y-66731332D01*
X42401019Y-66731332D02*
X42448638Y-66826570D01*
X42448638Y-66826570D02*
X42496257Y-66874189D01*
X42496257Y-66874189D02*
X42591495Y-66921808D01*
X42591495Y-66921808D02*
X42734352Y-66921808D01*
X42734352Y-66921808D02*
X42829590Y-66874189D01*
X42401019Y-66540856D02*
X42496257Y-66588475D01*
X42496257Y-66588475D02*
X42686733Y-66588475D01*
X42686733Y-66588475D02*
X42781971Y-66540856D01*
X42781971Y-66540856D02*
X42829590Y-66493236D01*
X42829590Y-66493236D02*
X42877209Y-66397998D01*
X42877209Y-66397998D02*
X42877209Y-66112284D01*
X42877209Y-66112284D02*
X42829590Y-66017046D01*
X42829590Y-66017046D02*
X42781971Y-65969427D01*
X42781971Y-65969427D02*
X42686733Y-65921808D01*
X42686733Y-65921808D02*
X42496257Y-65921808D01*
X42496257Y-65921808D02*
X42401019Y-65969427D01*
X41543876Y-66540856D02*
X41639114Y-66588475D01*
X41639114Y-66588475D02*
X41829590Y-66588475D01*
X41829590Y-66588475D02*
X41924828Y-66540856D01*
X41924828Y-66540856D02*
X41972447Y-66445617D01*
X41972447Y-66445617D02*
X41972447Y-66064665D01*
X41972447Y-66064665D02*
X41924828Y-65969427D01*
X41924828Y-65969427D02*
X41829590Y-65921808D01*
X41829590Y-65921808D02*
X41639114Y-65921808D01*
X41639114Y-65921808D02*
X41543876Y-65969427D01*
X41543876Y-65969427D02*
X41496257Y-66064665D01*
X41496257Y-66064665D02*
X41496257Y-66159903D01*
X41496257Y-66159903D02*
X41972447Y-66255141D01*
X41067685Y-66588475D02*
X41067685Y-65921808D01*
X41067685Y-66112284D02*
X41020066Y-66017046D01*
X41020066Y-66017046D02*
X40972447Y-65969427D01*
X40972447Y-65969427D02*
X40877209Y-65921808D01*
X40877209Y-65921808D02*
X40781971Y-65921808D01*
X51781972Y-67198419D02*
X51448639Y-68198419D01*
X51448639Y-68198419D02*
X51115306Y-67198419D01*
X50401020Y-68150800D02*
X50496258Y-68198419D01*
X50496258Y-68198419D02*
X50686734Y-68198419D01*
X50686734Y-68198419D02*
X50781972Y-68150800D01*
X50781972Y-68150800D02*
X50829591Y-68055561D01*
X50829591Y-68055561D02*
X50829591Y-67674609D01*
X50829591Y-67674609D02*
X50781972Y-67579371D01*
X50781972Y-67579371D02*
X50686734Y-67531752D01*
X50686734Y-67531752D02*
X50496258Y-67531752D01*
X50496258Y-67531752D02*
X50401020Y-67579371D01*
X50401020Y-67579371D02*
X50353401Y-67674609D01*
X50353401Y-67674609D02*
X50353401Y-67769847D01*
X50353401Y-67769847D02*
X50829591Y-67865085D01*
X49924829Y-68198419D02*
X49924829Y-67531752D01*
X49924829Y-67722228D02*
X49877210Y-67626990D01*
X49877210Y-67626990D02*
X49829591Y-67579371D01*
X49829591Y-67579371D02*
X49734353Y-67531752D01*
X49734353Y-67531752D02*
X49639115Y-67531752D01*
X49353400Y-68150800D02*
X49258162Y-68198419D01*
X49258162Y-68198419D02*
X49067686Y-68198419D01*
X49067686Y-68198419D02*
X48972448Y-68150800D01*
X48972448Y-68150800D02*
X48924829Y-68055561D01*
X48924829Y-68055561D02*
X48924829Y-68007942D01*
X48924829Y-68007942D02*
X48972448Y-67912704D01*
X48972448Y-67912704D02*
X49067686Y-67865085D01*
X49067686Y-67865085D02*
X49210543Y-67865085D01*
X49210543Y-67865085D02*
X49305781Y-67817466D01*
X49305781Y-67817466D02*
X49353400Y-67722228D01*
X49353400Y-67722228D02*
X49353400Y-67674609D01*
X49353400Y-67674609D02*
X49305781Y-67579371D01*
X49305781Y-67579371D02*
X49210543Y-67531752D01*
X49210543Y-67531752D02*
X49067686Y-67531752D01*
X49067686Y-67531752D02*
X48972448Y-67579371D01*
X48496257Y-68198419D02*
X48496257Y-67531752D01*
X48496257Y-67198419D02*
X48543876Y-67246038D01*
X48543876Y-67246038D02*
X48496257Y-67293657D01*
X48496257Y-67293657D02*
X48448638Y-67246038D01*
X48448638Y-67246038D02*
X48496257Y-67198419D01*
X48496257Y-67198419D02*
X48496257Y-67293657D01*
X47877210Y-68198419D02*
X47972448Y-68150800D01*
X47972448Y-68150800D02*
X48020067Y-68103180D01*
X48020067Y-68103180D02*
X48067686Y-68007942D01*
X48067686Y-68007942D02*
X48067686Y-67722228D01*
X48067686Y-67722228D02*
X48020067Y-67626990D01*
X48020067Y-67626990D02*
X47972448Y-67579371D01*
X47972448Y-67579371D02*
X47877210Y-67531752D01*
X47877210Y-67531752D02*
X47734353Y-67531752D01*
X47734353Y-67531752D02*
X47639115Y-67579371D01*
X47639115Y-67579371D02*
X47591496Y-67626990D01*
X47591496Y-67626990D02*
X47543877Y-67722228D01*
X47543877Y-67722228D02*
X47543877Y-68007942D01*
X47543877Y-68007942D02*
X47591496Y-68103180D01*
X47591496Y-68103180D02*
X47639115Y-68150800D01*
X47639115Y-68150800D02*
X47734353Y-68198419D01*
X47734353Y-68198419D02*
X47877210Y-68198419D01*
X47115305Y-67531752D02*
X47115305Y-68198419D01*
X47115305Y-67626990D02*
X47067686Y-67579371D01*
X47067686Y-67579371D02*
X46972448Y-67531752D01*
X46972448Y-67531752D02*
X46829591Y-67531752D01*
X46829591Y-67531752D02*
X46734353Y-67579371D01*
X46734353Y-67579371D02*
X46686734Y-67674609D01*
X46686734Y-67674609D02*
X46686734Y-68198419D01*
X45258162Y-67198419D02*
X45162924Y-67198419D01*
X45162924Y-67198419D02*
X45067686Y-67246038D01*
X45067686Y-67246038D02*
X45020067Y-67293657D01*
X45020067Y-67293657D02*
X44972448Y-67388895D01*
X44972448Y-67388895D02*
X44924829Y-67579371D01*
X44924829Y-67579371D02*
X44924829Y-67817466D01*
X44924829Y-67817466D02*
X44972448Y-68007942D01*
X44972448Y-68007942D02*
X45020067Y-68103180D01*
X45020067Y-68103180D02*
X45067686Y-68150800D01*
X45067686Y-68150800D02*
X45162924Y-68198419D01*
X45162924Y-68198419D02*
X45258162Y-68198419D01*
X45258162Y-68198419D02*
X45353400Y-68150800D01*
X45353400Y-68150800D02*
X45401019Y-68103180D01*
X45401019Y-68103180D02*
X45448638Y-68007942D01*
X45448638Y-68007942D02*
X45496257Y-67817466D01*
X45496257Y-67817466D02*
X45496257Y-67579371D01*
X45496257Y-67579371D02*
X45448638Y-67388895D01*
X45448638Y-67388895D02*
X45401019Y-67293657D01*
X45401019Y-67293657D02*
X45353400Y-67246038D01*
X45353400Y-67246038D02*
X45258162Y-67198419D01*
X44496257Y-68103180D02*
X44448638Y-68150800D01*
X44448638Y-68150800D02*
X44496257Y-68198419D01*
X44496257Y-68198419D02*
X44543876Y-68150800D01*
X44543876Y-68150800D02*
X44496257Y-68103180D01*
X44496257Y-68103180D02*
X44496257Y-68198419D01*
X43496258Y-68198419D02*
X44067686Y-68198419D01*
X43781972Y-68198419D02*
X43781972Y-67198419D01*
X43781972Y-67198419D02*
X43877210Y-67341276D01*
X43877210Y-67341276D02*
X43972448Y-67436514D01*
X43972448Y-67436514D02*
X44067686Y-67484133D01*
D11*
%TO.C,REF\u002A\u002A*%
X42579698Y-75904141D02*
X42605419Y-75919839D01*
X42632070Y-75941419D01*
X42632070Y-76588876D01*
X42605419Y-76610456D01*
X42574059Y-76627931D01*
X42538258Y-76628767D01*
X42506820Y-76608274D01*
X42502944Y-76603608D01*
X42497478Y-76594141D01*
X42493271Y-76580459D01*
X42490159Y-76559940D01*
X42487979Y-76529960D01*
X42486568Y-76487896D01*
X42485763Y-76431124D01*
X42485399Y-76357022D01*
X42485314Y-76262965D01*
X42485314Y-75941419D01*
X42511965Y-75919839D01*
X42535678Y-75905069D01*
X42558692Y-75898259D01*
X42579698Y-75904141D01*
G36*
X42579698Y-75904141D02*
G01*
X42605419Y-75919839D01*
X42632070Y-75941419D01*
X42632070Y-76588876D01*
X42605419Y-76610456D01*
X42574059Y-76627931D01*
X42538258Y-76628767D01*
X42506820Y-76608274D01*
X42502944Y-76603608D01*
X42497478Y-76594141D01*
X42493271Y-76580459D01*
X42490159Y-76559940D01*
X42487979Y-76529960D01*
X42486568Y-76487896D01*
X42485763Y-76431124D01*
X42485399Y-76357022D01*
X42485314Y-76262965D01*
X42485314Y-75941419D01*
X42511965Y-75919839D01*
X42535678Y-75905069D01*
X42558692Y-75898259D01*
X42579698Y-75904141D01*
G37*
X49710429Y-75902655D02*
X49744583Y-75925968D01*
X49772292Y-75953677D01*
X49772292Y-76266729D01*
X49772251Y-76350759D01*
X49771993Y-76424981D01*
X49771322Y-76481733D01*
X49770044Y-76523704D01*
X49767965Y-76553581D01*
X49764891Y-76574053D01*
X49760626Y-76587806D01*
X49754976Y-76597529D01*
X49747747Y-76605909D01*
X49716283Y-76627373D01*
X49681118Y-76629139D01*
X49648114Y-76609459D01*
X49642808Y-76603590D01*
X49637358Y-76594506D01*
X49633192Y-76581165D01*
X49630138Y-76560949D01*
X49628024Y-76531241D01*
X49626678Y-76489424D01*
X49625930Y-76432881D01*
X49625606Y-76358994D01*
X49625537Y-76265148D01*
X49625576Y-76189486D01*
X49625831Y-76111577D01*
X49626475Y-76051567D01*
X49627679Y-76006840D01*
X49629616Y-75974777D01*
X49632456Y-75952763D01*
X49636371Y-75938179D01*
X49641534Y-75928410D01*
X49648114Y-75920837D01*
X49677298Y-75901815D01*
X49710429Y-75902655D01*
G36*
X49710429Y-75902655D02*
G01*
X49744583Y-75925968D01*
X49772292Y-75953677D01*
X49772292Y-76266729D01*
X49772251Y-76350759D01*
X49771993Y-76424981D01*
X49771322Y-76481733D01*
X49770044Y-76523704D01*
X49767965Y-76553581D01*
X49764891Y-76574053D01*
X49760626Y-76587806D01*
X49754976Y-76597529D01*
X49747747Y-76605909D01*
X49716283Y-76627373D01*
X49681118Y-76629139D01*
X49648114Y-76609459D01*
X49642808Y-76603590D01*
X49637358Y-76594506D01*
X49633192Y-76581165D01*
X49630138Y-76560949D01*
X49628024Y-76531241D01*
X49626678Y-76489424D01*
X49625930Y-76432881D01*
X49625606Y-76358994D01*
X49625537Y-76265148D01*
X49625576Y-76189486D01*
X49625831Y-76111577D01*
X49626475Y-76051567D01*
X49627679Y-76006840D01*
X49629616Y-75974777D01*
X49632456Y-75952763D01*
X49636371Y-75938179D01*
X49641534Y-75928410D01*
X49648114Y-75920837D01*
X49677298Y-75901815D01*
X49710429Y-75902655D01*
G37*
X49677012Y-69289581D02*
X49782536Y-69315436D01*
X49882560Y-69361841D01*
X49973934Y-69428803D01*
X50053505Y-69516328D01*
X50118120Y-69624426D01*
X50135443Y-69662506D01*
X50149477Y-69701103D01*
X50157352Y-69739689D01*
X50160803Y-69787415D01*
X50161568Y-69853433D01*
X50161105Y-69908381D01*
X50158319Y-69958880D01*
X50151487Y-69998280D01*
X50138904Y-70035628D01*
X50118864Y-70079973D01*
X50113066Y-70091791D01*
X50044545Y-70200001D01*
X49958365Y-70289033D01*
X49856972Y-70356797D01*
X49742811Y-70401206D01*
X49684234Y-70413598D01*
X49565399Y-70419397D01*
X49450300Y-70400634D01*
X49342312Y-70359232D01*
X49244809Y-70297115D01*
X49161168Y-70216207D01*
X49094763Y-70118432D01*
X49048969Y-70005714D01*
X49032214Y-69913471D01*
X49030705Y-69811677D01*
X49044332Y-69712660D01*
X49072445Y-69626892D01*
X49104930Y-69565573D01*
X49177247Y-69468288D01*
X49262978Y-69391507D01*
X49358973Y-69335238D01*
X49462079Y-69299490D01*
X49569142Y-69284268D01*
X49677012Y-69289581D01*
G36*
X49677012Y-69289581D02*
G01*
X49782536Y-69315436D01*
X49882560Y-69361841D01*
X49973934Y-69428803D01*
X50053505Y-69516328D01*
X50118120Y-69624426D01*
X50135443Y-69662506D01*
X50149477Y-69701103D01*
X50157352Y-69739689D01*
X50160803Y-69787415D01*
X50161568Y-69853433D01*
X50161105Y-69908381D01*
X50158319Y-69958880D01*
X50151487Y-69998280D01*
X50138904Y-70035628D01*
X50118864Y-70079973D01*
X50113066Y-70091791D01*
X50044545Y-70200001D01*
X49958365Y-70289033D01*
X49856972Y-70356797D01*
X49742811Y-70401206D01*
X49684234Y-70413598D01*
X49565399Y-70419397D01*
X49450300Y-70400634D01*
X49342312Y-70359232D01*
X49244809Y-70297115D01*
X49161168Y-70216207D01*
X49094763Y-70118432D01*
X49048969Y-70005714D01*
X49032214Y-69913471D01*
X49030705Y-69811677D01*
X49044332Y-69712660D01*
X49072445Y-69626892D01*
X49104930Y-69565573D01*
X49177247Y-69468288D01*
X49262978Y-69391507D01*
X49358973Y-69335238D01*
X49462079Y-69299490D01*
X49569142Y-69284268D01*
X49677012Y-69289581D01*
G37*
X41880059Y-75898260D02*
X41974182Y-75898350D01*
X42048697Y-75898690D01*
X42106103Y-75899431D01*
X42148903Y-75900727D01*
X42179596Y-75902729D01*
X42200683Y-75905588D01*
X42214665Y-75909458D01*
X42224042Y-75914490D01*
X42231314Y-75920837D01*
X42250120Y-75953554D01*
X42251567Y-75991131D01*
X42235209Y-76024370D01*
X42233849Y-76025823D01*
X42222646Y-76034184D01*
X42205544Y-76039739D01*
X42178374Y-76043032D01*
X42136970Y-76044610D01*
X42077165Y-76045014D01*
X41937803Y-76045014D01*
X41937803Y-76308781D01*
X41937728Y-76384609D01*
X41937320Y-76451275D01*
X41936338Y-76501059D01*
X41934542Y-76536976D01*
X41931691Y-76562042D01*
X41927545Y-76579273D01*
X41921863Y-76591684D01*
X41914406Y-76602292D01*
X41912116Y-76605098D01*
X41880938Y-76627740D01*
X41846558Y-76629304D01*
X41813626Y-76609459D01*
X41806647Y-76601383D01*
X41801175Y-76590785D01*
X41797155Y-76574941D01*
X41794364Y-76550965D01*
X41792580Y-76515966D01*
X41791581Y-76467056D01*
X41791144Y-76401346D01*
X41791048Y-76315948D01*
X41791048Y-76045014D01*
X41645112Y-76045014D01*
X41634012Y-76045013D01*
X41577494Y-76044788D01*
X41538650Y-76043649D01*
X41513257Y-76040849D01*
X41497096Y-76035642D01*
X41485944Y-76027281D01*
X41475581Y-76015018D01*
X41459733Y-75984330D01*
X41462835Y-75950550D01*
X41488479Y-75918014D01*
X41493421Y-75914297D01*
X41503630Y-75909461D01*
X41519056Y-75905698D01*
X41542178Y-75902875D01*
X41575475Y-75900862D01*
X41621429Y-75899525D01*
X41682520Y-75898734D01*
X41761227Y-75898355D01*
X41860032Y-75898259D01*
X41880059Y-75898260D01*
G36*
X41880059Y-75898260D02*
G01*
X41974182Y-75898350D01*
X42048697Y-75898690D01*
X42106103Y-75899431D01*
X42148903Y-75900727D01*
X42179596Y-75902729D01*
X42200683Y-75905588D01*
X42214665Y-75909458D01*
X42224042Y-75914490D01*
X42231314Y-75920837D01*
X42250120Y-75953554D01*
X42251567Y-75991131D01*
X42235209Y-76024370D01*
X42233849Y-76025823D01*
X42222646Y-76034184D01*
X42205544Y-76039739D01*
X42178374Y-76043032D01*
X42136970Y-76044610D01*
X42077165Y-76045014D01*
X41937803Y-76045014D01*
X41937803Y-76308781D01*
X41937728Y-76384609D01*
X41937320Y-76451275D01*
X41936338Y-76501059D01*
X41934542Y-76536976D01*
X41931691Y-76562042D01*
X41927545Y-76579273D01*
X41921863Y-76591684D01*
X41914406Y-76602292D01*
X41912116Y-76605098D01*
X41880938Y-76627740D01*
X41846558Y-76629304D01*
X41813626Y-76609459D01*
X41806647Y-76601383D01*
X41801175Y-76590785D01*
X41797155Y-76574941D01*
X41794364Y-76550965D01*
X41792580Y-76515966D01*
X41791581Y-76467056D01*
X41791144Y-76401346D01*
X41791048Y-76315948D01*
X41791048Y-76045014D01*
X41645112Y-76045014D01*
X41634012Y-76045013D01*
X41577494Y-76044788D01*
X41538650Y-76043649D01*
X41513257Y-76040849D01*
X41497096Y-76035642D01*
X41485944Y-76027281D01*
X41475581Y-76015018D01*
X41459733Y-75984330D01*
X41462835Y-75950550D01*
X41488479Y-75918014D01*
X41493421Y-75914297D01*
X41503630Y-75909461D01*
X41519056Y-75905698D01*
X41542178Y-75902875D01*
X41575475Y-75900862D01*
X41621429Y-75899525D01*
X41682520Y-75898734D01*
X41761227Y-75898355D01*
X41860032Y-75898259D01*
X41880059Y-75898260D01*
G37*
X41204026Y-75920837D02*
X41209658Y-75927027D01*
X41214748Y-75935233D01*
X41218835Y-75947009D01*
X41222013Y-75964468D01*
X41224379Y-75989722D01*
X41226030Y-76024882D01*
X41227061Y-76072061D01*
X41227569Y-76133369D01*
X41227651Y-76210919D01*
X41227401Y-76306823D01*
X41226917Y-76423192D01*
X41226849Y-76437367D01*
X41226263Y-76499129D01*
X41224940Y-76542812D01*
X41222395Y-76572193D01*
X41218140Y-76591047D01*
X41211688Y-76603151D01*
X41202554Y-76612281D01*
X41169096Y-76629698D01*
X41134148Y-76626796D01*
X41103245Y-76602292D01*
X41094236Y-76589089D01*
X41086784Y-76570553D01*
X41082416Y-76544525D01*
X41080361Y-76505979D01*
X41079848Y-76449892D01*
X41079848Y-76327237D01*
X40583137Y-76327237D01*
X40583137Y-76462063D01*
X40583064Y-76497854D01*
X40582301Y-76544184D01*
X40580125Y-76574718D01*
X40575828Y-76593749D01*
X40568704Y-76605566D01*
X40558047Y-76614463D01*
X40525796Y-76629533D01*
X40490509Y-76626865D01*
X40459778Y-76602292D01*
X40455123Y-76596037D01*
X40449187Y-76585513D01*
X40444656Y-76571583D01*
X40441340Y-76551509D01*
X40439051Y-76522552D01*
X40437600Y-76481972D01*
X40436797Y-76427032D01*
X40436454Y-76354991D01*
X40436381Y-76263112D01*
X40436381Y-75953677D01*
X40464090Y-75925968D01*
X40495469Y-75903725D01*
X40528698Y-75901036D01*
X40560559Y-75920837D01*
X40568845Y-75930607D01*
X40576257Y-75946499D01*
X40580594Y-75970467D01*
X40582630Y-76007340D01*
X40583137Y-76061948D01*
X40583137Y-76180481D01*
X41079848Y-76180481D01*
X41079848Y-76064968D01*
X41080286Y-76013270D01*
X41082250Y-75978746D01*
X41086766Y-75956170D01*
X41094859Y-75940318D01*
X41107557Y-75925968D01*
X41138935Y-75903725D01*
X41172164Y-75901036D01*
X41204026Y-75920837D01*
G36*
X41204026Y-75920837D02*
G01*
X41209658Y-75927027D01*
X41214748Y-75935233D01*
X41218835Y-75947009D01*
X41222013Y-75964468D01*
X41224379Y-75989722D01*
X41226030Y-76024882D01*
X41227061Y-76072061D01*
X41227569Y-76133369D01*
X41227651Y-76210919D01*
X41227401Y-76306823D01*
X41226917Y-76423192D01*
X41226849Y-76437367D01*
X41226263Y-76499129D01*
X41224940Y-76542812D01*
X41222395Y-76572193D01*
X41218140Y-76591047D01*
X41211688Y-76603151D01*
X41202554Y-76612281D01*
X41169096Y-76629698D01*
X41134148Y-76626796D01*
X41103245Y-76602292D01*
X41094236Y-76589089D01*
X41086784Y-76570553D01*
X41082416Y-76544525D01*
X41080361Y-76505979D01*
X41079848Y-76449892D01*
X41079848Y-76327237D01*
X40583137Y-76327237D01*
X40583137Y-76462063D01*
X40583064Y-76497854D01*
X40582301Y-76544184D01*
X40580125Y-76574718D01*
X40575828Y-76593749D01*
X40568704Y-76605566D01*
X40558047Y-76614463D01*
X40525796Y-76629533D01*
X40490509Y-76626865D01*
X40459778Y-76602292D01*
X40455123Y-76596037D01*
X40449187Y-76585513D01*
X40444656Y-76571583D01*
X40441340Y-76551509D01*
X40439051Y-76522552D01*
X40437600Y-76481972D01*
X40436797Y-76427032D01*
X40436454Y-76354991D01*
X40436381Y-76263112D01*
X40436381Y-75953677D01*
X40464090Y-75925968D01*
X40495469Y-75903725D01*
X40528698Y-75901036D01*
X40560559Y-75920837D01*
X40568845Y-75930607D01*
X40576257Y-75946499D01*
X40580594Y-75970467D01*
X40582630Y-76007340D01*
X40583137Y-76061948D01*
X40583137Y-76180481D01*
X41079848Y-76180481D01*
X41079848Y-76064968D01*
X41080286Y-76013270D01*
X41082250Y-75978746D01*
X41086766Y-75956170D01*
X41094859Y-75940318D01*
X41107557Y-75925968D01*
X41138935Y-75903725D01*
X41172164Y-75901036D01*
X41204026Y-75920837D01*
G37*
X45909425Y-76509588D02*
X45907455Y-76542367D01*
X45904527Y-76565287D01*
X45900450Y-76581089D01*
X45895035Y-76592511D01*
X45888095Y-76602292D01*
X45864698Y-76632037D01*
X45699006Y-76631443D01*
X45664210Y-76631145D01*
X45565727Y-76627714D01*
X45484765Y-76620031D01*
X45417671Y-76607474D01*
X45360788Y-76589419D01*
X45310461Y-76565244D01*
X45307102Y-76563327D01*
X45249290Y-76526609D01*
X45206936Y-76489643D01*
X45174120Y-76446158D01*
X45144920Y-76389881D01*
X45140638Y-76380265D01*
X45118061Y-76317079D01*
X45112326Y-76271525D01*
X45261571Y-76271525D01*
X45267184Y-76296253D01*
X45272910Y-76312131D01*
X45305840Y-76372039D01*
X45353178Y-76417792D01*
X45416944Y-76450928D01*
X45499153Y-76472982D01*
X45501947Y-76473484D01*
X45548232Y-76479447D01*
X45604628Y-76483675D01*
X45659566Y-76485281D01*
X45753448Y-76485281D01*
X45753448Y-76045014D01*
X45665959Y-76045462D01*
X45599039Y-76047938D01*
X45506641Y-76059190D01*
X45427326Y-76078729D01*
X45365352Y-76105703D01*
X45334412Y-76126432D01*
X45306292Y-76156198D01*
X45282952Y-76198626D01*
X45275825Y-76214592D01*
X45264001Y-76247094D01*
X45261571Y-76271525D01*
X45112326Y-76271525D01*
X45111089Y-76261701D01*
X45119691Y-76206675D01*
X45143833Y-76144543D01*
X45144629Y-76142850D01*
X45185080Y-76073428D01*
X45235765Y-76016830D01*
X45298490Y-75972262D01*
X45375066Y-75938933D01*
X45467301Y-75916053D01*
X45577004Y-75902828D01*
X45705983Y-75898467D01*
X45709555Y-75898462D01*
X45769575Y-75898602D01*
X45811506Y-75899638D01*
X45839620Y-75902232D01*
X45858189Y-75907045D01*
X45871486Y-75914736D01*
X45883783Y-75925968D01*
X45911492Y-75953677D01*
X45911492Y-76263112D01*
X45911467Y-76324718D01*
X45911242Y-76403503D01*
X45910624Y-76464213D01*
X45910067Y-76485281D01*
X45909425Y-76509588D01*
G36*
X45909425Y-76509588D02*
G01*
X45907455Y-76542367D01*
X45904527Y-76565287D01*
X45900450Y-76581089D01*
X45895035Y-76592511D01*
X45888095Y-76602292D01*
X45864698Y-76632037D01*
X45699006Y-76631443D01*
X45664210Y-76631145D01*
X45565727Y-76627714D01*
X45484765Y-76620031D01*
X45417671Y-76607474D01*
X45360788Y-76589419D01*
X45310461Y-76565244D01*
X45307102Y-76563327D01*
X45249290Y-76526609D01*
X45206936Y-76489643D01*
X45174120Y-76446158D01*
X45144920Y-76389881D01*
X45140638Y-76380265D01*
X45118061Y-76317079D01*
X45112326Y-76271525D01*
X45261571Y-76271525D01*
X45267184Y-76296253D01*
X45272910Y-76312131D01*
X45305840Y-76372039D01*
X45353178Y-76417792D01*
X45416944Y-76450928D01*
X45499153Y-76472982D01*
X45501947Y-76473484D01*
X45548232Y-76479447D01*
X45604628Y-76483675D01*
X45659566Y-76485281D01*
X45753448Y-76485281D01*
X45753448Y-76045014D01*
X45665959Y-76045462D01*
X45599039Y-76047938D01*
X45506641Y-76059190D01*
X45427326Y-76078729D01*
X45365352Y-76105703D01*
X45334412Y-76126432D01*
X45306292Y-76156198D01*
X45282952Y-76198626D01*
X45275825Y-76214592D01*
X45264001Y-76247094D01*
X45261571Y-76271525D01*
X45112326Y-76271525D01*
X45111089Y-76261701D01*
X45119691Y-76206675D01*
X45143833Y-76144543D01*
X45144629Y-76142850D01*
X45185080Y-76073428D01*
X45235765Y-76016830D01*
X45298490Y-75972262D01*
X45375066Y-75938933D01*
X45467301Y-75916053D01*
X45577004Y-75902828D01*
X45705983Y-75898467D01*
X45709555Y-75898462D01*
X45769575Y-75898602D01*
X45811506Y-75899638D01*
X45839620Y-75902232D01*
X45858189Y-75907045D01*
X45871486Y-75914736D01*
X45883783Y-75925968D01*
X45911492Y-75953677D01*
X45911492Y-76263112D01*
X45911467Y-76324718D01*
X45911242Y-76403503D01*
X45910624Y-76464213D01*
X45910067Y-76485281D01*
X45909425Y-76509588D01*
G37*
X53001109Y-76083619D02*
X53001162Y-76164233D01*
X53000914Y-76265148D01*
X53000875Y-76340809D01*
X53000620Y-76418718D01*
X52999976Y-76478728D01*
X52998772Y-76523456D01*
X52996835Y-76555518D01*
X52993995Y-76577532D01*
X52990080Y-76592116D01*
X52984918Y-76601886D01*
X52978337Y-76609459D01*
X52971369Y-76615693D01*
X52958371Y-76622993D01*
X52939223Y-76627746D01*
X52909820Y-76630484D01*
X52866054Y-76631737D01*
X52803820Y-76632037D01*
X52754874Y-76631661D01*
X52648014Y-76627233D01*
X52558786Y-76617145D01*
X52483988Y-76600557D01*
X52420417Y-76576627D01*
X52364871Y-76544513D01*
X52314146Y-76503374D01*
X52308158Y-76497522D01*
X52271291Y-76449013D01*
X52240191Y-76388205D01*
X52218709Y-76323961D01*
X52213428Y-76285218D01*
X52360645Y-76285218D01*
X52378927Y-76336153D01*
X52408597Y-76382070D01*
X52455294Y-76424479D01*
X52516684Y-76454282D01*
X52595830Y-76473418D01*
X52597320Y-76473656D01*
X52646291Y-76479448D01*
X52704985Y-76483588D01*
X52761026Y-76485196D01*
X52854159Y-76485281D01*
X52854159Y-76045014D01*
X52777959Y-76045000D01*
X52774931Y-76045009D01*
X52723811Y-76046974D01*
X52663708Y-76051699D01*
X52607000Y-76058227D01*
X52557042Y-76067523D01*
X52482290Y-76093792D01*
X52424781Y-76133091D01*
X52383280Y-76186125D01*
X52362063Y-76237392D01*
X52360645Y-76285218D01*
X52213428Y-76285218D01*
X52210692Y-76265148D01*
X52211971Y-76243931D01*
X52224283Y-76186515D01*
X52246812Y-76126605D01*
X52276042Y-76072555D01*
X52308459Y-76032724D01*
X52328000Y-76015702D01*
X52382712Y-75976514D01*
X52443015Y-75946385D01*
X52512211Y-75924424D01*
X52593603Y-75909742D01*
X52690492Y-75901451D01*
X52806181Y-75898659D01*
X52845663Y-75898258D01*
X52891374Y-75897845D01*
X52927175Y-75899649D01*
X52954266Y-75905931D01*
X52973848Y-75918951D01*
X52987122Y-75940970D01*
X52995290Y-75974247D01*
X52999552Y-76021043D01*
X53000149Y-76045014D01*
X53001109Y-76083619D01*
G36*
X53001109Y-76083619D02*
G01*
X53001162Y-76164233D01*
X53000914Y-76265148D01*
X53000875Y-76340809D01*
X53000620Y-76418718D01*
X52999976Y-76478728D01*
X52998772Y-76523456D01*
X52996835Y-76555518D01*
X52993995Y-76577532D01*
X52990080Y-76592116D01*
X52984918Y-76601886D01*
X52978337Y-76609459D01*
X52971369Y-76615693D01*
X52958371Y-76622993D01*
X52939223Y-76627746D01*
X52909820Y-76630484D01*
X52866054Y-76631737D01*
X52803820Y-76632037D01*
X52754874Y-76631661D01*
X52648014Y-76627233D01*
X52558786Y-76617145D01*
X52483988Y-76600557D01*
X52420417Y-76576627D01*
X52364871Y-76544513D01*
X52314146Y-76503374D01*
X52308158Y-76497522D01*
X52271291Y-76449013D01*
X52240191Y-76388205D01*
X52218709Y-76323961D01*
X52213428Y-76285218D01*
X52360645Y-76285218D01*
X52378927Y-76336153D01*
X52408597Y-76382070D01*
X52455294Y-76424479D01*
X52516684Y-76454282D01*
X52595830Y-76473418D01*
X52597320Y-76473656D01*
X52646291Y-76479448D01*
X52704985Y-76483588D01*
X52761026Y-76485196D01*
X52854159Y-76485281D01*
X52854159Y-76045014D01*
X52777959Y-76045000D01*
X52774931Y-76045009D01*
X52723811Y-76046974D01*
X52663708Y-76051699D01*
X52607000Y-76058227D01*
X52557042Y-76067523D01*
X52482290Y-76093792D01*
X52424781Y-76133091D01*
X52383280Y-76186125D01*
X52362063Y-76237392D01*
X52360645Y-76285218D01*
X52213428Y-76285218D01*
X52210692Y-76265148D01*
X52211971Y-76243931D01*
X52224283Y-76186515D01*
X52246812Y-76126605D01*
X52276042Y-76072555D01*
X52308459Y-76032724D01*
X52328000Y-76015702D01*
X52382712Y-75976514D01*
X52443015Y-75946385D01*
X52512211Y-75924424D01*
X52593603Y-75909742D01*
X52690492Y-75901451D01*
X52806181Y-75898659D01*
X52845663Y-75898258D01*
X52891374Y-75897845D01*
X52927175Y-75899649D01*
X52954266Y-75905931D01*
X52973848Y-75918951D01*
X52987122Y-75940970D01*
X52995290Y-75974247D01*
X52999552Y-76021043D01*
X53000149Y-76045014D01*
X53001109Y-76083619D01*
G37*
X48056185Y-75897084D02*
X48067593Y-75903221D01*
X48078142Y-75913883D01*
X48089428Y-75928003D01*
X48093881Y-75933964D01*
X48099880Y-75944460D01*
X48104459Y-75958285D01*
X48107811Y-75978190D01*
X48110125Y-76006924D01*
X48111593Y-76047237D01*
X48112405Y-76101879D01*
X48112752Y-76173599D01*
X48112826Y-76265148D01*
X48112803Y-76323678D01*
X48112584Y-76402765D01*
X48111975Y-76463708D01*
X48110784Y-76509254D01*
X48108821Y-76542155D01*
X48105895Y-76565160D01*
X48101815Y-76581018D01*
X48096389Y-76592478D01*
X48089428Y-76602292D01*
X48059000Y-76626685D01*
X48024057Y-76629564D01*
X47987076Y-76610474D01*
X47982892Y-76606999D01*
X47974716Y-76598471D01*
X47968656Y-76586920D01*
X47964273Y-76569088D01*
X47961131Y-76541716D01*
X47958794Y-76501546D01*
X47956823Y-76445320D01*
X47954781Y-76369781D01*
X47949137Y-76150650D01*
X47683848Y-76391291D01*
X47610014Y-76458067D01*
X47544834Y-76516183D01*
X47492640Y-76561141D01*
X47451565Y-76594063D01*
X47419747Y-76616071D01*
X47395318Y-76628286D01*
X47376416Y-76631831D01*
X47361175Y-76627828D01*
X47347731Y-76617399D01*
X47334219Y-76601666D01*
X47327974Y-76593183D01*
X47322342Y-76582605D01*
X47318131Y-76568447D01*
X47315179Y-76547995D01*
X47313324Y-76518534D01*
X47312405Y-76477353D01*
X47312260Y-76421736D01*
X47312727Y-76348971D01*
X47313644Y-76256343D01*
X47316959Y-75941391D01*
X47343610Y-75919825D01*
X47369675Y-75903633D01*
X47402533Y-75900862D01*
X47437064Y-75919815D01*
X47441376Y-75923400D01*
X47449508Y-75931929D01*
X47455537Y-75943521D01*
X47459898Y-75961427D01*
X47463026Y-75988898D01*
X47465355Y-76029186D01*
X47467321Y-76085543D01*
X47469359Y-76161221D01*
X47475003Y-76381070D01*
X47655626Y-76217276D01*
X47742364Y-76138643D01*
X47818135Y-76070250D01*
X47880272Y-76014900D01*
X47930370Y-75971530D01*
X47970027Y-75939073D01*
X48000840Y-75916465D01*
X48024406Y-75902640D01*
X48042322Y-75896535D01*
X48056185Y-75897084D01*
G36*
X48056185Y-75897084D02*
G01*
X48067593Y-75903221D01*
X48078142Y-75913883D01*
X48089428Y-75928003D01*
X48093881Y-75933964D01*
X48099880Y-75944460D01*
X48104459Y-75958285D01*
X48107811Y-75978190D01*
X48110125Y-76006924D01*
X48111593Y-76047237D01*
X48112405Y-76101879D01*
X48112752Y-76173599D01*
X48112826Y-76265148D01*
X48112803Y-76323678D01*
X48112584Y-76402765D01*
X48111975Y-76463708D01*
X48110784Y-76509254D01*
X48108821Y-76542155D01*
X48105895Y-76565160D01*
X48101815Y-76581018D01*
X48096389Y-76592478D01*
X48089428Y-76602292D01*
X48059000Y-76626685D01*
X48024057Y-76629564D01*
X47987076Y-76610474D01*
X47982892Y-76606999D01*
X47974716Y-76598471D01*
X47968656Y-76586920D01*
X47964273Y-76569088D01*
X47961131Y-76541716D01*
X47958794Y-76501546D01*
X47956823Y-76445320D01*
X47954781Y-76369781D01*
X47949137Y-76150650D01*
X47683848Y-76391291D01*
X47610014Y-76458067D01*
X47544834Y-76516183D01*
X47492640Y-76561141D01*
X47451565Y-76594063D01*
X47419747Y-76616071D01*
X47395318Y-76628286D01*
X47376416Y-76631831D01*
X47361175Y-76627828D01*
X47347731Y-76617399D01*
X47334219Y-76601666D01*
X47327974Y-76593183D01*
X47322342Y-76582605D01*
X47318131Y-76568447D01*
X47315179Y-76547995D01*
X47313324Y-76518534D01*
X47312405Y-76477353D01*
X47312260Y-76421736D01*
X47312727Y-76348971D01*
X47313644Y-76256343D01*
X47316959Y-75941391D01*
X47343610Y-75919825D01*
X47369675Y-75903633D01*
X47402533Y-75900862D01*
X47437064Y-75919815D01*
X47441376Y-75923400D01*
X47449508Y-75931929D01*
X47455537Y-75943521D01*
X47459898Y-75961427D01*
X47463026Y-75988898D01*
X47465355Y-76029186D01*
X47467321Y-76085543D01*
X47469359Y-76161221D01*
X47475003Y-76381070D01*
X47655626Y-76217276D01*
X47742364Y-76138643D01*
X47818135Y-76070250D01*
X47880272Y-76014900D01*
X47930370Y-75971530D01*
X47970027Y-75939073D01*
X48000840Y-75916465D01*
X48024406Y-75902640D01*
X48042322Y-75896535D01*
X48056185Y-75897084D01*
G37*
X48853442Y-75903371D02*
X48959449Y-75919686D01*
X49053261Y-75947737D01*
X49132057Y-75986644D01*
X49193011Y-76035526D01*
X49219081Y-76068387D01*
X49248589Y-76117586D01*
X49273860Y-76171444D01*
X49291510Y-76222611D01*
X49298150Y-76263736D01*
X49296590Y-76283451D01*
X49283649Y-76334784D01*
X49260486Y-76391310D01*
X49230594Y-76445227D01*
X49197465Y-76488731D01*
X49187269Y-76499079D01*
X49120184Y-76550854D01*
X49040058Y-76590746D01*
X48953848Y-76615148D01*
X48898884Y-76623260D01*
X48805431Y-76629865D01*
X48715650Y-76627778D01*
X48633161Y-76617532D01*
X48561578Y-76599662D01*
X48504520Y-76574700D01*
X48465603Y-76543180D01*
X48464228Y-76541204D01*
X48457140Y-76515978D01*
X48452901Y-76468727D01*
X48451492Y-76399263D01*
X48452352Y-76337030D01*
X48457072Y-76289648D01*
X48468762Y-76257545D01*
X48490531Y-76237992D01*
X48525490Y-76228262D01*
X48576748Y-76225625D01*
X48647415Y-76227353D01*
X48696035Y-76230365D01*
X48746231Y-76238558D01*
X48778725Y-76252611D01*
X48796184Y-76273846D01*
X48801275Y-76303586D01*
X48801169Y-76308128D01*
X48792467Y-76342922D01*
X48768457Y-76366339D01*
X48727192Y-76379539D01*
X48666723Y-76383681D01*
X48598248Y-76383681D01*
X48598248Y-76422033D01*
X48598298Y-76431168D01*
X48600519Y-76448419D01*
X48609786Y-76458713D01*
X48631167Y-76465651D01*
X48669728Y-76472833D01*
X48675202Y-76473767D01*
X48772152Y-76483670D01*
X48862144Y-76480751D01*
X48943052Y-76466021D01*
X49012751Y-76440491D01*
X49069116Y-76405170D01*
X49110021Y-76361071D01*
X49133343Y-76309204D01*
X49136955Y-76250580D01*
X49131437Y-76221686D01*
X49104753Y-76165796D01*
X49058565Y-76120137D01*
X48993583Y-76085300D01*
X48910521Y-76061882D01*
X48885847Y-76057433D01*
X48796518Y-76046934D01*
X48716711Y-76048163D01*
X48638618Y-76061098D01*
X48603475Y-76067888D01*
X48558037Y-76068905D01*
X48526722Y-76056374D01*
X48506569Y-76029587D01*
X48500185Y-76001340D01*
X48509671Y-75970116D01*
X48519000Y-75956691D01*
X48553235Y-75933159D01*
X48605857Y-75915287D01*
X48674373Y-75903791D01*
X48756292Y-75899384D01*
X48853442Y-75903371D01*
G36*
X48853442Y-75903371D02*
G01*
X48959449Y-75919686D01*
X49053261Y-75947737D01*
X49132057Y-75986644D01*
X49193011Y-76035526D01*
X49219081Y-76068387D01*
X49248589Y-76117586D01*
X49273860Y-76171444D01*
X49291510Y-76222611D01*
X49298150Y-76263736D01*
X49296590Y-76283451D01*
X49283649Y-76334784D01*
X49260486Y-76391310D01*
X49230594Y-76445227D01*
X49197465Y-76488731D01*
X49187269Y-76499079D01*
X49120184Y-76550854D01*
X49040058Y-76590746D01*
X48953848Y-76615148D01*
X48898884Y-76623260D01*
X48805431Y-76629865D01*
X48715650Y-76627778D01*
X48633161Y-76617532D01*
X48561578Y-76599662D01*
X48504520Y-76574700D01*
X48465603Y-76543180D01*
X48464228Y-76541204D01*
X48457140Y-76515978D01*
X48452901Y-76468727D01*
X48451492Y-76399263D01*
X48452352Y-76337030D01*
X48457072Y-76289648D01*
X48468762Y-76257545D01*
X48490531Y-76237992D01*
X48525490Y-76228262D01*
X48576748Y-76225625D01*
X48647415Y-76227353D01*
X48696035Y-76230365D01*
X48746231Y-76238558D01*
X48778725Y-76252611D01*
X48796184Y-76273846D01*
X48801275Y-76303586D01*
X48801169Y-76308128D01*
X48792467Y-76342922D01*
X48768457Y-76366339D01*
X48727192Y-76379539D01*
X48666723Y-76383681D01*
X48598248Y-76383681D01*
X48598248Y-76422033D01*
X48598298Y-76431168D01*
X48600519Y-76448419D01*
X48609786Y-76458713D01*
X48631167Y-76465651D01*
X48669728Y-76472833D01*
X48675202Y-76473767D01*
X48772152Y-76483670D01*
X48862144Y-76480751D01*
X48943052Y-76466021D01*
X49012751Y-76440491D01*
X49069116Y-76405170D01*
X49110021Y-76361071D01*
X49133343Y-76309204D01*
X49136955Y-76250580D01*
X49131437Y-76221686D01*
X49104753Y-76165796D01*
X49058565Y-76120137D01*
X48993583Y-76085300D01*
X48910521Y-76061882D01*
X48885847Y-76057433D01*
X48796518Y-76046934D01*
X48716711Y-76048163D01*
X48638618Y-76061098D01*
X48603475Y-76067888D01*
X48558037Y-76068905D01*
X48526722Y-76056374D01*
X48506569Y-76029587D01*
X48500185Y-76001340D01*
X48509671Y-75970116D01*
X48519000Y-75956691D01*
X48553235Y-75933159D01*
X48605857Y-75915287D01*
X48674373Y-75903791D01*
X48756292Y-75899384D01*
X48853442Y-75903371D01*
G37*
X46904095Y-75928003D02*
X46909044Y-75934687D01*
X46914888Y-75945258D01*
X46919349Y-75959345D01*
X46922613Y-75979670D01*
X46924866Y-76008957D01*
X46926294Y-76049929D01*
X46927084Y-76105309D01*
X46927421Y-76177820D01*
X46927492Y-76270186D01*
X46927463Y-76336103D01*
X46927231Y-76414420D01*
X46926611Y-76474688D01*
X46925418Y-76519585D01*
X46923471Y-76551794D01*
X46920586Y-76573992D01*
X46916580Y-76588861D01*
X46911271Y-76599081D01*
X46904475Y-76607330D01*
X46899960Y-76611987D01*
X46891730Y-76618474D01*
X46880370Y-76623386D01*
X46863102Y-76626941D01*
X46837147Y-76629359D01*
X46799728Y-76630859D01*
X46748065Y-76631659D01*
X46679381Y-76631979D01*
X46590898Y-76632037D01*
X46571223Y-76632030D01*
X46484198Y-76631764D01*
X46416546Y-76630998D01*
X46365591Y-76629584D01*
X46328659Y-76627372D01*
X46303075Y-76624214D01*
X46286163Y-76619961D01*
X46275249Y-76614463D01*
X46264756Y-76604477D01*
X46251495Y-76573360D01*
X46252678Y-76537472D01*
X46268842Y-76505925D01*
X46271031Y-76503649D01*
X46279719Y-76497381D01*
X46293061Y-76492715D01*
X46314044Y-76489419D01*
X46345655Y-76487260D01*
X46390882Y-76486006D01*
X46452712Y-76485423D01*
X46534131Y-76485281D01*
X46780737Y-76485281D01*
X46780737Y-76327237D01*
X46618298Y-76327237D01*
X46582630Y-76327156D01*
X46526860Y-76326359D01*
X46487722Y-76324354D01*
X46461268Y-76320713D01*
X46443551Y-76315004D01*
X46430621Y-76306799D01*
X46426978Y-76303615D01*
X46408570Y-76272640D01*
X46407936Y-76236304D01*
X46425475Y-76202685D01*
X46425537Y-76202616D01*
X46435208Y-76193990D01*
X46448501Y-76187934D01*
X46469209Y-76184003D01*
X46501120Y-76181748D01*
X46548026Y-76180723D01*
X46613716Y-76180481D01*
X46781863Y-76180481D01*
X46778478Y-76115570D01*
X46775092Y-76050659D01*
X46533015Y-76047606D01*
X46507999Y-76047278D01*
X46426379Y-76045798D01*
X46364060Y-76043414D01*
X46318446Y-76039419D01*
X46286944Y-76033105D01*
X46266959Y-76023766D01*
X46255896Y-76010695D01*
X46251161Y-75993184D01*
X46250159Y-75970527D01*
X46250165Y-75968162D01*
X46251319Y-75948131D01*
X46256116Y-75932338D01*
X46266924Y-75920282D01*
X46286109Y-75911459D01*
X46316037Y-75905367D01*
X46359075Y-75901503D01*
X46417591Y-75899366D01*
X46493949Y-75898452D01*
X46590518Y-75898259D01*
X46880698Y-75898259D01*
X46904095Y-75928003D01*
G36*
X46904095Y-75928003D02*
G01*
X46909044Y-75934687D01*
X46914888Y-75945258D01*
X46919349Y-75959345D01*
X46922613Y-75979670D01*
X46924866Y-76008957D01*
X46926294Y-76049929D01*
X46927084Y-76105309D01*
X46927421Y-76177820D01*
X46927492Y-76270186D01*
X46927463Y-76336103D01*
X46927231Y-76414420D01*
X46926611Y-76474688D01*
X46925418Y-76519585D01*
X46923471Y-76551794D01*
X46920586Y-76573992D01*
X46916580Y-76588861D01*
X46911271Y-76599081D01*
X46904475Y-76607330D01*
X46899960Y-76611987D01*
X46891730Y-76618474D01*
X46880370Y-76623386D01*
X46863102Y-76626941D01*
X46837147Y-76629359D01*
X46799728Y-76630859D01*
X46748065Y-76631659D01*
X46679381Y-76631979D01*
X46590898Y-76632037D01*
X46571223Y-76632030D01*
X46484198Y-76631764D01*
X46416546Y-76630998D01*
X46365591Y-76629584D01*
X46328659Y-76627372D01*
X46303075Y-76624214D01*
X46286163Y-76619961D01*
X46275249Y-76614463D01*
X46264756Y-76604477D01*
X46251495Y-76573360D01*
X46252678Y-76537472D01*
X46268842Y-76505925D01*
X46271031Y-76503649D01*
X46279719Y-76497381D01*
X46293061Y-76492715D01*
X46314044Y-76489419D01*
X46345655Y-76487260D01*
X46390882Y-76486006D01*
X46452712Y-76485423D01*
X46534131Y-76485281D01*
X46780737Y-76485281D01*
X46780737Y-76327237D01*
X46618298Y-76327237D01*
X46582630Y-76327156D01*
X46526860Y-76326359D01*
X46487722Y-76324354D01*
X46461268Y-76320713D01*
X46443551Y-76315004D01*
X46430621Y-76306799D01*
X46426978Y-76303615D01*
X46408570Y-76272640D01*
X46407936Y-76236304D01*
X46425475Y-76202685D01*
X46425537Y-76202616D01*
X46435208Y-76193990D01*
X46448501Y-76187934D01*
X46469209Y-76184003D01*
X46501120Y-76181748D01*
X46548026Y-76180723D01*
X46613716Y-76180481D01*
X46781863Y-76180481D01*
X46778478Y-76115570D01*
X46775092Y-76050659D01*
X46533015Y-76047606D01*
X46507999Y-76047278D01*
X46426379Y-76045798D01*
X46364060Y-76043414D01*
X46318446Y-76039419D01*
X46286944Y-76033105D01*
X46266959Y-76023766D01*
X46255896Y-76010695D01*
X46251161Y-75993184D01*
X46250159Y-75970527D01*
X46250165Y-75968162D01*
X46251319Y-75948131D01*
X46256116Y-75932338D01*
X46266924Y-75920282D01*
X46286109Y-75911459D01*
X46316037Y-75905367D01*
X46359075Y-75901503D01*
X46417591Y-75899366D01*
X46493949Y-75898452D01*
X46590518Y-75898259D01*
X46880698Y-75898259D01*
X46904095Y-75928003D01*
G37*
X51581026Y-75898275D02*
X51658123Y-75898467D01*
X51717069Y-75899052D01*
X51760656Y-75900243D01*
X51791675Y-75902256D01*
X51812917Y-75905304D01*
X51827174Y-75909601D01*
X51837237Y-75915364D01*
X51845898Y-75922804D01*
X51847683Y-75924485D01*
X51854927Y-75932024D01*
X51860569Y-75941042D01*
X51864809Y-75954176D01*
X51867848Y-75974064D01*
X51869886Y-76003343D01*
X51871122Y-76044650D01*
X51871757Y-76100623D01*
X51871992Y-76173899D01*
X51872026Y-76267115D01*
X51871989Y-76339905D01*
X51871740Y-76418081D01*
X51871104Y-76478295D01*
X51869907Y-76523174D01*
X51867976Y-76555344D01*
X51865138Y-76577431D01*
X51861219Y-76592062D01*
X51856047Y-76601862D01*
X51849448Y-76609459D01*
X51846114Y-76612636D01*
X51837592Y-76618746D01*
X51825590Y-76623421D01*
X51807379Y-76626851D01*
X51780232Y-76629228D01*
X51741421Y-76630744D01*
X51688216Y-76631590D01*
X51617890Y-76631957D01*
X51527714Y-76632037D01*
X51485606Y-76632025D01*
X51404459Y-76631843D01*
X51341967Y-76631290D01*
X51295401Y-76630174D01*
X51262033Y-76628305D01*
X51239136Y-76625490D01*
X51223980Y-76621538D01*
X51213838Y-76616258D01*
X51205981Y-76609459D01*
X51191255Y-76587859D01*
X51183403Y-76558659D01*
X51188902Y-76534752D01*
X51205981Y-76507859D01*
X51210960Y-76503251D01*
X51220735Y-76496964D01*
X51234851Y-76492338D01*
X51256346Y-76489122D01*
X51288260Y-76487062D01*
X51333634Y-76485904D01*
X51395505Y-76485394D01*
X51476914Y-76485281D01*
X51725270Y-76485281D01*
X51725270Y-76327237D01*
X51564093Y-76327237D01*
X51528275Y-76327091D01*
X51462651Y-76325368D01*
X51415410Y-76320933D01*
X51383675Y-76312829D01*
X51364569Y-76300098D01*
X51355215Y-76281784D01*
X51352737Y-76256930D01*
X51353534Y-76236674D01*
X51358786Y-76214848D01*
X51371580Y-76199496D01*
X51394920Y-76189501D01*
X51431809Y-76183745D01*
X51485251Y-76181111D01*
X51558250Y-76180481D01*
X51726397Y-76180481D01*
X51723011Y-76115570D01*
X51719626Y-76050659D01*
X51471909Y-76047610D01*
X51409318Y-76046731D01*
X51340857Y-76045287D01*
X51289953Y-76043356D01*
X51253700Y-76040706D01*
X51229193Y-76037102D01*
X51213527Y-76032313D01*
X51203798Y-76026105D01*
X51197783Y-76019702D01*
X51184774Y-75988020D01*
X51188335Y-75952334D01*
X51208110Y-75921276D01*
X51211361Y-75918353D01*
X51220341Y-75912002D01*
X51232445Y-75907149D01*
X51250451Y-75903595D01*
X51277139Y-75901138D01*
X51315289Y-75899577D01*
X51367678Y-75898710D01*
X51437086Y-75898338D01*
X51526293Y-75898259D01*
X51581026Y-75898275D01*
G36*
X51581026Y-75898275D02*
G01*
X51658123Y-75898467D01*
X51717069Y-75899052D01*
X51760656Y-75900243D01*
X51791675Y-75902256D01*
X51812917Y-75905304D01*
X51827174Y-75909601D01*
X51837237Y-75915364D01*
X51845898Y-75922804D01*
X51847683Y-75924485D01*
X51854927Y-75932024D01*
X51860569Y-75941042D01*
X51864809Y-75954176D01*
X51867848Y-75974064D01*
X51869886Y-76003343D01*
X51871122Y-76044650D01*
X51871757Y-76100623D01*
X51871992Y-76173899D01*
X51872026Y-76267115D01*
X51871989Y-76339905D01*
X51871740Y-76418081D01*
X51871104Y-76478295D01*
X51869907Y-76523174D01*
X51867976Y-76555344D01*
X51865138Y-76577431D01*
X51861219Y-76592062D01*
X51856047Y-76601862D01*
X51849448Y-76609459D01*
X51846114Y-76612636D01*
X51837592Y-76618746D01*
X51825590Y-76623421D01*
X51807379Y-76626851D01*
X51780232Y-76629228D01*
X51741421Y-76630744D01*
X51688216Y-76631590D01*
X51617890Y-76631957D01*
X51527714Y-76632037D01*
X51485606Y-76632025D01*
X51404459Y-76631843D01*
X51341967Y-76631290D01*
X51295401Y-76630174D01*
X51262033Y-76628305D01*
X51239136Y-76625490D01*
X51223980Y-76621538D01*
X51213838Y-76616258D01*
X51205981Y-76609459D01*
X51191255Y-76587859D01*
X51183403Y-76558659D01*
X51188902Y-76534752D01*
X51205981Y-76507859D01*
X51210960Y-76503251D01*
X51220735Y-76496964D01*
X51234851Y-76492338D01*
X51256346Y-76489122D01*
X51288260Y-76487062D01*
X51333634Y-76485904D01*
X51395505Y-76485394D01*
X51476914Y-76485281D01*
X51725270Y-76485281D01*
X51725270Y-76327237D01*
X51564093Y-76327237D01*
X51528275Y-76327091D01*
X51462651Y-76325368D01*
X51415410Y-76320933D01*
X51383675Y-76312829D01*
X51364569Y-76300098D01*
X51355215Y-76281784D01*
X51352737Y-76256930D01*
X51353534Y-76236674D01*
X51358786Y-76214848D01*
X51371580Y-76199496D01*
X51394920Y-76189501D01*
X51431809Y-76183745D01*
X51485251Y-76181111D01*
X51558250Y-76180481D01*
X51726397Y-76180481D01*
X51723011Y-76115570D01*
X51719626Y-76050659D01*
X51471909Y-76047610D01*
X51409318Y-76046731D01*
X51340857Y-76045287D01*
X51289953Y-76043356D01*
X51253700Y-76040706D01*
X51229193Y-76037102D01*
X51213527Y-76032313D01*
X51203798Y-76026105D01*
X51197783Y-76019702D01*
X51184774Y-75988020D01*
X51188335Y-75952334D01*
X51208110Y-75921276D01*
X51211361Y-75918353D01*
X51220341Y-75912002D01*
X51232445Y-75907149D01*
X51250451Y-75903595D01*
X51277139Y-75901138D01*
X51315289Y-75899577D01*
X51367678Y-75898710D01*
X51437086Y-75898338D01*
X51526293Y-75898259D01*
X51581026Y-75898275D01*
G37*
X43013994Y-75907670D02*
X43031955Y-75926181D01*
X43052555Y-75957263D01*
X43077387Y-76002948D01*
X43108042Y-76065270D01*
X43146112Y-76146263D01*
X43160746Y-76177646D01*
X43190495Y-76240830D01*
X43216589Y-76295436D01*
X43237584Y-76338482D01*
X43252031Y-76366985D01*
X43258483Y-76377962D01*
X43259842Y-76377381D01*
X43269834Y-76363434D01*
X43287125Y-76333896D01*
X43309722Y-76292279D01*
X43335630Y-76242095D01*
X43351603Y-76210606D01*
X43380553Y-76155253D01*
X43403041Y-76116236D01*
X43421257Y-76090758D01*
X43437388Y-76076023D01*
X43453622Y-76069234D01*
X43472149Y-76067592D01*
X43482652Y-76068067D01*
X43498768Y-76072274D01*
X43514082Y-76083138D01*
X43530680Y-76103411D01*
X43550649Y-76135846D01*
X43576075Y-76183196D01*
X43609044Y-76248214D01*
X43618777Y-76267469D01*
X43643235Y-76314138D01*
X43663470Y-76350301D01*
X43677603Y-76372689D01*
X43683752Y-76378037D01*
X43685119Y-76374765D01*
X43694494Y-76353856D01*
X43711354Y-76316917D01*
X43734271Y-76267066D01*
X43761812Y-76207418D01*
X43792547Y-76141090D01*
X43819262Y-76083869D01*
X43848885Y-76021880D01*
X43871956Y-75976141D01*
X43889935Y-75944100D01*
X43904282Y-75923206D01*
X43916458Y-75910910D01*
X43927924Y-75904658D01*
X43937334Y-75901766D01*
X43962439Y-75901617D01*
X43989582Y-75916960D01*
X43990882Y-75917945D01*
X44012966Y-75940580D01*
X44024015Y-75962805D01*
X44024061Y-75963445D01*
X44019520Y-75981107D01*
X44006656Y-76015673D01*
X43986897Y-76064018D01*
X43961673Y-76123017D01*
X43932411Y-76189547D01*
X43900542Y-76260483D01*
X43867493Y-76332699D01*
X43834693Y-76403072D01*
X43803572Y-76468477D01*
X43775557Y-76525789D01*
X43752078Y-76571884D01*
X43734564Y-76603638D01*
X43724443Y-76617925D01*
X43690035Y-76631294D01*
X43648338Y-76624933D01*
X43642973Y-76620236D01*
X43627144Y-76598085D01*
X43604942Y-76561324D01*
X43578525Y-76513607D01*
X43550052Y-76458585D01*
X43470278Y-76299342D01*
X43397091Y-76445934D01*
X43387395Y-76465224D01*
X43360417Y-76517572D01*
X43336388Y-76562362D01*
X43317624Y-76595346D01*
X43306438Y-76612281D01*
X43305292Y-76613524D01*
X43277171Y-76628811D01*
X43242109Y-76630494D01*
X43211068Y-76617925D01*
X43208642Y-76615076D01*
X43196382Y-76594451D01*
X43176644Y-76556900D01*
X43150740Y-76505072D01*
X43119977Y-76441615D01*
X43085667Y-76369177D01*
X43049117Y-76290408D01*
X43028877Y-76246285D01*
X42992104Y-76165557D01*
X42963647Y-76101879D01*
X42942623Y-76052944D01*
X42928146Y-76016449D01*
X42919331Y-75990087D01*
X42915296Y-75971553D01*
X42915154Y-75958544D01*
X42918022Y-75948753D01*
X42932679Y-75927870D01*
X42959282Y-75907569D01*
X42960037Y-75907227D01*
X42979627Y-75900226D01*
X42997082Y-75899696D01*
X43013994Y-75907670D01*
G36*
X43013994Y-75907670D02*
G01*
X43031955Y-75926181D01*
X43052555Y-75957263D01*
X43077387Y-76002948D01*
X43108042Y-76065270D01*
X43146112Y-76146263D01*
X43160746Y-76177646D01*
X43190495Y-76240830D01*
X43216589Y-76295436D01*
X43237584Y-76338482D01*
X43252031Y-76366985D01*
X43258483Y-76377962D01*
X43259842Y-76377381D01*
X43269834Y-76363434D01*
X43287125Y-76333896D01*
X43309722Y-76292279D01*
X43335630Y-76242095D01*
X43351603Y-76210606D01*
X43380553Y-76155253D01*
X43403041Y-76116236D01*
X43421257Y-76090758D01*
X43437388Y-76076023D01*
X43453622Y-76069234D01*
X43472149Y-76067592D01*
X43482652Y-76068067D01*
X43498768Y-76072274D01*
X43514082Y-76083138D01*
X43530680Y-76103411D01*
X43550649Y-76135846D01*
X43576075Y-76183196D01*
X43609044Y-76248214D01*
X43618777Y-76267469D01*
X43643235Y-76314138D01*
X43663470Y-76350301D01*
X43677603Y-76372689D01*
X43683752Y-76378037D01*
X43685119Y-76374765D01*
X43694494Y-76353856D01*
X43711354Y-76316917D01*
X43734271Y-76267066D01*
X43761812Y-76207418D01*
X43792547Y-76141090D01*
X43819262Y-76083869D01*
X43848885Y-76021880D01*
X43871956Y-75976141D01*
X43889935Y-75944100D01*
X43904282Y-75923206D01*
X43916458Y-75910910D01*
X43927924Y-75904658D01*
X43937334Y-75901766D01*
X43962439Y-75901617D01*
X43989582Y-75916960D01*
X43990882Y-75917945D01*
X44012966Y-75940580D01*
X44024015Y-75962805D01*
X44024061Y-75963445D01*
X44019520Y-75981107D01*
X44006656Y-76015673D01*
X43986897Y-76064018D01*
X43961673Y-76123017D01*
X43932411Y-76189547D01*
X43900542Y-76260483D01*
X43867493Y-76332699D01*
X43834693Y-76403072D01*
X43803572Y-76468477D01*
X43775557Y-76525789D01*
X43752078Y-76571884D01*
X43734564Y-76603638D01*
X43724443Y-76617925D01*
X43690035Y-76631294D01*
X43648338Y-76624933D01*
X43642973Y-76620236D01*
X43627144Y-76598085D01*
X43604942Y-76561324D01*
X43578525Y-76513607D01*
X43550052Y-76458585D01*
X43470278Y-76299342D01*
X43397091Y-76445934D01*
X43387395Y-76465224D01*
X43360417Y-76517572D01*
X43336388Y-76562362D01*
X43317624Y-76595346D01*
X43306438Y-76612281D01*
X43305292Y-76613524D01*
X43277171Y-76628811D01*
X43242109Y-76630494D01*
X43211068Y-76617925D01*
X43208642Y-76615076D01*
X43196382Y-76594451D01*
X43176644Y-76556900D01*
X43150740Y-76505072D01*
X43119977Y-76441615D01*
X43085667Y-76369177D01*
X43049117Y-76290408D01*
X43028877Y-76246285D01*
X42992104Y-76165557D01*
X42963647Y-76101879D01*
X42942623Y-76052944D01*
X42928146Y-76016449D01*
X42919331Y-75990087D01*
X42915296Y-75971553D01*
X42915154Y-75958544D01*
X42918022Y-75948753D01*
X42932679Y-75927870D01*
X42959282Y-75907569D01*
X42960037Y-75907227D01*
X42979627Y-75900226D01*
X42997082Y-75899696D01*
X43013994Y-75907670D01*
G37*
X50565145Y-75899128D02*
X50631392Y-75904558D01*
X50686692Y-75914156D01*
X50737575Y-75929017D01*
X50808887Y-75962150D01*
X50860044Y-76004832D01*
X50890867Y-76056897D01*
X50901181Y-76118175D01*
X50900244Y-76149424D01*
X50894452Y-76174221D01*
X50879645Y-76195891D01*
X50851672Y-76223241D01*
X50843694Y-76230570D01*
X50819984Y-76251473D01*
X50797590Y-76268443D01*
X50773557Y-76282397D01*
X50744929Y-76294248D01*
X50708752Y-76304912D01*
X50662072Y-76315303D01*
X50601933Y-76326338D01*
X50525382Y-76338930D01*
X50429463Y-76353996D01*
X50411100Y-76357030D01*
X50348770Y-76370650D01*
X50303552Y-76386384D01*
X50277268Y-76403455D01*
X50271739Y-76421089D01*
X50274360Y-76425360D01*
X50292292Y-76440425D01*
X50320418Y-76457059D01*
X50333218Y-76463049D01*
X50354516Y-76470242D01*
X50380902Y-76475019D01*
X50416746Y-76477838D01*
X50466420Y-76479156D01*
X50534292Y-76479429D01*
X50552077Y-76479356D01*
X50619698Y-76478245D01*
X50684637Y-76476020D01*
X50740262Y-76472954D01*
X50779943Y-76469319D01*
X50815454Y-76465251D01*
X50844707Y-76464468D01*
X50863607Y-76469068D01*
X50878721Y-76479743D01*
X50882377Y-76483336D01*
X50898719Y-76515110D01*
X50897399Y-76550764D01*
X50878442Y-76581382D01*
X50858072Y-76592988D01*
X50822088Y-76605683D01*
X50779664Y-76615733D01*
X50776214Y-76616332D01*
X50733544Y-76621548D01*
X50676158Y-76625922D01*
X50611141Y-76629010D01*
X50545581Y-76630369D01*
X50529349Y-76630410D01*
X50431036Y-76627933D01*
X50350984Y-76619927D01*
X50285805Y-76605395D01*
X50232109Y-76583341D01*
X50186508Y-76552768D01*
X50145615Y-76512678D01*
X50125494Y-76486451D01*
X50113868Y-76456904D01*
X50110959Y-76417187D01*
X50111100Y-76405218D01*
X50114973Y-76372537D01*
X50127357Y-76346011D01*
X50152522Y-76315163D01*
X50173734Y-76293023D01*
X50200130Y-76270477D01*
X50229847Y-76252109D01*
X50266077Y-76236853D01*
X50312009Y-76223641D01*
X50370836Y-76211406D01*
X50445748Y-76199081D01*
X50539937Y-76185598D01*
X50585249Y-76178588D01*
X50653203Y-76164029D01*
X50702339Y-76147529D01*
X50731906Y-76129631D01*
X50741156Y-76110877D01*
X50729340Y-76091807D01*
X50695708Y-76072963D01*
X50692662Y-76071749D01*
X50646303Y-76059671D01*
X50583653Y-76051471D01*
X50510219Y-76047311D01*
X50431509Y-76047353D01*
X50353031Y-76051761D01*
X50280292Y-76060697D01*
X50276365Y-76061346D01*
X50227549Y-76069053D01*
X50195297Y-76072665D01*
X50174300Y-76072068D01*
X50159246Y-76067146D01*
X50144826Y-76057788D01*
X50143656Y-76056917D01*
X50119139Y-76026543D01*
X50114346Y-75991042D01*
X50130152Y-75956461D01*
X50134698Y-75952005D01*
X50164312Y-75936865D01*
X50211294Y-75923742D01*
X50271598Y-75912942D01*
X50341180Y-75904773D01*
X50415995Y-75899543D01*
X50491998Y-75897559D01*
X50565145Y-75899128D01*
G36*
X50565145Y-75899128D02*
G01*
X50631392Y-75904558D01*
X50686692Y-75914156D01*
X50737575Y-75929017D01*
X50808887Y-75962150D01*
X50860044Y-76004832D01*
X50890867Y-76056897D01*
X50901181Y-76118175D01*
X50900244Y-76149424D01*
X50894452Y-76174221D01*
X50879645Y-76195891D01*
X50851672Y-76223241D01*
X50843694Y-76230570D01*
X50819984Y-76251473D01*
X50797590Y-76268443D01*
X50773557Y-76282397D01*
X50744929Y-76294248D01*
X50708752Y-76304912D01*
X50662072Y-76315303D01*
X50601933Y-76326338D01*
X50525382Y-76338930D01*
X50429463Y-76353996D01*
X50411100Y-76357030D01*
X50348770Y-76370650D01*
X50303552Y-76386384D01*
X50277268Y-76403455D01*
X50271739Y-76421089D01*
X50274360Y-76425360D01*
X50292292Y-76440425D01*
X50320418Y-76457059D01*
X50333218Y-76463049D01*
X50354516Y-76470242D01*
X50380902Y-76475019D01*
X50416746Y-76477838D01*
X50466420Y-76479156D01*
X50534292Y-76479429D01*
X50552077Y-76479356D01*
X50619698Y-76478245D01*
X50684637Y-76476020D01*
X50740262Y-76472954D01*
X50779943Y-76469319D01*
X50815454Y-76465251D01*
X50844707Y-76464468D01*
X50863607Y-76469068D01*
X50878721Y-76479743D01*
X50882377Y-76483336D01*
X50898719Y-76515110D01*
X50897399Y-76550764D01*
X50878442Y-76581382D01*
X50858072Y-76592988D01*
X50822088Y-76605683D01*
X50779664Y-76615733D01*
X50776214Y-76616332D01*
X50733544Y-76621548D01*
X50676158Y-76625922D01*
X50611141Y-76629010D01*
X50545581Y-76630369D01*
X50529349Y-76630410D01*
X50431036Y-76627933D01*
X50350984Y-76619927D01*
X50285805Y-76605395D01*
X50232109Y-76583341D01*
X50186508Y-76552768D01*
X50145615Y-76512678D01*
X50125494Y-76486451D01*
X50113868Y-76456904D01*
X50110959Y-76417187D01*
X50111100Y-76405218D01*
X50114973Y-76372537D01*
X50127357Y-76346011D01*
X50152522Y-76315163D01*
X50173734Y-76293023D01*
X50200130Y-76270477D01*
X50229847Y-76252109D01*
X50266077Y-76236853D01*
X50312009Y-76223641D01*
X50370836Y-76211406D01*
X50445748Y-76199081D01*
X50539937Y-76185598D01*
X50585249Y-76178588D01*
X50653203Y-76164029D01*
X50702339Y-76147529D01*
X50731906Y-76129631D01*
X50741156Y-76110877D01*
X50729340Y-76091807D01*
X50695708Y-76072963D01*
X50692662Y-76071749D01*
X50646303Y-76059671D01*
X50583653Y-76051471D01*
X50510219Y-76047311D01*
X50431509Y-76047353D01*
X50353031Y-76051761D01*
X50280292Y-76060697D01*
X50276365Y-76061346D01*
X50227549Y-76069053D01*
X50195297Y-76072665D01*
X50174300Y-76072068D01*
X50159246Y-76067146D01*
X50144826Y-76057788D01*
X50143656Y-76056917D01*
X50119139Y-76026543D01*
X50114346Y-75991042D01*
X50130152Y-75956461D01*
X50134698Y-75952005D01*
X50164312Y-75936865D01*
X50211294Y-75923742D01*
X50271598Y-75912942D01*
X50341180Y-75904773D01*
X50415995Y-75899543D01*
X50491998Y-75897559D01*
X50565145Y-75899128D01*
G37*
X46564847Y-70421078D02*
X46749348Y-70438015D01*
X46920749Y-70472174D01*
X47085427Y-70524991D01*
X47249756Y-70597905D01*
X47412424Y-70691001D01*
X47586999Y-70817914D01*
X47748888Y-70964650D01*
X47894528Y-71127576D01*
X48020352Y-71303059D01*
X48122797Y-71487468D01*
X48132096Y-71507196D01*
X48209973Y-71697613D01*
X48269148Y-71895477D01*
X48310387Y-72104570D01*
X48334452Y-72328670D01*
X48342111Y-72571559D01*
X48332799Y-72822643D01*
X48303244Y-73069912D01*
X48252987Y-73301383D01*
X48181577Y-73518699D01*
X48088566Y-73723502D01*
X47973504Y-73917433D01*
X47865422Y-74065594D01*
X47716184Y-74232300D01*
X47553521Y-74375089D01*
X47377505Y-74493914D01*
X47188207Y-74588729D01*
X46985697Y-74659487D01*
X46770048Y-74706142D01*
X46767587Y-74706505D01*
X46726058Y-74710149D01*
X46663388Y-74712852D01*
X46585373Y-74714487D01*
X46497808Y-74714930D01*
X46406487Y-74714052D01*
X46342484Y-74712767D01*
X46247523Y-74709790D01*
X46171428Y-74705528D01*
X46108712Y-74699526D01*
X46053885Y-74691329D01*
X46001460Y-74680482D01*
X45942477Y-74666465D01*
X45880940Y-74650503D01*
X45825286Y-74633758D01*
X45770463Y-74614268D01*
X45711422Y-74590073D01*
X45643111Y-74559210D01*
X45560478Y-74519719D01*
X45458473Y-74469639D01*
X45176352Y-74330215D01*
X45402313Y-73959067D01*
X45431896Y-73910490D01*
X45485043Y-73823289D01*
X45532614Y-73745331D01*
X45572868Y-73679458D01*
X45604068Y-73628516D01*
X45624476Y-73595347D01*
X45632352Y-73582795D01*
X45634542Y-73583170D01*
X45652188Y-73595454D01*
X45683189Y-73620947D01*
X45722647Y-73655694D01*
X45792920Y-73715729D01*
X45918371Y-73804506D01*
X46040089Y-73866394D01*
X46128045Y-73897300D01*
X46276817Y-73928885D01*
X46422989Y-73934484D01*
X46564443Y-73914477D01*
X46699058Y-73869246D01*
X46824714Y-73799173D01*
X46939293Y-73704639D01*
X47003049Y-73635011D01*
X47092867Y-73506224D01*
X47166567Y-73356773D01*
X47224501Y-73185892D01*
X47267021Y-72992817D01*
X47268951Y-72980831D01*
X47277863Y-72903143D01*
X47284497Y-72806617D01*
X47288800Y-72697849D01*
X47290719Y-72583434D01*
X47290198Y-72469968D01*
X47287185Y-72364046D01*
X47281626Y-72272263D01*
X47273467Y-72201217D01*
X47242194Y-72040280D01*
X47189574Y-71852286D01*
X47123395Y-71687700D01*
X47043747Y-71546649D01*
X46950717Y-71429260D01*
X46844394Y-71335663D01*
X46724867Y-71265982D01*
X46592224Y-71220347D01*
X46562795Y-71214683D01*
X46489044Y-71207288D01*
X46402856Y-71204874D01*
X46313884Y-71207308D01*
X46231786Y-71214460D01*
X46166217Y-71226195D01*
X46056986Y-71263561D01*
X45930227Y-71331778D01*
X45817358Y-71421550D01*
X45797437Y-71440461D01*
X45761340Y-71473918D01*
X45735829Y-71496438D01*
X45725464Y-71503928D01*
X45722913Y-71500346D01*
X45707206Y-71477723D01*
X45678832Y-71436647D01*
X45639664Y-71379836D01*
X45591578Y-71310012D01*
X45536448Y-71229893D01*
X45476149Y-71142201D01*
X45229514Y-70783402D01*
X45284611Y-70766895D01*
X45290360Y-70765024D01*
X45327785Y-70750166D01*
X45381744Y-70726208D01*
X45445902Y-70696031D01*
X45513929Y-70662517D01*
X45543572Y-70647700D01*
X45708176Y-70571201D01*
X45859890Y-70512045D01*
X46004548Y-70468718D01*
X46147986Y-70439707D01*
X46296038Y-70423499D01*
X46454541Y-70418580D01*
X46564847Y-70421078D01*
G36*
X46564847Y-70421078D02*
G01*
X46749348Y-70438015D01*
X46920749Y-70472174D01*
X47085427Y-70524991D01*
X47249756Y-70597905D01*
X47412424Y-70691001D01*
X47586999Y-70817914D01*
X47748888Y-70964650D01*
X47894528Y-71127576D01*
X48020352Y-71303059D01*
X48122797Y-71487468D01*
X48132096Y-71507196D01*
X48209973Y-71697613D01*
X48269148Y-71895477D01*
X48310387Y-72104570D01*
X48334452Y-72328670D01*
X48342111Y-72571559D01*
X48332799Y-72822643D01*
X48303244Y-73069912D01*
X48252987Y-73301383D01*
X48181577Y-73518699D01*
X48088566Y-73723502D01*
X47973504Y-73917433D01*
X47865422Y-74065594D01*
X47716184Y-74232300D01*
X47553521Y-74375089D01*
X47377505Y-74493914D01*
X47188207Y-74588729D01*
X46985697Y-74659487D01*
X46770048Y-74706142D01*
X46767587Y-74706505D01*
X46726058Y-74710149D01*
X46663388Y-74712852D01*
X46585373Y-74714487D01*
X46497808Y-74714930D01*
X46406487Y-74714052D01*
X46342484Y-74712767D01*
X46247523Y-74709790D01*
X46171428Y-74705528D01*
X46108712Y-74699526D01*
X46053885Y-74691329D01*
X46001460Y-74680482D01*
X45942477Y-74666465D01*
X45880940Y-74650503D01*
X45825286Y-74633758D01*
X45770463Y-74614268D01*
X45711422Y-74590073D01*
X45643111Y-74559210D01*
X45560478Y-74519719D01*
X45458473Y-74469639D01*
X45176352Y-74330215D01*
X45402313Y-73959067D01*
X45431896Y-73910490D01*
X45485043Y-73823289D01*
X45532614Y-73745331D01*
X45572868Y-73679458D01*
X45604068Y-73628516D01*
X45624476Y-73595347D01*
X45632352Y-73582795D01*
X45634542Y-73583170D01*
X45652188Y-73595454D01*
X45683189Y-73620947D01*
X45722647Y-73655694D01*
X45792920Y-73715729D01*
X45918371Y-73804506D01*
X46040089Y-73866394D01*
X46128045Y-73897300D01*
X46276817Y-73928885D01*
X46422989Y-73934484D01*
X46564443Y-73914477D01*
X46699058Y-73869246D01*
X46824714Y-73799173D01*
X46939293Y-73704639D01*
X47003049Y-73635011D01*
X47092867Y-73506224D01*
X47166567Y-73356773D01*
X47224501Y-73185892D01*
X47267021Y-72992817D01*
X47268951Y-72980831D01*
X47277863Y-72903143D01*
X47284497Y-72806617D01*
X47288800Y-72697849D01*
X47290719Y-72583434D01*
X47290198Y-72469968D01*
X47287185Y-72364046D01*
X47281626Y-72272263D01*
X47273467Y-72201217D01*
X47242194Y-72040280D01*
X47189574Y-71852286D01*
X47123395Y-71687700D01*
X47043747Y-71546649D01*
X46950717Y-71429260D01*
X46844394Y-71335663D01*
X46724867Y-71265982D01*
X46592224Y-71220347D01*
X46562795Y-71214683D01*
X46489044Y-71207288D01*
X46402856Y-71204874D01*
X46313884Y-71207308D01*
X46231786Y-71214460D01*
X46166217Y-71226195D01*
X46056986Y-71263561D01*
X45930227Y-71331778D01*
X45817358Y-71421550D01*
X45797437Y-71440461D01*
X45761340Y-71473918D01*
X45735829Y-71496438D01*
X45725464Y-71503928D01*
X45722913Y-71500346D01*
X45707206Y-71477723D01*
X45678832Y-71436647D01*
X45639664Y-71379836D01*
X45591578Y-71310012D01*
X45536448Y-71229893D01*
X45476149Y-71142201D01*
X45229514Y-70783402D01*
X45284611Y-70766895D01*
X45290360Y-70765024D01*
X45327785Y-70750166D01*
X45381744Y-70726208D01*
X45445902Y-70696031D01*
X45513929Y-70662517D01*
X45543572Y-70647700D01*
X45708176Y-70571201D01*
X45859890Y-70512045D01*
X46004548Y-70468718D01*
X46147986Y-70439707D01*
X46296038Y-70423499D01*
X46454541Y-70418580D01*
X46564847Y-70421078D01*
G37*
X42079755Y-73282001D02*
X42076842Y-73409057D01*
X42068512Y-73521109D01*
X42054120Y-73624252D01*
X42033021Y-73724581D01*
X42004570Y-73828190D01*
X41961428Y-73952033D01*
X41882190Y-74119216D01*
X41784993Y-74268961D01*
X41671325Y-74399852D01*
X41542672Y-74510474D01*
X41400521Y-74599412D01*
X41246359Y-74665250D01*
X41081674Y-74706574D01*
X41079692Y-74706906D01*
X40959337Y-74718486D01*
X40827099Y-74716941D01*
X40692404Y-74703222D01*
X40564684Y-74678283D01*
X40453366Y-74643077D01*
X40405851Y-74621653D01*
X40343969Y-74589090D01*
X40280380Y-74551846D01*
X40221721Y-74514021D01*
X40174626Y-74479714D01*
X40145730Y-74453024D01*
X40139097Y-74445696D01*
X40131189Y-74443135D01*
X40125903Y-74455851D01*
X40122008Y-74487899D01*
X40118271Y-74543331D01*
X40111406Y-74658838D01*
X39585569Y-74662434D01*
X39059732Y-74666031D01*
X39096116Y-74603946D01*
X39098285Y-74600276D01*
X39108865Y-74583044D01*
X39118463Y-74567693D01*
X39127131Y-74552889D01*
X39134920Y-74537299D01*
X39141882Y-74519589D01*
X39148069Y-74498424D01*
X39153531Y-74472473D01*
X39158322Y-74440400D01*
X39162492Y-74400872D01*
X39166094Y-74352557D01*
X39169178Y-74294119D01*
X39171797Y-74224226D01*
X39174002Y-74141544D01*
X39175844Y-74044739D01*
X39177376Y-73932477D01*
X39178649Y-73803425D01*
X39179715Y-73656250D01*
X39180625Y-73489618D01*
X39181431Y-73302194D01*
X39182185Y-73092646D01*
X39182938Y-72859640D01*
X39183742Y-72601842D01*
X39184451Y-72379982D01*
X40180054Y-72379982D01*
X40180054Y-73807205D01*
X40248703Y-73852233D01*
X40275103Y-73868453D01*
X40335552Y-73900857D01*
X40392865Y-73926661D01*
X40417965Y-73935398D01*
X40497831Y-73952841D01*
X40598811Y-73961748D01*
X40650159Y-73963601D01*
X40697823Y-73963179D01*
X40733304Y-73958419D01*
X40765129Y-73948014D01*
X40801823Y-73930659D01*
X40872342Y-73884169D01*
X40933435Y-73818406D01*
X40982337Y-73733658D01*
X41019515Y-73628597D01*
X41045432Y-73501895D01*
X41060556Y-73352222D01*
X41065350Y-73178252D01*
X41065117Y-73138700D01*
X41058225Y-72955444D01*
X41041488Y-72795985D01*
X41014501Y-72658643D01*
X40976855Y-72541734D01*
X40928144Y-72443577D01*
X40867961Y-72362488D01*
X40842993Y-72337740D01*
X40765613Y-72286181D01*
X40674776Y-72254807D01*
X40574419Y-72243795D01*
X40468475Y-72253324D01*
X40360879Y-72283572D01*
X40255568Y-72334718D01*
X40180054Y-72379982D01*
X39184451Y-72379982D01*
X39184649Y-72317919D01*
X39191514Y-70224135D01*
X39737271Y-70220545D01*
X39776959Y-70220304D01*
X39893730Y-70219825D01*
X40000535Y-70219727D01*
X40094458Y-70219992D01*
X40172584Y-70220599D01*
X40231998Y-70221528D01*
X40269784Y-70222759D01*
X40283027Y-70224272D01*
X40281333Y-70229069D01*
X40268694Y-70251810D01*
X40247760Y-70284881D01*
X40245672Y-70288043D01*
X40229442Y-70313577D01*
X40215833Y-70338421D01*
X40204616Y-70365134D01*
X40195559Y-70396274D01*
X40188431Y-70434402D01*
X40183003Y-70482075D01*
X40179043Y-70541853D01*
X40176320Y-70616295D01*
X40174605Y-70707960D01*
X40173665Y-70819408D01*
X40173270Y-70953196D01*
X40173189Y-71111885D01*
X40173333Y-71235781D01*
X40173774Y-71357419D01*
X40174479Y-71467711D01*
X40175417Y-71563973D01*
X40176557Y-71643519D01*
X40177865Y-71703663D01*
X40179310Y-71741718D01*
X40180859Y-71755000D01*
X40185858Y-71752939D01*
X40207831Y-71738422D01*
X40239211Y-71714581D01*
X40284704Y-71682519D01*
X40370178Y-71635279D01*
X40467872Y-71593140D01*
X40568666Y-71560370D01*
X40653352Y-71543660D01*
X40758823Y-71533009D01*
X40872971Y-71529318D01*
X40986989Y-71532594D01*
X41092067Y-71542840D01*
X41179396Y-71560060D01*
X41268317Y-71589068D01*
X41416658Y-71659389D01*
X41554010Y-71752877D01*
X41677841Y-71867377D01*
X41785615Y-72000739D01*
X41874799Y-72150808D01*
X41896940Y-72196826D01*
X41958987Y-72352048D01*
X42007496Y-72520513D01*
X42043080Y-72705192D01*
X42066353Y-72909053D01*
X42077927Y-73135067D01*
X42078465Y-73178252D01*
X42079755Y-73282001D01*
G36*
X42079755Y-73282001D02*
G01*
X42076842Y-73409057D01*
X42068512Y-73521109D01*
X42054120Y-73624252D01*
X42033021Y-73724581D01*
X42004570Y-73828190D01*
X41961428Y-73952033D01*
X41882190Y-74119216D01*
X41784993Y-74268961D01*
X41671325Y-74399852D01*
X41542672Y-74510474D01*
X41400521Y-74599412D01*
X41246359Y-74665250D01*
X41081674Y-74706574D01*
X41079692Y-74706906D01*
X40959337Y-74718486D01*
X40827099Y-74716941D01*
X40692404Y-74703222D01*
X40564684Y-74678283D01*
X40453366Y-74643077D01*
X40405851Y-74621653D01*
X40343969Y-74589090D01*
X40280380Y-74551846D01*
X40221721Y-74514021D01*
X40174626Y-74479714D01*
X40145730Y-74453024D01*
X40139097Y-74445696D01*
X40131189Y-74443135D01*
X40125903Y-74455851D01*
X40122008Y-74487899D01*
X40118271Y-74543331D01*
X40111406Y-74658838D01*
X39585569Y-74662434D01*
X39059732Y-74666031D01*
X39096116Y-74603946D01*
X39098285Y-74600276D01*
X39108865Y-74583044D01*
X39118463Y-74567693D01*
X39127131Y-74552889D01*
X39134920Y-74537299D01*
X39141882Y-74519589D01*
X39148069Y-74498424D01*
X39153531Y-74472473D01*
X39158322Y-74440400D01*
X39162492Y-74400872D01*
X39166094Y-74352557D01*
X39169178Y-74294119D01*
X39171797Y-74224226D01*
X39174002Y-74141544D01*
X39175844Y-74044739D01*
X39177376Y-73932477D01*
X39178649Y-73803425D01*
X39179715Y-73656250D01*
X39180625Y-73489618D01*
X39181431Y-73302194D01*
X39182185Y-73092646D01*
X39182938Y-72859640D01*
X39183742Y-72601842D01*
X39184451Y-72379982D01*
X40180054Y-72379982D01*
X40180054Y-73807205D01*
X40248703Y-73852233D01*
X40275103Y-73868453D01*
X40335552Y-73900857D01*
X40392865Y-73926661D01*
X40417965Y-73935398D01*
X40497831Y-73952841D01*
X40598811Y-73961748D01*
X40650159Y-73963601D01*
X40697823Y-73963179D01*
X40733304Y-73958419D01*
X40765129Y-73948014D01*
X40801823Y-73930659D01*
X40872342Y-73884169D01*
X40933435Y-73818406D01*
X40982337Y-73733658D01*
X41019515Y-73628597D01*
X41045432Y-73501895D01*
X41060556Y-73352222D01*
X41065350Y-73178252D01*
X41065117Y-73138700D01*
X41058225Y-72955444D01*
X41041488Y-72795985D01*
X41014501Y-72658643D01*
X40976855Y-72541734D01*
X40928144Y-72443577D01*
X40867961Y-72362488D01*
X40842993Y-72337740D01*
X40765613Y-72286181D01*
X40674776Y-72254807D01*
X40574419Y-72243795D01*
X40468475Y-72253324D01*
X40360879Y-72283572D01*
X40255568Y-72334718D01*
X40180054Y-72379982D01*
X39184451Y-72379982D01*
X39184649Y-72317919D01*
X39191514Y-70224135D01*
X39737271Y-70220545D01*
X39776959Y-70220304D01*
X39893730Y-70219825D01*
X40000535Y-70219727D01*
X40094458Y-70219992D01*
X40172584Y-70220599D01*
X40231998Y-70221528D01*
X40269784Y-70222759D01*
X40283027Y-70224272D01*
X40281333Y-70229069D01*
X40268694Y-70251810D01*
X40247760Y-70284881D01*
X40245672Y-70288043D01*
X40229442Y-70313577D01*
X40215833Y-70338421D01*
X40204616Y-70365134D01*
X40195559Y-70396274D01*
X40188431Y-70434402D01*
X40183003Y-70482075D01*
X40179043Y-70541853D01*
X40176320Y-70616295D01*
X40174605Y-70707960D01*
X40173665Y-70819408D01*
X40173270Y-70953196D01*
X40173189Y-71111885D01*
X40173333Y-71235781D01*
X40173774Y-71357419D01*
X40174479Y-71467711D01*
X40175417Y-71563973D01*
X40176557Y-71643519D01*
X40177865Y-71703663D01*
X40179310Y-71741718D01*
X40180859Y-71755000D01*
X40185858Y-71752939D01*
X40207831Y-71738422D01*
X40239211Y-71714581D01*
X40284704Y-71682519D01*
X40370178Y-71635279D01*
X40467872Y-71593140D01*
X40568666Y-71560370D01*
X40653352Y-71543660D01*
X40758823Y-71533009D01*
X40872971Y-71529318D01*
X40986989Y-71532594D01*
X41092067Y-71542840D01*
X41179396Y-71560060D01*
X41268317Y-71589068D01*
X41416658Y-71659389D01*
X41554010Y-71752877D01*
X41677841Y-71867377D01*
X41785615Y-72000739D01*
X41874799Y-72150808D01*
X41896940Y-72196826D01*
X41958987Y-72352048D01*
X42007496Y-72520513D01*
X42043080Y-72705192D01*
X42066353Y-72909053D01*
X42077927Y-73135067D01*
X42078465Y-73178252D01*
X42079755Y-73282001D01*
G37*
X45183128Y-73714034D02*
X45176962Y-73824736D01*
X45163635Y-73927739D01*
X45143526Y-74013541D01*
X45111440Y-74101818D01*
X45037063Y-74247299D01*
X44941994Y-74375295D01*
X44827218Y-74484933D01*
X44693719Y-74575342D01*
X44542480Y-74645648D01*
X44374487Y-74694981D01*
X44305983Y-74706108D01*
X44208093Y-74713841D01*
X44101484Y-74715580D01*
X43995065Y-74711465D01*
X43897745Y-74701637D01*
X43818433Y-74686236D01*
X43778579Y-74674110D01*
X43688063Y-74638626D01*
X43596052Y-74593575D01*
X43512038Y-74543843D01*
X43445515Y-74494316D01*
X43444697Y-74493601D01*
X43408243Y-74462692D01*
X43380196Y-74440683D01*
X43366569Y-74432298D01*
X43365079Y-74434300D01*
X43361708Y-74455926D01*
X43359365Y-74496260D01*
X43358487Y-74549000D01*
X43358487Y-74665703D01*
X42843622Y-74665703D01*
X42829916Y-74665701D01*
X42714965Y-74665500D01*
X42609464Y-74664999D01*
X42516414Y-74664237D01*
X42438817Y-74663249D01*
X42379674Y-74662074D01*
X42341986Y-74660749D01*
X42328757Y-74659311D01*
X42329065Y-74658054D01*
X42337720Y-74639501D01*
X42355863Y-74604645D01*
X42380244Y-74559770D01*
X42431730Y-74466622D01*
X42439279Y-73546981D01*
X43413406Y-73546981D01*
X43413789Y-73619640D01*
X43415644Y-73695985D01*
X43419279Y-73751168D01*
X43424958Y-73788782D01*
X43432946Y-73812421D01*
X43443222Y-73829301D01*
X43481918Y-73875317D01*
X43533765Y-73923221D01*
X43590592Y-73965904D01*
X43644225Y-73996253D01*
X43673982Y-74007389D01*
X43742499Y-74022216D01*
X43831988Y-74029796D01*
X43926338Y-74028648D01*
X44015934Y-74013056D01*
X44090718Y-73980846D01*
X44155421Y-73930567D01*
X44173622Y-73911970D01*
X44221011Y-73848546D01*
X44246652Y-73780184D01*
X44254352Y-73697925D01*
X44252266Y-73654467D01*
X44231635Y-73565005D01*
X44188295Y-73488219D01*
X44121457Y-73423243D01*
X44030331Y-73369215D01*
X43914128Y-73325270D01*
X43867281Y-73313738D01*
X43810568Y-73305842D01*
X43739195Y-73301457D01*
X43646811Y-73299982D01*
X43631804Y-73299983D01*
X43562689Y-73300827D01*
X43503320Y-73302866D01*
X43459600Y-73305833D01*
X43437433Y-73309461D01*
X43434882Y-73310639D01*
X43426635Y-73318035D01*
X43420794Y-73332899D01*
X43416955Y-73359227D01*
X43414713Y-73401018D01*
X43413665Y-73462270D01*
X43413406Y-73546981D01*
X42439279Y-73546981D01*
X42439676Y-73498676D01*
X42440857Y-73357695D01*
X42442509Y-73177893D01*
X42444243Y-73021799D01*
X42446200Y-72887205D01*
X42448519Y-72771905D01*
X42451340Y-72673689D01*
X42454804Y-72590352D01*
X42459050Y-72519685D01*
X42464220Y-72459480D01*
X42470452Y-72407531D01*
X42477887Y-72361630D01*
X42486666Y-72319569D01*
X42496927Y-72279141D01*
X42508813Y-72238137D01*
X42522461Y-72194352D01*
X42576230Y-72057085D01*
X42649865Y-71930222D01*
X42741566Y-71821608D01*
X42852175Y-71730674D01*
X42982530Y-71656853D01*
X43133471Y-71599575D01*
X43305837Y-71558273D01*
X43500469Y-71532378D01*
X43568495Y-71527229D01*
X43683062Y-71523464D01*
X43796616Y-71526854D01*
X43914473Y-71537972D01*
X44041950Y-71557388D01*
X44184363Y-71585674D01*
X44347027Y-71623403D01*
X44384627Y-71632532D01*
X44479049Y-71654996D01*
X44568543Y-71675679D01*
X44647681Y-71693361D01*
X44711036Y-71706820D01*
X44753180Y-71714833D01*
X44850414Y-71730803D01*
X44713716Y-72062118D01*
X44679523Y-72144840D01*
X44645885Y-72225896D01*
X44617023Y-72295101D01*
X44594355Y-72349068D01*
X44579297Y-72384412D01*
X44573267Y-72397746D01*
X44572319Y-72397937D01*
X44554844Y-72391984D01*
X44520483Y-72376728D01*
X44475434Y-72354883D01*
X44381802Y-72312343D01*
X44252958Y-72265830D01*
X44121086Y-72230210D01*
X43991344Y-72206378D01*
X43868889Y-72195227D01*
X43758877Y-72197654D01*
X43666465Y-72214552D01*
X43601969Y-72241364D01*
X43528720Y-72296310D01*
X43472333Y-72370852D01*
X43434421Y-72462695D01*
X43416599Y-72569547D01*
X43410323Y-72668027D01*
X43737945Y-72668924D01*
X43848432Y-72669851D01*
X43970638Y-72673141D01*
X44075035Y-72679351D01*
X44167024Y-72689084D01*
X44252004Y-72702943D01*
X44335377Y-72721533D01*
X44422541Y-72745458D01*
X44552960Y-72790996D01*
X44706360Y-72865988D01*
X44840988Y-72957847D01*
X44955516Y-73065280D01*
X45048616Y-73186995D01*
X45118961Y-73321701D01*
X45165223Y-73468105D01*
X45172468Y-73507536D01*
X45181756Y-73605133D01*
X45182926Y-73697925D01*
X45183128Y-73714034D01*
G36*
X45183128Y-73714034D02*
G01*
X45176962Y-73824736D01*
X45163635Y-73927739D01*
X45143526Y-74013541D01*
X45111440Y-74101818D01*
X45037063Y-74247299D01*
X44941994Y-74375295D01*
X44827218Y-74484933D01*
X44693719Y-74575342D01*
X44542480Y-74645648D01*
X44374487Y-74694981D01*
X44305983Y-74706108D01*
X44208093Y-74713841D01*
X44101484Y-74715580D01*
X43995065Y-74711465D01*
X43897745Y-74701637D01*
X43818433Y-74686236D01*
X43778579Y-74674110D01*
X43688063Y-74638626D01*
X43596052Y-74593575D01*
X43512038Y-74543843D01*
X43445515Y-74494316D01*
X43444697Y-74493601D01*
X43408243Y-74462692D01*
X43380196Y-74440683D01*
X43366569Y-74432298D01*
X43365079Y-74434300D01*
X43361708Y-74455926D01*
X43359365Y-74496260D01*
X43358487Y-74549000D01*
X43358487Y-74665703D01*
X42843622Y-74665703D01*
X42829916Y-74665701D01*
X42714965Y-74665500D01*
X42609464Y-74664999D01*
X42516414Y-74664237D01*
X42438817Y-74663249D01*
X42379674Y-74662074D01*
X42341986Y-74660749D01*
X42328757Y-74659311D01*
X42329065Y-74658054D01*
X42337720Y-74639501D01*
X42355863Y-74604645D01*
X42380244Y-74559770D01*
X42431730Y-74466622D01*
X42439279Y-73546981D01*
X43413406Y-73546981D01*
X43413789Y-73619640D01*
X43415644Y-73695985D01*
X43419279Y-73751168D01*
X43424958Y-73788782D01*
X43432946Y-73812421D01*
X43443222Y-73829301D01*
X43481918Y-73875317D01*
X43533765Y-73923221D01*
X43590592Y-73965904D01*
X43644225Y-73996253D01*
X43673982Y-74007389D01*
X43742499Y-74022216D01*
X43831988Y-74029796D01*
X43926338Y-74028648D01*
X44015934Y-74013056D01*
X44090718Y-73980846D01*
X44155421Y-73930567D01*
X44173622Y-73911970D01*
X44221011Y-73848546D01*
X44246652Y-73780184D01*
X44254352Y-73697925D01*
X44252266Y-73654467D01*
X44231635Y-73565005D01*
X44188295Y-73488219D01*
X44121457Y-73423243D01*
X44030331Y-73369215D01*
X43914128Y-73325270D01*
X43867281Y-73313738D01*
X43810568Y-73305842D01*
X43739195Y-73301457D01*
X43646811Y-73299982D01*
X43631804Y-73299983D01*
X43562689Y-73300827D01*
X43503320Y-73302866D01*
X43459600Y-73305833D01*
X43437433Y-73309461D01*
X43434882Y-73310639D01*
X43426635Y-73318035D01*
X43420794Y-73332899D01*
X43416955Y-73359227D01*
X43414713Y-73401018D01*
X43413665Y-73462270D01*
X43413406Y-73546981D01*
X42439279Y-73546981D01*
X42439676Y-73498676D01*
X42440857Y-73357695D01*
X42442509Y-73177893D01*
X42444243Y-73021799D01*
X42446200Y-72887205D01*
X42448519Y-72771905D01*
X42451340Y-72673689D01*
X42454804Y-72590352D01*
X42459050Y-72519685D01*
X42464220Y-72459480D01*
X42470452Y-72407531D01*
X42477887Y-72361630D01*
X42486666Y-72319569D01*
X42496927Y-72279141D01*
X42508813Y-72238137D01*
X42522461Y-72194352D01*
X42576230Y-72057085D01*
X42649865Y-71930222D01*
X42741566Y-71821608D01*
X42852175Y-71730674D01*
X42982530Y-71656853D01*
X43133471Y-71599575D01*
X43305837Y-71558273D01*
X43500469Y-71532378D01*
X43568495Y-71527229D01*
X43683062Y-71523464D01*
X43796616Y-71526854D01*
X43914473Y-71537972D01*
X44041950Y-71557388D01*
X44184363Y-71585674D01*
X44347027Y-71623403D01*
X44384627Y-71632532D01*
X44479049Y-71654996D01*
X44568543Y-71675679D01*
X44647681Y-71693361D01*
X44711036Y-71706820D01*
X44753180Y-71714833D01*
X44850414Y-71730803D01*
X44713716Y-72062118D01*
X44679523Y-72144840D01*
X44645885Y-72225896D01*
X44617023Y-72295101D01*
X44594355Y-72349068D01*
X44579297Y-72384412D01*
X44573267Y-72397746D01*
X44572319Y-72397937D01*
X44554844Y-72391984D01*
X44520483Y-72376728D01*
X44475434Y-72354883D01*
X44381802Y-72312343D01*
X44252958Y-72265830D01*
X44121086Y-72230210D01*
X43991344Y-72206378D01*
X43868889Y-72195227D01*
X43758877Y-72197654D01*
X43666465Y-72214552D01*
X43601969Y-72241364D01*
X43528720Y-72296310D01*
X43472333Y-72370852D01*
X43434421Y-72462695D01*
X43416599Y-72569547D01*
X43410323Y-72668027D01*
X43737945Y-72668924D01*
X43848432Y-72669851D01*
X43970638Y-72673141D01*
X44075035Y-72679351D01*
X44167024Y-72689084D01*
X44252004Y-72702943D01*
X44335377Y-72721533D01*
X44422541Y-72745458D01*
X44552960Y-72790996D01*
X44706360Y-72865988D01*
X44840988Y-72957847D01*
X44955516Y-73065280D01*
X45048616Y-73186995D01*
X45118961Y-73321701D01*
X45165223Y-73468105D01*
X45172468Y-73507536D01*
X45181756Y-73605133D01*
X45182926Y-73697925D01*
X45183128Y-73714034D01*
G37*
X54393945Y-74692840D02*
X54392532Y-74799310D01*
X54390777Y-74891024D01*
X54388646Y-74969117D01*
X54386102Y-75034724D01*
X54383111Y-75088981D01*
X54379635Y-75133023D01*
X54375640Y-75167985D01*
X54371089Y-75195003D01*
X54365947Y-75215212D01*
X54360179Y-75229747D01*
X54353748Y-75239744D01*
X54346619Y-75246338D01*
X54338755Y-75250665D01*
X54330122Y-75253859D01*
X54320684Y-75257056D01*
X54310404Y-75261391D01*
X54304620Y-75263563D01*
X54294010Y-75265936D01*
X54278245Y-75268110D01*
X54256210Y-75270093D01*
X54226790Y-75271896D01*
X54188869Y-75273525D01*
X54141332Y-75274991D01*
X54083064Y-75276301D01*
X54012950Y-75277465D01*
X53929874Y-75278491D01*
X53832721Y-75279388D01*
X53720376Y-75280165D01*
X53591725Y-75280830D01*
X53445650Y-75281392D01*
X53281038Y-75281860D01*
X53096773Y-75282242D01*
X52891740Y-75282548D01*
X52664824Y-75282785D01*
X52414909Y-75282963D01*
X52140881Y-75283091D01*
X51841623Y-75283176D01*
X51516021Y-75283228D01*
X51412839Y-75283238D01*
X51094303Y-75283245D01*
X50801787Y-75283205D01*
X50534188Y-75283110D01*
X50290404Y-75282953D01*
X50069332Y-75282725D01*
X49869872Y-75282419D01*
X49690921Y-75282025D01*
X49531376Y-75281538D01*
X49390136Y-75280947D01*
X49266099Y-75280247D01*
X49158163Y-75279427D01*
X49065226Y-75278481D01*
X48986185Y-75277400D01*
X48919939Y-75276177D01*
X48865385Y-75274803D01*
X48821422Y-75273271D01*
X48786947Y-75271572D01*
X48760859Y-75269698D01*
X48742056Y-75267642D01*
X48729435Y-75265396D01*
X48721894Y-75262950D01*
X48719495Y-75261862D01*
X48709673Y-75258287D01*
X48700666Y-75255676D01*
X48692437Y-75252893D01*
X48684950Y-75248800D01*
X48678168Y-75242260D01*
X48672055Y-75232137D01*
X48666575Y-75217293D01*
X48661690Y-75196591D01*
X48657364Y-75168895D01*
X48653561Y-75133068D01*
X48650244Y-75087973D01*
X48647376Y-75032472D01*
X48644922Y-74965429D01*
X48642844Y-74885707D01*
X48641107Y-74792170D01*
X48639673Y-74683679D01*
X48639202Y-74633440D01*
X49001255Y-74633440D01*
X49001652Y-74638251D01*
X49008935Y-74642150D01*
X49025389Y-74645232D01*
X49053301Y-74647594D01*
X49094957Y-74649330D01*
X49152642Y-74650536D01*
X49228642Y-74651308D01*
X49325244Y-74651741D01*
X49444734Y-74651931D01*
X49589396Y-74651973D01*
X50195373Y-74651973D01*
X50144146Y-74559298D01*
X50092919Y-74466622D01*
X50092919Y-71775595D01*
X50144146Y-71682919D01*
X50195373Y-71590244D01*
X49112211Y-71590244D01*
X49104379Y-74439162D01*
X49065981Y-74521168D01*
X49045736Y-74561815D01*
X49022813Y-74602532D01*
X49005501Y-74627574D01*
X49005458Y-74627622D01*
X49001255Y-74633440D01*
X48639202Y-74633440D01*
X48638506Y-74559098D01*
X48637570Y-74417290D01*
X48636828Y-74257119D01*
X48636243Y-74077447D01*
X48635779Y-73877137D01*
X48635400Y-73655052D01*
X48635069Y-73410056D01*
X48634749Y-73141012D01*
X48634404Y-72846782D01*
X48633998Y-72526230D01*
X48633945Y-72487424D01*
X48633492Y-72168903D01*
X48633059Y-71876572D01*
X48632677Y-71609293D01*
X48632380Y-71365929D01*
X48632198Y-71145342D01*
X48632165Y-70946395D01*
X48632311Y-70767950D01*
X48632670Y-70608871D01*
X48633274Y-70468019D01*
X48634154Y-70344257D01*
X48635342Y-70236447D01*
X48636871Y-70143453D01*
X48638772Y-70064137D01*
X48641078Y-69997360D01*
X48643821Y-69941987D01*
X48647032Y-69896879D01*
X48650745Y-69860899D01*
X48654990Y-69832909D01*
X48659801Y-69811772D01*
X48665208Y-69796351D01*
X48671245Y-69785508D01*
X48677943Y-69778106D01*
X48685335Y-69773007D01*
X48693451Y-69769073D01*
X48702325Y-69765168D01*
X48711989Y-69760154D01*
X48714817Y-69758556D01*
X48757604Y-69743089D01*
X48804443Y-69736732D01*
X48857244Y-69736734D01*
X48858124Y-69856867D01*
X48858347Y-69870692D01*
X48875129Y-70011215D01*
X48917873Y-70143435D01*
X48985983Y-70265952D01*
X49078868Y-70377363D01*
X49128712Y-70422803D01*
X49239695Y-70498120D01*
X49360788Y-70550643D01*
X49488465Y-70580342D01*
X49619197Y-70587190D01*
X49749460Y-70571159D01*
X49875725Y-70532221D01*
X49979522Y-70478135D01*
X50438907Y-70478135D01*
X50499319Y-70521599D01*
X50550410Y-70562448D01*
X50622403Y-70629076D01*
X50704060Y-70712580D01*
X50792290Y-70809778D01*
X50884000Y-70917487D01*
X50907617Y-70946290D01*
X50947827Y-70995692D01*
X51000387Y-71060505D01*
X51063556Y-71138566D01*
X51135592Y-71227711D01*
X51214754Y-71325778D01*
X51299302Y-71430604D01*
X51387493Y-71540024D01*
X51427944Y-71590244D01*
X51477586Y-71651876D01*
X51567840Y-71763997D01*
X51656515Y-71874224D01*
X51741868Y-71980392D01*
X51822158Y-72080340D01*
X51895644Y-72171903D01*
X51960585Y-72252919D01*
X52015240Y-72321224D01*
X52057866Y-72374655D01*
X52086724Y-72411048D01*
X52100071Y-72428242D01*
X52101173Y-72434703D01*
X52097508Y-72446992D01*
X52088013Y-72466325D01*
X52071738Y-72494074D01*
X52047736Y-72531610D01*
X52015060Y-72580304D01*
X51972761Y-72641529D01*
X51919891Y-72716654D01*
X51855503Y-72807052D01*
X51778648Y-72914094D01*
X51688380Y-73039152D01*
X51583749Y-73183596D01*
X51463809Y-73348798D01*
X51368242Y-73480297D01*
X51251648Y-73640605D01*
X51149088Y-73781387D01*
X51059369Y-73904204D01*
X50981300Y-74010619D01*
X50913688Y-74102195D01*
X50855338Y-74180494D01*
X50805060Y-74247079D01*
X50761661Y-74303511D01*
X50723946Y-74351354D01*
X50690725Y-74392169D01*
X50660803Y-74427520D01*
X50632989Y-74458968D01*
X50606090Y-74488076D01*
X50578913Y-74516406D01*
X50550265Y-74545522D01*
X50444692Y-74651973D01*
X51864054Y-74652031D01*
X51859595Y-74566019D01*
X51859379Y-74561697D01*
X51858532Y-74527313D01*
X51860137Y-74494368D01*
X51865266Y-74461058D01*
X51874993Y-74425578D01*
X51890391Y-74386125D01*
X51912534Y-74340893D01*
X51942495Y-74288077D01*
X51981348Y-74225874D01*
X52030166Y-74152477D01*
X52090022Y-74066084D01*
X52161990Y-73964890D01*
X52247143Y-73847088D01*
X52346554Y-73710876D01*
X52461298Y-73554449D01*
X52866325Y-73003041D01*
X52869893Y-73642382D01*
X52870209Y-73702020D01*
X52870767Y-73862657D01*
X52870513Y-73999289D01*
X52869150Y-74114502D01*
X52866377Y-74210883D01*
X52861898Y-74291016D01*
X52855413Y-74357487D01*
X52846623Y-74412883D01*
X52835230Y-74459788D01*
X52820935Y-74500788D01*
X52803440Y-74538469D01*
X52782447Y-74575417D01*
X52757655Y-74614217D01*
X52732734Y-74651973D01*
X54027884Y-74651973D01*
X53994429Y-74607352D01*
X53989190Y-74600293D01*
X53947302Y-74535594D01*
X53918427Y-74470190D01*
X53899466Y-74395248D01*
X53887321Y-74301933D01*
X53886987Y-74297865D01*
X53885225Y-74259375D01*
X53883633Y-74195156D01*
X53882220Y-74106676D01*
X53880992Y-73995403D01*
X53879956Y-73862803D01*
X53879118Y-73710345D01*
X53878486Y-73539496D01*
X53878067Y-73351722D01*
X53877868Y-73148493D01*
X53877895Y-72931274D01*
X53878155Y-72701535D01*
X53878655Y-72460741D01*
X53879185Y-72244748D01*
X53879752Y-72009635D01*
X53880311Y-71799279D01*
X53880930Y-71612206D01*
X53881681Y-71446942D01*
X53882634Y-71302013D01*
X53883858Y-71175947D01*
X53885423Y-71067268D01*
X53887401Y-70974504D01*
X53889860Y-70896180D01*
X53892871Y-70830822D01*
X53896504Y-70776958D01*
X53900829Y-70733113D01*
X53905916Y-70697813D01*
X53911835Y-70669585D01*
X53918657Y-70646955D01*
X53926451Y-70628449D01*
X53935288Y-70612594D01*
X53945237Y-70597915D01*
X53956369Y-70582940D01*
X53968754Y-70566193D01*
X53980732Y-70549412D01*
X54003885Y-70516231D01*
X54017753Y-70495298D01*
X54018088Y-70494421D01*
X54013246Y-70490462D01*
X53996157Y-70487159D01*
X53964921Y-70484461D01*
X53917635Y-70482317D01*
X53852398Y-70480676D01*
X53767310Y-70479489D01*
X53660467Y-70478703D01*
X53529969Y-70478269D01*
X53373914Y-70478135D01*
X52719722Y-70478135D01*
X52754200Y-70519110D01*
X52774182Y-70547253D01*
X52807443Y-70613608D01*
X52836591Y-70696135D01*
X52858838Y-70787679D01*
X52860256Y-70796369D01*
X52864474Y-70842183D01*
X52867669Y-70912989D01*
X52869849Y-71009275D01*
X52871021Y-71131532D01*
X52871195Y-71280251D01*
X52870378Y-71455922D01*
X52866325Y-72042412D01*
X52447568Y-71512859D01*
X52435574Y-71497690D01*
X52329381Y-71363255D01*
X52238721Y-71248124D01*
X52162151Y-71150339D01*
X52098227Y-71067943D01*
X52045507Y-70998978D01*
X52002549Y-70941486D01*
X51967909Y-70893510D01*
X51940145Y-70853093D01*
X51917814Y-70818276D01*
X51899472Y-70787103D01*
X51883678Y-70757615D01*
X51868988Y-70727855D01*
X51846390Y-70675177D01*
X51831791Y-70619606D01*
X51827908Y-70559666D01*
X51828298Y-70478135D01*
X50438907Y-70478135D01*
X49979522Y-70478135D01*
X49994466Y-70470348D01*
X50102157Y-70385511D01*
X50132094Y-70355602D01*
X50220577Y-70244862D01*
X50283364Y-70124684D01*
X50320789Y-69994291D01*
X50333189Y-69852910D01*
X50333189Y-69736730D01*
X52304088Y-69736730D01*
X52427220Y-69736725D01*
X52691743Y-69736689D01*
X52930702Y-69736663D01*
X53145418Y-69736699D01*
X53337213Y-69736849D01*
X53507407Y-69737166D01*
X53657323Y-69737702D01*
X53788282Y-69738508D01*
X53901605Y-69739638D01*
X53998614Y-69741144D01*
X54080629Y-69743077D01*
X54148974Y-69745491D01*
X54204968Y-69748436D01*
X54249933Y-69751966D01*
X54285191Y-69756133D01*
X54312063Y-69760989D01*
X54331871Y-69766586D01*
X54345935Y-69772976D01*
X54355578Y-69780212D01*
X54362121Y-69788346D01*
X54366885Y-69797431D01*
X54371192Y-69807518D01*
X54376363Y-69818659D01*
X54376455Y-69818841D01*
X54378966Y-69826134D01*
X54381268Y-69838347D01*
X54383372Y-69856605D01*
X54385286Y-69882037D01*
X54387018Y-69915769D01*
X54388578Y-69958928D01*
X54389973Y-70012641D01*
X54391213Y-70078035D01*
X54392307Y-70156238D01*
X54393263Y-70248376D01*
X54394090Y-70355576D01*
X54394797Y-70478966D01*
X54395393Y-70619671D01*
X54395885Y-70778820D01*
X54396284Y-70957540D01*
X54396597Y-71156957D01*
X54396833Y-71378198D01*
X54397002Y-71622390D01*
X54397112Y-71890661D01*
X54397172Y-72184137D01*
X54397189Y-72503946D01*
X54397190Y-72566773D01*
X54397220Y-72883249D01*
X54397267Y-73173615D01*
X54397295Y-73439007D01*
X54397267Y-73680560D01*
X54397150Y-73899410D01*
X54396905Y-74096691D01*
X54396498Y-74273539D01*
X54395893Y-74431090D01*
X54395054Y-74570479D01*
X54394315Y-74651973D01*
X54393945Y-74692840D01*
G36*
X54393945Y-74692840D02*
G01*
X54392532Y-74799310D01*
X54390777Y-74891024D01*
X54388646Y-74969117D01*
X54386102Y-75034724D01*
X54383111Y-75088981D01*
X54379635Y-75133023D01*
X54375640Y-75167985D01*
X54371089Y-75195003D01*
X54365947Y-75215212D01*
X54360179Y-75229747D01*
X54353748Y-75239744D01*
X54346619Y-75246338D01*
X54338755Y-75250665D01*
X54330122Y-75253859D01*
X54320684Y-75257056D01*
X54310404Y-75261391D01*
X54304620Y-75263563D01*
X54294010Y-75265936D01*
X54278245Y-75268110D01*
X54256210Y-75270093D01*
X54226790Y-75271896D01*
X54188869Y-75273525D01*
X54141332Y-75274991D01*
X54083064Y-75276301D01*
X54012950Y-75277465D01*
X53929874Y-75278491D01*
X53832721Y-75279388D01*
X53720376Y-75280165D01*
X53591725Y-75280830D01*
X53445650Y-75281392D01*
X53281038Y-75281860D01*
X53096773Y-75282242D01*
X52891740Y-75282548D01*
X52664824Y-75282785D01*
X52414909Y-75282963D01*
X52140881Y-75283091D01*
X51841623Y-75283176D01*
X51516021Y-75283228D01*
X51412839Y-75283238D01*
X51094303Y-75283245D01*
X50801787Y-75283205D01*
X50534188Y-75283110D01*
X50290404Y-75282953D01*
X50069332Y-75282725D01*
X49869872Y-75282419D01*
X49690921Y-75282025D01*
X49531376Y-75281538D01*
X49390136Y-75280947D01*
X49266099Y-75280247D01*
X49158163Y-75279427D01*
X49065226Y-75278481D01*
X48986185Y-75277400D01*
X48919939Y-75276177D01*
X48865385Y-75274803D01*
X48821422Y-75273271D01*
X48786947Y-75271572D01*
X48760859Y-75269698D01*
X48742056Y-75267642D01*
X48729435Y-75265396D01*
X48721894Y-75262950D01*
X48719495Y-75261862D01*
X48709673Y-75258287D01*
X48700666Y-75255676D01*
X48692437Y-75252893D01*
X48684950Y-75248800D01*
X48678168Y-75242260D01*
X48672055Y-75232137D01*
X48666575Y-75217293D01*
X48661690Y-75196591D01*
X48657364Y-75168895D01*
X48653561Y-75133068D01*
X48650244Y-75087973D01*
X48647376Y-75032472D01*
X48644922Y-74965429D01*
X48642844Y-74885707D01*
X48641107Y-74792170D01*
X48639673Y-74683679D01*
X48639202Y-74633440D01*
X49001255Y-74633440D01*
X49001652Y-74638251D01*
X49008935Y-74642150D01*
X49025389Y-74645232D01*
X49053301Y-74647594D01*
X49094957Y-74649330D01*
X49152642Y-74650536D01*
X49228642Y-74651308D01*
X49325244Y-74651741D01*
X49444734Y-74651931D01*
X49589396Y-74651973D01*
X50195373Y-74651973D01*
X50144146Y-74559298D01*
X50092919Y-74466622D01*
X50092919Y-71775595D01*
X50144146Y-71682919D01*
X50195373Y-71590244D01*
X49112211Y-71590244D01*
X49104379Y-74439162D01*
X49065981Y-74521168D01*
X49045736Y-74561815D01*
X49022813Y-74602532D01*
X49005501Y-74627574D01*
X49005458Y-74627622D01*
X49001255Y-74633440D01*
X48639202Y-74633440D01*
X48638506Y-74559098D01*
X48637570Y-74417290D01*
X48636828Y-74257119D01*
X48636243Y-74077447D01*
X48635779Y-73877137D01*
X48635400Y-73655052D01*
X48635069Y-73410056D01*
X48634749Y-73141012D01*
X48634404Y-72846782D01*
X48633998Y-72526230D01*
X48633945Y-72487424D01*
X48633492Y-72168903D01*
X48633059Y-71876572D01*
X48632677Y-71609293D01*
X48632380Y-71365929D01*
X48632198Y-71145342D01*
X48632165Y-70946395D01*
X48632311Y-70767950D01*
X48632670Y-70608871D01*
X48633274Y-70468019D01*
X48634154Y-70344257D01*
X48635342Y-70236447D01*
X48636871Y-70143453D01*
X48638772Y-70064137D01*
X48641078Y-69997360D01*
X48643821Y-69941987D01*
X48647032Y-69896879D01*
X48650745Y-69860899D01*
X48654990Y-69832909D01*
X48659801Y-69811772D01*
X48665208Y-69796351D01*
X48671245Y-69785508D01*
X48677943Y-69778106D01*
X48685335Y-69773007D01*
X48693451Y-69769073D01*
X48702325Y-69765168D01*
X48711989Y-69760154D01*
X48714817Y-69758556D01*
X48757604Y-69743089D01*
X48804443Y-69736732D01*
X48857244Y-69736734D01*
X48858124Y-69856867D01*
X48858347Y-69870692D01*
X48875129Y-70011215D01*
X48917873Y-70143435D01*
X48985983Y-70265952D01*
X49078868Y-70377363D01*
X49128712Y-70422803D01*
X49239695Y-70498120D01*
X49360788Y-70550643D01*
X49488465Y-70580342D01*
X49619197Y-70587190D01*
X49749460Y-70571159D01*
X49875725Y-70532221D01*
X49979522Y-70478135D01*
X50438907Y-70478135D01*
X50499319Y-70521599D01*
X50550410Y-70562448D01*
X50622403Y-70629076D01*
X50704060Y-70712580D01*
X50792290Y-70809778D01*
X50884000Y-70917487D01*
X50907617Y-70946290D01*
X50947827Y-70995692D01*
X51000387Y-71060505D01*
X51063556Y-71138566D01*
X51135592Y-71227711D01*
X51214754Y-71325778D01*
X51299302Y-71430604D01*
X51387493Y-71540024D01*
X51427944Y-71590244D01*
X51477586Y-71651876D01*
X51567840Y-71763997D01*
X51656515Y-71874224D01*
X51741868Y-71980392D01*
X51822158Y-72080340D01*
X51895644Y-72171903D01*
X51960585Y-72252919D01*
X52015240Y-72321224D01*
X52057866Y-72374655D01*
X52086724Y-72411048D01*
X52100071Y-72428242D01*
X52101173Y-72434703D01*
X52097508Y-72446992D01*
X52088013Y-72466325D01*
X52071738Y-72494074D01*
X52047736Y-72531610D01*
X52015060Y-72580304D01*
X51972761Y-72641529D01*
X51919891Y-72716654D01*
X51855503Y-72807052D01*
X51778648Y-72914094D01*
X51688380Y-73039152D01*
X51583749Y-73183596D01*
X51463809Y-73348798D01*
X51368242Y-73480297D01*
X51251648Y-73640605D01*
X51149088Y-73781387D01*
X51059369Y-73904204D01*
X50981300Y-74010619D01*
X50913688Y-74102195D01*
X50855338Y-74180494D01*
X50805060Y-74247079D01*
X50761661Y-74303511D01*
X50723946Y-74351354D01*
X50690725Y-74392169D01*
X50660803Y-74427520D01*
X50632989Y-74458968D01*
X50606090Y-74488076D01*
X50578913Y-74516406D01*
X50550265Y-74545522D01*
X50444692Y-74651973D01*
X51864054Y-74652031D01*
X51859595Y-74566019D01*
X51859379Y-74561697D01*
X51858532Y-74527313D01*
X51860137Y-74494368D01*
X51865266Y-74461058D01*
X51874993Y-74425578D01*
X51890391Y-74386125D01*
X51912534Y-74340893D01*
X51942495Y-74288077D01*
X51981348Y-74225874D01*
X52030166Y-74152477D01*
X52090022Y-74066084D01*
X52161990Y-73964890D01*
X52247143Y-73847088D01*
X52346554Y-73710876D01*
X52461298Y-73554449D01*
X52866325Y-73003041D01*
X52869893Y-73642382D01*
X52870209Y-73702020D01*
X52870767Y-73862657D01*
X52870513Y-73999289D01*
X52869150Y-74114502D01*
X52866377Y-74210883D01*
X52861898Y-74291016D01*
X52855413Y-74357487D01*
X52846623Y-74412883D01*
X52835230Y-74459788D01*
X52820935Y-74500788D01*
X52803440Y-74538469D01*
X52782447Y-74575417D01*
X52757655Y-74614217D01*
X52732734Y-74651973D01*
X54027884Y-74651973D01*
X53994429Y-74607352D01*
X53989190Y-74600293D01*
X53947302Y-74535594D01*
X53918427Y-74470190D01*
X53899466Y-74395248D01*
X53887321Y-74301933D01*
X53886987Y-74297865D01*
X53885225Y-74259375D01*
X53883633Y-74195156D01*
X53882220Y-74106676D01*
X53880992Y-73995403D01*
X53879956Y-73862803D01*
X53879118Y-73710345D01*
X53878486Y-73539496D01*
X53878067Y-73351722D01*
X53877868Y-73148493D01*
X53877895Y-72931274D01*
X53878155Y-72701535D01*
X53878655Y-72460741D01*
X53879185Y-72244748D01*
X53879752Y-72009635D01*
X53880311Y-71799279D01*
X53880930Y-71612206D01*
X53881681Y-71446942D01*
X53882634Y-71302013D01*
X53883858Y-71175947D01*
X53885423Y-71067268D01*
X53887401Y-70974504D01*
X53889860Y-70896180D01*
X53892871Y-70830822D01*
X53896504Y-70776958D01*
X53900829Y-70733113D01*
X53905916Y-70697813D01*
X53911835Y-70669585D01*
X53918657Y-70646955D01*
X53926451Y-70628449D01*
X53935288Y-70612594D01*
X53945237Y-70597915D01*
X53956369Y-70582940D01*
X53968754Y-70566193D01*
X53980732Y-70549412D01*
X54003885Y-70516231D01*
X54017753Y-70495298D01*
X54018088Y-70494421D01*
X54013246Y-70490462D01*
X53996157Y-70487159D01*
X53964921Y-70484461D01*
X53917635Y-70482317D01*
X53852398Y-70480676D01*
X53767310Y-70479489D01*
X53660467Y-70478703D01*
X53529969Y-70478269D01*
X53373914Y-70478135D01*
X52719722Y-70478135D01*
X52754200Y-70519110D01*
X52774182Y-70547253D01*
X52807443Y-70613608D01*
X52836591Y-70696135D01*
X52858838Y-70787679D01*
X52860256Y-70796369D01*
X52864474Y-70842183D01*
X52867669Y-70912989D01*
X52869849Y-71009275D01*
X52871021Y-71131532D01*
X52871195Y-71280251D01*
X52870378Y-71455922D01*
X52866325Y-72042412D01*
X52447568Y-71512859D01*
X52435574Y-71497690D01*
X52329381Y-71363255D01*
X52238721Y-71248124D01*
X52162151Y-71150339D01*
X52098227Y-71067943D01*
X52045507Y-70998978D01*
X52002549Y-70941486D01*
X51967909Y-70893510D01*
X51940145Y-70853093D01*
X51917814Y-70818276D01*
X51899472Y-70787103D01*
X51883678Y-70757615D01*
X51868988Y-70727855D01*
X51846390Y-70675177D01*
X51831791Y-70619606D01*
X51827908Y-70559666D01*
X51828298Y-70478135D01*
X50438907Y-70478135D01*
X49979522Y-70478135D01*
X49994466Y-70470348D01*
X50102157Y-70385511D01*
X50132094Y-70355602D01*
X50220577Y-70244862D01*
X50283364Y-70124684D01*
X50320789Y-69994291D01*
X50333189Y-69852910D01*
X50333189Y-69736730D01*
X52304088Y-69736730D01*
X52427220Y-69736725D01*
X52691743Y-69736689D01*
X52930702Y-69736663D01*
X53145418Y-69736699D01*
X53337213Y-69736849D01*
X53507407Y-69737166D01*
X53657323Y-69737702D01*
X53788282Y-69738508D01*
X53901605Y-69739638D01*
X53998614Y-69741144D01*
X54080629Y-69743077D01*
X54148974Y-69745491D01*
X54204968Y-69748436D01*
X54249933Y-69751966D01*
X54285191Y-69756133D01*
X54312063Y-69760989D01*
X54331871Y-69766586D01*
X54345935Y-69772976D01*
X54355578Y-69780212D01*
X54362121Y-69788346D01*
X54366885Y-69797431D01*
X54371192Y-69807518D01*
X54376363Y-69818659D01*
X54376455Y-69818841D01*
X54378966Y-69826134D01*
X54381268Y-69838347D01*
X54383372Y-69856605D01*
X54385286Y-69882037D01*
X54387018Y-69915769D01*
X54388578Y-69958928D01*
X54389973Y-70012641D01*
X54391213Y-70078035D01*
X54392307Y-70156238D01*
X54393263Y-70248376D01*
X54394090Y-70355576D01*
X54394797Y-70478966D01*
X54395393Y-70619671D01*
X54395885Y-70778820D01*
X54396284Y-70957540D01*
X54396597Y-71156957D01*
X54396833Y-71378198D01*
X54397002Y-71622390D01*
X54397112Y-71890661D01*
X54397172Y-72184137D01*
X54397189Y-72503946D01*
X54397190Y-72566773D01*
X54397220Y-72883249D01*
X54397267Y-73173615D01*
X54397295Y-73439007D01*
X54397267Y-73680560D01*
X54397150Y-73899410D01*
X54396905Y-74096691D01*
X54396498Y-74273539D01*
X54395893Y-74431090D01*
X54395054Y-74570479D01*
X54394315Y-74651973D01*
X54393945Y-74692840D01*
G37*
%TD*%
M02*
