M48
; DRILL file {KiCad 8.0.6} date 2024-11-27T00:55:32-0800
; FORMAT={-:-/ absolute / inch / decimal}
; #@! TF.CreationDate,2024-11-27T00:55:32-08:00
; #@! TF.GenerationSoftware,Kicad,Pcbnew,8.0.6
; #@! TF.FileFunction,Plated,1,2,PTH
FMAT,2
INCH
; #@! TA.AperFunction,Plated,PTH,ViaDrill
T1C0.0157
; #@! TA.AperFunction,Plated,PTH,ComponentDrill
T2C0.0394
%
G90
G05
T1
X1.75Y-2.47
X1.925Y-3.05
X2.0355Y-2.7105
X2.1577Y-2.7577
X2.1972Y-2.7472
X2.2Y-2.4
X2.225Y-2.775
X2.26Y-2.825
X2.2808Y-2.7377
X2.35Y-2.925
X2.4Y-2.825
X2.4Y-3.0215
X2.4035Y-2.6715
X2.425Y-2.525
X2.45Y-2.7
X2.45Y-3.0
X2.475Y-2.425
X2.5Y-3.0
X2.5071Y-2.7648
X2.525Y-2.5
X2.57Y-2.7
X2.595Y-2.7657
X2.595Y-2.82
X2.6002Y-2.41
X2.72Y-2.79
X2.725Y-2.4
X2.725Y-3.175
X2.775Y-2.75
X2.81Y-2.45
X2.88Y-2.415
X2.9Y-2.6
X2.9Y-2.9
X2.925Y-3.0
X2.925Y-3.2
X2.95Y-2.775
X2.975Y-2.45
X3.025Y-2.775
X3.1Y-2.5173
T2
X1.58Y-2.525
X1.58Y-2.625
X1.665Y-3.38
X1.765Y-3.38
X1.865Y-3.38
X1.965Y-3.38
X2.065Y-3.38
X2.165Y-3.38
X2.265Y-3.38
X2.365Y-3.38
X2.465Y-3.38
X2.665Y-3.38
X2.765Y-3.38
X2.865Y-3.38
X2.965Y-3.38
X3.15Y-2.6
X3.15Y-2.7
X3.15Y-2.8
X3.25Y-2.6
X3.25Y-2.7
X3.25Y-2.8
X3.25Y-3.0
X3.25Y-3.1
X3.25Y-3.2
X3.25Y-3.3
M30
